<?xml version="1.0" encoding="utf-8"?>
<!-- Generator: Adobe Illustrator 26.3.1, SVG Export Plug-In . SVG Version: 6.00 Build 0)  -->
<svg version="1.1" id="圖層_1" xmlns="http://www.w3.org/2000/svg" xmlns:xlink="http://www.w3.org/1999/xlink" x="0px" y="0px"
	 viewBox="0 0 512 512" style="enable-background:new 0 0 512 512;" xml:space="preserve">
<style type="text/css">
	.st0{fill:#3DBCBA;}
	.st1{fill:#FFFFFF;}
</style>
<path class="st0" d="M416,32c35.3,0,64,28.7,64,64v320c0,35.3-28.7,64-64,64H96c-35.3,0-64-28.7-64-64V96c0-35.3,28.7-64,64-64H416z
	"/>
<g>
	<path class="st1" d="M184.9,230c-2,0-3.7,0.5-5.2,1.5c-1.6,1-2.7,2.5-3.2,4.3l-16.2,53.3l-16-51.8c-0.6-2.2-1.9-4-3.7-5.3
		c-1.8-1.3-3.8-1.9-6-1.9c-2.2,0-4.2,0.7-6,1.9c-1.8,1.3-3.1,3.1-3.7,5.3l-16.1,51.9l-16.2-53.3c-0.6-1.8-1.6-3.2-3.2-4.3
		c-1.5-1-3.3-1.5-5.2-1.5c-2.5,0-4.7,0.9-6.5,2.7c-1.8,1.8-2.7,4-2.7,6.5c0,1,0.2,2.2,0.6,3.3l22.2,65c0.8,2.4,2.2,4.4,4.2,5.9
		c2.1,1.5,4.4,2.3,6.9,2.3s4.8-0.8,6.9-2.3c2-1.5,3.5-3.5,4.4-6l14.5-45.1l14.5,45.2c0.9,2.5,2.3,4.5,4.4,6c2.1,1.5,4.4,2.3,6.9,2.3
		s4.8-0.8,6.9-2.3c2.1-1.5,3.5-3.5,4.2-5.8l22.2-65c0.4-1.1,0.6-2.2,0.6-3.3c0-2.5-0.9-4.7-2.7-6.5C189.6,230.9,187.4,230,184.9,230
		z"/>
	<path class="st1" d="M265.7,234.7c-6.3-3.6-13.7-5.4-21.9-5.4c-8.2,0-15.6,1.8-22,5.4c-6.4,3.6-11.4,8.8-14.9,15.5
		c-3.5,6.6-5.2,14.2-5.2,22.6c0,8.3,1.8,15.9,5.2,22.5c3.5,6.7,8.5,11.9,14.8,15.6l0,0c6.3,3.6,13.7,5.4,22.1,5.4
		c8.1,0,15.5-1.8,21.8-5.4c6.4-3.6,11.5-8.9,15.1-15.6c3.5-6.5,5.2-14.1,5.2-22.5c0-8.4-1.8-16-5.2-22.6
		C277.2,243.6,272.2,238.4,265.7,234.7z M255.3,296.3c-3.7,1.8-7.5,2.8-11.4,2.8c-4.3,0-8.3-1-11.8-2.9c-3.5-1.9-6.3-4.7-8.4-8.5
		c-2.3-3.7-3.5-8.8-3.5-15c0-5.9,1.1-10.9,3.3-14.8c2.2-3.9,5.2-6.8,8.8-8.7c3.7-1.7,7.5-2.6,11.5-2.6c4.3,0,8.3,1,11.8,2.9
		c3.5,1.9,6.3,4.7,8.4,8.4c2.3,3.7,3.5,8.7,3.5,14.9c0,5.9-1.1,10.9-3.3,14.9C261.9,291.5,258.9,294.4,255.3,296.3z"/>
	<path class="st1" d="M343.2,229.2h-0.8c-8.2,0-15.7,3.6-22.4,10.8v-0.7c0-2.5-0.9-4.7-2.8-6.6c-1.8-1.8-4.1-2.8-6.6-2.8
		c-2.5,0-4.7,0.9-6.5,2.8c-1.8,1.8-2.7,4-2.7,6.5v67c0,2.5,0.9,4.7,2.7,6.5s4,2.7,6.5,2.7c2.5,0,4.7-0.9,6.5-2.7
		c1.9-1.8,2.8-4,2.8-6.5v-46.9c2.7-3.9,5.9-6.9,9.5-9c3.8-2.2,8-3.3,12.5-3.3h0.8c2.6,0,4.8-0.8,6.6-2.5c1.8-1.7,2.8-3.8,2.8-6.4
		c0-2.5-0.9-4.7-2.6-6.5C347.9,230.1,345.7,229.2,343.2,229.2z"/>
	<path class="st1" d="M434.5,198.4c-1.8-1.9-4-2.8-6.5-2.8c-2.5,0-4.7,0.9-6.5,2.7c-1.9,1.8-2.8,4-2.8,6.7v33.3
		c-7.1-6-15.4-9.1-24.6-9.1c-7,0-13.6,1.8-19.6,5.3c-6,3.5-10.9,8.6-14.6,15.1c-3.8,6.6-5.7,14.4-5.7,23.2c0,8.5,1.9,16.2,5.6,22.9
		c3.7,6.7,8.8,11.9,15.1,15.4c6.1,3.5,12.6,5.3,19.3,5.3c9.2,0,17.5-3.1,24.6-9.1c0.2,2.2,1.1,4.1,2.8,5.7c1.8,1.8,4,2.7,6.5,2.7
		c2.5,0,4.7-0.9,6.5-2.7s2.7-4,2.7-6.5V205C437.2,202.5,436.3,200.3,434.5,198.4z M396.2,298.8c-7.4,0-13-2.2-17.2-6.8
		c-4.2-4.5-6.3-11-6.3-19.2c0-8.2,2.1-14.7,6.3-19.2c4.2-4.6,9.8-6.8,17.2-6.8c4.3,0,8.4,1,12.3,2.9c3.8,1.9,7.2,4.4,10.2,7.4v31.2
		c-3,3.1-6.5,5.6-10.2,7.4l0,0C404.6,297.8,400.4,298.8,396.2,298.8z"/>
</g>
<text transform="matrix(1 0 0 1 80.292 -89.2266)" class="st1" style="font-family:'jf-openhuninn-1.1'; font-size:160px;">word</text>
</svg>
