<?xml version="1.0" encoding="utf-8"?>
<!-- Generator: Adobe Illustrator 26.3.1, SVG Export Plug-In . SVG Version: 6.00 Build 0)  -->
<svg version="1.1" id="圖層_1" xmlns="http://www.w3.org/2000/svg" xmlns:xlink="http://www.w3.org/1999/xlink" x="0px" y="0px"
	 viewBox="0 0 512 512" style="enable-background:new 0 0 512 512;" xml:space="preserve">
<style type="text/css">
	.st0{fill:#3DBCBA;}
</style>
<path class="st0" d="M416,32c35.3,0,64,28.7,64,64v320c0,35.3-28.7,64-64,64H96c-35.3,0-64-28.7-64-64V96c0-35.3,28.7-64,64-64H416z
	 M416,80H96c-8.8,0-16,7.2-16,16v320c0,8.8,7.2,16,16,16h320c8.8,0,16-7.2,16-16V96C432,87.2,424.8,80,416,80z"/>
<g>
	<path class="st0" d="M209.4,379c-2.1-1.9-3.2-4.9-3.2-8.8c0-8,4.4-12,13.1-12h17c3.5,0,6.2-1,8.1-2.9c1.9-1.9,2.8-4.6,2.8-7.9V302
		H145.8c-8.9,0-13.4-3.4-13.4-10.3c0-3.7,1.1-6.4,3.2-8.1c2.1-1.7,5.5-2.5,10.2-2.5h101.3v-12c0-7.4,1.9-13.1,5.8-17
		c0.7-0.7,1.8-1.4,3.1-2.1c1.3-0.6,2.2-1.2,2.8-1.5l37-16.4c0.6-0.2,1.4-0.5,2.5-1s1.9-0.9,2.2-1.3c0.4-0.4,0.6-0.7,0.6-1.1
		c0-0.9-0.7-1.4-1.9-1.4H180.3c-3.9,0-6.7-0.8-8.5-2.5s-2.6-4.2-2.6-7.5s0.9-5.8,2.6-7.5c1.8-1.7,4.6-2.5,8.5-2.5h142.2
		c6.7,0,11.7,1,15,2.9s5,4.7,5,8.2c0,3.2-0.6,5.6-1.8,7.4c-1.2,1.8-3.8,3.6-7.7,5.4l-16.4,8.3c-16.7,8.9-29.7,15.1-39,18.6
		c-3.3,1.3-5.5,2.7-6.4,4.3c-0.9,1.6-1.4,3.7-1.4,6.3v12.2h96.3c4.6,0,8,0.8,10.2,2.5c2.1,1.7,3.2,4.4,3.2,8.1
		c0,6.9-4.5,10.3-13.4,10.3h-96.3v48.4c0,11.3-2.4,19.4-7.1,24.2c-4.7,4.8-12.8,7.2-24.1,7.2h-19.5C214.8,381.9,211.5,381,209.4,379
		z M137.7,225.4c-1.9-2.1-2.8-5.5-2.8-10.2v-26.7c-0.7-10,1.1-17.3,5.6-21.7s11.6-6.3,21.4-5.6h81.5v-17c0-9.5,4.2-14.2,12.5-14.2
		c4.3,0,7.4,1.2,9.3,3.5s2.9,5.9,2.9,10.7v17h81.5c9.8-0.7,17,1.1,21.4,5.6s6.3,11.7,5.6,21.7v26.7c0,4.6-0.9,8-2.8,10.2
		c-1.9,2.1-4.7,3.2-8.6,3.2s-6.7-1.1-8.5-3.2c-1.8-2.1-2.6-5.5-2.6-10.2V196c0-4.5-1.2-7.8-3.6-10.2c-2.4-2.3-5.8-3.5-10.3-3.5
		H171.4c-9.1,0-13.6,4.5-13.6,13.6v19.2c0,4.6-0.9,8-2.8,10.2c-1.9,2.1-4.7,3.2-8.6,3.2S139.6,227.5,137.7,225.4z"/>
</g>
</svg>
