<?xml version="1.0" encoding="utf-8"?>
<!-- Generator: Adobe Illustrator 27.1.1, SVG Export Plug-In . SVG Version: 6.00 Build 0)  -->
<svg version="1.1" id="圖層_1" xmlns="http://www.w3.org/2000/svg" xmlns:xlink="http://www.w3.org/1999/xlink" x="0px" y="0px"
	 viewBox="0 0 512 512" style="enable-background:new 0 0 512 512;" xml:space="preserve">
<style type="text/css">
	.st0{fill:#3DBCBA;}
	.st1{fill:#3DBCBA;stroke:#3DBCBA;stroke-width:3;stroke-miterlimit:10;}
</style>
<path class="st0" d="M416,32c35.3,0,64,28.7,64,64v320c0,35.3-28.7,64-64,64H96c-35.3,0-64-28.7-64-64V96c0-35.3,28.7-64,64-64H416z
	 M416,80H96c-8.8,0-16,7.2-16,16v320c0,8.8,7.2,16,16,16h320c8.8,0,16-7.2,16-16V96C432,87.2,424.8,80,416,80z"/>
<g>
	<path class="st0" d="M345.6,218.6c-1.9-1.5-4.6-2.2-8.4-2.2h-69.5v-7.5c0-1.6,0.3-2.9,0.8-3.9c0.3-0.6,1.3-1.4,3.9-2.5
		c6.9-2.6,16.6-7.2,28.9-13.8l12-6.1c3.2-1.5,5.3-3,6.3-4.5c1.1-1.6,1.6-3.6,1.6-6.3c0-3.1-1.5-5.7-4.4-7.3
		c-2.7-1.6-6.7-2.3-11.8-2.3H200.2c-3.3,0-5.7,0.7-7.3,2.3c-1.6,1.6-2.4,3.8-2.4,6.6c0,2.9,0.8,5.1,2.4,6.6c1.6,1.5,4,2.3,7.3,2.3
		h86.2c-0.6,0.3-1.1,0.5-1.6,0.6l-27.5,12.2c-0.2,0.1-0.4,0.2-0.6,0.4c-0.4,0.2-0.8,0.5-1.5,0.8c-1.2,0.7-2.1,1.2-2.6,1.8
		c-3.1,3.1-4.7,7.7-4.7,13.6v7.3h-73.2c-3.9,0-6.7,0.7-8.5,2.2c-1.9,1.6-2.9,4-2.9,7.1c0,4.1,2,9.1,11.4,9.1h73.2v32
		c0,2.1-0.5,3.7-1.6,4.8c-1.1,1.1-2.8,1.7-4.9,1.7H229c-9.2,0-11.2,5.6-11.2,10.3c0,3.3,1,5.9,2.8,7.6c1.6,1.6,4.1,2.4,7,2.4
		c0.4,0,0.8,0,1.2,0h14.3c8.8,0,15.1-1.9,18.8-5.8c3.8-3.8,5.7-10.2,5.7-18.9v-34.2h69.5c9.4,0,11.4-4.9,11.4-9.1
		C348.5,222.6,347.6,220.2,345.6,218.6z"/>
	<path class="st0" d="M165.3,169.5c0,3.9,0.8,6.7,2.5,8.5c1.7,1.8,4.2,2.8,7.5,2.8c3.2,0,5.7-1,7.5-2.9c1.6-1.9,2.4-4.7,2.4-8.5
		v-14.1c0-5.9,2.6-8.5,8.5-8.5h124.4c2.9,0,5,0.7,6.5,2.1c1.5,1.5,2.2,3.6,2.2,6.5v14.1c0,3.9,0.7,6.7,2.3,8.5
		c1.6,1.9,4.1,2.9,7.4,2.9c3.2,0,5.7-1,7.5-2.9c1.6-1.9,2.4-4.7,2.4-8.5v-19.6c0.5-7.7-1-13.5-4.6-17.1c-3.5-3.6-9.2-5.1-16.9-4.6
		h-58.5v-11c0-3.9-0.8-6.8-2.5-8.8c-1.7-2.1-4.4-3.1-8-3.1c-4.9,0-10.7,2.1-10.7,12v11h-58.5c-7.6-0.5-13.2,1-16.9,4.6
		c-3.6,3.5-5.1,9.3-4.6,17.1V169.5z"/>
</g>
<g>
	<path class="st1" d="M260.7-46.8c-1.5-1.4-2.4-3.6-2.4-6.5c0-5.9,3.2-8.8,9.7-8.8h12.5c2.6,0,4.6-0.7,6-2.1s2.1-3.4,2.1-5.8v-33.5
		h-74.7c-6.6,0-9.9-2.5-9.9-7.6c0-2.7,0.8-4.7,2.4-6c1.5-1.3,4.1-1.8,7.5-1.8h74.7v-8.8c0-5.5,1.4-9.7,4.3-12.5
		c0.5-0.5,1.3-1,2.3-1.5c1-0.4,1.6-0.9,2.1-1.1l27.3-12.1c0.4-0.1,1-0.4,1.8-0.7c0.8-0.4,1.4-0.7,1.6-1c0.3-0.3,0.4-0.5,0.4-0.8
		c0-0.7-0.5-1-1.4-1h-87.6c-2.9,0-4.9-0.6-6.3-1.8c-1.3-1.3-1.9-3.1-1.9-5.5c0-2.4,0.7-4.3,1.9-5.5c1.3-1.3,3.4-1.8,6.3-1.8H344
		c4.9,0,8.6,0.7,11.1,2.1c2.4,1.4,3.7,3.5,3.7,6c0,2.4-0.4,4.1-1.3,5.5c-0.9,1.3-2.8,2.7-5.7,4l-12.1,6.1
		c-12.3,6.6-21.9,11.1-28.7,13.7c-2.4,1-4.1,2-4.7,3.2c-0.7,1.2-1,2.7-1,4.6v9h71c3.4,0,5.9,0.6,7.5,1.8c1.5,1.3,2.4,3.2,2.4,6
		c0,5.1-3.3,7.6-9.9,7.6h-71V-68c0,8.3-1.8,14.3-5.2,17.8c-3.5,3.5-9.4,5.3-17.8,5.3h-14.4C264.7-44.6,262.2-45.3,260.7-46.8z
		 M207.9-160c-1.4-1.5-2.1-4.1-2.1-7.5v-19.7c-0.5-7.4,0.8-12.7,4.1-16c3.3-3.2,8.5-4.6,15.8-4.1h60.1v-12.5c0-7,3.1-10.5,9.2-10.5
		c3.2,0,5.5,0.9,6.9,2.6c1.4,1.7,2.1,4.3,2.1,7.9v12.5H364c7.2-0.5,12.5,0.8,15.8,4.1c3.2,3.3,4.6,8.6,4.1,16v19.7
		c0,3.4-0.7,5.9-2.1,7.5c-1.4,1.5-3.5,2.4-6.3,2.4c-2.9,0-4.9-0.8-6.3-2.4c-1.3-1.5-1.9-4.1-1.9-7.5v-14.1c0-3.3-0.9-5.7-2.7-7.5
		c-1.8-1.7-4.3-2.6-7.6-2.6H232.7c-6.7,0-10,3.3-10,10v14.1c0,3.4-0.7,5.9-2.1,7.5c-1.4,1.5-3.5,2.4-6.3,2.4S209.3-158.4,207.9-160z
		"/>
</g>
<g>
	<path class="st0" d="M261.2,389.8h-34c-0.1,0-0.1,0-0.1,0c0-0.1,0.1-0.1,0.1-0.2l38.3-44.9l0.1-0.1c1.5-2,2.2-4.2,2.2-6.6
		c0-2.7-0.9-4.9-2.7-6.8c-1.8-1.8-4.1-2.7-6.9-2.7h-43.6c-2.1,0-3.8,0.7-5.2,2.2c-1.4,1.5-2.1,3.2-2.1,5.2c0,2,0.7,3.8,2.1,5.2
		c1.4,1.4,3.2,2.1,5.2,2.1h33.4h0.1c0,0.1-0.1,0.1-0.1,0.3l-39.4,45.2c-1.7,2-2.6,4.3-2.6,6.8c0,2.7,1,4.8,3,6.5
		c1.9,1.6,4.4,2.4,7.3,2.4H261c2,0,3.8-0.7,5.2-2.1c1.5-1.4,2.2-3.2,2.2-5.2c0-2-0.7-3.8-2.2-5.2
		C264.9,390.5,263.1,389.8,261.2,389.8z"/>
	<path class="st0" d="M298.4,323c1.5,0,2.8-0.5,3.8-1.5c0.9-1,1.4-2.2,1.4-3.6c0-1-0.4-2.1-1.2-3.5l-7.3-12.7
		c-1.2-2.3-3.2-3.5-5.9-3.5c-1.9,0-3.5,0.6-4.7,1.8c-1.3,1.2-1.8,2.8-1.8,4.9c0,1.8,0.6,3.3,1.7,4.5l9.9,11.8
		C295.4,322.3,296.8,323,298.4,323z"/>
	<path class="st0" d="M303.9,330.2c-1.5-1.5-3.4-2.3-5.6-2.3c-2.1,0-4,0.8-5.5,2.4c-1.5,1.5-2.3,3.4-2.3,5.5v61.8
		c0,2.1,0.7,4,2.3,5.5c1.5,1.5,3.3,2.3,5.5,2.3s4-0.7,5.5-2.3c1.5-1.5,2.4-3.3,2.4-5.5v-61.8C306.2,333.6,305.4,331.7,303.9,330.2z"
		/>
</g>
</svg>
