<?xml version="1.0" encoding="utf-8"?>
<!-- Generator: Adobe Illustrator 26.3.1, SVG Export Plug-In . SVG Version: 6.00 Build 0)  -->
<svg version="1.1" id="圖層_1" xmlns="http://www.w3.org/2000/svg" xmlns:xlink="http://www.w3.org/1999/xlink" x="0px" y="0px"
	 viewBox="0 0 512 512" style="enable-background:new 0 0 512 512;" xml:space="preserve">
<style type="text/css">
	.st0{fill:#3DBCBA;}
	.st1{fill:#FFFFFF;}
	.st2{fill:#FFFFFF;stroke:#FFFFFF;stroke-width:3;stroke-miterlimit:10;}
</style>
<path class="st0" d="M416,32c35.3,0,64,28.7,64,64v320c0,35.3-28.7,64-64,64H96c-35.3,0-64-28.7-64-64V96c0-35.3,28.7-64,64-64H416z
	"/>
<text transform="matrix(1 0 0 1 -154.9492 -57.9688)" class="st1" style="font-family:'jf-openhuninn-1.1'; font-size:200px; letter-spacing:10;">zì</text>
<g>
	<path class="st1" d="M254.1,294.7H208c-0.1,0-0.1,0-0.2,0c0-0.1,0.1-0.2,0.1-0.3l52-60.9l0.1-0.1c2-2.7,3-5.7,3-8.9
		c0-3.7-1.2-6.7-3.7-9.2c-2.4-2.4-5.6-3.7-9.4-3.7h-59.2c-2.8,0-5.1,1-7,3c-1.9,2-2.9,4.4-2.9,7.1c0,2.7,1,5.1,2.9,7
		c1.9,1.9,4.3,2.9,7,2.9h45.3c0,0,0.1,0,0.1,0c0,0.1-0.1,0.2-0.2,0.4l-53.4,61.4c-2.3,2.7-3.5,5.8-3.5,9.2c0,3.6,1.4,6.5,4.1,8.8
		c2.6,2.2,6,3.3,9.9,3.3h60.9c2.7,0,5.1-1,7.1-2.9c2-1.9,3-4.3,3-7c0-2.7-1-5.1-3-7.1C259.2,295.7,256.8,294.7,254.1,294.7z"/>
	<path class="st1" d="M304.7,204c2.1,0,3.8-0.7,5.1-2c1.2-1.3,1.9-3,1.9-4.9c0-1.3-0.5-2.8-1.6-4.7l-9.9-17.3
		c-1.6-3.1-4.3-4.7-8-4.7c-2.6,0-4.8,0.8-6.4,2.4c-1.7,1.6-2.5,3.8-2.5,6.6c0,2.5,0.8,4.5,2.3,6.1l13.4,16
		C300.5,203.1,302.4,204,304.7,204z"/>
	<path class="st1" d="M312.1,213.8c-2-2-4.6-3.1-7.6-3.1c-2.9,0-5.4,1.1-7.4,3.2c-2,2.1-3.1,4.6-3.1,7.5v83.8c0,2.9,1,5.4,3.1,7.4
		s4.5,3.1,7.4,3.1c2.9,0,5.4-1,7.5-3.1c2.1-2,3.2-4.5,3.2-7.4v-83.8C315.2,218.4,314.2,215.9,312.1,213.8z"/>
</g>
<g>
	<path class="st2" d="M184.2-68.7c-2.3-2-3.5-4.5-3.5-7.6c0-3,1-5.7,3.1-8.2l53.5-61.5c0.4-0.6,0.6-1.2,0.6-1.6
		c0-0.8-0.6-1.2-1.8-1.2h-45.3c-2.3,0-4.3-0.8-6-2.4c-1.6-1.6-2.4-3.6-2.4-6s0.8-4.4,2.4-6.1c1.6-1.7,3.6-2.5,6-2.5H250
		c3.4,0,6.2,1.1,8.3,3.2s3.2,4.9,3.2,8.1c0,2.9-0.9,5.5-2.7,8l-52,60.9c-0.4,0.5-0.6,1-0.6,1.6c0,0.8,0.6,1.2,1.8,1.2h46.1
		c2.3,0,4.4,0.8,6.1,2.5c1.7,1.7,2.5,3.7,2.5,6.1s-0.8,4.3-2.5,6c-1.7,1.6-3.7,2.4-6.1,2.4h-60.9C189.5-65.8,186.5-66.8,184.2-68.7z
		"/>
	<path class="st2" d="M300.2-178.7l-13.5-16c-1.3-1.3-2-3-2-5.1c0-2.3,0.7-4.2,2.1-5.5c1.4-1.3,3.2-2,5.4-2c3.1,0,5.3,1.3,6.6,3.9
		l10,17.4c0.9,1.6,1.4,2.9,1.4,3.9c0,1.6-0.5,2.9-1.5,3.9c-1,1-2.3,1.6-4,1.6C302.9-176.5,301.4-177.2,300.2-178.7z M298.2-67.4
		c-1.8-1.8-2.6-3.9-2.6-6.3v-83.8c0-2.5,0.9-4.6,2.6-6.4c1.8-1.8,3.9-2.7,6.3-2.7c2.6,0,4.8,0.9,6.5,2.6s2.6,3.9,2.6,6.5v83.8
		c0,2.5-0.9,4.6-2.7,6.3c-1.8,1.8-4,2.6-6.4,2.6C302.1-64.8,299.9-65.7,298.2-67.4z"/>
</g>
</svg>
