<?xml version="1.0" encoding="utf-8"?>
<!-- Generator: Adobe Illustrator 27.1.1, SVG Export Plug-In . SVG Version: 6.00 Build 0)  -->
<svg version="1.1" id="圖層_1" xmlns="http://www.w3.org/2000/svg" xmlns:xlink="http://www.w3.org/1999/xlink" x="0px" y="0px"
	 viewBox="0 0 512 512" style="enable-background:new 0 0 512 512;" xml:space="preserve">
<style type="text/css">
	.st0{fill:#3DBCBA;}
</style>
<g>
	<path class="st0" d="M280.2,292.7v-80.8c0-13.4-10.8-24.2-24.2-24.2s-24.2,10.8-24.2,24.2v80.8c0,0.1,0,0.2,0,0.3
		c-6.1,6.1-9.8,14.6-9.8,23.9c0,18.8,15.2,34,34,34s34-15.2,34-34c0-9.3-3.7-17.7-9.8-23.9C280.2,292.9,280.2,292.8,280.2,292.7z"/>
	<path class="st0" d="M443,265.8c-4.5-32.8-17.5-63.9-37.8-90.1l22-22c3.9-3.9,4-10.3,0-14.3c0,0,0,0,0,0l-23.9-23.9
		c-3.9-3.9-10.3-4-14.3,0c0,0,0,0,0,0l-22.7,22.7l-0.3-0.3c-24.9-17.9-53.8-29.5-84.2-33.6V78.4h22.4c5.3,0,9.6-4.3,9.6-9.6V41.6
		c0-5.3-4.3-9.6-9.6-9.6h-96.1c-5.3,0-9.6,4.3-9.6,9.6v27.2c0,5.3,4.3,9.6,9.6,9.6h22.4v25.8C127.3,118.3,55,213.4,69,316.7
		c14.1,103.3,109.2,175.6,212.4,161.5S457,369,443,265.8z M256.3,434.9C256.3,434.9,256.3,434.9,256.3,434.9
		c-80,0-144.7-64.8-144.7-144.7c0-79.9,64.8-144.7,144.7-144.7c79.9,0,144.7,64.8,144.7,144.7C400.9,370.1,336.2,434.9,256.3,434.9z
		"/>
</g>
</svg>
