<?xml version="1.0" encoding="utf-8"?>
<!-- Generator: Adobe Illustrator 26.3.1, SVG Export Plug-In . SVG Version: 6.00 Build 0)  -->
<svg version="1.1" id="圖層_1" xmlns="http://www.w3.org/2000/svg" xmlns:xlink="http://www.w3.org/1999/xlink" x="0px" y="0px"
	 viewBox="0 0 512 512" style="enable-background:new 0 0 512 512;" xml:space="preserve">
<style type="text/css">
	.st0{fill:#3DBCBA;}
</style>
<g>
	<path class="st0" d="M134.8,183.7c0-7.1,4.2-10.6,12.5-10.6h76c8.5,0,12.8,3.5,12.8,10.6s-4.3,10.6-12.8,10.6h-76
		C139,194.3,134.8,190.8,134.8,183.7z M144.8,146.1c0-7.1,4.2-10.6,12.5-10.6h56.8c8.3,0,12.5,3.5,12.5,10.6s-4.2,10.6-12.5,10.6
		h-56.8C149,156.7,144.8,153.2,144.8,146.1z M145.9,220.5c0-6.7,4-10,12-10h55.4c8.1,0,12.2,3.4,12.2,10.3c0,6.7-4.1,10-12.2,10
		h-55.4C149.9,230.8,145.9,227.3,145.9,220.5z M145.9,257.8c0-6.9,4-10.3,12-10.3h55.4c8.1,0,12.2,3.4,12.2,10.3
		c0,6.7-4.1,10-12.2,10h-54.9C150.1,267.8,145.9,264.5,145.9,257.8z M146.5,344.9v-37.8c0-15.2,7.7-22.8,23.1-22.8h32
		c15.6,0,23.4,7.6,23.4,22.8v37.3c0,15.4-7.8,23.1-23.4,23.1h-32C154.2,367.5,146.5,360,146.5,344.9z M203.8,341v-30.6
		c0-4.5-2.2-6.7-6.7-6.7H174c-4.1,0-6.3,2.2-6.7,6.7V341c0,2.2,0.6,3.9,1.8,5.1s2.9,1.8,4.9,1.8h23.1
		C201.2,348,203.5,345.7,203.8,341z M316.6,364.4c0-8,3.9-12,11.7-12h14.8c7,0,10.8-3.8,11.1-11.4V168.4c0-3.1-0.8-5.5-2.4-7
		s-3.9-2.3-7.1-2.5h-98.9c-8.9,0-13.4-3.6-13.4-10.9c0-7.4,4.5-11.1,13.4-11.1h106.7c8.9,0,15.4,2,19.4,6s5.7,10.4,5.1,19.1v184.6
		c1.5,21-8.5,30.9-30.1,29.8h-18.7C320.5,376.4,316.6,372.4,316.6,364.4z M240,196.5c0-6.7,4.3-10,12.8-10h71.6
		c8.3,0,12.5,3.4,12.5,10c0,6.9-4.2,10.3-12.5,10.3h-71.6C244.3,206.8,240,203.4,240,196.5z M248.7,321.7c-3.7-3.6-5.4-9.4-5-17.4
		v-47.1c0-8.4,1.8-14.4,5.6-18.2c3.7-3.8,9.4-5.5,17.3-5.2h41.2c8.1,0,14.1,1.9,17.8,5.6c3.7,3.7,5.4,9.6,5,17.8v47.1
		c0,8.4-1.9,14.4-5.6,18.1s-9.5,5.3-17.3,4.7h-41.2C258.3,327.1,252.4,325.3,248.7,321.7z M309.4,299v-37c0-5.4-3.2-8.1-9.5-8.1h-27
		c-5.2,0-8,2.7-8.4,8.1v37c0,5,2.8,7.7,8.4,8.1h27C305.9,307.1,309,304.4,309.4,299z"/>
</g>
<path class="st0" d="M416,32c35.3,0,64,28.7,64,64v320c0,35.3-28.7,64-64,64H96c-35.3,0-64-28.7-64-64V96c0-35.3,28.7-64,64-64H416z
	 M416,80H96c-8.8,0-16,7.2-16,16v320c0,8.8,7.2,16,16,16h320c8.8,0,16-7.2,16-16V96C432,87.2,424.8,80,416,80z"/>
</svg>
