<?xml version="1.0" encoding="utf-8"?>
<!-- Generator: Adobe Illustrator 26.3.1, SVG Export Plug-In . SVG Version: 6.00 Build 0)  -->
<svg version="1.1" id="圖層_1" xmlns="http://www.w3.org/2000/svg" xmlns:xlink="http://www.w3.org/1999/xlink" x="0px" y="0px"
	 viewBox="0 0 512 512" style="enable-background:new 0 0 512 512;" xml:space="preserve">
<style type="text/css">
	.st0{fill:#3DBCBA;}
</style>
<polygon class="st0" points="323.9,125.9 220,195.8 220,221.1 335.7,143.3 "/>
<polygon class="st0" points="335.1,373.1 220,293.1 220,318.7 323.1,390.3 "/>
<path class="st0" d="M-163.6,32c15.8,0,28.6,12.8,28.6,28.6v142.9c0,15.8-12.8,28.6-28.6,28.6h-142.8c-15.8,0-28.6-12.8-28.6-28.6
	V60.6c0-15.8,12.8-28.6,28.6-28.6C-306.4,32-163.6,32-163.6,32z"/>
<path class="st0" d="M-445.9,176c12.6,0,22.9,10.2,22.9,22.9v114.3c0,12.6-10.2,22.9-22.9,22.9h-114.2c-12.6,0-22.9-10.2-22.9-22.9
	V198.9c0-12.6,10.2-22.9,22.9-22.9H-445.9z M-445.9,193.1h-114.2c-3.1,0-5.7,2.6-5.7,5.7v114.3c0,3.1,2.6,5.7,5.7,5.7h114.3
	c3.1,0,5.7-2.6,5.7-5.7V198.9C-440.1,195.7-442.7,193.1-445.9,193.1z"/>
<path class="st0" d="M-163.6,280c15.8,0,28.6,12.8,28.6,28.6v142.9c0,15.8-12.8,28.6-28.6,28.6h-142.8c-15.8,0-28.6-12.8-28.6-28.6
	V308.6c0-15.8,12.8-28.6,28.6-28.6H-163.6z"/>
<polygon class="st0" points="-328.1,125.9 -432,195.8 -432,221.1 -316.3,143.3 "/>
<polygon class="st0" points="-316.9,373.1 -432,293.1 -432,318.7 -328.9,390.3 "/>
<path class="st0" d="M169.1-356c12.6,0,22.9,10.2,22.9,22.9v114.3c0,12.6-10.2,22.9-22.9,22.9H54.9c-12.6,0-22.9-10.2-22.9-22.9
	v-114.3c0-12.6,10.2-22.9,22.9-22.9H169.1z"/>
<path class="st0" d="M457.1,52c12.6,0,22.9,10.2,22.9,22.9v114.3c0,12.6-10.2,22.9-22.9,22.9H342.9c-12.6,0-22.9-10.2-22.9-22.9
	V74.9c0-12.6,10.2-22.9,22.9-22.9H457.1z"/>
<path class="st0" d="M457.1,300c12.6,0,22.9,10.2,22.9,22.9v114.3c0,12.6-10.2,22.9-22.9,22.9H342.9c-12.6,0-22.9-10.2-22.9-22.9
	V322.9c0-12.6,10.2-22.9,22.9-22.9H457.1z"/>
<polygon class="st0" points="286.9,-406.1 183,-336.2 183,-310.9 298.7,-388.7 "/>
<polygon class="st0" points="298.1,-158.9 183,-238.9 183,-213.3 286.1,-141.7 "/>
<path class="st0" d="M451.4-500c15.8,0,28.6,12.8,28.6,28.6v142.9c0,15.8-12.8,28.6-28.6,28.6H308.6c-15.8,0-28.6-12.8-28.6-28.6
	v-142.9c0-15.8,12.8-28.6,28.6-28.6H451.4z M451.4-478.6H308.6c-3.9,0-7.1,3.2-7.1,7.1v142.9c0,3.9,3.2,7.1,7.1,7.1h142.9
	c3.9,0,7.1-3.3,7.1-7.1v-142.8C458.6-475.4,455.4-478.6,451.4-478.6z"/>
<path class="st0" d="M451.4-252c15.8,0,28.6,12.8,28.6,28.6v142.9c0,15.8-12.8,28.6-28.6,28.6H308.6c-15.8,0-28.6-12.8-28.6-28.6
	v-142.9c0-15.8,12.8-28.6,28.6-28.6H451.4z M451.4-230.6H308.6c-3.9,0-7.1,3.3-7.1,7.1v142.9c0,3.9,3.2,7.1,7.1,7.1h142.9
	c3.9,0,7.1-3.3,7.1-7.1v-142.8C458.6-227.4,455.4-230.6,451.4-230.6z"/>
<path class="st0" d="M203.4,155.9c15.8,0,28.6,12.8,28.6,28.6v142.9c0,15.8-12.8,28.6-28.6,28.6H60.6c-15.7,0-28.6-12.8-28.6-28.6
	V184.6c0-15.8,12.8-28.6,28.6-28.6H203.4z M203.4,177.3H60.6c-3.9,0-7.1,3.3-7.1,7.1v142.9c0,3.9,3.2,7.1,7.1,7.1h142.9
	c3.9,0,7.1-3.3,7.1-7.1V184.6C210.6,180.6,207.4,177.3,203.4,177.3z"/>
</svg>
