<?xml version="1.0" encoding="utf-8"?>
<!-- Generator: Adobe Illustrator 26.3.1, SVG Export Plug-In . SVG Version: 6.00 Build 0)  -->
<svg version="1.1" id="圖層_1" xmlns="http://www.w3.org/2000/svg" xmlns:xlink="http://www.w3.org/1999/xlink" x="0px" y="0px"
	 viewBox="0 0 512 512" style="enable-background:new 0 0 512 512;" xml:space="preserve">
<style type="text/css">
	.st0{opacity:0.6;fill:#B8860B;}
	.st1{opacity:0.6;fill:url(#SVGID_1_);enable-background:new    ;}
	.st2{fill:#9B6C0D;}
	.st3{fill:none;stroke:#9B6C0D;stroke-width:30;stroke-linecap:round;stroke-linejoin:round;stroke-miterlimit:10;}
	.st4{fill:#82570C;}
</style>
<path class="st0" d="M432.7,15.1h-56.2c-8.9,0-16.1,7.2-16.1,16.1v48.2h-48.2V31.1c0-8.9-7.2-16.1-16.1-16.1h-80.3
	c-8.9,0-16.1,7.2-16.1,16.1v48.2h-48.1V31.1c0-8.9-7.2-16.1-16.1-16.1H79.3c-8.9,0-16.1,7.2-16.1,16.1v176.7l64.3,32.1
	c0,48.5-1.5,95.4-13.3,160.6h283.5c-11.7-65.3-13.3-112.7-13.3-160.6l64.3-32.1V31.1C448.8,22.3,441.6,15.1,432.7,15.1z
	 M432.7,432.7H79.3c-8.9,0-16.1,7.2-16.1,16.1v32.1c0,8.9,7.2,16.1,16.1,16.1h353.4c8.9,0,16.1-7.2,16.1-16.1v-32.1
	C448.8,439.9,441.6,432.7,432.7,432.7z"/>
<linearGradient id="SVGID_1_" gradientUnits="userSpaceOnUse" x1="43.7875" y1="470.1625" x2="468.1625" y2="45.7875" gradientTransform="matrix(1 0 0 -1 0 514)">
	<stop  offset="0" style="stop-color:#FFFFFF"/>
	<stop  offset="0.5" style="stop-color:#FFFFFF;stop-opacity:0"/>
	<stop  offset="1" style="stop-color:#FFFFFF"/>
</linearGradient>
<path class="st1" d="M432.7,15.1h-56.2c-8.9,0-16.1,7.2-16.1,16.1v48.2h-48.2V31.1c0-8.9-7.2-16.1-16.1-16.1h-80.3
	c-8.9,0-16.1,7.2-16.1,16.1v48.2h-48.1V31.1c0-8.9-7.2-16.1-16.1-16.1H79.3c-8.9,0-16.1,7.2-16.1,16.1v176.7l64.3,32.1
	c0,48.5-1.5,95.4-13.3,160.6h283.5c-11.7-65.3-13.3-112.7-13.3-160.6l64.3-32.1V31.1C448.8,22.3,441.6,15.1,432.7,15.1z
	 M432.7,432.7H79.3c-8.9,0-16.1,7.2-16.1,16.1v32.1c0,8.9,7.2,16.1,16.1,16.1h353.4c8.9,0,16.1-7.2,16.1-16.1v-32.1
	C448.8,439.9,441.6,432.7,432.7,432.7z"/>
<g>
	<path class="st2" d="M432.7,512H79.3c-17.2,0-31.1-14-31.1-31.1v-32.1c0-17.2,14-31.1,31.1-31.1h353.4c17.2,0,31.1,14,31.1,31.1
		v32.1C463.8,498,449.9,512,432.7,512z M79.3,447.7c-0.6,0-1,0.4-1,1v32.1c0,0.6,0.5,1,1,1h353.4c0.6,0,1-0.5,1-1v-32.1
		c0-0.6-0.5-1-1-1H79.3z M397.8,415.6H114.2c-4.5,0-8.7-2-11.6-5.4s-4.1-7.9-3.3-12.3c11.2-62.2,12.8-107.8,13-148.7l-55.9-28
		c-5.1-2.6-8.3-7.8-8.3-13.5V31.1C48.2,14,62.1,0,79.3,0h56.3c17.2,0,31.1,14,31.1,31.1v33.1h18V31.1c0-17.2,14-31.1,31.1-31.1h80.3
		c17.2,0,31.1,14,31.1,31.1v33.1h18.1V31.1c0-17.2,14-31.1,31.1-31.1h56.2c17.2,0,31.1,14,31.1,31.1v176.7c0,5.7-3.2,10.9-8.3,13.5
		l-55.9,28c0.2,40.8,1.8,86.5,13,148.7c0.8,4.4-0.4,8.9-3.3,12.3C406.5,413.6,402.2,415.6,397.8,415.6z M132.1,385.5H380
		c-9.6-60.2-10.5-104.9-10.5-145.6c0-5.7,3.2-10.9,8.3-13.5l55.9-28V31.1c0-0.6-0.5-1-1-1h-56.2c-0.6,0-1,0.5-1,1v48.2
		c0,8.3-6.7,15.1-15.1,15.1h-48.2c-8.3,0-15.1-6.7-15.1-15.1V31.1c0-0.6-0.5-1-1-1h-80.3c-0.6,0-1,0.5-1,1v48.2
		c0,8.3-6.7,15.1-15.1,15.1h-48.1c-8.3,0-15.1-6.7-15.1-15.1V31.1c0-0.6-0.4-1-1-1H79.3c-0.6,0-1,0.5-1,1v167.4l55.9,28
		c5.1,2.6,8.3,7.8,8.3,13.5C142.6,280.6,141.7,325.3,132.1,385.5z M448.8,207.8L448.8,207.8L448.8,207.8z"/>
</g>
<path class="st3" d="M-112,1h-56c-8.8,0-16,7.2-16,16v48h-48V17c0-8.8-7.2-16-16-16h-80c-8.8,0-16,7.2-16,16v48h-47.9V17
	c0-8.8-7.2-16-16-16H-464c-8.8,0-16,7.2-16,16v176l64,32c0,48.3-1.5,95-13.2,160h282.4c-11.7-65-13.2-112.3-13.2-160l64-32V17
	C-96,8.2-103.2,1-112,1z M-112,417h-352c-8.8,0-16,7.2-16,16v32c0,8.8,7.2,16,16,16h352c8.8,0,16-7.2,16-16v-32
	C-96,424.2-103.2,417-112,417z"/>
<g>
	<g>
		<path class="st4" d="M608.2,45.5c0,8.9-2.7,16-8,21.2c-5.3,5.3-11.9,8.9-19.7,10.8V78c10.3,1.2,18.2,4.3,23.5,9.4
			c5.3,5,8,11.8,8,20.3c0,7.4-1.8,14.1-5.5,20.1c-3.7,5.9-9.3,10.6-16.9,14c-7.6,3.4-17.4,5.1-29.4,5.1c-13.9,0-26.3-2.3-37.1-7v-23
			c5.5,2.8,11.3,4.9,17.4,6.3s11.7,2.2,16.8,2.2c9.7,0,16.5-1.7,20.4-5c3.9-3.4,5.8-8.1,5.8-14.2c0-3.6-0.9-6.6-2.7-9.1
			s-5-4.3-9.5-5.6s-10.8-1.9-18.8-1.9h-9.7V68.7h9.9c7.9,0,14-0.7,18.1-2.2s7-3.5,8.5-6.1s2.2-5.5,2.2-8.9c0-4.6-1.4-8.1-4.2-10.7
			c-2.8-2.6-7.5-3.9-14.1-3.9c-6.1,0-11.4,1.1-15.9,3.1c-4.5,2.1-8.3,4.2-11.4,6.2l-12.6-18.7c5-3.6,10.9-6.6,17.7-9
			c6.8-2.4,14.9-3.6,24.2-3.6c13.2,0,23.7,2.7,31.4,8C604.4,28.3,608.2,35.8,608.2,45.5z"/>
	</g>
</g>
<g>
	<text transform="matrix(1 0 0 1 699.2446 286.2249)" class="st2" style="font-family:'NotoSans-Bold'; font-size:180px;">3</text>
</g>
<text transform="matrix(1 0 0 1 625.6938 427.1695)" style="fill:#DBB100; font-family:'NotoSans-Bold'; font-size:180px;">3</text>
<g>
	<path class="st4" d="M301,185.4c0,9.9-3,17.7-8.9,23.6c-5.9,5.9-13.2,9.9-21.9,12v0.6c11.5,1.3,20.2,4.8,26.1,10.4
		c5.9,5.6,8.9,13.1,8.9,22.6c0,8.3-2,15.7-6.1,22.3c-4.1,6.6-10.3,11.8-18.8,15.6c-8.5,3.8-19.4,5.7-32.7,5.7
		c-15.5,0-29.2-2.6-41.2-7.8v-25.6c6.1,3.1,12.6,5.4,19.3,7c6.7,1.6,13,2.4,18.7,2.4c10.8,0,18.4-1.9,22.7-5.6
		c4.3-3.7,6.5-9,6.5-15.8c0-4-1-7.4-3-10.1c-2-2.7-5.5-4.8-10.5-6.2c-5-1.4-12-2.1-20.9-2.1h-10.8v-23.2h11c8.8,0,15.5-0.8,20.1-2.5
		c4.6-1.7,7.7-3.9,9.4-6.8c1.7-2.9,2.5-6.2,2.5-9.9c0-5.1-1.6-9-4.7-11.9c-3.1-2.9-8.4-4.3-15.7-4.3c-6.8,0-12.7,1.2-17.7,3.5
		c-5,2.3-9.2,4.6-12.7,6.9l-14-20.8c5.6-4,12.2-7.3,19.7-10c7.5-2.7,16.5-4,26.9-4c14.7,0,26.3,3,34.9,8.9
		C296.7,166.2,301,174.6,301,185.4z"/>
</g>
</svg>
