<?xml version="1.0" encoding="utf-8"?>
<!-- Generator: Adobe Illustrator 26.3.1, SVG Export Plug-In . SVG Version: 6.00 Build 0)  -->
<svg version="1.1" id="圖層_1" xmlns="http://www.w3.org/2000/svg" xmlns:xlink="http://www.w3.org/1999/xlink" x="0px" y="0px"
	 viewBox="0 0 512 512" style="enable-background:new 0 0 512 512;" xml:space="preserve">
<style type="text/css">
	.st0{opacity:0.6;fill:#FFA500;}
	.st1{opacity:0.6;fill:url(#SVGID_1_);enable-background:new    ;}
	.st2{fill:#D88500;}
	.st3{fill:none;stroke:#D88500;stroke-width:30;stroke-linecap:round;stroke-linejoin:round;stroke-miterlimit:10;}
	.st4{fill:#B56B00;}
</style>
<path class="st0" d="M256,120.5c29.1,0,52.7-23.6,52.7-52.7S285.1,15.1,256,15.1s-52.7,23.6-52.7,52.7S226.9,120.5,256,120.5z
	 M421.6,436.7H90.4c-8.3,0-15.1,6.7-15.1,15.1v30.1c0,8.3,6.7,15.1,15.1,15.1h331.3c8.3,0,15.1-6.7,15.1-15.1v-30.1
	C436.7,443.4,430,436.7,421.6,436.7z M490.2,188.4l-26.8-15c-7-4.7-15.9-2.3-21,4.4c-10.3,13.8-27.6,20.4-44.5,17.2
	c-21.8-4-36.6-24.7-36.6-46.8c0-7-5.6-12.6-12.6-12.6h-36.5c-5.6,0-10.9,3.8-12.1,9.3c-5.1,24.4-29.1,40-53.5,34.9
	c-17.5-3.7-31.2-17.4-34.9-34.9c-1.2-5.6-6.4-9.3-12.1-9.3h-36.5c-7,0-12.6,5.6-12.6,12.6c0,24.2-17.9,45.9-42,47.5
	c-15.3,1.1-30-5.7-39.1-18c-5-6.7-13.9-8.9-20.8-4.3l-26.9,15.1c-6.3,4.2-8.5,12.5-5.1,19.3l96.5,198.9h285.7l96.5-198.9
	C498.7,200.9,496.6,192.6,490.2,188.4z"/>
<linearGradient id="SVGID_1_" gradientUnits="userSpaceOnUse" x1="77.2387" y1="381.4511" x2="434.8262" y2="23.8637" gradientTransform="matrix(1 0 0 -1 0 514)">
	<stop  offset="0" style="stop-color:#FFFFFF"/>
	<stop  offset="0.5" style="stop-color:#FFFFFF;stop-opacity:0"/>
	<stop  offset="1" style="stop-color:#FFFFFF"/>
</linearGradient>
<path class="st1" d="M256,120.5c29.1,0,52.7-23.6,52.7-52.7S285.1,15.1,256,15.1s-52.7,23.6-52.7,52.7S226.9,120.5,256,120.5z
	 M421.6,436.7H90.4c-8.3,0-15.1,6.7-15.1,15.1v30.1c0,8.3,6.7,15.1,15.1,15.1h331.3c8.3,0,15.1-6.7,15.1-15.1v-30.1
	C436.7,443.4,430,436.7,421.6,436.7z M490.2,188.4l-26.8-15c-7-4.7-15.9-2.3-21,4.4c-10.3,13.8-27.6,20.4-44.5,17.2
	c-21.8-4-36.6-24.7-36.6-46.8c0-7-5.6-12.6-12.6-12.6h-36.5c-5.6,0-10.9,3.8-12.1,9.3c-5.1,24.4-29.1,40-53.5,34.9
	c-17.5-3.7-31.2-17.4-34.9-34.9c-1.2-5.6-6.4-9.3-12.1-9.3h-36.5c-7,0-12.6,5.6-12.6,12.6c0,24.2-17.9,45.9-42,47.5
	c-15.3,1.1-30-5.7-39.1-18c-5-6.7-13.9-8.9-20.8-4.3l-26.9,15.1c-6.3,4.2-8.5,12.5-5.1,19.3l96.5,198.9h285.7l96.5-198.9
	C498.7,200.9,496.6,192.6,490.2,188.4z"/>
<g>
	<path class="st2" d="M421.6,512H90.4c-16.6,0-30.1-13.5-30.1-30.1v-30.1c0-16.6,13.5-30.1,30.1-30.1h331.3
		c16.6,0,30.1,13.5,30.1,30.1v30.1C451.8,498.5,438.3,512,421.6,512z M90.4,451.8v30.1h331.3v-30.1H90.4z M398.8,421.6H113.2
		c-5.8,0-11-3.3-13.5-8.5L3.1,214.3c-6.7-13.5-2.3-30,10.3-38.4c0.3-0.2,0.7-0.4,1-0.6l26.5-14.8c13.4-8.5,30.8-5.1,40.7,8.2
		c6.1,8.2,15.8,12.7,26,12c15.5-1,28-15.6,28-32.5c0-15.3,12.4-27.7,27.7-27.7h36.5c12.9,0,24.2,8.9,26.8,21.3
		c2.5,11.7,11.6,20.8,23.3,23.3c7.9,1.7,15.9,0.2,22.7-4.2c6.7-4.4,11.4-11.2,13-19c2.6-12.3,13.9-21.3,26.8-21.3h36.5
		c15.3,0,27.7,12.4,27.7,27.7c0,15.7,10.4,29.5,24.2,32h0.1c11.1,2.2,22.7-2.3,29.5-11.4c10.1-13.3,27.5-16.8,40.8-8.3l26.4,14.7
		c0.3,0.2,0.7,0.4,1,0.6c12.6,8.4,17,24.9,10.3,38.4l-96.5,198.9C409.9,418.4,404.6,421.6,398.8,421.6z M122.6,391.5h266.8
		L481.8,201c0,0,0-0.1,0.1-0.1l-25.8-14.4c-0.3-0.1-0.5-0.3-0.8-0.5c-0.2,0.1-0.5,0.4-0.9,0.8c-11.3,15.2-29.4,24-48.1,24
		c-3.7,0-7.5-0.4-11.2-1.1c-27.5-5.1-47.7-29.8-48.8-59.2h-32.1c-3.7,14.6-12.7,27.1-25.4,35.4c-13.5,8.8-29.6,11.8-45.3,8.5
		c-22.5-4.7-40.2-21.8-45.9-43.9h-32.1c-1.2,31.8-25.4,58-56,60.1c-20.5,1.4-40-7.6-52.2-24.1c-0.2-0.3-0.4-0.4-0.6-0.5
		c-0.2,0.2-0.5,0.3-0.7,0.4L30.1,201c0,0,0,0.1,0.1,0.1L122.6,391.5z M256,135.5c-37.4,0-67.8-30.4-67.8-67.8S218.6,0,256,0
		s67.8,30.4,67.8,67.8S293.4,135.5,256,135.5z M256,30.1c-20.8,0-37.6,16.9-37.6,37.6s16.9,37.6,37.6,37.6s37.6-16.9,37.6-37.6
		S276.8,30.1,256,30.1z"/>
</g>
<path class="st3" d="M-364,115c29,0,52.5-23.5,52.5-52.5S-335,10-364,10s-52.5,23.5-52.5,52.5S-393,115-364,115z M-199,430h-330
	c-8.3,0-15,6.7-15,15v30c0,8.3,6.7,15,15,15h330c8.3,0,15-6.7,15-15v-30C-184,436.7-190.7,430-199,430z M-130.7,182.7l-26.7-14.9
	c-7-4.7-15.9-2.3-20.9,4.4c-10.3,13.7-27.5,20.4-44.3,17.1c-21.7-4-36.4-24.6-36.4-46.6c0-6.9-5.6-12.6-12.6-12.6h-36.3
	c-5.6,0-10.9,3.8-12.1,9.3c-5.1,24.3-29,39.9-53.3,34.8c-17.5-3.7-31.1-17.3-34.8-34.8c-1.2-5.6-6.4-9.3-12.1-9.3h-36.3
	c-6.9,0-12.6,5.6-12.6,12.6c0,24.1-17.8,45.7-41.9,47.3c-15.2,1.1-29.9-5.7-38.9-18c-4.9-6.6-13.8-8.9-20.7-4.3l-26.8,15
	c-6.3,4.2-8.5,12.4-5.1,19.2l96.1,198.1h284.5l96.1-198.2C-122.2,195.1-124.4,186.8-130.7,182.7z"/>
<g>
	<g>
		<path class="st4" d="M758.1,40.2h-89.8V21.3l32.2-32.6c6.5-6.7,11.7-12.3,15.7-16.8s6.8-8.6,8.6-12.2c1.8-3.7,2.7-7.6,2.7-11.8
			c0-5.2-1.4-9-4.2-11.5s-6.6-3.8-11.4-3.8c-4.9,0-9.7,1.1-14.4,3.4c-4.7,2.3-9.6,5.5-14.8,9.7l-14.8-17.5c3.7-3.2,7.7-6.2,11.8-9
			c4.1-2.8,8.9-5,14.4-6.8c5.5-1.7,12-2.6,19.7-2.6c8.4,0,15.6,1.5,21.7,4.6s10.7,7.2,14,12.4s4.9,11.1,4.9,17.7
			c0,7.1-1.4,13.6-4.2,19.4c-2.8,5.9-6.9,11.7-12.2,17.5c-5.3,5.8-11.8,12.1-19.4,19.1L702,16v1.3h56v22.9H758.1z"/>
	</g>
</g>
<g>
	<path class="st4" d="M306.1,362.2h-99.8v-21l35.8-36.2c7.2-7.5,13-13.7,17.4-18.7c4.4-5,7.6-9.5,9.6-13.6c2-4.1,3-8.4,3-13.1
		c0-5.7-1.6-10-4.7-12.8c-3.1-2.8-7.4-4.2-12.7-4.2c-5.5,0-10.8,1.3-16,3.8c-5.2,2.5-10.7,6.1-16.4,10.8l-16.4-19.4
		c4.1-3.6,8.5-6.9,13.1-10c4.6-3.1,9.9-5.6,16-7.5c6.1-1.9,13.4-2.9,21.9-2.9c9.3,0,17.4,1.7,24.1,5.1c6.7,3.4,11.9,8,15.6,13.8
		c3.7,5.8,5.5,12.4,5.5,19.7c0,7.9-1.6,15.1-4.7,21.6c-3.1,6.5-7.7,13-13.6,19.4c-5.9,6.4-13.1,13.5-21.5,21.2l-18.4,17.2v1.4h62.2
		V362.2z"/>
</g>
<text transform="matrix(1 0 0 1 750.2446 347.2249)" style="fill:#DBB100; font-family:'NotoSans-Bold'; font-size:180px;">2</text>
<text transform="matrix(1 0 0 1 686.1763 595.6985)" style="fill:#B59200;stroke:#B59200;stroke-miterlimit:10; font-family:'NotoSans-Black'; font-size:200px;">1</text>
</svg>
