<?xml version="1.0" encoding="utf-8"?>
<!-- Generator: Adobe Illustrator 26.3.1, SVG Export Plug-In . SVG Version: 6.00 Build 0)  -->
<svg version="1.1" id="圖層_1" xmlns="http://www.w3.org/2000/svg" xmlns:xlink="http://www.w3.org/1999/xlink" x="0px" y="0px"
	 viewBox="0 0 512 512" style="enable-background:new 0 0 512 512;" xml:space="preserve">
<style type="text/css">
	.st0{opacity:0.6;fill:#FFD700;enable-background:new    ;}
	.st1{opacity:0.6;fill:url(#SVGID_1_);enable-background:new    ;}
	.st2{fill:#DBB100;}
	.st3{fill:none;stroke:#DBB100;stroke-width:30;stroke-miterlimit:10;}
</style>
<path class="st0" d="M421.6,436.7H90.4c-8.3,0-15.1,6.7-15.1,15.1v30.1c0,8.3,6.7,15.1,15.1,15.1h331.2c8.3,0,15.1-6.7,15.1-15.1
	v-30.1C436.7,443.4,429.9,436.7,421.6,436.7z M436.7,165.7H286.1v-45.2h37.6c4.2,0,7.5-3.4,7.5-7.5V67.8c0-4.2-3.4-7.5-7.5-7.5
	h-37.6V22.6c0-4.2-3.4-7.5-7.5-7.5h-45.2c-4.2,0-7.5,3.4-7.5,7.5v37.6h-37.6c-4.2,0-7.5,3.4-7.5,7.5V113c0,4.2,3.4,7.5,7.5,7.5h37.6
	v45.2H75.3c-16.6,0-30.1,13.5-30.1,30.1c0,3,0.5,6.1,1.4,9l68.8,201.8h281.2l68.8-201.8c5-15.9-3.9-32.8-19.8-37.7
	C442.7,166.1,439.7,165.7,436.7,165.7z"/>
<linearGradient id="SVGID_1_" gradientUnits="userSpaceOnUse" x1="81.9183" y1="400.6317" x2="430.0746" y2="748.788" gradientTransform="matrix(1 0 0 1 0 -254)">
	<stop  offset="0" style="stop-color:#FFFFFF"/>
	<stop  offset="0.5" style="stop-color:#FFFFFF;stop-opacity:0"/>
	<stop  offset="1" style="stop-color:#FFFFFF"/>
</linearGradient>
<path class="st1" d="M421.6,436.7H90.4c-8.3,0-15.1,6.7-15.1,15.1v30.1c0,8.3,6.7,15.1,15.1,15.1h331.2c8.3,0,15.1-6.7,15.1-15.1
	v-30.1C436.7,443.4,429.9,436.7,421.6,436.7z M436.7,165.7H286.1v-45.2h37.6c4.2,0,7.5-3.4,7.5-7.5V67.8c0-4.2-3.4-7.5-7.5-7.5
	h-37.6V22.6c0-4.2-3.4-7.5-7.5-7.5h-45.2c-4.2,0-7.5,3.4-7.5,7.5v37.6h-37.6c-4.2,0-7.5,3.4-7.5,7.5V113c0,4.2,3.4,7.5,7.5,7.5h37.6
	v45.2H75.3c-16.6,0-30.1,13.5-30.1,30.1c0,3,0.5,6.1,1.4,9l68.8,201.8h281.2l68.8-201.8c5-15.9-3.9-32.8-19.8-37.7
	C442.7,166.1,439.7,165.7,436.7,165.7z"/>
<g>
	<path class="st2" d="M421.6,512H90.4c-16.6,0-30.2-13.5-30.2-30.2v-30.1c0-16.6,13.5-30.2,30.2-30.2h14.1L32.2,209.3
		c-1.4-4.4-2.1-8.9-2.1-13.4c0-12.1,4.7-23.4,13.2-32c8.5-8.5,19.9-13.3,32-13.3h135.4v-14.9h-22.5c-12.5,0-22.6-10.2-22.6-22.6
		V67.8c0-12.5,10.2-22.6,22.6-22.6h22.5V22.6c0-12.5,10.2-22.6,22.6-22.6h45.2c12.5,0,22.6,10.2,22.6,22.6v22.5h22.5
		c12.5,0,22.6,10.2,22.6,22.6V113c0,12.5-10.2,22.6-22.6,22.6h-22.5v14.9h135.4c4.6,0,9.1,0.7,13.4,2.1c11.5,3.6,21,11.5,26.6,22.2
		s6.7,22.9,3.1,34.5l-0.1,0.4l-72.2,211.9h14.1c16.6,0,30.2,13.5,30.2,30.2v30.1C451.8,498.5,438.2,512,421.6,512z M90.4,451.8
		l0.1,30l331.1-0.1l-0.1-30H90.4V451.8z M126.2,391.4h259.6L451,200.1c1.1-3.8,0.8-7.8-1.1-11.3s-5-6.2-8.8-7.4
		c-1.4-0.5-2.9-0.7-4.5-0.7H271v-75.4h45.2v-30H271V30.2h-30v45.2h-45.2v30H241v75.4H75.3c-4,0-7.8,1.6-10.6,4.4
		c-2.8,2.8-4.4,6.6-4.4,10.6c0,1.5,0.2,2.9,0.6,4.3L126.2,391.4z"/>
</g>
<path class="st3" d="M-229.7,438.2h-328.6c-8.2,0-14.9,6.7-14.9,14.9V483c0,8.2,6.7,14.9,14.9,14.9h328.6c8.2,0,14.9-6.7,14.9-14.9
	v-29.9C-214.8,444.9-221.4,438.2-229.7,438.2z M-214.8,169.4h-149.4v-44.8h37.3c4.1,0,7.5-3.3,7.5-7.5V72.3c0-4.1-3.3-7.5-7.5-7.5
	h-37.3V27.5c0-4.1-3.3-7.5-7.5-7.5h-44.8c-4.1,0-7.5,3.3-7.5,7.5v37.3h-37.3c-4.1,0-7.5,3.3-7.5,7.5v44.8c0,4.1,3.3,7.5,7.5,7.5
	h37.3v44.8h-149.4c-16.5,0-29.9,13.4-29.9,29.9c0,3,0.5,6,1.4,8.9l68.2,200.2h279l68.2-200.2c4.9-15.7-3.9-32.5-19.6-37.4
	C-208.7,169.8-211.7,169.4-214.8,169.4z"/>
<text transform="matrix(1 0 0 1 683.6938 412.1695)" style="fill:#B59200; font-family:'NotoSans-Black'; font-size:200px;">1</text>
<text transform="matrix(1 0 0 1 683.6938 412.1695)" style="fill:none;stroke:#B59200;stroke-miterlimit:10; font-family:'NotoSans-Black'; font-size:200px;">1</text>
<g>
	<path class="st2" d="M273.9,356.2h-39.2v-70.6c0-1.3,0-3.7,0-7.2s0.1-7.3,0.2-11.6c0.1-4.3,0.3-8.1,0.4-11.4
		c-1.7,2-3.3,3.7-4.7,5.2s-2.8,2.8-4.3,4L210.1,278l-20-24.6l49-40h34.8V356.2z"/>
</g>
</svg>
