<?xml version="1.0" encoding="utf-8"?>
<!-- Generator: Adobe Illustrator 26.3.1, SVG Export Plug-In . SVG Version: 6.00 Build 0)  -->
<svg version="1.1" id="圖層_1" xmlns="http://www.w3.org/2000/svg" xmlns:xlink="http://www.w3.org/1999/xlink" x="0px" y="0px"
	 viewBox="0 0 512 512" style="enable-background:new 0 0 512 512;" xml:space="preserve">
<style type="text/css">
	.st0{fill:#212529;}
	.st1{opacity:0.35;fill:url(#SVGID_1_);enable-background:new    ;}
	.st2{opacity:0.35;fill:url(#SVGID_00000076586342258617522940000014737001382891647633_);enable-background:new    ;}
</style>
<g>
	<path class="st0" d="M211.4,217H191c-7.1,0-13,5.9-13,13v26c0,7.1,5.9,13,13,13h13v4.5c0,35.7-3.3,70.4-19.5,99.5h143
		c-16.2-29.2-19.5-63.8-19.5-99.5V269h13c7.1,0,13-5.9,13-13v-26c0-7.1-5.9-13-13-13h-20.4c23.9-14.9,39.9-41.3,39.9-71.5
		c0-46.6-37.9-84.5-84.5-84.5s-84.5,37.9-84.5,84.5C171.5,175.8,187.5,202.1,211.4,217z M373,399H139c-7.1,0-13,5.9-13,13v26
		c0,7.1,5.9,13,13,13h234c7.1,0,13-5.9,13-13v-26C386,404.9,380.1,399,373,399z"/>
	
		<linearGradient id="SVGID_1_" gradientUnits="userSpaceOnUse" x1="119.175" y1="416.8983" x2="392.825" y2="690.5484" gradientTransform="matrix(1 0 0 1 0 -254)">
		<stop  offset="0" style="stop-color:#FFFFFF"/>
		<stop  offset="0.5" style="stop-color:#FFFFFF;stop-opacity:0"/>
		<stop  offset="1" style="stop-color:#FFFFFF"/>
	</linearGradient>
	<path class="st1" d="M211.4,217H191c-7.1,0-13,5.9-13,13v26c0,7.1,5.9,13,13,13h13v4.5c0,35.7-3.3,70.4-19.5,99.5h143
		c-16.2-29.2-19.5-63.8-19.5-99.5V269h13c7.1,0,13-5.9,13-13v-26c0-7.1-5.9-13-13-13h-20.4c23.9-14.9,39.9-41.3,39.9-71.5
		c0-46.6-37.9-84.5-84.5-84.5s-84.5,37.9-84.5,84.5C171.5,175.8,187.5,202.1,211.4,217z M373,399H139c-7.1,0-13,5.9-13,13v26
		c0,7.1,5.9,13,13,13h234c7.1,0,13-5.9,13-13v-26C386,404.9,380.1,399,373,399z"/>
	
		<linearGradient id="SVGID_00000021803134430749341130000016179769516967917187_" gradientUnits="userSpaceOnUse" x1="119.175" y1="416.8983" x2="392.825" y2="690.5484" gradientTransform="matrix(1 0 0 1 0 -254)">
		<stop  offset="0" style="stop-color:#FFFFFF"/>
		<stop  offset="0.5" style="stop-color:#FFFFFF;stop-opacity:0"/>
		<stop  offset="1" style="stop-color:#FFFFFF"/>
	</linearGradient>
	<path style="opacity:0.35;fill:url(#SVGID_00000021803134430749341130000016179769516967917187_);enable-background:new    ;" d="
		M211.4,217H191c-7.1,0-13,5.9-13,13v26c0,7.1,5.9,13,13,13h13v4.5c0,35.7-3.3,70.4-19.5,99.5h143c-16.2-29.2-19.5-63.8-19.5-99.5
		V269h13c7.1,0,13-5.9,13-13v-26c0-7.1-5.9-13-13-13h-20.4c23.9-14.9,39.9-41.3,39.9-71.5c0-46.6-37.9-84.5-84.5-84.5
		s-84.5,37.9-84.5,84.5C171.5,175.8,187.5,202.1,211.4,217z M373,399H139c-7.1,0-13,5.9-13,13v26c0,7.1,5.9,13,13,13h234
		c7.1,0,13-5.9,13-13v-26C386,404.9,380.1,399,373,399z"/>
	<path class="st0" d="M256,61c46.6,0,84.5,37.9,84.5,84.5c0,30.2-16,56.5-39.9,71.5H321c7.1,0,13,5.9,13,13v26c0,7.1-5.9,13-13,13
		h-13v4.5c0,35.7,3.3,70.4,19.5,99.5h-143c16.2-29.2,19.5-63.8,19.5-99.5V269h-13c-7.1,0-13-5.9-13-13v-26c0-7.1,5.9-13,13-13h20.4
		c-23.9-14.9-39.9-41.3-39.9-71.5C171.5,98.9,209.4,61,256,61 M373,399c7.1,0,13,5.9,13,13v26c0,7.1-5.9,13-13,13H139
		c-7.1,0-13-5.9-13-13v-26c0-7.1,5.9-13,13-13H373 M256,35c-60.9,0-110.5,49.6-110.5,110.5c0,19.1,5,37.9,14.4,54.3
		c0.8,1.3,1.5,2.6,2.3,3.8c-6.3,6.9-10.2,16.2-10.2,26.3v26c0,16.8,10.7,31.2,25.7,36.7c-1,23.2-4.7,47.6-15.9,67.8
		c-2.2,3.9-3.3,8.2-3.3,12.6H139c-21.5,0-39,17.5-39,39v26c0,21.5,17.5,39,39,39h234c21.5,0,39-17.5,39-39v-26c0-21.5-17.5-39-39-39
		h-19.5c0-4.3-1.1-8.7-3.3-12.6c-11.2-20.2-14.8-44.5-15.9-67.8c15-5.4,25.7-19.8,25.7-36.6v-26c0-10.1-3.9-19.3-10.2-26.3
		c0.8-1.3,1.6-2.5,2.3-3.8c9.4-16.5,14.4-35.3,14.4-54.3C366.5,84.6,316.9,35,256,35L256,35z"/>
</g>
</svg>
