<?xml version="1.0" encoding="utf-8"?>
<!-- Generator: Adobe Illustrator 27.1.1, SVG Export Plug-In . SVG Version: 6.00 Build 0)  -->
<svg version="1.1" id="圖層_1" xmlns="http://www.w3.org/2000/svg" xmlns:xlink="http://www.w3.org/1999/xlink" x="0px" y="0px"
	 viewBox="0 0 184.3 184.3" style="enable-background:new 0 0 184.3 184.3;" xml:space="preserve">
<style type="text/css">
	.st0{fill:#8F9193;}
	.st1{fill:#808081;}
	.st2{fill:#C85E66;}
	.st3{fill:#FF5151;}
	.st4{fill:#FFA9A9;}
	.st5{fill:#FFFFFF;}
	.st6{fill:#EFF0EF;}
</style>
<g>
	<g id="XMLID_00000043438499735489127780000008920050325598695861_">
		<g id="XMLID_00000018208725427106177650000010050811813609269944_">
			<g>
				<g>
					
						<rect id="XMLID_00000034070033546515083600000003609617575845069205_" x="87.2" y="10.6" transform="matrix(1 -1.690335e-03 1.690335e-03 1 -4.018317e-02 0.1555)" class="st0" width="9.6" height="26.5"/>
					<g>
						<path id="XMLID_00000040536383518946742030000000981603832834964621_" class="st0" d="M75.7,6.5L75.7,6.5
							c0-3.6,2.9-6.5,6.4-6.5h20.1c3.6,0,6.4,2.9,6.5,6.4l0,0c0,3.6-2.9,6.5-6.4,6.5H82.2C78.5,12.9,75.7,10.1,75.7,6.5z"/>
						<path class="st1" d="M102.1,0h-2.7c3.5,0,6.4,2.9,6.4,6.4c0,3.6-2.9,6.5-6.4,6.5H82.1l0,0h20.1c3.6,0,6.4-2.9,6.4-6.5
							C108.6,2.9,105.7,0,102.1,0z"/>
					</g>
				</g>
				<g>
					<g>
						
							<rect id="XMLID_00000169539529065892667670000005476579402358225046_" x="112" y="31.2" transform="matrix(0.7059 -0.7083 0.7083 0.7059 11.3512 99.2933)" class="st0" width="26.5" height="9.6"/>
						<g>
							<path id="XMLID_00000016767059454429037030000000760377698233897136_" class="st0" d="M125.9,12.1L125.9,12.1
								c2.5-2.5,6.6-2.5,9.1,0l14.2,14.2c2.5,2.5,2.5,6.6,0,9.1l0,0c-2.5,2.5-6.6,2.5-9.1,0l-14.2-14.2
								C123.4,18.7,123.4,14.7,125.9,12.1z"/>
							<path class="st1" d="M149.2,26.3l-1.9-1.9c2.5,2.5,2.5,6.6,0,9.1s-6.6,2.5-9.1,0l-12.3-12.2l0,0l14.2,14.2
								c2.5,2.5,6.6,2.5,9.1,0S151.7,28.8,149.2,26.3z"/>
						</g>
					</g>
					<g>
						
							<rect id="XMLID_00000103228729040418869500000011061547299430220712_" x="54.1" y="22.9" transform="matrix(0.7059 -0.7083 0.7083 0.7059 -8.261 52.3714)" class="st0" width="9.6" height="26.5"/>
						<g>
							<path id="XMLID_00000103957610274992427070000012481138791309702788_" class="st0" d="M35,35.4L35,35.4
								c-2.5-2.5-2.5-6.6,0-9.1l14.2-14.2c2.5-2.5,6.6-2.5,9.1,0l0,0c2.5,2.5,2.5,6.6,0,9.1L44.2,35.4C41.6,37.9,37.6,37.9,35,35.4z
								"/>
							<path class="st1" d="M49.2,12.1L47.3,14c2.5-2.5,6.6-2.5,9.1,0c2.5,2.5,2.5,6.6,0,9.1L44.1,35.4l0,0l14.2-14.2
								c2.5-2.5,2.5-6.6,0-9.1S51.7,9.6,49.2,12.1z"/>
						</g>
					</g>
				</g>
			</g>
			<g>
				
					<ellipse id="XMLID_00000025428232596432293700000013028906869031763856_" transform="matrix(0.2806 -0.9598 0.9598 0.2806 -35.5928 164.7673)" class="st2" cx="92.1" cy="106.1" rx="78.2" ry="78.1"/>
				
					<ellipse id="XMLID_00000036214082926840504280000017261407111202199956_" transform="matrix(0.2806 -0.9598 0.9598 0.2806 -35.5928 164.7673)" class="st3" cx="92.1" cy="106.1" rx="78.2" ry="78.1"/>
				
					<ellipse id="XMLID_00000039098965329945156780000000346601368057743517_" class="st4" cx="92.1" cy="106.1" rx="74.6" ry="74.6"/>
				<path id="XMLID_00000077317651515095800850000000155731612753105059_" class="st5" d="M140.4,66.7c-11.4-14-28.9-22.9-48.3-22.9
					c-34.4,0.1-62.3,28-62.2,62.4c0,10.7,2.7,20.7,7.5,29.5c10.6,19.5,31.2,32.7,54.9,32.7c34.4-0.1,62.3-28,62.2-62.4
					C154.4,91.1,149.1,77.4,140.4,66.7z"/>
				<path id="XMLID_00000142888410268574716490000002792757379950982801_" class="st6" d="M140.4,66.7c4.8,8.8,7.5,18.8,7.5,29.5
					c0.1,34.4-27.8,62.4-62.2,62.4c-19.5,0-36.9-8.9-48.3-22.9c10.6,19.5,31.2,32.7,54.9,32.7c34.4-0.1,62.3-28,62.2-62.4
					C154.4,91.1,149.1,77.4,140.4,66.7z"/>
			</g>
		</g>
	</g>
</g>
</svg>
