<?xml version="1.0" encoding="utf-8"?>
<!-- Generator: Adobe Illustrator 27.4.0, SVG Export Plug-In . SVG Version: 6.00 Build 0)  -->
<svg version="1.1" id="_圖層_1" xmlns="http://www.w3.org/2000/svg" xmlns:xlink="http://www.w3.org/1999/xlink" x="0px" y="0px"
	 viewBox="0 0 164.6 38.1" style="enable-background:new 0 0 164.6 38.1;" xml:space="preserve">
<style type="text/css">
	.st0{fill:#FFFFFF;stroke:#FFFFFF;stroke-miterlimit:10;}
	.st1{fill:#00AFEC;}
	.st2{fill:#00A73C;}
	.st3{fill:#F8BC00;}
	.st4{fill:#AB66A7;}
	.st5{fill:#DB610D;}
	.st6{fill:#F29A76;}
	.st7{fill:#E6E6E6;}
	.st8{fill:#CCCCCC;}
	.st9{fill:#515958;}
	.st10{fill:#0068B7;}
</style>
<path class="st0" d="M38,14.5h-1.4L36.4,14c-0.1-0.3-0.2-0.6-0.2-0.9v-0.9c0-0.4,0.1-0.7,0.2-1.1l0.1-0.4h2.7V1.3l-27.3,0
	c-1.6,0-5.5,0-8.4,2.8c-2,2-3,4.9-3,8.7c0,2.5,0.6,4.7,1.7,6.4c-1.1,1.8-1.7,4.2-1.7,7c0,7.3,4.9,11.5,13.4,11.5h25.3v-1.3
	c0.8-0.2,1.6-0.6,2.3-1.1c1-0.7,1.8-1.6,2.5-2.6l0.1-0.1c0.3-0.6,0.6-1.1,0.9-1.7c0.3-0.7,0.6-1.5,0.9-2.4c0,0,0-0.1,0-0.1
	c0.2,0.7,0.3,1.4,0.5,2.1c0.3,1.3,0.8,2.5,1.5,3.8c1,1.7,2.3,2.5,3.7,2.5h0.2c0.7-0.1,1.3-0.3,1.9-0.7c0.5-0.3,0.9-0.8,1.3-1.3
	l0-0.1l0.4-0.7l0.1-0.1c0.2-0.4,0.5-1.3,1.3-3.7c0.3,0.9,0.7,1.8,1.2,2.6c1.8,3.1,4.1,3.8,5.6,3.8c1,0,1.9-0.3,2.8-1
	c0.7,0.7,1.6,1.1,2.6,1.1h0.3c1.2-0.1,2.2-0.5,3.2-1.2c0.9-0.6,1.7-1.4,2.3-2.2l0.1-0.1l0.1-0.1c0.3-0.6,0.6-1.2,0.9-1.9l0.1-0.2
	c0.3-0.9,0.5-1.9,0.8-2.9c1.4-0.1,2.7-0.7,3.8-1.5c0.6-0.4,1.1-0.8,1.6-1.3c0.1,2.5,0.7,4.9,2,7l0.1,0.1c0.8,1.4,2,2.5,3.4,3.3
	c1.4,0.8,2.9,1.3,4.5,1.3H92h0.1c2.8-0.1,5.4-1.4,7.1-3.6c0.9-1.1,1.7-2.2,2.4-3.5c0.4,2.8,0.8,3.9,1.2,4.6c0.3,0.5,0.7,1,1.2,1.4
	c0.5,0.3,1,0.6,1.6,0.6l0.3,0l0.3,0c1.1-0.1,2-0.5,2.8-1.2c0.7-0.6,1.3-1.2,1.8-2l0.1-0.1l0.1-0.1c0.2-0.4,0.5-0.8,0.7-1.2
	c0,0,0,0.1,0,0.1c1.6,4,4.5,4.6,6,4.6h0.2c1.7-0.1,3.3-0.9,4.4-2.2c0.8-0.9,1.5-1.9,2-2.9c0.3-0.5,0.5-0.9,0.7-1.4
	c0.1,0.1,0.1,0.3,0.2,0.4c0.7,1.8,1.8,3.3,3.3,4.5c1.5,1.2,3.4,1.9,5.3,1.9h0.1c0.7,0,1.4-0.2,2.1-0.4l0.1,0
	c1.6-0.6,3.1-1.4,4.5-2.4c0.4-0.3,0.8-0.5,1.1-0.8c0.7,3.2,3.5,3.3,3.8,3.3h0.2l0.2,0c1.1-0.2,2.1-0.6,2.9-1.3
	c0.8-0.6,1.6-1.3,2.1-2.2l0.1-0.1l0.1-0.1c0.2-0.3,0.3-0.6,0.4-0.9c0.1,0.3,0.3,0.6,0.5,0.9l0.1,0.1c0.6,1,1.3,1.8,2.2,2.5
	c0.9,0.8,2,1.3,3.1,1.5l0.2,0h0.2c1.1,0,3.2-0.4,4.6-3.4c0.4-0.8,0.6-1.5,0.9-2.3l0-0.1c0.2-1,0.4-2,0.5-3l0.3-1.9l-1.7-0.9
	l-0.1-0.1l-0.1-0.1c-1-0.6-1.8-1.3-2.5-2.2c0.5-0.5,1-1,1.4-1.5c0.9-1.2,1.5-2.4,1.9-3.8c0.4-1.5,0.6-3,0.6-4.4c0-1.5-0.2-3-0.8-4.4
	c-0.5-1.3-1.2-2.6-2.2-3.7c-1-1.1-2.1-2-3.4-2.5c-1.3-0.6-2.7-0.9-4.2-1c-0.2,0-0.4,0-0.6,0c-1.3,0-2.5,0.2-3.8,0.5
	c-1.4,0.3-2.6,1-3.5,2.1l0,0c-0.2-0.3-0.4-0.6-0.6-0.9c-1.2-1.7-3.2-2.7-5.3-2.7h-0.1c-1.4,0.1-2.8,0.5-3.9,1.3
	c-1.2,0.8-2.3,1.8-3.2,2.8c-1.1,1.2-2,2.5-2.9,3.8c-0.1,0.2-0.2,0.4-0.4,0.6c-0.1-3.2-0.7-6.4-3.8-6.4c-0.9,0-1.6,0.4-2.2,0.9
	c-0.2-0.5-0.4-1-0.8-1.4c-0.8-0.9-1.8-1.4-3.1-1.4h-0.1c-1,0.1-2,0.3-2.9,0.8c-0.9,0.4-1.7,1-2.4,1.7l-0.1,0.1l-0.1,0.1
	c-0.3,0.3-0.5,0.8-0.8,1.5c0-0.1,0-0.1,0-0.2c0.1-0.9-0.2-1.9-0.7-2.6c-0.7-1-1.8-1.5-2.9-1.5h-0.3c-0.7,0.1-1.4,0.3-2.1,0.6
	c-0.6,0.3-1.2,0.6-1.8,0.9c-0.7,0.4-1.4,0.9-1.9,1.5l-0.1,0.1l-0.1,0.1c-0.2,0.2-0.3,0.5-0.5,0.8V4.4l0-0.1c0-0.4-0.1-3.6-4.4-3.6
	h-0.1c-1.3,0.1-2.6,0.4-3.7,0.9c-1.3,0.6-2.4,1.3-3.5,2.2c-1.3,1.2-2.4,2.5-3.3,3.9c-0.2,0.4-0.5,0.8-0.7,1.2c0-0.1-0.1-0.3-0.1-0.4
	C86,7.2,85.6,6.1,84.9,5c-0.6-0.9-1.3-1.8-2.2-2.5c-0.9-0.8-2-1.3-3.1-1.6c-1.1-0.3-2.1-0.4-3.2-0.4h-0.1c-1.1,0-2.2,0.1-3.2,0.4
	c-1.1,0.2-2.1,0.6-3,1.2l-0.1,0.1c-0.9,0.6-1.7,1.5-2.1,2.5c-0.4,0.9-0.7,1.9-0.7,2.8c0,0.7,0.1,1.4,0.4,2c0.3,0.7,0.9,1.3,1.6,1.6
	L67.3,20L67,21.1c-0.1-0.5-0.2-1.1-0.2-1.6c-0.2-2.4-0.3-5-0.3-7.7c0-1.1,0-3,0.1-5.7V5c0.1-0.9-0.2-1.9-0.6-2.6
	c-1-1.6-2.8-1.6-3.4-1.6h-0.2c-1.4,0-2.8,0.4-3.9,1.1c-0.4,0.2-0.7,0.5-1,0.8l-0.1,0.1l-0.1,0.1c-0.3,0.3-0.5,0.6-0.7,1
	c-0.2,0.3-0.4,0.7-0.6,1l0,0.1c-0.4,0.9-0.9,2.3-1.5,4c-0.1-0.4-0.1-0.7-0.2-1.1c-0.2-1.4-0.6-2.8-1.2-4.1l-0.1-0.2L53,3.5
	c-1.1-1.7-2.9-2.7-4.8-2.7c-0.1,0-0.2,0-0.4,0c-1,0-2,0.3-2.9,0.8c-2,1.1-2.3,2.6-2.3,3.4c0,0.7,0.2,1.5,0.6,2.1
	c-0.1,0.6-0.3,1.2-0.5,1.7l0,0.1c-0.5,1.7-1.6,4.9-3.1,9.5l-0.2-0.3v-3.6L38,14.5L38,14.5z M33.7,12.2L33.7,12.2L33.7,12.2
	L33.7,12.2z M36.5,26.7l-0.3,0.6c0-0.1-0.1-0.3-0.1-0.4v-1.3c0-0.3,0.1-0.7,0.2-1c0-0.1,0.1-0.3,0.2-0.4l0.9,0
	C37.1,25.3,36.8,26.1,36.5,26.7L36.5,26.7z M94.7,22.9c-0.2,0.9-0.5,1.9-0.9,2.8c-0.1,0.2-0.2,0.4-0.2,0.5c0-0.1-0.1-0.3-0.1-0.5
	c-0.2-1.4-0.3-2.9-0.3-4.3v-0.1c0-1,0-2,0.1-3c0.1-0.8,0.2-1.6,0.5-2.4c0.1-0.3,0.2-0.6,0.3-0.9c0.6,1.6,1,3.3,1,5
	C95.1,21,95,21.9,94.7,22.9L94.7,22.9z M144.2,16.2c0,0,0,0.1,0,0.2c-0.1-0.1-0.2-0.2-0.3-0.4c0.2-0.3,0.4-0.6,0.6-0.9
	C144.3,15.5,144.2,15.9,144.2,16.2L144.2,16.2z"/>
<g id="_圖層_2_00000008109709692842543140000018265505055602903991_">
	<g id="_圖層_1-2_00000099631753002420962780000001252384249427126964_">
		<path class="st1" d="M53.6,22.4l0.3-1c2.2-7.8,3.8-12.9,4.8-15.3c0.1-0.3,0.3-0.5,0.4-0.8c0.1-0.2,0.2-0.3,0.4-0.5
			c0.2-0.2,0.4-0.3,0.6-0.4c0.8-0.5,1.7-0.7,2.6-0.7c0.6,0,0.9,0.1,1,0.2c0.2,0.3,0.3,0.7,0.2,1v1.3c-0.1,2.6-0.1,4.5-0.1,5.6
			c0,2.8,0.1,5.5,0.3,8c0.2,1.4,0.4,2.9,0.7,4.3c0.2,1,0.5,2,0.9,3c0.2,0.6,0.5,1.1,0.8,1.7c0.2,0.3,0.4,0.7,0.4,1.1
			c-0.1,0.7-0.3,1.3-0.7,1.9c-0.8,1.3-1.6,1.9-2.5,1.9c-1.2,0-2.2-0.8-3.2-2.4c-0.5-0.8-0.9-1.7-1.2-2.6c-0.3-1.1-0.5-2.3-0.6-3.5
			c-0.1-1.4-0.2-3.1-0.3-5.2c-0.1-2.3-0.1-3.6-0.1-3.9h0c-0.6,1.8-1.1,3.3-1.5,4.5s-0.7,2.2-1,3s-0.5,1.7-0.9,2.8
			c-1.1,3.5-1.8,5.6-2.1,6.3L53,32.8l-0.2,0.2c-0.1,0.2-0.3,0.4-0.5,0.5c-0.2,0.1-0.3,0.2-0.5,0.2c-0.4,0-0.8-0.4-1.3-1.2
			c-0.5-0.9-1-1.9-1.2-3c-0.4-1.3-0.7-2.6-0.9-3.9S48,22.8,47.8,21s-0.3-4.1-0.5-6.7l0,0l-0.7,2.1L46,18.6c-0.3,1-0.5,1.6-0.5,1.8
			c-0.4,1.3-0.8,2.7-1.2,4c-0.4,1.4-0.8,2.4-1,3.1s-0.5,1.5-0.8,2.2c-0.2,0.5-0.5,1-0.7,1.4c-0.5,0.7-1.1,1.4-1.8,1.9
			c-0.5,0.4-1.2,0.7-1.8,0.7c-0.2,0-0.4-0.1-0.6-0.3c-0.2-0.2-0.3-0.4-0.2-0.7c0-0.4,0.2-0.7,0.4-1c0.1-0.3,0.4-0.9,0.9-2l0.8-2
			c0.5-1.2,1.2-3.3,2.3-6.3l0.7-2c1.5-4.7,2.6-7.9,3.1-9.6c0.3-1,0.6-2,0.8-3c0-0.4-0.2-0.7-0.4-1c-0.2-0.2-0.3-0.5-0.3-0.8
			c0-0.3,0.3-0.6,0.8-0.9c0.5-0.3,1.1-0.4,1.7-0.4c1.1-0.1,2.1,0.4,2.7,1.3c0.5,1.1,0.8,2.2,0.9,3.3c0.3,1.6,0.6,4,0.9,7.1v0.7
			c0,0.1,0,0.2,0,0.3c0,0.4,0.1,0.7,0.1,0.8c0.2,1.9,0.3,3.1,0.4,3.7C53.2,21.4,53.3,21.9,53.6,22.4z"/>
		<path class="st2" d="M72.7,8.5l0.2-0.8c-0.3,0-0.5,0-0.8,0.1c-0.3,0.1-0.5,0.2-0.8,0.4c-0.2,0.2-0.5,0.3-0.7,0.3
			c-0.2,0-0.3-0.1-0.4-0.3c-0.1-0.2-0.2-0.5-0.2-0.7c0-0.6,0.1-1.2,0.4-1.8c0.2-0.5,0.6-1,1.1-1.3c0.7-0.4,1.4-0.7,2.2-0.8
			c0.8-0.2,1.7-0.3,2.6-0.3c0.9,0,1.8,0.1,2.6,0.3c0.8,0.2,1.5,0.6,2.1,1.1c0.6,0.5,1.2,1.1,1.6,1.8c0.5,0.8,0.8,1.6,1,2.5
			c0.2,1,0.4,2,0.4,3.1c0,1.1-0.1,2.2-0.3,3.2c-0.2,1.2-0.6,2.4-1,3.5c-0.4,1-0.9,2-1.4,2.9c-0.6,0.9-1.4,1.7-2.3,2.4
			c-0.7,0.6-1.6,0.9-2.5,1c-0.3,0-0.6-0.1-0.9-0.3c-0.2-0.1-0.4-0.4-0.4-0.7c0-0.4,0.1-0.8,0.3-1.2c0.3-0.5,0.7-0.9,1.1-1.3
			c0.5-0.5,0.9-1,1.3-1.5c0.4-0.8,0.8-1.7,1-2.6c0.3-1.1,0.4-2.2,0.4-3.3c0-1-0.1-2.1-0.4-3.1c-0.2-0.8-0.7-1.6-1.2-2.2l-1.9,9.8
			l-0.3,1.7c-0.2,0.7-0.4,1.8-0.6,3.5c-0.3,2-0.7,4-1.3,5.9c-0.2,0.5-0.4,1-0.7,1.4c-0.5,0.6-1,1.2-1.7,1.6
			c-0.5,0.4-1.1,0.6-1.8,0.7c-0.3,0-0.6-0.2-0.8-0.5c-0.2-0.4-0.3-0.8-0.3-1.3c0.1-0.9,0.2-1.8,0.3-2.7c0.2-1.2,0.6-3.2,1.2-6.3
			l0.3-1.2l0.3-1.4C70.2,20.5,72.7,8.5,72.7,8.5z"/>
		<path class="st3" d="M93.6,9.9c-0.5,0.8-1,1.6-1.4,2.5c-0.4,0.9-0.7,1.8-0.9,2.8c-0.3,0.9-0.4,1.8-0.6,2.8
			c-0.1,1.1-0.2,2.2-0.2,3.4c0,1.6,0.1,3.2,0.3,4.8c0.1,1,0.5,2,1,2.9c0.3,0.6,1,1,1.7,1c0.6-0.1,1.2-0.4,1.6-0.9
			c0.6-0.7,1.1-1.5,1.5-2.4c0.5-1,0.8-2.1,1.1-3.3c0.3-1.1,0.4-2.3,0.4-3.5c0-2.2-0.5-4.3-1.3-6.3c-0.2-0.6-0.4-1.2-0.5-1.8
			c0-0.6,0.2-1.3,0.6-1.8c0.4-0.7,1-1.4,1.6-2c0.4-0.4,0.9-0.7,1.4-0.8c0.2,0,0.5,0.1,0.7,0.2c0.2,0.2,0.4,0.3,0.5,0.6
			c0.4,0.8,0.7,1.8,0.7,2.7c0.2,1.4,0.3,2.8,0.3,4.1c0,3.3-0.4,6.5-1.3,9.6c-0.7,2.6-1.9,5-3.7,7c-1.2,1.5-3,2.5-5,2.6
			c-1.1,0-2.1-0.3-3.1-0.9c-1-0.6-1.8-1.4-2.5-2.4c-1.1-2-1.7-4.3-1.6-6.6c0-1.7,0.2-3.4,0.6-5c0.4-1.8,0.9-3.5,1.6-5.2
			c0.7-1.6,1.4-3.2,2.4-4.7c0.8-1.2,1.7-2.3,2.8-3.3c0.8-0.7,1.8-1.3,2.8-1.8c0.8-0.4,1.7-0.6,2.6-0.7c1.1,0,1.6,0.3,1.6,0.8
			c0,0.3-0.2,0.7-0.3,1c-0.3,0.5-0.7,0.9-1.1,1.3c-0.4,0.3-0.9,0.6-1.5,0.8c-0.6,0.3-1.1,0.6-1.6,1C94.4,8.9,93.9,9.4,93.6,9.9z"/>
		<path class="st4" d="M113.3,20.7L113.3,20.7c-0.8,2.2-1.5,4.2-2.3,6.1c-0.7,1.7-1.4,3.3-2.3,4.8c-0.3,0.5-0.8,1-1.3,1.4
			c-0.4,0.3-0.8,0.5-1.3,0.6c-0.1,0-0.3-0.1-0.4-0.2c-0.2-0.1-0.3-0.2-0.4-0.4c-0.5-0.8-0.8-2.9-1.1-6.2s-0.4-7.4-0.4-12.2
			c-0.1-2.6,0.1-5.2,0.5-7.8c0.1-0.5,0.3-0.9,0.6-1.3c0.4-0.4,0.8-0.7,1.2-1c0.5-0.3,1-0.6,1.5-0.8c0.4-0.2,0.8-0.3,1.2-0.3
			c0.2,0,0.5,0.1,0.6,0.3c0.2,0.2,0.3,0.6,0.2,0.9c0,0.2,0,0.4-0.1,0.6c-0.2,1.4-0.4,3.3-0.6,5.8c-0.1,1.6-0.2,3-0.3,4
			c0,1-0.1,2.4-0.1,4.2s-0.1,3.5-0.1,5.3l0.1,0.1c0.4-0.9,0.9-1.9,1.3-3.1c0.2-0.4,0.3-0.9,0.5-1.2s0.3-0.8,0.5-1.4
			c0.4-1.2,0.8-2.4,1.2-3.5c0.2-0.5,0.3-1.1,0.4-1.6c1.4-4.9,2.4-7.8,3-8.6c0.4-0.4,0.9-0.8,1.4-1c0.6-0.3,1.2-0.5,1.8-0.5
			c0.3,0,0.7,0.1,0.9,0.4c0.2,0.3,0.4,0.6,0.3,1c-0.1,0.8-0.2,1.6-0.4,2.3c-0.5,2.2-0.9,4.7-1.2,7.3c-0.3,2.3-0.4,4.7-0.5,7.1
			c0,4.2,0.5,6.3,1.5,6.3c0.3,0,0.6-0.4,0.9-1.1c0.3-0.9,0.6-1.8,0.8-2.7c0.2-1.3,0.4-2.5,0.5-3.8c0.2-1.5,0.2-3,0.2-4.5
			c0-0.9,0-2-0.1-3.2c0-0.3,0-0.7,0-1c0.1-1.8,0.6-3.5,1.7-4.9c0.6-0.8,1-1.3,1.2-1.3c0.7,0,1,1.9,1,5.7c0,2.6-0.2,5.2-0.6,7.8
			c-0.4,2.6-1,5.2-1.9,7.6c-0.4,1.1-0.9,2.2-1.5,3.3c-0.5,0.9-1.1,1.7-1.8,2.5c-0.6,0.7-1.4,1.2-2.3,1.2c-1.5,0-2.7-0.9-3.4-2.8
			c-0.7-1.9-1.1-4.8-1.1-8.7C113.4,22.2,113.3,20.7,113.3,20.7z"/>
		<path class="st5" d="M138.5,23.8h-5.1v0.5c0,1,0.2,2,0.6,2.9c0.4,0.9,0.8,1.3,1.3,1.3c0.8-0.1,1.5-0.4,2.1-0.8
			c1.1-0.7,2.1-1.5,3.1-2.4l0.5-0.5c0.2-0.2,0.5-0.4,0.7-0.7c0.6-0.5,0.9-0.8,1-0.8s0.2,0.2,0.2,0.7c0,0.6-0.1,1.2-0.2,1.8
			c-0.1,0.7-0.3,1.3-0.5,2c-0.1,0.5-0.3,0.9-0.6,1.3c-0.8,1-1.7,1.8-2.7,2.4c-1.2,0.9-2.5,1.5-3.9,2.1c-0.4,0.1-0.8,0.2-1.2,0.2
			c-1.3,0-2.5-0.4-3.5-1.2c-1.1-0.9-1.9-2-2.4-3.3c-0.6-1.5-0.9-3.1-0.9-4.8c0-1.6,0.2-3.2,0.6-4.8c0.4-1.8,0.9-3.5,1.6-5.2
			c0.6-1.6,1.4-3.2,2.3-4.7c0.7-1.2,1.6-2.3,2.5-3.4c0.8-0.9,1.7-1.7,2.7-2.4c0.7-0.5,1.6-0.8,2.4-0.8c1.2,0,2.3,0.6,3,1.5
			c0.8,1.1,1.3,2.4,1.2,3.8c0,0.7-0.1,1.4-0.2,2.1c-0.1,0.7-0.3,1.4-0.6,2c-0.3,0.7-0.7,1.3-1.2,1.8c-0.5,0.6-1.1,1.1-1.7,1.5
			c-0.6,0.4-1.3,0.7-2,0.7c-0.6,0-0.8-0.2-0.8-0.6c0.1-0.4,0.2-0.8,0.5-1.2c0.4-0.6,0.8-1.2,1-1.9c0.3-1,0.6-2,0.8-3.1
			c0.2-0.9,0.3-1.8,0.3-2.7c0-0.5-0.1-0.8-0.3-0.8s-0.9,0.6-1.8,1.7c-0.8,1-1.5,2.2-2,3.4c-0.5,1-0.8,2.1-1.1,3.1
			c-0.3,1-0.5,2.1-0.6,3.2h7.4c0.8,0,1.2,0.3,1.2,1c-0.2,1.1-0.7,2.1-1.4,3C140,23.2,139.2,23.8,138.5,23.8L138.5,23.8z"/>
		<path class="st6" d="M148.7,10.3l0.4-1.5c-0.3,0.1-0.6,0.1-0.9,0.2c-0.2,0.1-0.5,0.1-0.8,0.1c-0.5,0-0.7-0.4-0.7-1.1
			c0-0.4,0.1-0.7,0.2-1.1c0.1-0.3,0.2-0.7,0.4-1c0.5-0.6,1.2-1,2-1.2c1.2-0.3,2.4-0.4,3.7-0.4c1.1,0,2.1,0.2,3.1,0.7
			c0.9,0.4,1.8,1.1,2.5,1.8c0.7,0.8,1.3,1.8,1.6,2.8c0.4,1.1,0.6,2.2,0.6,3.4c0,1.2-0.2,2.5-0.5,3.6c-0.3,1.1-0.8,2-1.4,2.9
			c-0.3,0.5-0.7,0.9-1.2,1.3c-0.5,0.4-1,0.7-1.6,0.9c0.1,0.4,0.3,0.8,0.5,1.2c0.1,0.3,0.4,0.7,0.7,1.2c1,1.3,2.2,2.4,3.6,3.2
			c0.1,0.1,0.2,0.1,0.3,0.2c-0.1,0.9-0.3,1.8-0.5,2.7c-0.2,0.6-0.4,1.3-0.7,1.9c-0.6,1.2-1.3,1.8-2.1,1.8c-0.6-0.1-1.2-0.3-1.6-0.8
			c-0.6-0.5-1.2-1.1-1.6-1.8c-0.3-0.6-0.6-1.3-0.9-1.9c-0.3-0.7-0.6-1.4-0.8-2.3s-0.5-1.7-0.7-2.5s-0.4-1.5-0.4-2.1
			c0-0.2,0-0.3,0-0.5c0-0.2,0-0.5,0.2-0.7c0.2-0.2,0.4-0.4,0.6-0.5c0.4-0.2,0.7-0.5,1-0.8c0.4-0.4,0.7-0.9,1-1.3
			c0.5-0.9,0.9-1.8,1.1-2.8c0.3-1.1,0.4-2.2,0.4-3.3c0-1-0.1-2.1-0.6-3c-0.4-0.7-1-1.3-1.8-1.5c-0.8,4.6-1.6,8.9-2.4,13l-0.3,1.7
			c-0.5,2.7-0.9,4.6-1.2,5.9c-0.2,1-0.5,1.9-1,2.7c-0.4,0.6-0.9,1.1-1.5,1.5c-0.5,0.4-1,0.7-1.6,0.8c-0.8,0-1.1-0.7-1.1-2.1
			c0-1,0.1-1.9,0.3-2.9c0.2-1.3,0.6-3.1,1-5.3c0.4-2.2,0.9-4.3,1.4-6.4S148.1,12.5,148.7,10.3L148.7,10.3z"/>
		<path class="st7" d="M12.8,7.8h-0.9c-2.9,0-4.7,0.3-4.7,4.8c0,3.5,1.8,4.8,6.7,4.8h21.3c-0.3-0.4-0.6-0.9-0.8-1.3H11.9v-1.1h22
			c-0.2-0.5-0.3-1.1-0.4-1.6H11.9v-1.1h21.6c0-0.6,0.1-1.2,0.3-1.8H11.9V9.4h22.2c0.3-0.6,0.6-1.1,1-1.6L12.8,7.8L12.8,7.8z"/>
		<path class="st8" d="M35.1,17.4H13.8c-4.8,0-6.7-1.3-6.7-4.8c0-4.5,1.8-4.8,4.7-4.8h23.2l0.2-0.3V6.7h-29v12.2h29v-1.2L35.1,17.4z
			"/>
		<path class="st8" d="M35.3,17.4h-0.2l0.2,0.3V17.4z"/>
		<path class="st8" d="M35.3,7.8V7.5l-0.2,0.3H35.3z"/>
		<path class="st7" d="M12.8,21.4h-0.9c-2.9,0-4.7,0.3-4.7,4.8c0,3.5,1.8,4.8,6.7,4.8h21.3c-0.4-0.5-0.7-1.1-1-1.7H11.9v-1.1h21.8
			c-0.1-0.5-0.2-1.1-0.2-1.6H11.9v-1.1h21.6c0-0.6,0.2-1.2,0.4-1.8h-22v-1.1h22.4c0.2-0.5,0.5-0.9,0.8-1.3H12.8z"/>
		<path class="st8" d="M35.3,31.2l-0.2-0.3H13.8c-4.8,0-6.7-1.3-6.7-4.8c0-4.5,1.8-4.8,4.7-4.8h23.2l0.2-0.3v-0.8h-29v12.2h29
			C35.3,32.4,35.3,31.2,35.3,31.2z"/>
		<path class="st8" d="M35.3,30.9h-0.2l0.2,0.3V30.9z"/>
		<path class="st8" d="M35.3,21.4v-0.3l-0.2,0.3H35.3z"/>
		<path class="st9" d="M11.9,16h22.4c-0.2-0.4-0.3-0.7-0.4-1.1H11.9V16z"/>
		<path class="st9" d="M11.9,13.3h21.6v-1.1H11.9V13.3z"/>
		<path class="st9" d="M11.9,10.5h21.9c0.1-0.4,0.2-0.7,0.4-1.1H11.9V10.5z"/>
		<path class="st9" d="M11.9,29.2h22.2c-0.2-0.4-0.3-0.7-0.4-1.1H11.9V29.2z"/>
		<path class="st9" d="M11.9,26.6h21.6v-1.1H11.9V26.6z"/>
		<path class="st9" d="M11.9,23.7h22c0.1-0.4,0.3-0.7,0.5-1.1H11.9V23.7z"/>
		<path class="st10" d="M13.1,4.1h-1c-2.3,0-8.6,0-8.6,8.7c0,5.7,3.5,8.6,10.5,8.6h22.5v-3.9H14c-4.9,0-6.7-1.3-6.7-4.8
			C7.4,8.3,9.1,8,12.1,8h24.4V4.1L13.1,4.1"/>
		<path class="st10" d="M13.1,17.5h-1c-2.3,0-8.6,0-8.6,8.7c0,5.7,3.5,8.6,10.5,8.6h22.5v-3.9H14c-4.9,0-6.7-1.3-6.7-4.8
			c0-4.5,1.8-4.8,4.7-4.8h24.4v-3.8L13.1,17.5"/>
	</g>
</g>
</svg>
