<svg id="eMPOWER-img" xmlns="http://www.w3.org/2000/svg" width="155.715" height="31.079" viewBox="0 0 155.715 31.079">
  <g id="Group_17" data-name="Group 17" transform="translate(33.311 0)">
    <path id="Path_2" data-name="Path 2" d="M129.585,19.094l.264-.969c2.2-7.755,3.789-12.778,4.759-15.128a8.32,8.32,0,0,1,.411-.764,3.206,3.206,0,0,1,.382-.5,3.08,3.08,0,0,1,.558-.441,4.626,4.626,0,0,1,2.585-.676,1.775,1.775,0,0,1,1.028.206,1.47,1.47,0,0,1,.206.969c0,.382,0,.822-.029,1.263-.088,2.614-.117,4.465-.117,5.581q0,4.186.353,7.931c.147,1.41.382,2.82.676,4.259a20.6,20.6,0,0,0,.881,2.937,8.938,8.938,0,0,0,.852,1.645,2.209,2.209,0,0,1,.411,1.057,3.694,3.694,0,0,1-.734,1.821c-.822,1.263-1.616,1.88-2.438,1.88-1.146,0-2.174-.793-3.114-2.35a9.85,9.85,0,0,1-1.116-2.526,17.745,17.745,0,0,1-.617-3.437q-.22-2.027-.264-5.2c-.059-2.262-.088-3.554-.117-3.848h-.059c-.587,1.762-1.057,3.231-1.439,4.406s-.7,2.144-.94,2.937c-.235.764-.529,1.7-.852,2.761-1.058,3.437-1.733,5.493-2.056,6.227a.945.945,0,0,0-.117.206,2.715,2.715,0,0,0-.147.235,1.516,1.516,0,0,1-.529.529,1.129,1.129,0,0,1-.5.176c-.382,0-.822-.382-1.263-1.146a12.1,12.1,0,0,1-1.234-2.937c-.353-1.263-.646-2.585-.881-3.907s-.411-2.879-.587-4.7-.323-4.024-.441-6.639H123.3c-.264.94-.47,1.674-.617,2.144s-.353,1.2-.646,2.2-.441,1.557-.5,1.733c-.382,1.322-.764,2.644-1.175,3.966-.411,1.351-.734,2.379-1,3.084-.264.734-.529,1.439-.822,2.144-.147.323-.382.793-.734,1.41a7.44,7.44,0,0,1-1.762,1.909,3.118,3.118,0,0,1-1.821.676.783.783,0,0,1-.587-.264.909.909,0,0,1-.235-.676,1.961,1.961,0,0,1,.382-.969c.147-.264.441-.94.881-2l.793-1.968c.5-1.175,1.234-3.231,2.232-6.257l.646-1.968c1.527-4.671,2.585-7.872,3.114-9.576a22.855,22.855,0,0,0,.822-3,1.934,1.934,0,0,0-.411-1.028,1.33,1.33,0,0,1-.323-.7c0-.323.264-.617.793-.911A3.512,3.512,0,0,1,124.063.5a2.856,2.856,0,0,1,2.673,1.322,10.719,10.719,0,0,1,.911,3.261c.294,1.616.558,3.966.852,7.05a2.4,2.4,0,0,1,.029.411c0,.088.029.176.029.264V13.1a7.1,7.1,0,0,1,.088.822c.206,1.88.352,3.084.441,3.642A11.67,11.67,0,0,0,129.585,19.094Z" transform="translate(-113.4 -0.353)" fill="#fff"/>
    <path id="Path_3" data-name="Path 3" d="M221.965,5.111l.206-.764a1.989,1.989,0,0,0-.764.117,6.019,6.019,0,0,0-.734.382,1.813,1.813,0,0,1-.7.294.422.422,0,0,1-.382-.294,1.573,1.573,0,0,1-.147-.7,3.887,3.887,0,0,1,.441-1.733,2.9,2.9,0,0,1,1.057-1.263,7.062,7.062,0,0,1,2.115-.822A11.125,11.125,0,0,1,225.637,0a9.873,9.873,0,0,1,2.585.323,5.488,5.488,0,0,1,2.056,1.057,7.133,7.133,0,0,1,1.557,1.792,8.394,8.394,0,0,1,1.028,2.5,12.318,12.318,0,0,1,.353,3,15.008,15.008,0,0,1-.382,3.231,20.732,20.732,0,0,1-1.028,3.5,16.449,16.449,0,0,1-1.41,2.879,7.839,7.839,0,0,1-2.291,2.321,4.423,4.423,0,0,1-2.5.94,1.4,1.4,0,0,1-.852-.264.823.823,0,0,1-.352-.676,2.221,2.221,0,0,1,.294-1.146,7.869,7.869,0,0,1,1.057-1.322,9.124,9.124,0,0,0,1.263-1.469,9.708,9.708,0,0,0,1.028-2.556,14.625,14.625,0,0,0,.323-3.231,9.982,9.982,0,0,0-.382-3.026,5.961,5.961,0,0,0-1.234-2.232L224.844,15.3l-.352,1.7c-.147.676-.352,1.821-.587,3.466a40.685,40.685,0,0,1-1.263,5.846,8.861,8.861,0,0,1-.676,1.41,6.759,6.759,0,0,1-1.674,1.616,3.179,3.179,0,0,1-1.733.676.852.852,0,0,1-.764-.441,2.427,2.427,0,0,1-.294-1.263,15.832,15.832,0,0,1,.294-2.614c.176-1.146.587-3.2,1.175-6.2l.235-1.234.264-1.322Z" transform="translate(-186.921 0)" fill="#fff"/>
    <path id="Path_4" data-name="Path 4" d="M282.7,6.916a19.369,19.369,0,0,0-1.381,2.467,18.315,18.315,0,0,0-.94,2.761,15.859,15.859,0,0,0-.529,2.761,20.163,20.163,0,0,0-.206,3.29A26.565,26.565,0,0,0,280,22.925a7.08,7.08,0,0,0,1.028,2.849,1.948,1.948,0,0,0,1.616.969,2.259,2.259,0,0,0,1.586-.881,9.238,9.238,0,0,0,1.469-2.35,16.038,16.038,0,0,0,1.057-3.231,15.669,15.669,0,0,0,.411-3.437,17.012,17.012,0,0,0-1.292-6.227,6.3,6.3,0,0,1-.47-1.792,3.215,3.215,0,0,1,.617-1.792,9.947,9.947,0,0,1,1.586-1.88,2.479,2.479,0,0,1,1.41-.822,1.247,1.247,0,0,1,.646.235,1.7,1.7,0,0,1,.529.587,7.927,7.927,0,0,1,.734,2.644,25.937,25.937,0,0,1,.294,4.083,32.489,32.489,0,0,1-1.322,9.488,17.655,17.655,0,0,1-3.613,6.874,6.581,6.581,0,0,1-4.935,2.526,5.886,5.886,0,0,1-3.026-.881,6.838,6.838,0,0,1-2.438-2.409,12.083,12.083,0,0,1-1.586-6.551,23.758,23.758,0,0,1,.587-4.994,31.519,31.519,0,0,1,1.586-5.141,27.609,27.609,0,0,1,2.35-4.553,14.285,14.285,0,0,1,2.732-3.261,10.9,10.9,0,0,1,2.761-1.733A6.4,6.4,0,0,1,286.9.6q1.586,0,1.586.793a2.777,2.777,0,0,1-.323.969,6.02,6.02,0,0,1-1.057,1.292,6.681,6.681,0,0,1-1.469.852,9.849,9.849,0,0,0-1.616.94A5.649,5.649,0,0,0,282.7,6.916Z" transform="translate(-227.036 -0.424)" fill="#fff"/>
    <path id="Path_5" data-name="Path 5" d="M346.729,17.255h-.059q-1.057,3.261-2.2,5.992a42.248,42.248,0,0,1-2.291,4.788,6.117,6.117,0,0,1-1.263,1.351,2.331,2.331,0,0,1-1.322.587.814.814,0,0,1-.352-.147.977.977,0,0,1-.352-.411q-.705-1.19-1.146-6.169T337.3,11.174a34.979,34.979,0,0,1,.529-7.667,3.479,3.479,0,0,1,.646-1.322,4.084,4.084,0,0,1,1.234-1.028,8.977,8.977,0,0,1,1.5-.764,3.344,3.344,0,0,1,1.2-.294.7.7,0,0,1,.617.294,1.464,1.464,0,0,1,.235.852,5.614,5.614,0,0,1-.059.587c-.206,1.351-.382,3.261-.558,5.728q-.176,2.467-.264,3.966c-.059,1.028-.088,2.409-.147,4.171-.029,1.762-.059,3.5-.088,5.229l.059.088c.411-.852.852-1.851,1.322-3.026.176-.441.323-.852.5-1.234.147-.382.323-.822.5-1.322.411-1.2.793-2.35,1.146-3.5a15.962,15.962,0,0,0,.441-1.586c1.381-4.847,2.35-7.667,2.937-8.46A3.8,3.8,0,0,1,350.46.864a4.38,4.38,0,0,1,1.851-.5,1.117,1.117,0,0,1,.881.382,1.456,1.456,0,0,1,.353,1.028,11.9,11.9,0,0,1-.382,2.262c-.47,2.2-.852,4.612-1.175,7.226a56.64,56.64,0,0,0-.441,6.962c0,4.142.5,6.227,1.527,6.227q.441,0,.881-1.057a13.506,13.506,0,0,0,.764-2.673c.206-1.087.382-2.35.529-3.76a43.6,43.6,0,0,0,.206-4.436c0-.911-.029-1.968-.088-3.2-.029-.323-.029-.646-.029-.94a8.483,8.483,0,0,1,1.674-4.847c.529-.822.94-1.234,1.2-1.234.617,0,.94,1.88.94,5.669A50.326,50.326,0,0,1,358.6,15.7a35.362,35.362,0,0,1-1.909,7.52,21.5,21.5,0,0,1-1.5,3.231,14.1,14.1,0,0,1-1.733,2.5,3.181,3.181,0,0,1-2.321,1.2c-1.5,0-2.614-.911-3.349-2.791-.734-1.851-1.087-4.729-1.087-8.607l.029-1.5Z" transform="translate(-271.53 -0.071)" fill="#fff"/>
    <path id="Path_6" data-name="Path 6" d="M427.121,20.38l-5.023-.029v.529a7.1,7.1,0,0,0,.588,2.879c.382.852.822,1.292,1.263,1.292A4.37,4.37,0,0,0,426,24.228a21.99,21.99,0,0,0,3.084-2.379l.47-.47a7.784,7.784,0,0,0,.676-.646c.529-.529.881-.822,1.028-.822.176,0,.235.235.235.7a10.511,10.511,0,0,1-.176,1.792,18.741,18.741,0,0,1-.441,1.939,4.888,4.888,0,0,1-.558,1.322,10.573,10.573,0,0,1-2.673,2.409,18.15,18.15,0,0,1-3.848,2.056,3.836,3.836,0,0,1-1.2.206,5.505,5.505,0,0,1-3.437-1.2,7.676,7.676,0,0,1-2.409-3.319,12.634,12.634,0,0,1-.852-4.7,21.468,21.468,0,0,1,.558-4.7,34.415,34.415,0,0,1,1.586-5.141A31.4,31.4,0,0,1,420.335,6.6a20.432,20.432,0,0,1,2.5-3.319A12.953,12.953,0,0,1,425.505.993,4.741,4.741,0,0,1,427.885.2a3.637,3.637,0,0,1,2.938,1.527,5.741,5.741,0,0,1,1.234,3.7,11.054,11.054,0,0,1-.235,2.086,9.8,9.8,0,0,1-.587,1.968,7.083,7.083,0,0,1-1.146,1.792,8.212,8.212,0,0,1-1.7,1.5,3.914,3.914,0,0,1-1.968.7c-.558,0-.823-.206-.823-.617a2.612,2.612,0,0,1,.47-1.146,7.176,7.176,0,0,0,.969-1.909,23.433,23.433,0,0,0,.793-3.026,14.426,14.426,0,0,0,.353-2.7c0-.529-.088-.793-.294-.793-.323,0-.911.558-1.733,1.674a17.246,17.246,0,0,0-1.968,3.319,20.772,20.772,0,0,0-1.116,3.114,17.055,17.055,0,0,0-.588,3.114h7.314c.793,0,1.2.323,1.2,1a6.67,6.67,0,0,1-1.351,3C428.678,19.734,427.855,20.38,427.121,20.38Z" transform="translate(-327.042 -0.141)" fill="#fff"/>
    <path id="Path_7" data-name="Path 7" d="M478.624,9.175l.382-1.469c-.264.059-.558.117-.852.206A2.586,2.586,0,0,1,477.39,8c-.47,0-.676-.352-.676-1.057a3.95,3.95,0,0,1,.176-1.057,3.242,3.242,0,0,1,.382-.94A3.79,3.79,0,0,1,479.3,3.77a13.084,13.084,0,0,1,3.584-.47,7.215,7.215,0,0,1,3.026.676,7.006,7.006,0,0,1,2.467,1.851,8.514,8.514,0,0,1,1.616,2.732,9.547,9.547,0,0,1,.588,3.349,12.94,12.94,0,0,1-.5,3.613,8.984,8.984,0,0,1-1.439,2.908,7.177,7.177,0,0,1-1.146,1.263,8.338,8.338,0,0,1-1.528.911,8.754,8.754,0,0,0,.47,1.175,9.931,9.931,0,0,0,.676,1.146,12.145,12.145,0,0,0,3.525,3.2,2.067,2.067,0,0,0,.264.176c-.176,1.234-.323,2.115-.47,2.7a13.206,13.206,0,0,1-.676,1.851c-.558,1.175-1.234,1.792-2.027,1.792a2.917,2.917,0,0,1-1.616-.764,6.692,6.692,0,0,1-1.586-1.821,18.417,18.417,0,0,1-.881-1.88c-.264-.676-.529-1.439-.822-2.262q-.4-1.278-.7-2.467a19.613,19.613,0,0,1-.441-2.115,2.39,2.39,0,0,1-.029-.5,1.189,1.189,0,0,1,.176-.7,1.543,1.543,0,0,1,.617-.47,4.922,4.922,0,0,0,1.028-.764,14.22,14.22,0,0,0,1.028-1.322,10.43,10.43,0,0,0,1.087-2.791A13.345,13.345,0,0,0,486,11.554a6.618,6.618,0,0,0-.558-3.026A3.2,3.2,0,0,0,483.647,7c-.793,4.553-1.586,8.812-2.379,12.807l-.294,1.645c-.5,2.614-.881,4.553-1.2,5.846A10.331,10.331,0,0,1,478.8,30a5.621,5.621,0,0,1-1.5,1.527,3.134,3.134,0,0,1-1.586.764c-.764,0-1.116-.676-1.116-2.056a23.106,23.106,0,0,1,.323-2.879c.206-1.351.529-3.114.969-5.258.441-2.174.881-4.289,1.351-6.374C477.6,13.493,478.1,11.378,478.624,9.175Z" transform="translate(-368.499 -2.331)" fill="#fff"/>
  </g>
  <g id="Group_19" data-name="Group 19" transform="translate(0 0.734)">
    <g id="Group_18" data-name="Group 18" transform="translate(2.732 2.497)">
      <path id="Path_8" data-name="Path 8" d="M17.852,15h-.911c-2.908,0-4.641.323-4.641,4.759,0,3.437,1.792,4.729,6.58,4.729H39.912a7.651,7.651,0,0,1-.822-1.322H16.941V22.05H38.62a6.908,6.908,0,0,1-.323-1.586H16.941V19.406H38.267a8.518,8.518,0,0,1,.264-1.733H16.941V16.616H38.913a9.408,9.408,0,0,1,.94-1.586H18.762C18.469,15,18.175,15,17.852,15Z" transform="translate(-11.419 -13.825)" fill="#e6e6e6"/>
      <path id="Path_9" data-name="Path 9" d="M37.764,21.6h-21c-4.788,0-6.58-1.263-6.58-4.729,0-4.436,1.762-4.759,4.641-4.759H37.764c.088-.088.147-.206.235-.294V11H9.3V23.044H38v-1.2C37.911,21.81,37.852,21.722,37.764,21.6Z" transform="translate(-9.3 -11)" fill="#ccc"/>
      <path id="Path_10" data-name="Path 10" d="M106.435,47.1H106.2a2.568,2.568,0,0,1,.235.294Z" transform="translate(-77.736 -36.496)" fill="#ccc"/>
      <path id="Path_11" data-name="Path 11" d="M106.435,14.294V14a2.057,2.057,0,0,0-.235.294Z" transform="translate(-77.736 -13.119)" fill="#ccc"/>
      <path id="Path_12" data-name="Path 12" d="M17.852,60.6h-.911c-2.908,0-4.641.323-4.641,4.759,0,3.437,1.792,4.729,6.58,4.729H39.912a6.834,6.834,0,0,1-1-1.674H16.941V67.356h21.59A6.887,6.887,0,0,1,38.3,65.77H16.941V64.712H38.3a8.241,8.241,0,0,1,.352-1.733H16.941V61.922H39.09a6.79,6.79,0,0,1,.793-1.234H18.762A3.1,3.1,0,0,0,17.852,60.6Z" transform="translate(-11.419 -46.03)" fill="#e6e6e6"/>
      <path id="Path_13" data-name="Path 13" d="M38,67.6a2.566,2.566,0,0,1-.235-.294h-21c-4.788,0-6.58-1.263-6.58-4.729,0-4.436,1.762-4.759,4.641-4.759H37.764c.088-.088.147-.206.235-.294V56.7H9.3V68.744H38Z" transform="translate(-9.3 -43.276)" fill="#ccc"/>
      <path id="Path_14" data-name="Path 14" d="M106.435,92.8H106.2a2.567,2.567,0,0,1,.235.294Z" transform="translate(-77.736 -68.772)" fill="#ccc"/>
      <path id="Path_15" data-name="Path 15" d="M106.435,59.894V59.6a2.058,2.058,0,0,0-.235.294Z" transform="translate(-77.736 -45.324)" fill="#ccc"/>
      <path id="Path_16" data-name="Path 16" d="M28.1,40.057H50.219A8.079,8.079,0,0,1,49.778,39H28.1Z" transform="translate(-22.578 -30.775)" fill="#515958"/>
      <path id="Path_17" data-name="Path 17" d="M28.1,30.987H49.455a6.389,6.389,0,0,1-.029-.764V29.9H28.1Z" transform="translate(-22.578 -24.348)" fill="#515958"/>
      <path id="Path_18" data-name="Path 18" d="M28.1,21.457H49.69a5.613,5.613,0,0,1,.382-1.057H28.1Z" transform="translate(-22.578 -17.639)" fill="#515958"/>
      <path id="Path_19" data-name="Path 19" d="M28.1,84.557H50.043c-.147-.352-.264-.7-.382-1.057H28.1Z" transform="translate(-22.578 -62.203)" fill="#515958"/>
      <path id="Path_20" data-name="Path 20" d="M28.1,75.557H49.426c0-.147-.029-.264-.029-.411a4.548,4.548,0,0,1,.029-.646H28.1Z" transform="translate(-22.578 -55.847)" fill="#515958"/>
      <path id="Path_21" data-name="Path 21" d="M28.1,65.957H49.808a5.7,5.7,0,0,1,.441-1.057H28.1Z" transform="translate(-22.578 -49.067)" fill="#515958"/>
    </g>
    <path id="Path_22" data-name="Path 22" d="M9.459,2.529H8.489C6.169,2.529,0,2.529,0,11.077c0,5.669,3.5,8.548,10.4,8.548H32.635V15.807H10.4c-4.788,0-6.58-1.292-6.58-4.729,0-4.436,1.762-4.759,4.641-4.759H32.635V2.5H10.281a7.7,7.7,0,0,1-.822.029" transform="translate(0 -2.5)" fill="#212529"/>
    <path id="Path_23" data-name="Path 23" d="M9.459,47.529H8.489c-2.321,0-8.489,0-8.489,8.548,0,5.669,3.5,8.548,10.4,8.548H32.635V60.807H10.4c-4.788,0-6.58-1.292-6.58-4.729,0-4.436,1.762-4.759,4.641-4.759H32.635V47.5H10.281a7.7,7.7,0,0,1-.822.029" transform="translate(0 -34.281)" fill="#212529"/>
  </g>
</svg>
