<?xml version="1.0" encoding="utf-8"?>
<!-- Generator: Adobe Illustrator 25.4.6, SVG Export Plug-In . SVG Version: 6.00 Build 0)  -->
<svg version="1.1" id="eMPOWER-img" xmlns="http://www.w3.org/2000/svg" xmlns:xlink="http://www.w3.org/1999/xlink" x="0px"
	 y="0px" viewBox="0 0 155.7 31.1" style="enable-background:new 0 0 155.7 31.1;" xml:space="preserve">
<style type="text/css">
	.st0{fill:#FFFFFF;}
	.st1{fill:#E6E6E6;}
	.st2{fill:#CCCCCC;}
	.st3{fill:#515958;}
</style>
<g id="Group_17" transform="translate(33.311 0)">
	<path id="Path_2" class="st0" d="M16.2,18.7l0.3-1C18.6,10,20.2,5,21.2,2.6c0.1-0.3,0.3-0.5,0.4-0.8c0.1-0.2,0.2-0.3,0.4-0.5
		c0.2-0.2,0.4-0.3,0.6-0.4c0.8-0.5,1.7-0.7,2.6-0.7c0.4,0,0.7,0,1,0.2c0.2,0.3,0.3,0.6,0.2,1c0,0.4,0,0.8,0,1.3
		c-0.1,2.6-0.1,4.5-0.1,5.6c0,2.8,0.1,5.4,0.4,7.9c0.1,1.4,0.4,2.8,0.7,4.3c0.2,1,0.5,2,0.9,2.9c0.2,0.6,0.5,1.1,0.9,1.6
		c0.2,0.3,0.4,0.7,0.4,1.1c-0.1,0.7-0.3,1.3-0.7,1.8c-0.8,1.3-1.6,1.9-2.4,1.9c-1.1,0-2.2-0.8-3.1-2.4c-0.5-0.8-0.9-1.6-1.1-2.5
		c-0.3-1.1-0.5-2.3-0.6-3.4c-0.1-1.4-0.2-3.1-0.3-5.2C21.1,14,21,12.7,21,12.5h-0.1c-0.6,1.8-1.1,3.2-1.4,4.4s-0.7,2.1-0.9,2.9
		c-0.2,0.8-0.5,1.7-0.9,2.8C16.7,26,16,28,15.7,28.8c0,0.1-0.1,0.1-0.1,0.2c-0.1,0.1-0.1,0.2-0.1,0.2c-0.1,0.2-0.3,0.4-0.5,0.5
		c-0.2,0.1-0.3,0.2-0.5,0.2c-0.4,0-0.8-0.4-1.3-1.1c-0.5-0.9-1-1.9-1.2-2.9c-0.4-1.3-0.6-2.6-0.9-3.9s-0.4-2.9-0.6-4.7
		s-0.3-4-0.4-6.6H9.9c-0.3,0.9-0.5,1.7-0.6,2.1s-0.4,1.2-0.6,2.2s-0.4,1.6-0.5,1.7c-0.4,1.3-0.8,2.6-1.2,4C6.6,22,6.2,23,6,23.7
		c-0.3,0.7-0.5,1.4-0.8,2.1c-0.1,0.3-0.4,0.8-0.7,1.4c-0.5,0.7-1.1,1.4-1.8,1.9c-0.5,0.4-1.2,0.7-1.8,0.7c-0.2,0-0.4-0.1-0.6-0.3
		C0.1,29.4,0,29.2,0,28.9c0-0.4,0.2-0.7,0.4-1c0.1-0.3,0.4-0.9,0.9-2l0.8-2c0.5-1.2,1.2-3.2,2.2-6.3l0.6-2C6.5,11.1,7.5,7.9,8,6.2
		c0.3-1,0.6-2,0.8-3c0-0.4-0.2-0.7-0.4-1C8.3,2,8.2,1.7,8.1,1.5c0-0.3,0.3-0.6,0.8-0.9c0.5-0.3,1.1-0.4,1.7-0.4
		c1.1-0.1,2.1,0.4,2.7,1.3c0.5,1,0.8,2.1,0.9,3.3c0.3,1.6,0.6,4,0.9,7.1c0,0.1,0,0.3,0,0.4c0,0.1,0,0.2,0,0.3v0.3
		c0,0.3,0.1,0.5,0.1,0.8c0.2,1.9,0.4,3.1,0.4,3.6C15.8,17.7,16,18.2,16.2,18.7z"/>
	<path id="Path_3" class="st0" d="M35,5.1l0.2-0.8c-0.3,0-0.5,0-0.8,0.1c-0.3,0.1-0.5,0.2-0.7,0.4c-0.2,0.1-0.4,0.2-0.7,0.3
		c-0.2,0-0.3-0.1-0.4-0.3c-0.1-0.2-0.2-0.5-0.1-0.7c0-0.6,0.2-1.2,0.4-1.7c0.2-0.5,0.6-1,1.1-1.3c0.7-0.4,1.4-0.7,2.1-0.8
		C37,0.1,37.8,0,38.7,0c0.9,0,1.7,0.1,2.6,0.3c0.8,0.2,1.5,0.6,2.1,1.1c0.6,0.5,1.1,1.1,1.6,1.8c0.5,0.8,0.8,1.6,1,2.5
		c0.2,1,0.4,2,0.4,3c0,1.1-0.1,2.2-0.4,3.2c-0.2,1.2-0.6,2.4-1,3.5c-0.4,1-0.8,2-1.4,2.9c-0.6,0.9-1.4,1.7-2.3,2.3
		c-0.7,0.6-1.6,0.9-2.5,0.9c-0.3,0-0.6-0.1-0.9-0.3c-0.2-0.2-0.4-0.4-0.4-0.7c0-0.4,0.1-0.8,0.3-1.1c0.3-0.5,0.7-0.9,1.1-1.3
		c0.5-0.4,0.9-0.9,1.3-1.5c0.5-0.8,0.8-1.7,1-2.6c0.2-1.1,0.3-2.1,0.3-3.2c0-1-0.1-2-0.4-3c-0.2-0.8-0.7-1.6-1.2-2.2l-1.9,9.7
		L37.6,17c-0.1,0.7-0.4,1.8-0.6,3.5c-0.3,2-0.7,3.9-1.3,5.8c-0.2,0.5-0.4,1-0.7,1.4c-0.5,0.6-1,1.2-1.7,1.6
		c-0.5,0.4-1.1,0.6-1.7,0.7c-0.3,0-0.6-0.2-0.8-0.4c-0.2-0.4-0.3-0.8-0.3-1.3c0-0.9,0.1-1.8,0.3-2.6c0.2-1.1,0.6-3.2,1.2-6.2
		l0.2-1.2l0.3-1.3L35,5.1z"/>
	<path id="Path_4" class="st0" d="M55.7,6.5c-0.5,0.8-1,1.6-1.4,2.5c-0.4,0.9-0.7,1.8-0.9,2.8c-0.3,0.9-0.4,1.8-0.5,2.8
		c-0.2,1.1-0.2,2.2-0.2,3.3c0,1.6,0.1,3.2,0.4,4.7c0.1,1,0.5,2,1,2.8c0.3,0.6,0.9,0.9,1.6,1c0.6-0.1,1.2-0.4,1.6-0.9
		c0.6-0.7,1.1-1.5,1.5-2.4c0.5-1,0.8-2.1,1.1-3.2c0.3-1.1,0.4-2.3,0.4-3.4c0-2.1-0.5-4.3-1.3-6.2c-0.2-0.6-0.4-1.2-0.5-1.8
		c0-0.6,0.2-1.3,0.6-1.8c0.4-0.7,1-1.3,1.6-1.9C60.9,4.3,61.4,4,62,3.9c0.2,0,0.5,0.1,0.6,0.2c0.2,0.2,0.4,0.4,0.5,0.6
		c0.4,0.8,0.6,1.7,0.7,2.6c0.2,1.4,0.3,2.7,0.3,4.1c0,3.2-0.4,6.4-1.3,9.5c-0.7,2.5-1.9,4.9-3.6,6.9c-1.2,1.5-3,2.5-4.9,2.5
		c-1.1,0-2.1-0.3-3-0.9c-1-0.6-1.8-1.4-2.4-2.4c-1.1-2-1.7-4.3-1.6-6.6c0-1.7,0.2-3.4,0.6-5c0.4-1.8,0.9-3.5,1.6-5.1
		c0.6-1.6,1.4-3.1,2.4-4.6c0.7-1.2,1.7-2.3,2.7-3.3c0.8-0.7,1.8-1.3,2.8-1.7c0.8-0.4,1.7-0.6,2.6-0.6c1.1,0,1.6,0.3,1.6,0.8
		c0,0.3-0.2,0.7-0.3,1c-0.3,0.5-0.6,0.9-1.1,1.3c-0.5,0.3-0.9,0.6-1.5,0.9C58,4.3,57.5,4.7,57,5C56.5,5.4,56,5.9,55.7,6.5z"/>
	<path id="Path_5" class="st0" d="M75.2,17.2L75.2,17.2c-0.8,2.2-1.5,4.2-2.3,6c-0.7,1.6-1.4,3.2-2.3,4.8c-0.4,0.5-0.8,1-1.3,1.4
		c-0.4,0.3-0.8,0.5-1.3,0.6c-0.1,0-0.2-0.1-0.4-0.1c-0.2-0.1-0.3-0.2-0.4-0.4c-0.5-0.8-0.9-2.8-1.1-6.2s-0.4-7.3-0.4-12.1
		c-0.1-2.6,0.1-5.1,0.5-7.7c0.1-0.5,0.3-0.9,0.6-1.3c0.3-0.4,0.8-0.8,1.2-1c0.5-0.3,1-0.6,1.5-0.8c0.4-0.2,0.8-0.3,1.2-0.3
		c0.2,0,0.5,0.1,0.6,0.3c0.2,0.3,0.2,0.6,0.2,0.9c0,0.2,0,0.4-0.1,0.6c-0.2,1.4-0.4,3.3-0.6,5.7c-0.1,1.6-0.2,3-0.3,4
		c-0.1,1-0.1,2.4-0.1,4.2c0,1.8-0.1,3.5-0.1,5.2l0.1,0.1c0.4-0.9,0.9-1.9,1.3-3c0.2-0.4,0.3-0.9,0.5-1.2c0.1-0.4,0.3-0.8,0.5-1.3
		c0.4-1.2,0.8-2.4,1.1-3.5c0.2-0.5,0.3-1.1,0.4-1.6c1.4-4.8,2.4-7.7,2.9-8.5c0.4-0.4,0.9-0.8,1.4-1c0.6-0.3,1.2-0.5,1.9-0.5
		c0.3,0,0.7,0.1,0.9,0.4C81.9,1,82,1.3,82,1.7C82,2.5,81.8,3.2,81.6,4c-0.5,2.2-0.9,4.6-1.2,7.2c-0.3,2.3-0.4,4.6-0.4,7
		c0,4.1,0.5,6.2,1.5,6.2c0.3,0,0.6-0.4,0.9-1.1c0.3-0.9,0.6-1.8,0.8-2.7c0.2-1.1,0.4-2.4,0.5-3.8c0.1-1.5,0.2-3,0.2-4.4
		c0-0.9,0-2-0.1-3.2c0-0.3,0-0.6,0-0.9c0-1.7,0.6-3.4,1.7-4.8c0.5-0.8,0.9-1.2,1.2-1.2c0.6,0,0.9,1.9,0.9,5.7c0,2.6-0.2,5.2-0.6,7.7
		c-0.4,2.6-1,5.1-1.9,7.5c-0.4,1.1-0.9,2.2-1.5,3.2c-0.5,0.9-1.1,1.7-1.7,2.5c-0.6,0.7-1.4,1.2-2.3,1.2c-1.5,0-2.6-0.9-3.3-2.8
		c-0.7-1.9-1.1-4.7-1.1-8.6L75.2,17.2L75.2,17.2z"/>
	<path id="Path_6" class="st0" d="M100.1,20.2l-5,0v0.5c0,1,0.2,2,0.6,2.9c0.4,0.9,0.8,1.3,1.3,1.3c0.7-0.1,1.4-0.4,2.1-0.8
		c1.1-0.7,2.1-1.5,3.1-2.4l0.5-0.5c0.2-0.2,0.5-0.4,0.7-0.6c0.5-0.5,0.9-0.8,1-0.8c0.2,0,0.2,0.2,0.2,0.7c0,0.6-0.1,1.2-0.2,1.8
		c-0.1,0.7-0.3,1.3-0.4,1.9c-0.1,0.5-0.3,0.9-0.6,1.3c-0.7,0.9-1.7,1.8-2.7,2.4c-1.2,0.8-2.5,1.5-3.8,2.1c-0.4,0.1-0.8,0.2-1.2,0.2
		c-1.2,0-2.5-0.4-3.4-1.2c-1.1-0.9-1.9-2-2.4-3.3c-0.6-1.5-0.9-3.1-0.9-4.7c0-1.6,0.2-3.2,0.6-4.7c0.4-1.8,0.9-3.5,1.6-5.1
		c0.6-1.6,1.4-3.2,2.3-4.7c0.7-1.2,1.6-2.3,2.5-3.3c0.8-0.9,1.7-1.7,2.7-2.3c0.7-0.5,1.5-0.7,2.4-0.8c1.2,0,2.3,0.6,2.9,1.5
		c0.8,1.1,1.3,2.4,1.2,3.7c0,0.7-0.1,1.4-0.2,2.1c-0.1,0.7-0.3,1.3-0.6,2c-0.3,0.7-0.7,1.3-1.1,1.8c-0.5,0.6-1.1,1.1-1.7,1.5
		c-0.6,0.4-1.3,0.6-2,0.7c-0.6,0-0.8-0.2-0.8-0.6c0.1-0.4,0.2-0.8,0.5-1.1c0.4-0.6,0.7-1.2,1-1.9c0.3-1,0.6-2,0.8-3
		c0.2-0.9,0.3-1.8,0.4-2.7c0-0.5-0.1-0.8-0.3-0.8c-0.3,0-0.9,0.6-1.7,1.7c-0.8,1-1.4,2.1-2,3.3c-0.5,1-0.8,2-1.1,3.1
		c-0.3,1-0.5,2.1-0.6,3.1h7.3c0.8,0,1.2,0.3,1.2,1c-0.2,1.1-0.7,2.1-1.4,3C101.6,19.6,100.8,20.2,100.1,20.2z"/>
	<path id="Path_7" class="st0" d="M110.1,6.8l0.4-1.5c-0.3,0.1-0.6,0.1-0.9,0.2c-0.2,0.1-0.5,0.1-0.8,0.1c-0.5,0-0.7-0.4-0.7-1.1
		c0-0.4,0.1-0.7,0.2-1.1c0.1-0.3,0.2-0.6,0.4-0.9c0.5-0.6,1.2-1,2-1.2c1.2-0.3,2.4-0.5,3.6-0.5c1,0,2.1,0.2,3,0.7
		c0.9,0.4,1.8,1.1,2.5,1.9c0.7,0.8,1.3,1.7,1.6,2.7c0.4,1.1,0.6,2.2,0.6,3.3c0,1.2-0.2,2.4-0.5,3.6c-0.3,1-0.8,2-1.4,2.9
		c-0.3,0.5-0.7,0.9-1.1,1.3c-0.5,0.4-1,0.7-1.5,0.9c0.1,0.4,0.3,0.8,0.5,1.2c0.2,0.4,0.4,0.8,0.7,1.1c1,1.3,2.2,2.4,3.5,3.2
		c0.1,0.1,0.2,0.1,0.3,0.2c-0.2,1.2-0.3,2.1-0.5,2.7c-0.2,0.6-0.4,1.3-0.7,1.9c-0.6,1.2-1.2,1.8-2,1.8c-0.6-0.1-1.2-0.3-1.6-0.8
		c-0.6-0.5-1.2-1.1-1.6-1.8c-0.3-0.6-0.6-1.2-0.9-1.9c-0.3-0.7-0.5-1.4-0.8-2.3c-0.3-0.9-0.5-1.7-0.7-2.5c-0.2-0.7-0.3-1.4-0.4-2.1
		c0-0.2,0-0.3,0-0.5c0-0.2,0-0.5,0.2-0.7c0.2-0.2,0.4-0.4,0.6-0.5c0.4-0.2,0.7-0.5,1-0.8c0.4-0.4,0.7-0.9,1-1.3
		c0.5-0.9,0.9-1.8,1.1-2.8c0.3-1.1,0.4-2.1,0.4-3.2c0.1-1-0.1-2.1-0.6-3c-0.4-0.7-1-1.3-1.8-1.5c-0.8,4.6-1.6,8.8-2.4,12.8l-0.3,1.6
		c-0.5,2.6-0.9,4.6-1.2,5.8c-0.2,0.9-0.5,1.9-1,2.7c-0.4,0.6-0.9,1.1-1.5,1.5c-0.4,0.4-1,0.7-1.6,0.8c-0.8,0-1.1-0.7-1.1-2.1
		c0-1,0.2-1.9,0.3-2.9c0.2-1.4,0.5-3.1,1-5.3c0.4-2.2,0.9-4.3,1.4-6.4C109.1,11.2,109.6,9,110.1,6.8z"/>
</g>
<g id="Group_19" transform="translate(0 0.734)">
	<g id="Group_18" transform="translate(2.732 2.497)">
		<path id="Path_8" class="st1" d="M6.4,1.2H5.5c-2.9,0-4.6,0.3-4.6,4.8c0,3.4,1.8,4.7,6.6,4.7h21c-0.3-0.4-0.6-0.9-0.8-1.3H5.5V8.2
			h21.7c-0.2-0.5-0.3-1-0.3-1.6H5.5V5.6h21.3c0-0.6,0.1-1.2,0.3-1.7H5.5V2.8h22c0.3-0.6,0.6-1.1,0.9-1.6H7.3
			C7.1,1.2,6.8,1.2,6.4,1.2z"/>
		<path id="Path_9" class="st2" d="M28.5,10.6h-21c-4.8,0-6.6-1.3-6.6-4.7c0-4.4,1.8-4.8,4.6-4.8h22.9c0.1-0.1,0.1-0.2,0.2-0.3V0H0
			v12h28.7v-1.2C28.6,10.8,28.6,10.7,28.5,10.6z"/>
		<path id="Path_10" class="st2" d="M28.7,10.6h-0.2c0.1,0.1,0.2,0.2,0.2,0.3V10.6z"/>
		<path id="Path_11" class="st2" d="M28.7,1.2V0.9c-0.1,0.1-0.2,0.2-0.2,0.3H28.7z"/>
		<path id="Path_12" class="st1" d="M6.4,14.6H5.5c-2.9,0-4.6,0.3-4.6,4.8c0,3.4,1.8,4.7,6.6,4.7h21c-0.4-0.5-0.7-1.1-1-1.7h-22
			v-1.1h21.6c-0.1-0.5-0.2-1.1-0.2-1.6H5.5v-1.1h21.4c0.1-0.6,0.2-1.2,0.4-1.7H5.5v-1.1h22.1c0.2-0.4,0.5-0.9,0.8-1.2H7.3
			C7,14.6,6.7,14.6,6.4,14.6z"/>
		<path id="Path_13" class="st2" d="M28.7,24.3c-0.1-0.1-0.2-0.2-0.2-0.3h-21c-4.8,0-6.6-1.3-6.6-4.7c0-4.4,1.8-4.8,4.6-4.8h22.9
			c0.1-0.1,0.1-0.2,0.2-0.3v-0.8H0v12h28.7V24.3z"/>
		<path id="Path_14" class="st2" d="M28.7,24h-0.2c0.1,0.1,0.2,0.2,0.2,0.3V24z"/>
		<path id="Path_15" class="st2" d="M28.7,14.6v-0.3c-0.1,0.1-0.2,0.2-0.2,0.3L28.7,14.6z"/>
		<path id="Path_16" class="st3" d="M5.5,9.3h22.1c-0.2-0.3-0.3-0.7-0.4-1.1H5.5V9.3z"/>
		<path id="Path_17" class="st3" d="M5.5,6.6h21.4c0-0.3,0-0.5,0-0.8V5.6H5.5V6.6z"/>
		<path id="Path_18" class="st3" d="M5.5,3.8h21.6c0.1-0.4,0.2-0.7,0.4-1.1h-22V3.8z"/>
		<path id="Path_19" class="st3" d="M5.5,22.4h21.9c-0.1-0.4-0.3-0.7-0.4-1.1H5.5V22.4z"/>
		<path id="Path_20" class="st3" d="M5.5,19.7h21.3c0-0.1,0-0.3,0-0.4c0-0.2,0-0.4,0-0.6H5.5V19.7z"/>
		<path id="Path_21" class="st3" d="M5.5,16.9h21.7c0.1-0.4,0.3-0.7,0.4-1.1H5.5V16.9z"/>
	</g>
	<path id="Path_22" class="st0" d="M9.5,0h-1C6.2,0,0,0,0,8.6c0,5.7,3.5,8.5,10.4,8.5h22.2v-3.8H10.4c-4.8,0-6.6-1.3-6.6-4.7
		c0-4.4,1.8-4.8,4.6-4.8h24.2V0H10.3C10,0,9.7,0,9.5,0"/>
	<path id="Path_23" class="st0" d="M9.5,13.2h-1c-2.3,0-8.5,0-8.5,8.5c0,5.7,3.5,8.5,10.4,8.5h22.2v-3.8H10.4
		c-4.8,0-6.6-1.3-6.6-4.7c0-4.4,1.8-4.8,4.6-4.8h24.2v-3.8H10.3C10,13.2,9.7,13.3,9.5,13.2"/>
</g>
</svg>
