<svg xmlns="http://www.w3.org/2000/svg" width="24" height="27.719" viewBox="0 0 24 27.719">
  <g id="Group_336" data-name="Group 336" transform="translate(-451 -886.75)">
    <path id="Path_473" data-name="Path 473" d="M19.754,17.747a1.252,1.252,0,0,0,.206.691l.67,1A1.4,1.4,0,0,0,21.671,20H24.08a1.4,1.4,0,0,0,1.04-.558l.667-1A1.472,1.472,0,0,0,26,17.747L26,16.216H19.75ZM22.876,0A6.847,6.847,0,0,0,17.7,11.364a11.237,11.237,0,0,1,2.04,3.573c0,.01,0,.02,0,.031H26c0-.01,0-.02,0-.031a11.234,11.234,0,0,1,2.04-3.573,6.7,6.7,0,0,0,1.7-4.524A6.868,6.868,0,0,0,22.876,0Zm3.766,10.161a13.686,13.686,0,0,0-1.916,2.965h-3.7a13.688,13.688,0,0,0-1.916-2.964A5.064,5.064,0,0,1,17.875,6.84,4.953,4.953,0,0,1,22.84,1.875,5.005,5.005,0,0,1,27.876,6.84,5.071,5.071,0,0,1,26.641,10.161ZM22.25,3.125A3.129,3.129,0,0,0,19.125,6.25a.625.625,0,1,0,1.25,0A1.877,1.877,0,0,1,22.25,4.375a.625.625,0,1,0,0-1.25Z" transform="translate(440 894.469)" fill="#fff"/>
    <path id="Icon_ionic-md-flashlight" data-name="Icon ionic-md-flashlight" d="M16.18,2.25H19.07v4.5H16.18ZM5.625,7.762,7.664,5.625l3.061,3.206L8.686,10.969ZM24.518,8.831l3.068-3.2L29.625,7.77l-3.061,3.2Z" transform="translate(445.375 884.5)" fill="#fff"/>
  </g>
</svg>
