<svg xmlns="http://www.w3.org/2000/svg" xmlns:xlink="http://www.w3.org/1999/xlink" width="557.008" height="461" viewBox="0 0 557.008 461">
  <defs>
    <clipPath id="clip-path">
      <rect id="Rectangle_4" data-name="Rectangle 4" width="557.008" height="317.692" fill="none"/>
    </clipPath>
    <filter id="eye-regular" x="139" y="123" width="280" height="221.76" filterUnits="userSpaceOnUse">
      <feOffset dy="3" input="SourceAlpha"/>
      <feGaussianBlur stdDeviation="3" result="blur"/>
      <feFlood flood-opacity="0.161"/>
      <feComposite operator="in" in2="blur"/>
      <feComposite in="SourceGraphic"/>
    </filter>
    <clipPath id="clip-path-2">
      <rect id="Rectangle_9" data-name="Rectangle 9" width="162" height="162" transform="translate(392 130)" fill="#fff" stroke="#707070" stroke-width="1"/>
    </clipPath>
    <filter id="Rectangle_19" x="45" y="0" width="468" height="468" filterUnits="userSpaceOnUse">
      <feOffset dy="3" input="SourceAlpha"/>
      <feGaussianBlur stdDeviation="3" result="blur-2"/>
      <feFlood flood-opacity="0.161"/>
      <feComposite operator="in" in2="blur-2"/>
      <feComposite in="SourceGraphic"/>
    </filter>
    <clipPath id="clip-path-3">
      <rect id="Rectangle_20" data-name="Rectangle 20" width="162" height="162" transform="translate(692 130)" fill="#fff" stroke="#707070" stroke-width="1"/>
    </clipPath>
    <filter id="Rectangle_23" x="45" y="0" width="468" height="468" filterUnits="userSpaceOnUse">
      <feOffset dy="3" input="SourceAlpha"/>
      <feGaussianBlur stdDeviation="3" result="blur-3"/>
      <feFlood flood-opacity="0.161"/>
      <feComposite operator="in" in2="blur-3"/>
      <feComposite in="SourceGraphic"/>
    </filter>
    <clipPath id="clip-path-4">
      <rect id="Rectangle_21" data-name="Rectangle 21" width="162" height="162" transform="translate(692 429)" fill="#fff" stroke="#707070" stroke-width="1"/>
    </clipPath>
    <filter id="Rectangle_24" x="45" y="0" width="468" height="468" filterUnits="userSpaceOnUse">
      <feOffset dy="3" input="SourceAlpha"/>
      <feGaussianBlur stdDeviation="3" result="blur-4"/>
      <feFlood flood-opacity="0.161"/>
      <feComposite operator="in" in2="blur-4"/>
      <feComposite in="SourceGraphic"/>
    </filter>
    <clipPath id="clip-path-5">
      <rect id="Rectangle_22" data-name="Rectangle 22" width="162" height="162" transform="translate(392 429)" fill="#fff" stroke="#707070" stroke-width="1"/>
    </clipPath>
    <filter id="Rectangle_25" x="45" y="0" width="468" height="468" filterUnits="userSpaceOnUse">
      <feOffset dy="3" input="SourceAlpha"/>
      <feGaussianBlur stdDeviation="3" result="blur-5"/>
      <feFlood flood-opacity="0.161"/>
      <feComposite operator="in" in2="blur-5"/>
      <feComposite in="SourceGraphic"/>
    </filter>
  </defs>
  <g id="Group_10" data-name="Group 10" transform="translate(-344 -130)">
    <g id="Group_4" data-name="Group 4" transform="translate(344 202)">
      <g id="Group_3" data-name="Group 3" clip-path="url(#clip-path)">
        <path id="Path_4" data-name="Path 4" d="M540.008,312.692H17a12.035,12.035,0,0,1-12-12V17A12.035,12.035,0,0,1,17,5H540.008a12.035,12.035,0,0,1,12,12V300.692a12.035,12.035,0,0,1-12,12" fill="#928aff"/>
        <rect id="Rectangle_3" data-name="Rectangle 3" width="547.008" height="307.692" rx="12" transform="translate(5 5)" fill="none" stroke="#000" stroke-miterlimit="10" stroke-width="10"/>
      </g>
    </g>
    <g transform="matrix(1, 0, 0, 1, 344, 130)" filter="url(#eye-regular)">
      <path id="eye-regular-2" data-name="eye-regular" d="M131,53.831c-29.654,0-54.033,13.463-72.726,30.791A161.936,161.936,0,0,0,22.482,133.88a162.467,162.467,0,0,0,35.749,49.257c18.739,17.329,43.117,30.791,72.771,30.791s54.033-13.463,72.726-30.791a161.936,161.936,0,0,0,35.794-49.257,162.467,162.467,0,0,0-35.749-49.257C185.035,67.294,160.657,53.831,131,53.831ZM43.4,68.659C64.826,48.737,94.253,32,131,32s66.177,16.737,87.6,36.659c21.286,19.785,35.522,43.39,42.3,59.627a14.464,14.464,0,0,1,0,11.189c-6.777,16.237-21.013,39.888-42.3,59.627-21.422,19.921-50.849,36.659-87.6,36.659S64.826,219.023,43.4,199.1c-21.286-19.739-35.522-43.39-42.253-59.627a14.464,14.464,0,0,1,0-11.189C7.882,112.049,22.118,88.4,43.4,68.659ZM131,170.266a36.386,36.386,0,0,0,0-72.771h-.91a29.537,29.537,0,0,1,.91,7.277,29.136,29.136,0,0,1-29.109,29.109,29.536,29.536,0,0,1-7.277-.91v.91A36.376,36.376,0,0,0,131,170.266Zm0-94.6A58.217,58.217,0,1,1,72.785,133.88,58.217,58.217,0,0,1,131,75.663Z" transform="translate(147.98 97)" fill="#fff"/>
    </g>
    <g id="Mask_Group_1" data-name="Mask Group 1" clip-path="url(#clip-path-2)">
      <g transform="matrix(1, 0, 0, 1, 344, 130)" filter="url(#Rectangle_19)">
        <g id="Rectangle_19-2" data-name="Rectangle 19" transform="translate(54 6)" fill="none" stroke="#fff" stroke-width="30">
          <rect width="450" height="450" rx="50" stroke="none"/>
          <rect x="15" y="15" width="420" height="420" rx="35" fill="none"/>
        </g>
      </g>
    </g>
    <g id="Mask_Group_2" data-name="Mask Group 2" clip-path="url(#clip-path-3)">
      <g transform="matrix(1, 0, 0, 1, 344, 130)" filter="url(#Rectangle_23)">
        <g id="Rectangle_23-2" data-name="Rectangle 23" transform="translate(54 6)" fill="none" stroke="#fff" stroke-width="30">
          <rect width="450" height="450" rx="50" stroke="none"/>
          <rect x="15" y="15" width="420" height="420" rx="35" fill="none"/>
        </g>
      </g>
    </g>
    <g id="Mask_Group_3" data-name="Mask Group 3" clip-path="url(#clip-path-4)">
      <g transform="matrix(1, 0, 0, 1, 344, 130)" filter="url(#Rectangle_24)">
        <g id="Rectangle_24-2" data-name="Rectangle 24" transform="translate(54 6)" fill="none" stroke="#fff" stroke-width="30">
          <rect width="450" height="450" rx="50" stroke="none"/>
          <rect x="15" y="15" width="420" height="420" rx="35" fill="none"/>
        </g>
      </g>
    </g>
    <g id="Mask_Group_4" data-name="Mask Group 4" clip-path="url(#clip-path-5)">
      <g transform="matrix(1, 0, 0, 1, 344, 130)" filter="url(#Rectangle_25)">
        <g id="Rectangle_25-2" data-name="Rectangle 25" transform="translate(54 6)" fill="none" stroke="#fff" stroke-width="30">
          <rect width="450" height="450" rx="50" stroke="none"/>
          <rect x="15" y="15" width="420" height="420" rx="35" fill="none"/>
        </g>
      </g>
    </g>
  </g>
</svg>
