<svg xmlns="http://www.w3.org/2000/svg" xmlns:xlink="http://www.w3.org/1999/xlink" width="616" height="16" viewBox="0 0 616 16">
  <defs>
    <clipPath id="clip-path">
      <rect id="Rectangle_1" data-name="Rectangle 1" width="616" height="16" fill="none"/>
    </clipPath>
  </defs>
  <g id="Group_2" data-name="Group 2" transform="translate(0 0)">
    <g id="Group_1" data-name="Group 1" transform="translate(0 0)" clip-path="url(#clip-path)">
      <path id="Path_1" data-name="Path 1" d="M0,8.374l3.588-.225a2.738,2.738,0,0,0,.475,1.332,1.994,1.994,0,0,0,1.664.742,1.837,1.837,0,0,0,1.244-.379,1.133,1.133,0,0,0,.438-.879,1.121,1.121,0,0,0-.416-.847,4.829,4.829,0,0,0-1.931-.708,8.218,8.218,0,0,1-3.54-1.482A2.979,2.979,0,0,1,.457,3.57,3.182,3.182,0,0,1,1,1.794,3.612,3.612,0,0,1,2.643.478a7.642,7.642,0,0,1,3-.478A6.128,6.128,0,0,1,9.212.87a3.761,3.761,0,0,1,1.461,2.767l-3.556.208a1.9,1.9,0,0,0-.6-1.2,1.908,1.908,0,0,0-1.252-.374,1.511,1.511,0,0,0-.991.278.856.856,0,0,0-.333.679.673.673,0,0,0,.275.523A3.036,3.036,0,0,0,5.487,4.2a15.819,15.819,0,0,1,3.54,1.078,3.734,3.734,0,0,1,1.559,1.353,3.45,3.45,0,0,1,.486,1.808,3.883,3.883,0,0,1-.647,2.165,4.071,4.071,0,0,1-1.816,1.5,7.32,7.32,0,0,1-2.938.512q-3.115,0-4.312-1.2A4.72,4.72,0,0,1,0,8.374" transform="translate(0 0)" fill="#e33c0b"/>
      <path id="Path_2" data-name="Path 2" d="M8.834,11.15V2.309h1.34V3.549a3.114,3.114,0,0,1,2.681-1.44,2.91,2.91,0,0,1,1.612.408,2.186,2.186,0,0,1,.886,1.14,3.177,3.177,0,0,1,2.731-1.548,2.691,2.691,0,0,1,2.024.729,3.11,3.11,0,0,1,.707,2.243V11.15h-1.49V5.581a4.135,4.135,0,0,0-.145-1.295,1.253,1.253,0,0,0-.528-.636,1.652,1.652,0,0,0-.9-.243,2.094,2.094,0,0,0-1.549.62,2.74,2.74,0,0,0-.616,1.986V11.15h-1.5V5.406a2.533,2.533,0,0,0-.365-1.5,1.394,1.394,0,0,0-1.2-.5,2.191,2.191,0,0,0-1.17.333,1.9,1.9,0,0,0-.779.975,5.47,5.47,0,0,0-.241,1.848V11.15Z" transform="translate(5.289 1.263)" fill="#1a1311"/>
      <path id="Path_3" data-name="Path 3" d="M24.477,10.059a5.549,5.549,0,0,1-1.6,1,4.616,4.616,0,0,1-1.653.291,3.21,3.21,0,0,1-2.238-.711A2.347,2.347,0,0,1,18.2,8.818a2.427,2.427,0,0,1,.3-1.186,2.457,2.457,0,0,1,.774-.862,3.638,3.638,0,0,1,1.078-.489,10.6,10.6,0,0,1,1.332-.225,13.771,13.771,0,0,0,2.673-.516c.006-.2.008-.336.008-.392a1.648,1.648,0,0,0-.425-1.29,2.5,2.5,0,0,0-1.706-.508,2.649,2.649,0,0,0-1.56.371,2.248,2.248,0,0,0-.745,1.311l-1.464-.2a3.6,3.6,0,0,1,.657-1.519A2.878,2.878,0,0,1,20.44,2.42a5.949,5.949,0,0,1,2.006-.312,5.311,5.311,0,0,1,1.839.267,2.411,2.411,0,0,1,1.041.67,2.35,2.35,0,0,1,.467,1.02,8.294,8.294,0,0,1,.075,1.381v2a21.147,21.147,0,0,0,.1,2.643,3.314,3.314,0,0,0,.379,1.062H24.777a3.145,3.145,0,0,1-.3-1.09m-.125-3.346A11.046,11.046,0,0,1,21.9,7.28a5.638,5.638,0,0,0-1.308.3,1.312,1.312,0,0,0-.59.488,1.319,1.319,0,0,0,.246,1.711,1.945,1.945,0,0,0,1.327.4A3.113,3.113,0,0,0,23.121,9.8a2.337,2.337,0,0,0,.99-1.038,3.611,3.611,0,0,0,.241-1.5Z" transform="translate(10.897 1.262)" fill="#1a1311"/>
      <path id="Path_4" data-name="Path 4" d="M25.238,11.15V2.309h1.349V3.65a3.657,3.657,0,0,1,.953-1.242,1.659,1.659,0,0,1,.961-.3,2.927,2.927,0,0,1,1.541.481l-.516,1.393a2.136,2.136,0,0,0-1.1-.326,1.432,1.432,0,0,0-.883.3,1.6,1.6,0,0,0-.556.822,5.781,5.781,0,0,0-.251,1.746v4.63Z" transform="translate(15.111 1.263)" fill="#1a1311"/>
      <path id="Path_5" data-name="Path 5" d="M33.181,10.892l.216,1.322a5.518,5.518,0,0,1-1.132.134A2.58,2.58,0,0,1,31,12.09a1.451,1.451,0,0,1-.633-.678,5.391,5.391,0,0,1-.182-1.768V4.556h-1.1V3.391h1.1V1.2l1.49-.9V3.391h1.508V4.556H31.673v5.17a2.612,2.612,0,0,0,.078.823.644.644,0,0,0,.259.293,1,1,0,0,0,.512.107,5.235,5.235,0,0,0,.659-.058" transform="translate(17.413 0.181)" fill="#1a1311"/>
      <path id="Path_6" data-name="Path 6" d="M37.177.13h4.959L44.05,7.556,45.948.13h4.958v12.2H47.816V3.027l-2.379,9.308h-2.8L40.266,3.027v9.308H37.177Z" transform="translate(22.259 0.078)" fill="#f38200"/>
      <path id="Path_7" data-name="Path 7" d="M54.23,8.3l1.549.192A3.774,3.774,0,0,1,54.422,10.6a4.594,4.594,0,0,1-5.605-.444A4.671,4.671,0,0,1,47.678,6.8,4.891,4.891,0,0,1,48.827,3.34a3.888,3.888,0,0,1,2.98-1.231,3.785,3.785,0,0,1,2.9,1.205,4.8,4.8,0,0,1,1.124,3.4c0,.09,0,.222-.008.4H49.227a3.384,3.384,0,0,0,.825,2.232,2.448,2.448,0,0,0,1.847.774,2.3,2.3,0,0,0,1.408-.432A2.873,2.873,0,0,0,54.23,8.3M49.31,5.88h4.937a2.975,2.975,0,0,0-.568-1.674,2.293,2.293,0,0,0-1.856-.867,2.383,2.383,0,0,0-1.735.692A2.73,2.73,0,0,0,49.31,5.88" transform="translate(28.547 1.263)" fill="#1a1311"/>
      <path id="Path_8" data-name="Path 8" d="M58.3,10.892l.217,1.322a5.518,5.518,0,0,1-1.132.134,2.571,2.571,0,0,1-1.266-.259,1.435,1.435,0,0,1-.633-.678,5.391,5.391,0,0,1-.182-1.768V4.556h-1.1V3.391h1.1V1.2L56.8.3V3.391H58.3V4.556H56.8v5.17a2.611,2.611,0,0,0,.078.823.644.644,0,0,0,.259.293,1,1,0,0,0,.512.107,5.214,5.214,0,0,0,.657-.058" transform="translate(32.456 0.181)" fill="#1a1311"/>
      <path id="Path_9" data-name="Path 9" d="M58.484,12.335V.13h1.5V4.509A3.354,3.354,0,0,1,62.63,3.294a3.573,3.573,0,0,1,1.706.387,2.268,2.268,0,0,1,1.038,1.07,4.94,4.94,0,0,1,.312,1.981v5.6h-1.5v-5.6A2.318,2.318,0,0,0,63.7,5.1a1.814,1.814,0,0,0-1.38-.513,2.442,2.442,0,0,0-1.252.345,1.943,1.943,0,0,0-.836.937A4.272,4.272,0,0,0,59.982,7.5v4.836Z" transform="translate(35.017 0.078)" fill="#1a1311"/>
      <path id="Path_10" data-name="Path 10" d="M64.867,6.73a4.555,4.555,0,0,1,1.365-3.639,4.109,4.109,0,0,1,2.78-.983,3.959,3.959,0,0,1,2.98,1.2,4.541,4.541,0,0,1,1.157,3.3,5.838,5.838,0,0,1-.513,2.684,3.616,3.616,0,0,1-1.488,1.519,4.355,4.355,0,0,1-2.136.542,3.968,3.968,0,0,1-3-1.191A4.75,4.75,0,0,1,64.867,6.73m1.54,0a3.76,3.76,0,0,0,.742,2.544,2.467,2.467,0,0,0,3.72,0,3.857,3.857,0,0,0,.742-2.588,3.644,3.644,0,0,0-.747-2.486,2.471,2.471,0,0,0-3.715,0,3.743,3.743,0,0,0-.742,2.54" transform="translate(38.839 1.262)" fill="#1a1311"/>
      <path id="Path_11" data-name="Path 11" d="M77.885,12.335V11.219a2.753,2.753,0,0,1-2.473,1.316,3.484,3.484,0,0,1-1.944-.582,3.848,3.848,0,0,1-1.373-1.629,5.631,5.631,0,0,1-.488-2.4,6.25,6.25,0,0,1,.443-2.4,3.465,3.465,0,0,1,1.324-1.653,3.539,3.539,0,0,1,1.971-.574,2.957,2.957,0,0,1,1.424.336,3,3,0,0,1,1.015.879V.13h1.49v12.2ZM73.148,7.922a3.845,3.845,0,0,0,.715,2.539,2.161,2.161,0,0,0,1.691.841,2.121,2.121,0,0,0,1.669-.8,3.7,3.7,0,0,0,.687-2.451,4.161,4.161,0,0,0-.7-2.664,2.152,2.152,0,0,0-1.723-.849,2.077,2.077,0,0,0-1.669.815,4.035,4.035,0,0,0-.67,2.572" transform="translate(42.874 0.078)" fill="#1a1311"/>
      <path id="Path_12" data-name="Path 12" d="M78.3,8.511l1.482-.233a2.074,2.074,0,0,0,.694,1.365,2.436,2.436,0,0,0,1.594.475,2.35,2.35,0,0,0,1.533-.42,1.264,1.264,0,0,0,.5-.986.912.912,0,0,0-.441-.8A6.531,6.531,0,0,0,82.133,7.4a13.774,13.774,0,0,1-2.286-.721,2.2,2.2,0,0,1-.966-.839,2.237,2.237,0,0,1-.329-1.186,2.291,2.291,0,0,1,.27-1.1,2.454,2.454,0,0,1,.737-.836,3.094,3.094,0,0,1,.954-.438,4.5,4.5,0,0,1,1.293-.179,5.115,5.115,0,0,1,1.827.3,2.486,2.486,0,0,1,1.161.811,3.18,3.18,0,0,1,.518,1.37l-1.466.2a1.594,1.594,0,0,0-.579-1.065,2.115,2.115,0,0,0-1.353-.384,2.442,2.442,0,0,0-1.474.342.991.991,0,0,0-.441.8.835.835,0,0,0,.184.524,1.341,1.341,0,0,0,.574.4q.225.082,1.324.382a18.835,18.835,0,0,1,2.219.694,2.268,2.268,0,0,1,.986.788,2.195,2.195,0,0,1,.358,1.281,2.5,2.5,0,0,1-.438,1.412,2.811,2.811,0,0,1-1.261,1.025,4.589,4.589,0,0,1-1.864.361,4.153,4.153,0,0,1-2.627-.716A3.337,3.337,0,0,1,78.3,8.511" transform="translate(46.883 1.262)" fill="#1a1311"/>
      <path id="Path_13" data-name="Path 13" d="M89.292,12.413V4.737H87.968V3.572h1.324v-.94a4.111,4.111,0,0,1,.158-1.324,1.909,1.909,0,0,1,.761-.945A2.735,2.735,0,0,1,91.739,0a7.4,7.4,0,0,1,1.4.15l-.224,1.306a5,5,0,0,0-.884-.083,1.321,1.321,0,0,0-.966.291,1.584,1.584,0,0,0-.281,1.092v.815h1.722V4.737H90.783v7.676Z" transform="translate(52.67 0)" fill="#1a1311"/>
      <path id="Path_14" data-name="Path 14" d="M91.986,6.73a4.555,4.555,0,0,1,1.365-3.639,4.109,4.109,0,0,1,2.78-.983,3.959,3.959,0,0,1,2.98,1.2,4.541,4.541,0,0,1,1.158,3.3,5.861,5.861,0,0,1-.512,2.684,3.629,3.629,0,0,1-1.49,1.519,4.355,4.355,0,0,1-2.136.542,3.967,3.967,0,0,1-3-1.191A4.75,4.75,0,0,1,91.986,6.73m1.54,0a3.76,3.76,0,0,0,.742,2.544,2.467,2.467,0,0,0,3.72,0A3.857,3.857,0,0,0,98.73,6.68a3.644,3.644,0,0,0-.747-2.486,2.471,2.471,0,0,0-3.715,0,3.743,3.743,0,0,0-.742,2.54" transform="translate(55.076 1.262)" fill="#1a1311"/>
      <path id="Path_15" data-name="Path 15" d="M99.055,11.15V2.309H100.4V3.65a3.657,3.657,0,0,1,.953-1.242,1.659,1.659,0,0,1,.961-.3,2.927,2.927,0,0,1,1.541.481l-.516,1.393a2.136,2.136,0,0,0-1.1-.326,1.432,1.432,0,0,0-.883.3,1.6,1.6,0,0,0-.556.822,5.78,5.78,0,0,0-.251,1.746v4.63Z" transform="translate(59.309 1.263)" fill="#1a1311"/>
      <path id="Path_16" data-name="Path 16" d="M110.759,10.892l.217,1.322a5.518,5.518,0,0,1-1.132.134,2.571,2.571,0,0,1-1.266-.259,1.435,1.435,0,0,1-.633-.678,5.391,5.391,0,0,1-.182-1.768V4.556h-1.1V3.391h1.1V1.2l1.49-.9V3.391h1.506V4.556h-1.506v5.17a2.612,2.612,0,0,0,.078.823.644.644,0,0,0,.259.293,1,1,0,0,0,.512.107,5.213,5.213,0,0,0,.657-.058" transform="translate(63.865 0.181)" fill="#1a1311"/>
      <path id="Path_17" data-name="Path 17" d="M110.942,12.335V.13h1.5V4.509a3.354,3.354,0,0,1,2.648-1.215,3.573,3.573,0,0,1,1.706.387,2.268,2.268,0,0,1,1.038,1.07,4.94,4.94,0,0,1,.312,1.981v5.6h-1.5v-5.6a2.318,2.318,0,0,0-.484-1.634,1.814,1.814,0,0,0-1.38-.513,2.442,2.442,0,0,0-1.252.345,1.942,1.942,0,0,0-.836.937A4.272,4.272,0,0,0,112.44,7.5v4.836Z" transform="translate(66.426 0.078)" fill="#1a1311"/>
      <path id="Path_18" data-name="Path 18" d="M123.912,8.3l1.549.192A3.782,3.782,0,0,1,124.1,10.6a4.6,4.6,0,0,1-5.607-.444A4.677,4.677,0,0,1,117.36,6.8a4.891,4.891,0,0,1,1.149-3.464,3.888,3.888,0,0,1,2.98-1.231,3.785,3.785,0,0,1,2.9,1.205,4.8,4.8,0,0,1,1.124,3.4c0,.09,0,.222-.008.4h-6.593a3.384,3.384,0,0,0,.825,2.232,2.448,2.448,0,0,0,1.847.774,2.3,2.3,0,0,0,1.408-.432,2.873,2.873,0,0,0,.922-1.383M118.992,5.88h4.937a2.975,2.975,0,0,0-.568-1.674,2.293,2.293,0,0,0-1.856-.867,2.383,2.383,0,0,0-1.735.692,2.73,2.73,0,0,0-.779,1.848" transform="translate(70.269 1.263)" fill="#1a1311"/>
      <path id="Path_19" data-name="Path 19" d="M136.207,10.32h-4.281l-.6,2.014h-3.85L132.066.13h4.115l4.585,12.2h-3.949Zm-.782-2.64-1.348-4.387-1.333,4.387Z" transform="translate(76.328 0.078)" fill="#399d26"/>
      <path id="Path_20" data-name="Path 20" d="M143.2,12.335V11.219a2.753,2.753,0,0,1-2.473,1.316,3.484,3.484,0,0,1-1.944-.582,3.848,3.848,0,0,1-1.373-1.629,5.631,5.631,0,0,1-.488-2.4,6.25,6.25,0,0,1,.443-2.4,3.456,3.456,0,0,1,1.324-1.653,3.539,3.539,0,0,1,1.971-.574,2.957,2.957,0,0,1,1.424.336,3,3,0,0,1,1.015.879V.13h1.49v12.2Zm-4.737-4.413a3.845,3.845,0,0,0,.715,2.539,2.161,2.161,0,0,0,1.691.841,2.121,2.121,0,0,0,1.669-.8,3.7,3.7,0,0,0,.687-2.451,4.161,4.161,0,0,0-.7-2.664,2.152,2.152,0,0,0-1.723-.849,2.077,2.077,0,0,0-1.669.815,4.035,4.035,0,0,0-.67,2.572" transform="translate(81.982 0.078)" fill="#1a1311"/>
      <path id="Path_21" data-name="Path 21" d="M149.952,10.059a5.549,5.549,0,0,1-1.6,1,4.615,4.615,0,0,1-1.653.291,3.207,3.207,0,0,1-2.238-.711,2.347,2.347,0,0,1-.783-1.819,2.427,2.427,0,0,1,.3-1.186,2.457,2.457,0,0,1,.774-.862,3.639,3.639,0,0,1,1.078-.489,10.6,10.6,0,0,1,1.332-.225,13.77,13.77,0,0,0,2.673-.516c.006-.2.008-.336.008-.392a1.648,1.648,0,0,0-.425-1.29,2.5,2.5,0,0,0-1.706-.508,2.649,2.649,0,0,0-1.56.371,2.248,2.248,0,0,0-.745,1.311l-1.466-.2a3.621,3.621,0,0,1,.659-1.519,2.878,2.878,0,0,1,1.324-.892,5.949,5.949,0,0,1,2.006-.312,5.311,5.311,0,0,1,1.839.267,2.411,2.411,0,0,1,1.041.67,2.351,2.351,0,0,1,.467,1.02,8.3,8.3,0,0,1,.075,1.381v2a21.142,21.142,0,0,0,.1,2.643,3.313,3.313,0,0,0,.379,1.062h-1.565a3.144,3.144,0,0,1-.3-1.09m-.125-3.346a11.046,11.046,0,0,1-2.448.568,5.638,5.638,0,0,0-1.308.3,1.313,1.313,0,0,0-.59.488,1.319,1.319,0,0,0,.246,1.711,1.945,1.945,0,0,0,1.327.4A3.113,3.113,0,0,0,148.6,9.8a2.337,2.337,0,0,0,.99-1.038,3.611,3.611,0,0,0,.241-1.5Z" transform="translate(86.025 1.262)" fill="#1a1311"/>
      <path id="Path_22" data-name="Path 22" d="M150.723,14.537V2.308h1.365V3.457a3.378,3.378,0,0,1,1.09-1.012,2.99,2.99,0,0,1,1.474-.337,3.5,3.5,0,0,1,2,.582,3.577,3.577,0,0,1,1.309,1.647,6.023,6.023,0,0,1,.44,2.326,5.914,5.914,0,0,1-.486,2.443A3.686,3.686,0,0,1,156.5,10.77a3.642,3.642,0,0,1-1.954.579,2.82,2.82,0,0,1-1.345-.317,3.037,3.037,0,0,1-.977-.8v4.3ZM152.08,6.78a3.835,3.835,0,0,0,.692,2.521,2.113,2.113,0,0,0,1.672.817,2.171,2.171,0,0,0,1.711-.844,4.012,4.012,0,0,0,.711-2.619,3.9,3.9,0,0,0-.694-2.531,2.1,2.1,0,0,0-1.661-.843,2.16,2.16,0,0,0-1.695.9,4,4,0,0,0-.737,2.6" transform="translate(90.245 1.262)" fill="#1a1311"/>
      <path id="Path_23" data-name="Path 23" d="M161.035,10.892l.217,1.322a5.518,5.518,0,0,1-1.132.134,2.572,2.572,0,0,1-1.266-.259,1.435,1.435,0,0,1-.633-.678,5.391,5.391,0,0,1-.182-1.768V4.556h-1.1V3.391h1.1V1.2l1.49-.9V3.391h1.506V4.556h-1.506v5.17a2.611,2.611,0,0,0,.078.823.644.644,0,0,0,.259.293,1,1,0,0,0,.512.107,5.214,5.214,0,0,0,.657-.058" transform="translate(93.967 0.181)" fill="#1a1311"/>
      <path id="Path_24" data-name="Path 24" d="M161.223.13h1.5V1.853h-1.5Zm0,3.364h1.5v8.841h-1.5Z" transform="translate(96.532 0.078)" fill="#1a1311"/>
      <path id="Path_25" data-name="Path 25" d="M167.182,11.075,163.82,2.234H165.4l1.9,5.293q.307.861.566,1.783.2-.7.556-1.682l1.966-5.394h1.54l-3.346,8.841Z" transform="translate(98.087 1.338)" fill="#1a1311"/>
      <path id="Path_26" data-name="Path 26" d="M176.758,8.3l1.549.192A3.773,3.773,0,0,1,176.95,10.6a4.6,4.6,0,0,1-5.607-.444A4.677,4.677,0,0,1,170.206,6.8a4.891,4.891,0,0,1,1.15-3.464,3.888,3.888,0,0,1,2.98-1.231,3.785,3.785,0,0,1,2.9,1.205,4.8,4.8,0,0,1,1.124,3.4c0,.09,0,.222-.008.4h-6.593a3.384,3.384,0,0,0,.825,2.232,2.448,2.448,0,0,0,1.847.774,2.3,2.3,0,0,0,1.409-.432,2.873,2.873,0,0,0,.922-1.383M171.838,5.88h4.937a2.975,2.975,0,0,0-.568-1.674,2.293,2.293,0,0,0-1.856-.867,2.383,2.383,0,0,0-1.735.692,2.73,2.73,0,0,0-.779,1.848" transform="translate(101.91 1.263)" fill="#1a1311"/>
      <path id="Path_27" data-name="Path 27" d="M186.972,10.059a5.55,5.55,0,0,1-1.6,1,4.616,4.616,0,0,1-1.653.291,3.21,3.21,0,0,1-2.238-.711,2.347,2.347,0,0,1-.783-1.819,2.427,2.427,0,0,1,.3-1.186,2.457,2.457,0,0,1,.774-.862,3.638,3.638,0,0,1,1.078-.489,10.6,10.6,0,0,1,1.332-.225,13.771,13.771,0,0,0,2.673-.516c.006-.2.008-.336.008-.392a1.647,1.647,0,0,0-.425-1.29,2.5,2.5,0,0,0-1.706-.508,2.649,2.649,0,0,0-1.56.371,2.248,2.248,0,0,0-.745,1.311l-1.466-.2a3.621,3.621,0,0,1,.659-1.519,2.878,2.878,0,0,1,1.324-.892,5.949,5.949,0,0,1,2.006-.312,5.311,5.311,0,0,1,1.839.267,2.411,2.411,0,0,1,1.041.67,2.35,2.35,0,0,1,.467,1.02,8.3,8.3,0,0,1,.075,1.381v2a21.151,21.151,0,0,0,.1,2.643,3.314,3.314,0,0,0,.379,1.062h-1.565a3.145,3.145,0,0,1-.3-1.09m-.125-3.346a11.046,11.046,0,0,1-2.448.568,5.638,5.638,0,0,0-1.308.3,1.312,1.312,0,0,0-.59.488,1.319,1.319,0,0,0,.246,1.711,1.945,1.945,0,0,0,1.327.4,3.113,3.113,0,0,0,1.541-.377,2.337,2.337,0,0,0,.99-1.038,3.611,3.611,0,0,0,.241-1.5Z" transform="translate(108.19 1.262)" fill="#1a1311"/>
      <path id="Path_28" data-name="Path 28" d="M187.743,11.15V2.309h1.349V3.565a3.174,3.174,0,0,1,2.814-1.456,3.717,3.717,0,0,1,1.469.286,2.337,2.337,0,0,1,1,.755,2.869,2.869,0,0,1,.465,1.106,8.343,8.343,0,0,1,.085,1.458V11.15h-1.5V5.772a4.037,4.037,0,0,0-.176-1.37,1.453,1.453,0,0,0-.619-.724,2,2,0,0,0-1.047-.27,2.432,2.432,0,0,0-1.651.608,3,3,0,0,0-.7,2.305v4.83Z" transform="translate(112.41 1.263)" fill="#1a1311"/>
      <path id="Path_29" data-name="Path 29" d="M200.413,12.335V11.219a2.753,2.753,0,0,1-2.473,1.316A3.484,3.484,0,0,1,196,11.953a3.848,3.848,0,0,1-1.373-1.629,5.631,5.631,0,0,1-.488-2.4,6.25,6.25,0,0,1,.443-2.4A3.456,3.456,0,0,1,195.9,3.868a3.539,3.539,0,0,1,1.971-.574,2.957,2.957,0,0,1,1.424.336,3,3,0,0,1,1.015.879V.13h1.49v12.2Zm-4.737-4.413a3.845,3.845,0,0,0,.715,2.539,2.161,2.161,0,0,0,1.691.841,2.12,2.12,0,0,0,1.669-.8,3.7,3.7,0,0,0,.687-2.451,4.161,4.161,0,0,0-.7-2.664,2.152,2.152,0,0,0-1.723-.849,2.077,2.077,0,0,0-1.669.815,4.035,4.035,0,0,0-.67,2.572" transform="translate(116.238 0.078)" fill="#1a1311"/>
      <path id="Path_30" data-name="Path 30" d="M205.077,12.335V.13h6.285a9.109,9.109,0,0,1,2.672.3,2.839,2.839,0,0,1,1.492,1.111,3.38,3.38,0,0,1,.566,1.976,3.4,3.4,0,0,1-.433,1.754,3.394,3.394,0,0,1-1.191,1.194,4.6,4.6,0,0,1-1.324.483,3.755,3.755,0,0,1,.98.449,3.813,3.813,0,0,1,.6.641,4.818,4.818,0,0,1,.528.759l1.827,3.536h-4.261L210.8,8.6a2.818,2.818,0,0,0-.683-.94,1.581,1.581,0,0,0-.924-.285h-.333v4.955Zm3.787-7.26h1.589a5.536,5.536,0,0,0,1-.166,1,1,0,0,0,.612-.384,1.112,1.112,0,0,0,.237-.707,1.125,1.125,0,0,0-.374-.908,2.274,2.274,0,0,0-1.407-.317h-1.656Z" transform="translate(122.789 0.078)" fill="#0099db"/>
      <path id="Path_31" data-name="Path 31" d="M220.3,8.3l1.549.192a3.773,3.773,0,0,1-1.357,2.106,4.594,4.594,0,0,1-5.605-.444A4.67,4.67,0,0,1,213.75,6.8,4.89,4.89,0,0,1,214.9,3.34a3.888,3.888,0,0,1,2.98-1.231,3.785,3.785,0,0,1,2.9,1.205,4.8,4.8,0,0,1,1.124,3.4c0,.09,0,.222-.008.4H215.3a3.393,3.393,0,0,0,.825,2.232,2.45,2.45,0,0,0,1.847.774,2.3,2.3,0,0,0,1.408-.432A2.873,2.873,0,0,0,220.3,8.3M215.381,5.88h4.937a2.975,2.975,0,0,0-.568-1.674,2.293,2.293,0,0,0-1.856-.867,2.383,2.383,0,0,0-1.735.692,2.73,2.73,0,0,0-.779,1.848" transform="translate(127.982 1.263)" fill="#1a1311"/>
      <path id="Path_32" data-name="Path 32" d="M220.419,8.511l1.482-.233a2.074,2.074,0,0,0,.694,1.365,2.436,2.436,0,0,0,1.594.475,2.35,2.35,0,0,0,1.533-.42,1.264,1.264,0,0,0,.5-.986.912.912,0,0,0-.441-.8,6.524,6.524,0,0,0-1.533-.508,13.8,13.8,0,0,1-2.285-.721A2.2,2.2,0,0,1,221,5.843a2.237,2.237,0,0,1-.329-1.186,2.291,2.291,0,0,1,.27-1.1,2.437,2.437,0,0,1,.737-.836,3.094,3.094,0,0,1,.954-.438,4.5,4.5,0,0,1,1.293-.179,5.115,5.115,0,0,1,1.827.3,2.486,2.486,0,0,1,1.161.811,3.18,3.18,0,0,1,.518,1.37l-1.466.2a1.594,1.594,0,0,0-.579-1.065,2.115,2.115,0,0,0-1.353-.384,2.442,2.442,0,0,0-1.474.342.991.991,0,0,0-.441.8.835.835,0,0,0,.184.524,1.341,1.341,0,0,0,.574.4q.225.082,1.324.382a18.835,18.835,0,0,1,2.219.694,2.268,2.268,0,0,1,.986.788,2.207,2.207,0,0,1,.358,1.281,2.5,2.5,0,0,1-.438,1.412,2.811,2.811,0,0,1-1.261,1.025,4.589,4.589,0,0,1-1.864.361,4.15,4.15,0,0,1-2.627-.716,3.33,3.33,0,0,1-1.153-2.122" transform="translate(131.975 1.262)" fill="#1a1311"/>
      <path id="Path_33" data-name="Path 33" d="M226.925,14.537V2.308h1.365V3.457a3.378,3.378,0,0,1,1.09-1.012,2.994,2.994,0,0,1,1.474-.337,3.5,3.5,0,0,1,2,.582,3.577,3.577,0,0,1,1.309,1.647,6.023,6.023,0,0,1,.44,2.326,5.914,5.914,0,0,1-.486,2.443,3.7,3.7,0,0,1-3.369,2.243,2.82,2.82,0,0,1-1.345-.317,3.037,3.037,0,0,1-.977-.8v4.3Zm1.357-7.757a3.835,3.835,0,0,0,.692,2.521,2.113,2.113,0,0,0,1.672.817,2.171,2.171,0,0,0,1.711-.844,4.012,4.012,0,0,0,.711-2.619,3.9,3.9,0,0,0-.694-2.531,2.1,2.1,0,0,0-1.661-.843,2.16,2.16,0,0,0-1.695.9,4,4,0,0,0-.737,2.6" transform="translate(135.87 1.262)" fill="#1a1311"/>
      <path id="Path_34" data-name="Path 34" d="M233.307,6.73a4.555,4.555,0,0,1,1.365-3.639,4.109,4.109,0,0,1,2.78-.983,3.959,3.959,0,0,1,2.98,1.2,4.541,4.541,0,0,1,1.158,3.3,5.86,5.86,0,0,1-.512,2.684,3.629,3.629,0,0,1-1.49,1.519,4.355,4.355,0,0,1-2.136.542,3.972,3.972,0,0,1-3-1.191,4.75,4.75,0,0,1-1.145-3.429m1.54,0a3.76,3.76,0,0,0,.742,2.544,2.467,2.467,0,0,0,3.72,0,3.857,3.857,0,0,0,.742-2.588,3.644,3.644,0,0,0-.747-2.486,2.471,2.471,0,0,0-3.715,0,3.743,3.743,0,0,0-.742,2.54" transform="translate(139.692 1.262)" fill="#1a1311"/>
      <path id="Path_35" data-name="Path 35" d="M240.388,11.15V2.309h1.349V3.565a3.174,3.174,0,0,1,2.814-1.456,3.716,3.716,0,0,1,1.469.286,2.336,2.336,0,0,1,1,.755,2.869,2.869,0,0,1,.465,1.106,8.343,8.343,0,0,1,.085,1.458V11.15h-1.5V5.772A4.037,4.037,0,0,0,245.9,4.4a1.453,1.453,0,0,0-.619-.724,2,2,0,0,0-1.047-.27,2.432,2.432,0,0,0-1.652.608,3,3,0,0,0-.7,2.305v4.83Z" transform="translate(143.931 1.263)" fill="#1a1311"/>
      <path id="Path_36" data-name="Path 36" d="M246.743,8.511l1.482-.233a2.074,2.074,0,0,0,.694,1.365,2.436,2.436,0,0,0,1.594.475,2.35,2.35,0,0,0,1.533-.42,1.264,1.264,0,0,0,.5-.986.912.912,0,0,0-.441-.8,6.531,6.531,0,0,0-1.532-.508,13.773,13.773,0,0,1-2.286-.721,2.2,2.2,0,0,1-.966-.839,2.237,2.237,0,0,1-.329-1.186,2.291,2.291,0,0,1,.27-1.1A2.454,2.454,0,0,1,248,2.725a3.093,3.093,0,0,1,.954-.438,4.5,4.5,0,0,1,1.293-.179,5.115,5.115,0,0,1,1.827.3,2.5,2.5,0,0,1,1.162.811,3.2,3.2,0,0,1,.516,1.37l-1.466.2a1.594,1.594,0,0,0-.579-1.065,2.115,2.115,0,0,0-1.353-.384,2.445,2.445,0,0,0-1.474.342.991.991,0,0,0-.441.8.835.835,0,0,0,.184.524,1.341,1.341,0,0,0,.574.4q.225.082,1.324.382a18.833,18.833,0,0,1,2.219.694,2.268,2.268,0,0,1,.986.788,2.195,2.195,0,0,1,.358,1.281,2.5,2.5,0,0,1-.438,1.412,2.811,2.811,0,0,1-1.261,1.025,4.584,4.584,0,0,1-1.864.361,4.153,4.153,0,0,1-2.627-.716,3.337,3.337,0,0,1-1.153-2.122" transform="translate(147.736 1.262)" fill="#1a1311"/>
      <path id="Path_37" data-name="Path 37" d="M253.255.13h1.5V1.853h-1.5Zm0,3.364h1.5v8.841h-1.5Z" transform="translate(151.635 0.078)" fill="#1a1311"/>
      <path id="Path_38" data-name="Path 38" d="M259.215,11.075l-3.362-8.841h1.581l1.9,5.293q.307.861.566,1.783.2-.7.556-1.682l1.966-5.394h1.54l-3.346,8.841Z" transform="translate(153.191 1.338)" fill="#1a1311"/>
      <path id="Path_39" data-name="Path 39" d="M268.791,8.3l1.549.192a3.782,3.782,0,0,1-1.357,2.106,4.6,4.6,0,0,1-5.607-.444A4.677,4.677,0,0,1,262.239,6.8a4.891,4.891,0,0,1,1.149-3.464,3.888,3.888,0,0,1,2.98-1.231,3.785,3.785,0,0,1,2.9,1.205,4.8,4.8,0,0,1,1.124,3.4c0,.09,0,.222-.008.4h-6.593a3.384,3.384,0,0,0,.825,2.232,2.448,2.448,0,0,0,1.846.774,2.3,2.3,0,0,0,1.409-.432,2.873,2.873,0,0,0,.922-1.383M263.871,5.88h4.937a2.976,2.976,0,0,0-.568-1.674,2.293,2.293,0,0,0-1.856-.867,2.383,2.383,0,0,0-1.735.692,2.729,2.729,0,0,0-.779,1.848" transform="translate(157.015 1.263)" fill="#1a1311"/>
      <path id="Path_40" data-name="Path 40" d="M272.587.13H284.05V3.144H280.2v9.191h-3.773V3.144h-3.845Z" transform="translate(163.21 0.078)" fill="#431274"/>
      <path id="Path_41" data-name="Path 41" d="M287.785,8.3l1.549.192a3.774,3.774,0,0,1-1.357,2.106,4.6,4.6,0,0,1-5.607-.444A4.676,4.676,0,0,1,281.235,6.8a4.89,4.89,0,0,1,1.148-3.464,3.889,3.889,0,0,1,2.982-1.231,3.784,3.784,0,0,1,2.9,1.205,4.8,4.8,0,0,1,1.124,3.4c0,.09,0,.222-.008.4h-6.593a3.384,3.384,0,0,0,.825,2.232,2.45,2.45,0,0,0,1.847.774,2.3,2.3,0,0,0,1.409-.432,2.873,2.873,0,0,0,.922-1.383M282.866,5.88H287.8a2.975,2.975,0,0,0-.568-1.674,2.292,2.292,0,0,0-1.856-.867,2.383,2.383,0,0,0-1.735.692,2.73,2.73,0,0,0-.779,1.848" transform="translate(168.388 1.263)" fill="#1a1311"/>
      <path id="Path_42" data-name="Path 42" d="M294.237,10.059a5.507,5.507,0,0,1-1.6,1,4.616,4.616,0,0,1-1.653.291,3.21,3.21,0,0,1-2.238-.711,2.352,2.352,0,0,1-.783-1.819,2.428,2.428,0,0,1,.3-1.186,2.458,2.458,0,0,1,.774-.862,3.64,3.64,0,0,1,1.078-.489,10.6,10.6,0,0,1,1.332-.225,13.771,13.771,0,0,0,2.673-.516c.006-.2.008-.336.008-.392a1.647,1.647,0,0,0-.425-1.29,2.5,2.5,0,0,0-1.706-.508,2.653,2.653,0,0,0-1.56.371,2.248,2.248,0,0,0-.745,1.311l-1.464-.2a3.62,3.62,0,0,1,.657-1.519A2.878,2.878,0,0,1,290.2,2.42a5.949,5.949,0,0,1,2.006-.312,5.31,5.31,0,0,1,1.839.267,2.411,2.411,0,0,1,1.041.67,2.351,2.351,0,0,1,.467,1.02,8.3,8.3,0,0,1,.075,1.381v2a21.147,21.147,0,0,0,.1,2.643,3.314,3.314,0,0,0,.379,1.062h-1.565a3.183,3.183,0,0,1-.3-1.09m-.125-3.346a11.023,11.023,0,0,1-2.448.568,5.636,5.636,0,0,0-1.308.3,1.312,1.312,0,0,0-.59.488,1.32,1.32,0,0,0,.246,1.711,1.945,1.945,0,0,0,1.327.4,3.113,3.113,0,0,0,1.541-.377,2.337,2.337,0,0,0,.99-1.038,3.611,3.611,0,0,0,.241-1.5Z" transform="translate(172.415 1.262)" fill="#1a1311"/>
      <path id="Path_43" data-name="Path 43" d="M300.949,7.911l1.474.19a3.813,3.813,0,0,1-1.237,2.385,3.593,3.593,0,0,1-2.443.862,3.793,3.793,0,0,1-2.918-1.186,4.809,4.809,0,0,1-1.1-3.4,6.149,6.149,0,0,1,.475-2.505,3.3,3.3,0,0,1,1.445-1.612,4.274,4.274,0,0,1,2.109-.537,3.677,3.677,0,0,1,2.357.729,3.343,3.343,0,0,1,1.174,2.069l-1.456.225a2.414,2.414,0,0,0-.737-1.341,1.9,1.9,0,0,0-1.277-.449,2.333,2.333,0,0,0-1.84.811,3.86,3.86,0,0,0-.708,2.569,3.993,3.993,0,0,0,.683,2.59,2.225,2.225,0,0,0,1.781.807,2.1,2.1,0,0,0,1.474-.542,2.671,2.671,0,0,0,.75-1.664" transform="translate(176.464 1.262)" fill="#1a1311"/>
      <path id="Path_44" data-name="Path 44" d="M301.141,12.335V.13h1.5V4.509a3.354,3.354,0,0,1,2.648-1.215,3.573,3.573,0,0,1,1.706.387,2.268,2.268,0,0,1,1.038,1.07,4.94,4.94,0,0,1,.312,1.981v5.6h-1.5v-5.6a2.318,2.318,0,0,0-.484-1.634,1.814,1.814,0,0,0-1.38-.513,2.442,2.442,0,0,0-1.252.345,1.943,1.943,0,0,0-.836.937,4.273,4.273,0,0,0-.251,1.632v4.836Z" transform="translate(180.307 0.078)" fill="#1a1311"/>
      <path id="Path_45" data-name="Path 45" d="M307.876.13h1.5V1.853h-1.5Zm0,3.364h1.5v8.841h-1.5Z" transform="translate(184.339 0.078)" fill="#1a1311"/>
      <path id="Path_46" data-name="Path 46" d="M311.04,11.15V2.309h1.349V3.565A3.173,3.173,0,0,1,315.2,2.109a3.711,3.711,0,0,1,1.469.286,2.332,2.332,0,0,1,1,.755,2.868,2.868,0,0,1,.465,1.106,8.342,8.342,0,0,1,.085,1.458V11.15h-1.5V5.772a4.037,4.037,0,0,0-.176-1.37,1.453,1.453,0,0,0-.619-.724,2,2,0,0,0-1.047-.27,2.432,2.432,0,0,0-1.652.608,3,3,0,0,0-.7,2.305v4.83Z" transform="translate(186.234 1.263)" fill="#1a1311"/>
      <path id="Path_47" data-name="Path 47" d="M317.713,11.881l1.456.217a1.387,1.387,0,0,0,.507.982,2.494,2.494,0,0,0,1.524.417,2.67,2.67,0,0,0,1.607-.417,2.057,2.057,0,0,0,.767-1.164,9.622,9.622,0,0,0,.107-1.923,3.082,3.082,0,0,1-2.448,1.156,3.337,3.337,0,0,1-2.822-1.314,5.066,5.066,0,0,1-1-3.156,5.9,5.9,0,0,1,.457-2.336A3.676,3.676,0,0,1,319.2,2.69a3.6,3.6,0,0,1,2.045-.582,3.171,3.171,0,0,1,2.58,1.266V2.308H325.2V9.95a7.242,7.242,0,0,1-.42,2.926,3.063,3.063,0,0,1-1.333,1.362,4.594,4.594,0,0,1-2.243.5,4.227,4.227,0,0,1-2.555-.711,2.406,2.406,0,0,1-.94-2.144m1.239-5.311a3.841,3.841,0,0,0,.692,2.54,2.281,2.281,0,0,0,3.463,0,3.709,3.709,0,0,0,.7-2.494,3.624,3.624,0,0,0-.719-2.446,2.227,2.227,0,0,0-1.736-.825,2.163,2.163,0,0,0-1.7.812,3.608,3.608,0,0,0-.7,2.409" transform="translate(190.049 1.262)" fill="#1a1311"/>
      <path id="Path_48" data-name="Path 48" d="M327.916,6.73a4.555,4.555,0,0,1,1.365-3.639,4.109,4.109,0,0,1,2.78-.983,3.959,3.959,0,0,1,2.98,1.2,4.541,4.541,0,0,1,1.158,3.3,5.838,5.838,0,0,1-.513,2.684,3.615,3.615,0,0,1-1.488,1.519,4.355,4.355,0,0,1-2.136.542,3.968,3.968,0,0,1-3-1.191,4.75,4.75,0,0,1-1.145-3.429m1.54,0a3.76,3.76,0,0,0,.742,2.544,2.467,2.467,0,0,0,3.72,0,3.857,3.857,0,0,0,.742-2.588,3.644,3.644,0,0,0-.747-2.486,2.471,2.471,0,0,0-3.716,0,3.743,3.743,0,0,0-.742,2.54" transform="translate(196.338 1.262)" fill="#1a1311"/>
      <path id="Path_49" data-name="Path 49" d="M335.716,12.413V4.737h-1.324V3.572h1.324v-.94a4.11,4.11,0,0,1,.158-1.324,1.909,1.909,0,0,1,.761-.945A2.736,2.736,0,0,1,338.164,0a7.4,7.4,0,0,1,1.4.15l-.224,1.306a5.005,5.005,0,0,0-.884-.083,1.321,1.321,0,0,0-.966.291,1.584,1.584,0,0,0-.281,1.092v.815h1.722V4.737h-1.722v7.676Z" transform="translate(200.216 0)" fill="#1a1311"/>
      <path id="Path_50" data-name="Path 50" d="M351.524,8.133l1.615.409a5.427,5.427,0,0,1-1.827,3.033,5.028,5.028,0,0,1-3.225,1.046,5.794,5.794,0,0,1-3.21-.8,5.026,5.026,0,0,1-1.882-2.328,8.332,8.332,0,0,1-.644-3.271,7.18,7.18,0,0,1,.727-3.325A4.99,4.99,0,0,1,345.151.737,6.037,6.037,0,0,1,348.11,0a5,5,0,0,1,3.081.932,4.853,4.853,0,0,1,1.739,2.622l-1.589.374a3.8,3.8,0,0,0-1.233-1.939,3.288,3.288,0,0,0-2.032-.608,3.953,3.953,0,0,0-2.352.675,3.558,3.558,0,0,0-1.327,1.81,7.289,7.289,0,0,0-.384,2.344,7.446,7.446,0,0,0,.454,2.718,3.373,3.373,0,0,0,1.412,1.736,3.947,3.947,0,0,0,2.072.574,3.474,3.474,0,0,0,2.3-.782,4,4,0,0,0,1.274-2.323" transform="translate(204.981 0)" fill="#1a1311"/>
      <path id="Path_51" data-name="Path 51" d="M351.022,12.335V.13h1.5V4.509a3.354,3.354,0,0,1,2.647-1.215,3.573,3.573,0,0,1,1.706.387,2.268,2.268,0,0,1,1.038,1.07,4.94,4.94,0,0,1,.312,1.981v5.6h-1.5v-5.6a2.318,2.318,0,0,0-.484-1.634,1.811,1.811,0,0,0-1.38-.513,2.441,2.441,0,0,0-1.252.345,1.942,1.942,0,0,0-.836.937A4.271,4.271,0,0,0,352.52,7.5v4.836Z" transform="translate(210.173 0.078)" fill="#1a1311"/>
      <path id="Path_52" data-name="Path 52" d="M357.759.13h1.5V1.853h-1.5Zm0,3.364h1.5v8.841h-1.5Z" transform="translate(214.207 0.078)" fill="#1a1311"/>
      <path id="Path_53" data-name="Path 53" d="M360.923,11.15V2.309h1.349V3.565a3.174,3.174,0,0,1,2.814-1.456,3.7,3.7,0,0,1,1.468.286,2.333,2.333,0,0,1,1,.755,2.869,2.869,0,0,1,.465,1.106,8.344,8.344,0,0,1,.085,1.458V11.15h-1.5V5.772a4.037,4.037,0,0,0-.176-1.37,1.453,1.453,0,0,0-.619-.724,2,2,0,0,0-1.047-.27,2.432,2.432,0,0,0-1.651.608,3,3,0,0,0-.694,2.305v4.83Z" transform="translate(216.101 1.263)" fill="#1a1311"/>
      <path id="Path_54" data-name="Path 54" d="M373.892,8.3l1.549.192a3.782,3.782,0,0,1-1.357,2.106,4.6,4.6,0,0,1-5.607-.444A4.677,4.677,0,0,1,367.34,6.8,4.891,4.891,0,0,1,368.49,3.34a3.888,3.888,0,0,1,2.98-1.231,3.785,3.785,0,0,1,2.9,1.205,4.8,4.8,0,0,1,1.124,3.4c0,.09,0,.222-.008.4h-6.593a3.384,3.384,0,0,0,.825,2.232,2.448,2.448,0,0,0,1.847.774,2.3,2.3,0,0,0,1.409-.432,2.873,2.873,0,0,0,.922-1.383M368.972,5.88h4.937a2.975,2.975,0,0,0-.568-1.674,2.293,2.293,0,0,0-1.856-.867,2.383,2.383,0,0,0-1.735.692,2.73,2.73,0,0,0-.779,1.848" transform="translate(219.943 1.263)" fill="#1a1311"/>
      <path id="Path_55" data-name="Path 55" d="M374.01,8.511l1.482-.233a2.067,2.067,0,0,0,.694,1.365,2.436,2.436,0,0,0,1.594.475,2.35,2.35,0,0,0,1.533-.42,1.263,1.263,0,0,0,.5-.986.91.91,0,0,0-.443-.8,6.479,6.479,0,0,0-1.53-.508,13.772,13.772,0,0,1-2.286-.721,2.2,2.2,0,0,1-.966-.839,2.236,2.236,0,0,1-.329-1.186,2.291,2.291,0,0,1,.27-1.1,2.454,2.454,0,0,1,.737-.836,3.094,3.094,0,0,1,.954-.438,4.5,4.5,0,0,1,1.293-.179,5.115,5.115,0,0,1,1.827.3,2.487,2.487,0,0,1,1.161.811,3.18,3.18,0,0,1,.518,1.37l-1.466.2a1.594,1.594,0,0,0-.579-1.065,2.115,2.115,0,0,0-1.353-.384,2.442,2.442,0,0,0-1.474.342.991.991,0,0,0-.441.8.835.835,0,0,0,.184.524,1.34,1.34,0,0,0,.574.4q.225.082,1.324.382a18.833,18.833,0,0,1,2.219.694,2.268,2.268,0,0,1,.986.788,2.195,2.195,0,0,1,.358,1.281,2.5,2.5,0,0,1-.438,1.412,2.812,2.812,0,0,1-1.261,1.025,4.589,4.589,0,0,1-1.864.361,4.153,4.153,0,0,1-2.627-.716,3.33,3.33,0,0,1-1.153-2.122" transform="translate(223.937 1.262)" fill="#1a1311"/>
      <path id="Path_56" data-name="Path 56" d="M386.756,8.3l1.549.192a3.774,3.774,0,0,1-1.357,2.106,4.6,4.6,0,0,1-5.607-.444A4.677,4.677,0,0,1,380.2,6.8a4.891,4.891,0,0,1,1.149-3.464,3.888,3.888,0,0,1,2.98-1.231,3.785,3.785,0,0,1,2.9,1.205,4.8,4.8,0,0,1,1.124,3.4c0,.09,0,.222-.008.4h-6.593a3.384,3.384,0,0,0,.825,2.232,2.448,2.448,0,0,0,1.847.774,2.3,2.3,0,0,0,1.409-.432,2.873,2.873,0,0,0,.922-1.383M381.836,5.88h4.937a2.976,2.976,0,0,0-.568-1.674,2.293,2.293,0,0,0-1.856-.867,2.383,2.383,0,0,0-1.735.692,2.73,2.73,0,0,0-.779,1.848" transform="translate(227.646 1.263)" fill="#1a1311"/>
    </g>
  </g>
</svg>
