<svg xmlns="http://www.w3.org/2000/svg" xmlns:xlink="http://www.w3.org/1999/xlink" width="386.218" height="34.678" viewBox="0 0 386.218 34.678">
  <defs>
    <clipPath id="clip-path">
      <rect id="Rectangle_2" data-name="Rectangle 2" width="386.218" height="34.678" fill="none"/>
    </clipPath>
  </defs>
  <g id="Group_4" data-name="Group 4" transform="translate(0 0)">
    <g id="Group_3" data-name="Group 3" transform="translate(0 0)" clip-path="url(#clip-path)">
      <path id="Path_57" data-name="Path 57" d="M20.9.014l.268,11.039h-1a11.318,11.318,0,0,0-3.48-6.681,8.757,8.757,0,0,0-6-2.528A5.612,5.612,0,0,0,6.752,3.177,4.052,4.052,0,0,0,5.3,6.241a3.715,3.715,0,0,0,.513,1.954,8.283,8.283,0,0,0,2.27,2.272,51.283,51.283,0,0,0,5.3,2.856q5.812,2.859,7.84,5.4a9.132,9.132,0,0,1,2,5.812,9.4,9.4,0,0,1-3.237,7.143,11.635,11.635,0,0,1-8.217,2.99,13.334,13.334,0,0,1-2.956-.316,22.544,22.544,0,0,1-3.492-1.2,5.293,5.293,0,0,0-1.929-.489,2.4,2.4,0,0,0-1.343.489A3.411,3.411,0,0,0,.9,34.644H0V22.14H.9a14.357,14.357,0,0,0,4.139,8.047,9.694,9.694,0,0,0,6.606,2.77,6.2,6.2,0,0,0,4.36-1.49,4.491,4.491,0,0,0,1-5.739,7.223,7.223,0,0,0-1.892-2.086,28.564,28.564,0,0,0-4.494-2.578,38.777,38.777,0,0,1-6.5-3.785,11.626,11.626,0,0,1-3.04-3.492A8.671,8.671,0,0,1,.025,9.538,8.99,8.99,0,0,1,2.929,2.8,10.175,10.175,0,0,1,10.257.014a12.44,12.44,0,0,1,3.126.391,15.609,15.609,0,0,1,2.8,1.086,6.547,6.547,0,0,0,2.306.793,1.3,1.3,0,0,0,1-.389A4.487,4.487,0,0,0,20.172.014Z" transform="translate(0 0.011)" fill="#1a1311"/>
      <path id="Path_58" data-name="Path 58" d="M38.918,22.27,47.9.437H61.385v.9H60.311a4.645,4.645,0,0,0-2.345.513A2.391,2.391,0,0,0,56.989,3a9.957,9.957,0,0,0-.268,3.053V27.888a10.91,10.91,0,0,0,.268,3.174,2.451,2.451,0,0,0,1.1,1.111,4.458,4.458,0,0,0,2.224.477h1.074v.9H44.094v-.9h1.075a4.619,4.619,0,0,0,2.344-.514,2.364,2.364,0,0,0,.977-1.172,10,10,0,0,0,.27-3.076V3.343L36.06,33.552h-.586L22.581,3.563V26.886a20.528,20.528,0,0,0,.121,3,3.476,3.476,0,0,0,1.379,1.99,5.746,5.746,0,0,0,3.335.77v.9H16.084v-.9h.341a5.176,5.176,0,0,0,2.052-.355,3.294,3.294,0,0,0,1.44-1.013,4.655,4.655,0,0,0,.757-1.783c.034-.179.048-1.009.048-2.492V6.055a10.572,10.572,0,0,0-.268-3.138,2.473,2.473,0,0,0-1.1-1.1,4.455,4.455,0,0,0-2.222-.477h-1.05v-.9H29.613Z" transform="translate(12.646 0.343)" fill="#1a1311"/>
      <path id="Path_59" data-name="Path 59" d="M63.986,24.428h-11.7L50.9,27.651a7.191,7.191,0,0,0-.684,2.663,2.212,2.212,0,0,0,1.124,2.051,9.443,9.443,0,0,0,3.247.586v.9H43.569v-.9A4.93,4.93,0,0,0,46.5,31.473a19.6,19.6,0,0,0,2.833-4.994L61.178.055h.463L73.583,27.211a16.536,16.536,0,0,0,2.808,4.86,3.824,3.824,0,0,0,2.345.879v.9H62.716v-.9h.659a5.013,5.013,0,0,0,2.712-.538,1.3,1.3,0,0,0,.536-1.122,2.967,2.967,0,0,0-.146-.9q-.048-.22-.732-1.833Zm-.831-1.808L58.222,11.215,53.143,22.621Z" transform="translate(34.256 0.043)" fill="#1a1311"/>
      <path id="Path_60" data-name="Path 60" d="M77.848,18.461v9.28a10.244,10.244,0,0,0,.33,3.383,2.415,2.415,0,0,0,1.159,1.111,7.819,7.819,0,0,0,3.1.414v.9H65.491v-.9a7.589,7.589,0,0,0,3.113-.427,2.487,2.487,0,0,0,1.149-1.111,10.131,10.131,0,0,0,.329-3.371V6.25a10.262,10.262,0,0,0-.329-3.383,2.412,2.412,0,0,0-1.161-1.111,7.807,7.807,0,0,0-3.1-.414v-.9H80.876a33.562,33.562,0,0,1,8.792.831A8.857,8.857,0,0,1,94.21,4.334,8.224,8.224,0,0,1,95.97,9.571a7.828,7.828,0,0,1-2.638,6.057,10.9,10.9,0,0,1-4.714,2.27l7.961,11.21a16.872,16.872,0,0,0,2.222,2.71,4.135,4.135,0,0,0,2.32.831v.9H90.693L80.022,18.461Zm0-16.241V16.727H79.24a15.534,15.534,0,0,0,5.08-.623,5.053,5.053,0,0,0,2.649-2.245,8.208,8.208,0,0,0,.965-4.237q0-3.786-1.77-5.593t-5.7-1.808Z" transform="translate(51.492 0.344)" fill="#1a1311"/>
      <path id="Path_61" data-name="Path 61" d="M116.364.438V9.4h-.879a14.113,14.113,0,0,0-1.734-4.457,6.674,6.674,0,0,0-2.613-2.163,8.4,8.4,0,0,0-3.247-.439h-2.467V27.887a10.5,10.5,0,0,0,.28,3.176,2.524,2.524,0,0,0,1.1,1.111,4.467,4.467,0,0,0,2.235.475h1.1v.9H92.8v-.9h1.1a4.567,4.567,0,0,0,2.32-.513,2.321,2.321,0,0,0,1-1.172,10.007,10.007,0,0,0,.27-3.078V2.342H95.093q-3.347,0-4.86,1.416A9.375,9.375,0,0,0,87.546,9.4h-.927V.438Z" transform="translate(68.104 0.344)" fill="#1a1311"/>
      <path id="Path_62" data-name="Path 62" d="M146.092.014V11.492h-.952a12.252,12.252,0,0,0-4-6.888,10.222,10.222,0,0,0-6.643-2.394A9.829,9.829,0,0,0,128.8,4a10.4,10.4,0,0,0-3.785,4.664,21.124,21.124,0,0,0-1.538,8.206,27.456,27.456,0,0,0,1.124,8.1,10.77,10.77,0,0,0,3.515,5.519,9.8,9.8,0,0,0,6.2,1.868,12.1,12.1,0,0,0,5.727-1.368,19.789,19.789,0,0,0,5.484-4.714v2.858a18.077,18.077,0,0,1-5.8,4.212,17.588,17.588,0,0,1-7.045,1.308,20.229,20.229,0,0,1-9.414-2.126,15.005,15.005,0,0,1-6.35-6.105,17.041,17.041,0,0,1-2.235-8.474,17.564,17.564,0,0,1,2.479-8.987,17.469,17.469,0,0,1,6.691-6.595A18.123,18.123,0,0,1,132.807.014a20.312,20.312,0,0,1,7.374,1.515,11.353,11.353,0,0,0,2.858.879,1.854,1.854,0,0,0,1.356-.573,3.122,3.122,0,0,0,.745-1.82Z" transform="translate(90.171 0.011)" fill="#1a1311"/>
      <path id="Path_63" data-name="Path 63" d="M145.46.438V13.651a13.988,13.988,0,0,1,3.444-2.8,6.919,6.919,0,0,1,3.247-.818,5.7,5.7,0,0,1,3.676,1.222,5.832,5.832,0,0,1,2.027,2.869,21.488,21.488,0,0,1,.5,5.557V28.6a6.572,6.572,0,0,0,.488,3.26,2.813,2.813,0,0,0,1.979.818v.879H149.245v-.879a2.642,2.642,0,0,0,1.833-.977,6.631,6.631,0,0,0,.439-3.1V18.413a16.617,16.617,0,0,0-.22-3.555,2.175,2.175,0,0,0-.745-1.124,1.9,1.9,0,0,0-1.184-.4,3.215,3.215,0,0,0-1.906.672,8.692,8.692,0,0,0-2,2.356V28.6a7.527,7.527,0,0,0,.366,3.053,2.38,2.38,0,0,0,1.9,1.025v.879H136.155v-.879a2.832,2.832,0,0,0,2.051-.929q.418-.536.416-3.149V5.395a6.546,6.546,0,0,0-.477-3.222,2.891,2.891,0,0,0-1.99-.831v-.9Z" transform="translate(107.051 0.344)" fill="#1a1311"/>
      <path id="Path_64" data-name="Path 64" d="M162.318,11.062v18.1a5.439,5.439,0,0,0,.563,3.09,3.04,3.04,0,0,0,2.2.768V33.9H152.745v-.881a2.972,2.972,0,0,0,2.245-.879q.49-.56.489-2.979V15.824a5.435,5.435,0,0,0-.563-3.088,3.011,3.011,0,0,0-2.172-.77v-.9ZM158.9,0a3.637,3.637,0,0,1,2.687,1.111,3.668,3.668,0,0,1,1.1,2.674,3.6,3.6,0,0,1-1.111,2.662,3.663,3.663,0,0,1-2.674,1.1,3.62,3.62,0,0,1-2.661-1.1,3.623,3.623,0,0,1-1.1-2.662,3.668,3.668,0,0,1,1.1-2.674A3.61,3.61,0,0,1,158.9,0" transform="translate(120.095 0)" fill="#1a1311"/>
      <path id="Path_65" data-name="Path 65" d="M171.612,6.494V9.449a13.367,13.367,0,0,1,3.371-2.77,7.2,7.2,0,0,1,3.467-.868,5.538,5.538,0,0,1,3.689,1.234,5.912,5.912,0,0,1,1.952,3.063,23.623,23.623,0,0,1,.391,5.35v8.888a6.778,6.778,0,0,0,.477,3.285,2.78,2.78,0,0,0,1.99.818v.879H175.4v-.879a2.4,2.4,0,0,0,1.856-1.075,7,7,0,0,0,.391-3.028V14.187a16.646,16.646,0,0,0-.22-3.542,2.162,2.162,0,0,0-.745-1.134,1.854,1.854,0,0,0-1.159-.4q-2.1,0-3.908,3V24.346a6.806,6.806,0,0,0,.477,3.249,2.418,2.418,0,0,0,1.77.854v.879H162.307v-.879a2.825,2.825,0,0,0,2.051-.929q.418-.536.416-3.174V11.451a6.546,6.546,0,0,0-.477-3.222,2.891,2.891,0,0,0-1.99-.831v-.9Z" transform="translate(127.613 4.568)" fill="#1a1311"/>
      <path id="Path_66" data-name="Path 66" d="M198.5,17.093H185.972a11.813,11.813,0,0,0,2.417,7.181,5.111,5.111,0,0,0,4.055,2.026,4.6,4.6,0,0,0,2.661-.818,10.321,10.321,0,0,0,2.563-2.942l.831.538a13.8,13.8,0,0,1-4.1,5.361,8.844,8.844,0,0,1-5.2,1.574A8.661,8.661,0,0,1,181.5,26.1a13.768,13.768,0,0,1-2.1-7.815q0-5.715,3.088-9.1a9.524,9.524,0,0,1,7.241-3.381,7.847,7.847,0,0,1,6.02,2.844Q198.3,11.5,198.5,17.093m-6.007-1.636a22.555,22.555,0,0,0-.427-5.4,4.436,4.436,0,0,0-1.331-2.224,2.034,2.034,0,0,0-1.368-.439,2.4,2.4,0,0,0-2.076,1.247,10.675,10.675,0,0,0-1.441,5.957v.856Z" transform="translate(141.054 4.569)" fill="#1a1311"/>
      <path id="Path_67" data-name="Path 67" d="M207.4,5.859l.366,7.79h-.831a12.239,12.239,0,0,0-3.088-4.737,5.132,5.132,0,0,0-3.187-1.27,2.4,2.4,0,0,0-1.711.672,2.081,2.081,0,0,0-.707,1.55,2.01,2.01,0,0,0,.488,1.27,23.455,23.455,0,0,0,4.373,3.431,18,18,0,0,1,4.725,4.128,6.673,6.673,0,0,1,1.136,3.8,8.02,8.02,0,0,1-.952,3.735,6.69,6.69,0,0,1-2.687,2.81,7.688,7.688,0,0,1-3.835.975,13.293,13.293,0,0,1-4.371-1.025,3.64,3.64,0,0,0-1-.268q-.806,0-1.343,1.22h-.807l-.389-8.2h.831a10.616,10.616,0,0,0,3.015,4.835,5.794,5.794,0,0,0,3.626,1.611,2.646,2.646,0,0,0,1.918-.72,2.341,2.341,0,0,0,.745-1.747,3.016,3.016,0,0,0-.734-2.027A19.17,19.17,0,0,0,199.7,21.1a25.62,25.62,0,0,1-4.835-3.957,6.889,6.889,0,0,1-1.611-4.419,7.183,7.183,0,0,1,1.82-4.775,6.528,6.528,0,0,1,5.262-2.136,7.69,7.69,0,0,1,3.59.9A2.4,2.4,0,0,0,205,7.081a1.247,1.247,0,0,0,.709-.184,4.655,4.655,0,0,0,.854-1.038Z" transform="translate(151.948 4.569)" fill="#1a1311"/>
      <path id="Path_68" data-name="Path 68" d="M224.622,17.093H212.1a11.825,11.825,0,0,0,2.417,7.181,5.111,5.111,0,0,0,4.055,2.026,4.6,4.6,0,0,0,2.663-.818,10.349,10.349,0,0,0,2.563-2.942l.829.538a13.794,13.794,0,0,1-4.1,5.361,8.846,8.846,0,0,1-5.2,1.574,8.663,8.663,0,0,1-7.692-3.907,13.8,13.8,0,0,1-2.1-7.815q0-5.715,3.087-9.1a9.529,9.529,0,0,1,7.241-3.381,7.85,7.85,0,0,1,6.021,2.844q2.551,2.845,2.745,8.438m-6.005-1.636a22.433,22.433,0,0,0-.429-5.4,4.412,4.412,0,0,0-1.331-2.224,2.032,2.032,0,0,0-1.366-.439,2.4,2.4,0,0,0-2.076,1.247,10.66,10.66,0,0,0-1.443,5.957v.856Z" transform="translate(161.594 4.569)" fill="#1a1311"/>
    </g>
  </g>
</svg>
