<svg xmlns="http://www.w3.org/2000/svg" xmlns:xlink="http://www.w3.org/1999/xlink" width="401.165" height="69.272" viewBox="0 0 401.165 69.272">
  <defs>
    <clipPath id="clip-path">
      <rect id="Rectangle_3" data-name="Rectangle 3" width="401.165" height="69.272" transform="translate(0 0.001)" fill="#1a1311"/>
    </clipPath>
  </defs>
  <g id="Group_6" data-name="Group 6" transform="translate(0 0)">
    <g id="Group_5" data-name="Group 5" clip-path="url(#clip-path)">
      <path id="Path_69" data-name="Path 69" d="M36.914.838q3.91,1.153,3.911,3.406a1.607,1.607,0,0,1-.572,1.311,9.207,9.207,0,0,0-.264,2.1,6.113,6.113,0,0,0,1.494,2.515l.879.42,1.364.629,1.361.628,1.363.577q2.241,1.049,3.031,1.519,2.243,1.364,7.12,3.668,6.591,3.459,8.613,4.245a39.512,39.512,0,0,0,12.392,2.986q1.714.052,1.715.891a1.584,1.584,0,0,1-.22.682q-.484,1.571-3.911,3.563-5.316,3.039-7.691,3.039a4.742,4.742,0,0,1-1.23-.21q-1.5-.1-3.955-2.934a36.515,36.515,0,0,0-5.8-4.611,52.823,52.823,0,0,0-7.3-5.45A63.463,63.463,0,0,0,41.659,15.2a5.44,5.44,0,0,0-3.031-1.467,2.59,2.59,0,0,0-.571.1,58.686,58.686,0,0,1-5.933,4.926q-5.714,4.4-8.789,6.288A89.54,89.54,0,0,1,11.6,31.073,19.929,19.929,0,0,1,4.219,32.8a5.41,5.41,0,0,1-2.813-.524Q.088,31.335,0,28.61a13.341,13.341,0,0,1,2.725-4.192q1.625-1.1,3.164-1.991l.351-.209a2.008,2.008,0,0,1,1.231.681,2.3,2.3,0,0,0,1.67.838,1.82,1.82,0,0,0,.615-.157,1.532,1.532,0,0,0,.7.209q3.6,0,10.723-3.4a31.728,31.728,0,0,0,7.426-4.769l.835-.733q1.318-1.206,1.626-1.468a6.223,6.223,0,0,0,2.242-4.925c0-.245-.031-.663-.088-1.258-.06-.733-.088-1.258-.088-1.572A4.565,4.565,0,0,1,36.914.838M40.956,34.06l-.043.891q-.043,3.249-.221,7.074h3.737q1.36,0,3.558-.157a18.363,18.363,0,0,1,1.891-.1q6.635,0,6.635,3.091a1.87,1.87,0,0,1-1.274,1.939,10.722,10.722,0,0,1-3.121.262q-5.889,0-11.689.419v1.31l-.043,1.939q-.045,3.3-.045,6.393,8.394-.42,15.426-.419,6.9,0,7.513,2.934a2.263,2.263,0,0,1-1.23,2.148,15.144,15.144,0,0,1-3.867.262H51.724l-4.088.21-3.91.209-4.307.21q-4.966.21-10.063.839-9.935,1.2-12.876,1.2-2.461,0-2.857-3.406a6.589,6.589,0,0,1,2.549-3.04,48.517,48.517,0,0,1,5.537-.418q4.088-.052,13.975-.734L35.64,55.91q-.132-4.925-.132-8.017a116.256,116.256,0,0,0-13.491,1.258,2.506,2.506,0,0,1-.484.053q-2.109,0-2.461-2.568a3.246,3.246,0,0,1,1.758-2.725q1.055-.576,7.866-1.048,6.285-.418,6.548-.419h.176v-.629q0-2.2.088-3.825v-.576a21.282,21.282,0,0,0-.44-2.516c-.03-.139-.059-.279-.087-.419h-.7l-3.867.21q-7.646.42-8.789.524-.484.052-.7.052-1.977,0-2.285-2.882a3.824,3.824,0,0,1,2.109-2.515,29.355,29.355,0,0,1,5.1-.419q2.9,0,6.943-.262,3.559-.157,4-.157h13.93q5.889,0,5.889,2.567a2.126,2.126,0,0,1-1.274,2.2,11.123,11.123,0,0,1-3.3.262H40.956Z" fill="#1a1311"/>
      <path id="Path_70" data-name="Path 70" d="M116.067,20.227a86.253,86.253,0,0,0-13.447,1.624,41.356,41.356,0,0,0-8.35,2.358q-.4.157-1.449.629l-.967.419-1.012.42a8.069,8.069,0,0,1-2.328.733q-1.759,0-1.758-2.463,0-5.135,3.823-7.074a109.85,109.85,0,0,0,12.3-1.1,121.24,121.24,0,0,1,15.909-1,18.037,18.037,0,0,0,.263-2.829q0-1.362-2.021-2.725a1.976,1.976,0,0,1-1.319-1.991q.747-3.459,4-3.459a10.557,10.557,0,0,1,4.438,1.258q2.46,2.044,2.461,3.144v.734q0,1.677-2.11,2.934a25.76,25.76,0,0,0-2.2,2.515l-.351.419a187.86,187.86,0,0,1,20.786.944,30.714,30.714,0,0,0,3.12.314,40.907,40.907,0,0,0,8.965-1.31,4.531,4.531,0,0,1,.835-.105q1.229,0,1.274,1.415a1.023,1.023,0,0,1,.044.21q0,1.206-3.3,4.506-4,4.086-6.108,4.087-1.758,0-5.889-1.834a40.148,40.148,0,0,0-7.119-2.253,40.081,40.081,0,0,0-7.734-.524h-4.791c-.058.035-.087.175-.087.419q-.088,1.257-3.428,7.545A90.144,90.144,0,0,1,130.3,33.9q5.361,3.3,5.362,7.546,0,4.558-3.165,10.637a35.616,35.616,0,0,1-6.416,8.8q-5.1,5.136-7.646,5.135a5.147,5.147,0,0,1-.879-.105,4.05,4.05,0,0,1-.57.053q-1.714,0-1.715-3.092a8.427,8.427,0,0,1,1.142-4.768,5.208,5.208,0,0,1,2.067-1.468,19.8,19.8,0,0,0,7.865-7.178,16.116,16.116,0,0,0,2.988-8.384q-1.405-4.35-13.447-7.86a21.651,21.651,0,0,0-1.318,1.991,49.749,49.749,0,0,1-8.656,10.69,84.31,84.31,0,0,1-10.856,8.122,28.681,28.681,0,0,1-7.074,3.511,14.086,14.086,0,0,1-3.867.838q-2.727,0-2.725-2.62a10.019,10.019,0,0,1,1.318-4.035Q84.56,48,86.668,48.261l1.231.157.658-.157a30.927,30.927,0,0,0,11.471-5.4A46.242,46.242,0,0,0,111.409,31.44h.175q4.352-7.02,4.307-10.06a3.736,3.736,0,0,1,.045-.42l.043-.262.045-.209a2.007,2.007,0,0,0,.043-.262" fill="#1a1311"/>
      <path id="Path_71" data-name="Path 71" d="M172.019,24.838q-6.723,5.03-8.745,5.031-1.8,0-1.8-4.717A29.464,29.464,0,0,1,162,20.227a3.02,3.02,0,0,1,1.407-1.258,6.146,6.146,0,0,0,.7.262q.966.367,1.406.577A36.089,36.089,0,0,0,172.5,16.4q6.987-4.088,8.789-5.45,2.2-1.729,3.252-1.729,1.1,0,1.1.576,0,1.311-2.285,4.245a35.933,35.933,0,0,1-4.087,4.611q-.484.42-1.538,1.572v.419q0,.262-.088,1.31-.176,2.358-.308,15.877-.045,3.774-.044,6.079,0,7.859-.087,10.9-.089,3.615-.088,4.087,0,4.035-.879,5.082a1.8,1.8,0,0,1-1.407.682q-2.548-.786-2.5-7.441,0-.837-.044-5.24V43.754q0-3.509-.088-9.065-.089-6.864-.176-9.851m32.959-3.458c.029-.21.059-.506.088-.891l.043-.524.045-.629v-.367a2.706,2.706,0,0,0-1.934-2.515,2.644,2.644,0,0,1-1.494-2.62,3.788,3.788,0,0,1,4.131-3.249,11.763,11.763,0,0,1,4.658,1.258q2.5,1.939,2.461,3.353a3.624,3.624,0,0,1-2.021,3.249,14.32,14.32,0,0,0-2.11,2.62,112.862,112.862,0,0,1,13.315-.838q6.547,0,6.548,2.987a2.127,2.127,0,0,1-1.275,2.2,9.47,9.47,0,0,1-2.988.262h-5.053a4.387,4.387,0,0,1,.043.576,13.848,13.848,0,0,1-.131,1.415,117.991,117.991,0,0,1-2.021,16.349,24.544,24.544,0,0,1-.791,3.877h.7q.483,0,5.1.314,3.516.211,7.514.21.571,0,3.033-.1a23.429,23.429,0,0,0,7.383-1.257q1.67.052,1.67,1.467,0,1.206-1.846,4.611-2.33,4.4-4.658,4.4a15.216,15.216,0,0,1-5.361-1.677q-.132-.052-1.494-.42-1.409-.366-3.516-1.152-3.823-1.362-12.568-1.363h-4.922q-4.131,0-7.559.157c-1.347.036-2.1.071-2.241.1a12.251,12.251,0,0,0-2.549.262l-1.626.262-1.494.263q-2.329.366-2.637.419a11.6,11.6,0,0,0-4.394,1.467,8.01,8.01,0,0,1-3.428,1.31q-1.89,0-1.89-2.568,0-.366.044-.943a6.171,6.171,0,0,1,3.3-4.3q1.583-.679,11.734-.734a13.723,13.723,0,0,1,2.812-.314q-.176-15.092-1.758-17.711a4.5,4.5,0,0,0-.615-1.572l-.264-.419-.263-.42a.964.964,0,0,0-.088-.523l-3.164.523c-1.172.176-1.862.281-2.066.315a8.318,8.318,0,0,1-1.186.157q-2.329,0-2.725-3.406,1.187-3.458,7.515-3.458.087,0,.967.1.658.052,1.845.052,3.383,0,9.185-.576m-4.043,5.449a93.29,93.29,0,0,1,.7,13.31q0,3.879-.176,8.174a43.082,43.082,0,0,1,5.889-.419h5.273v-.838q0-.628.088-1.782a5.042,5.042,0,0,0,.352-1.572q.306-2.043.527-5.45.353-3.562.44-7.65l.088-1.31a12.065,12.065,0,0,0-.528-3.3q-4.35.368-9.931.419a8.655,8.655,0,0,1-2.725.419" fill="#1a1311"/>
      <path id="Path_72" data-name="Path 72" d="M278.858,14.777q-.177-5.817-.351-7.965a11.478,11.478,0,0,1-.615-3.563A5.311,5.311,0,0,1,278.77.838a4.566,4.566,0,0,1,5.273,0,4.128,4.128,0,0,1,1.23,2.568v.367a11.116,11.116,0,0,1-.439,3.039q0,.368-.044,1.258l-.044.786L284.7,9.9l-.044,1.2v3.668q12.48,0,15.381-.524h2.373a13.032,13.032,0,0,0,2.461-1.258,5.69,5.69,0,0,1,4.263,2.1q1.67,1.887,1.626,2.935a19.471,19.471,0,0,1-.44,4.192,44.517,44.517,0,0,0-1.582,4.191,44.636,44.636,0,0,0-1.055,8.489q-.307,5.344-3.691,5.345a13.84,13.84,0,0,1-3.428-.734H286.2a2.195,2.195,0,0,0-1.45.315q.043,5.029.088,11.056v5.869l-.044,4.611q0,.735.044,1.52t.044.995q0,5.4-2.769,5.4-1.67,0-2.46-2.829a27.075,27.075,0,0,1-.439-6.026V52.138l-.045-4.507-.043-4.716V39.824a56.463,56.463,0,0,1-5.758.419,11.108,11.108,0,0,0-1.625.1q-.221.052-1.187.157a39.247,39.247,0,0,0-4.262.734q-1.013.263-2.285.576-.924.21-1.67.419l-.748.21-.746.21a12.47,12.47,0,0,1-1.891.419,5.06,5.06,0,0,1-1.361-.21,4.312,4.312,0,0,1-1.231-2.62q.132-1.047.219-1.991c.029-.384.045-.663.045-.839a18.536,18.536,0,0,0,.307-3.615q0-8.121-1.713-10.742a11.393,11.393,0,0,1-.879-3.668,5.46,5.46,0,0,1,1.67-3.773,9.913,9.913,0,0,1,3.076-.419,7.314,7.314,0,0,0,2.461.419,28.56,28.56,0,0,0,4.043-.419,7.4,7.4,0,0,1,1.185-.053l2.022.053q2.724,0,10.064-.419m.176,19.7V26.828q0-.417-.045-2.043-.044-2.148-.043-5.4-8.879.42-14.5,1.1-2.067.21-2.373.681a3.786,3.786,0,0,0-.351,1.887q0,2.829.351,8.174.174,2.149.176,2.41a4.088,4.088,0,0,0,.7,2.411,8.632,8.632,0,0,0,2.813-.838,111.634,111.634,0,0,1,13.271-.734m5.712-15.091V34.06h13.623a17.164,17.164,0,0,0,2.9-.1q.966-.629,1.407-4.925.615-6.237.615-7.861,0-1.308-1.934-1.781H284.746Z" fill="#1a1311"/>
      <path id="Path_73" data-name="Path 73" d="M362.67,46.216A39.843,39.843,0,0,1,351.156,56.8a46.167,46.167,0,0,1-11.206,4.926,35.735,35.735,0,0,1-10.5,1.572q-3.868,0-3.867-3.354a6.992,6.992,0,0,1,1.186-3.406,7.238,7.238,0,0,1,4.7-3.616,13.178,13.178,0,0,0,5.582,1.153q12.612,0,21.489-10.794-3.736-2.043-6.065-3.039a18.916,18.916,0,0,0-7.207-1.572,4.2,4.2,0,0,1-1.186.262q-1.186,0-1.626-1.52.791-4.191,4.219-4.192a17.2,17.2,0,0,1,5.361,1.258,40.5,40.5,0,0,1,7.558,3.773l1.583.838a34.5,34.5,0,0,0,2.635-11.842,2.234,2.234,0,0,1,2.461-2.411q3.209.84,3.209,3.354a28.2,28.2,0,0,1-1.539,7.6,41.851,41.851,0,0,1-2.373,5.816q9.36,5.712,14.326,8.279,8.394,4.35,20.127,4.611,1.011,0,1.143,1.363-.308,2.043-8.35,6.6a12.619,12.619,0,0,1-5.976,2.2q-2.944-.68-7.207-4.611-.088-.1-1.934-1.467-1.8-1.362-5.186-4.507-.307-.261-2.152-1.729-.484-.366-4.307-3.406l-2.021-1.624Zm-4.219-28.61q13.533-.419,24.081-.419,7.822,0,7.822,3.144a2.069,2.069,0,0,1-1.23,2.044,14.6,14.6,0,0,1-3.823.261h-4.615q-7.953,0-32.562,1.991l-6.548.524-4.351.315q-5.1.471-5.844.524a6.05,6.05,0,0,1-.7.053q-2.373,0-2.813-3.407a3.96,3.96,0,0,1,2.373-2.829,16.08,16.08,0,0,1,5.581-.839q.132,0,1.538.053a11.783,11.783,0,0,0,1.231.052q6.018,0,17.314-1.047a12.344,12.344,0,0,1,.615-2.411,20.773,20.773,0,0,0,.264-2.934,2.106,2.106,0,0,0-1.494-1.887,2.974,2.974,0,0,1-1.846-2.83A4.9,4.9,0,0,1,357.4,4.192a8.958,8.958,0,0,1,5.625,2.462q1.67,1.469,1.669,2.568a3.6,3.6,0,0,1-2.284,3.354q-.748.942-1.934,2.567l-.571.786a9.652,9.652,0,0,1-1.45,1.677" fill="#1a1311"/>
    </g>
  </g>
</svg>
