<?xml version="1.0" encoding="utf-8"?>
<!-- Generator: Adobe Illustrator 25.4.1, SVG Export Plug-In . SVG Version: 6.00 Build 0)  -->
<svg version="1.1" id="圖層_1" focusable="false" xmlns="http://www.w3.org/2000/svg" xmlns:xlink="http://www.w3.org/1999/xlink"
	 x="0px" y="0px" viewBox="0 0 512 512" style="enable-background:new 0 0 512 512;" xml:space="preserve">
<style type="text/css">
	.st0{fill:none;}
</style>
<g>
	<path d="M216.9,362.9l65.2-65.2l-21.6-20.4c-9.9-9.9-2.9-26.9,11.1-26.9h73.5c8.7,0,15.7,7.1,15.7,15.8v73.5
		c0,14-16.9,21.1-26.9,11.1l-20.4-21.6l-65.2,65.2c-4.1,4.1-10.7,4.1-14.8,0l-16.7-16.7C212.8,373.7,212.8,367,216.9,362.9z"/>
	<path class="st0" d="M256,162.5c-110.5,0-200,89.5-200,200h400C456,252,366.5,162.5,256,162.5z"/>
	<path d="M256,114.5c-137,0-248,111-248,248h48c0-110.5,89.5-200,200-200s200,89.5,200,200h48C504,225.5,393,114.5,256,114.5z"/>
</g>
</svg>
