<?xml version="1.0" encoding="utf-8"?>
<!-- Generator: Adobe Illustrator 26.3.1, SVG Export Plug-In . SVG Version: 6.00 Build 0)  -->
<svg version="1.1" id="圖層_1" xmlns="http://www.w3.org/2000/svg" xmlns:xlink="http://www.w3.org/1999/xlink" x="0px" y="0px"
	 viewBox="0 0 256 256" style="enable-background:new 0 0 256 256;" xml:space="preserve">
<path d="M10,28.4c-2-1.2-4.5-0.6-5.7,1.3c-8.4,13.6-4.2,31.5,9.4,40l48,29.7l-6.4,10.3c-4-0.6-8.2-0.4-12.4,0.6
	c-17.8,4.2-28.9,22.1-24.7,39.9s22.1,28.9,39.9,24.7c17.8-4.2,28.9-22.1,24.7-39.9c-0.4-1.5-0.8-3-1.4-4.4l8.5-13.7l13.7,8.5
	c0.1,1.5,0.4,3,0.7,4.6c4.2,17.8,22.1,28.9,39.9,24.7s28.9-22.1,24.7-39.9S147,85.8,129.2,90c-4.2,1-8,2.7-11.3,5l-10.3-6.4l29.7-48
	c8.4-13.6,4.2-31.5-9.4-40C125.8-0.6,123.2,0,122,2L79.3,71.2L10,28.4z M134.3,111.5c5.9-1.4,11.9,2.3,13.3,8.2
	c1.4,5.9-2.3,11.9-8.2,13.3c-5.9,1.4-11.9-2.3-13.3-8.2C124.6,118.9,128.3,112.9,134.3,111.5z M48.1,131.8
	c5.9-1.4,11.9,2.3,13.3,8.2c1.4,5.9-2.3,11.9-8.2,13.3c-5.9,1.4-11.9-2.3-13.3-8.2C38.5,139.2,42.2,133.3,48.1,131.8z"/>
</svg>
