<?xml version="1.0" encoding="utf-8"?>
<!-- Generator: Adobe Illustrator 25.4.1, SVG Export Plug-In . SVG Version: 6.00 Build 0)  -->
<svg version="1.1" id="圖層_1" xmlns="http://www.w3.org/2000/svg" xmlns:xlink="http://www.w3.org/1999/xlink" x="0px" y="0px"
	 viewBox="0 0 111.1 103.2" style="enable-background:new 0 0 111.1 103.2;" xml:space="preserve">
<style type="text/css">
	.st0{fill:#E6E6E6;}
	.st1{fill:#CCCCCC;}
	.st2{fill:#515958;}
	.st3{fill:#DB610D;}
</style>
<g>
	<g>
		<path class="st0" d="M31.2,12.4c-1,0-2.1,0-3.1,0c-9.9,0-15.8,1.1-15.8,16.2c0,11.7,6.1,16.1,22.4,16.1h71.6
			c-1.1-1.4-2-2.9-2.8-4.5H28.1v-3.6h73.8c-0.6-1.7-0.9-3.5-1.1-5.4H28.1v-3.6h72.6c0.1-2,0.4-4,0.9-5.9H28.1v-3.6h74.8
			c0.9-1.9,2-3.8,3.2-5.4H34.3C33.3,12.4,32.3,12.4,31.2,12.4z"/>
		<path class="st1" d="M106.2,44.6H34.7c-16.3,0-22.4-4.3-22.4-16.1c0-15.1,6-16.2,15.8-16.2c1.1,0,2.1,0,3.1,0c1,0,2.1,0,3.1,0
			h71.9c0.3-0.3,0.5-0.7,0.8-1V8.6H9.3v41H107v-4.1C106.7,45.2,106.5,44.9,106.2,44.6z"/>
		<path class="st1" d="M107,44.6h-0.8c0.3,0.3,0.5,0.6,0.8,1V44.6z"/>
		<path class="st1" d="M107,12.4v-1c-0.3,0.3-0.6,0.7-0.8,1H107z"/>
		<path class="st0" d="M31.2,58.1c-1,0-2.1,0-3.1,0c-9.9,0-15.8,1.1-15.8,16.2c0,11.7,6.1,16.1,22.4,16.1h71.6
			c-1.4-1.7-2.5-3.6-3.4-5.7H28.1v-3.6h73.5c-0.5-1.7-0.7-3.5-0.8-5.4H28.1v-3.6h72.7c0.2-2.1,0.6-4,1.2-5.9H28.1v-3.6h75.4
			c0.8-1.5,1.6-2.9,2.7-4.2H34.3C33.3,58.1,32.3,58.1,31.2,58.1z"/>
		<path class="st1" d="M107,91.2c-0.3-0.3-0.5-0.6-0.8-1H34.7c-16.3,0-22.4-4.3-22.4-16.1c0-15.1,6-16.2,15.8-16.2
			c1.1,0,2.1,0,3.1,0c1,0,2.1,0,3.1,0h71.9c0.3-0.3,0.5-0.7,0.8-1v-2.8H9.3v41H107V91.2z"/>
		<path class="st1" d="M107,90.2h-0.8c0.3,0.3,0.5,0.6,0.8,1V90.2z"/>
		<path class="st1" d="M107,58.1v-1c-0.3,0.3-0.6,0.7-0.8,1H107z"/>
		<path class="st2" d="M28.1,40h75.3c-0.6-1.2-1.1-2.4-1.5-3.6H28.1V40z"/>
		<path class="st2" d="M28.1,31h72.7c-0.1-0.8-0.1-1.7-0.1-2.6c0-0.4,0-0.7,0-1.1H28.1V31z"/>
		<path class="st2" d="M28.1,21.5h73.5c0.3-1.3,0.8-2.5,1.3-3.6H28.1V21.5z"/>
		<path class="st2" d="M28.1,84.5h74.7c-0.5-1.2-0.9-2.4-1.3-3.6H28.1V84.5z"/>
		<path class="st2" d="M28.1,75.5h72.6c0-0.5-0.1-0.9-0.1-1.4c0-0.8,0-1.5,0.1-2.2H28.1V75.5z"/>
		<path class="st2" d="M28.1,66H102c0.4-1.3,0.9-2.5,1.5-3.6H28.1V66z"/>
	</g>
	<path class="st3" d="M32.2,0c-1.1,0-2.2,0-3.3,0C21,0,0,0,0,29.2c0,19.3,11.9,29.1,35.4,29.1h75.7v-13H35.4
		C19.1,45.2,13,40.9,13,29.2C13,14.1,19,13,28.8,13c1.1,0,2.1,0,3.1,0c1,0,2.1,0,3.1,0h76.1V0H35C34.1,0.1,33.1,0,32.2,0"/>
	<path class="st3" d="M32.2,45c-1.1,0-2.2,0-3.3,0C21,45,0,45,0,74.2c0,19.3,11.9,29.1,35.4,29.1h75.7v-13H35.4
		C19.1,90.2,13,85.9,13,74.2C13,59.1,19,58,28.8,58c1.1,0,2.1,0,3.1,0c1,0,2.1,0,3.1,0h76.1V45H35C34.1,45.1,33.1,45,32.2,45"/>
</g>
</svg>
