<?xml version="1.0" encoding="utf-8"?>
<!-- Generator: Adobe Illustrator 25.4.1, SVG Export Plug-In . SVG Version: 6.00 Build 0)  -->
<svg version="1.1" id="圖層_1" xmlns="http://www.w3.org/2000/svg" xmlns:xlink="http://www.w3.org/1999/xlink" x="0px" y="0px"
	 viewBox="0 0 530 105.8" style="enable-background:new 0 0 530 105.8;" xml:space="preserve">
<style type="text/css">
	.st0{fill:#00AFEC;}
	.st1{fill:#00A73C;}
	.st2{fill:#F8BC00;}
	.st3{fill:#AB66A7;}
	.st4{fill:#DB610D;}
	.st5{fill:#F29A76;}
	.st6{fill:#E6E6E6;}
	.st7{fill:#CCCCCC;}
	.st8{fill:#515958;}
	.st9{fill:#0068B7;}
</style>
<g>
	<g>
		<path class="st0" d="M168.5,63.8l0.9-3.3C176.9,34.1,182.3,17,185.6,9c0.5-1.1,1-1.9,1.4-2.6c0.4-0.6,0.8-1.2,1.3-1.7
			s1.1-1,1.9-1.5c2.3-1.5,5.2-2.3,8.8-2.3c1.9,0,3,0.3,3.5,0.7c0.5,0.5,0.7,1.6,0.7,3.3c0,1.3,0,2.8-0.1,4.3
			c-0.3,8.9-0.4,15.2-0.4,19c0,9.5,0.4,18.5,1.2,27c0.5,4.8,1.3,9.6,2.3,14.5c1,4.4,2.1,7.7,3,10c1.1,2.6,2.1,4.5,2.9,5.6
			c1,1.6,1.4,2.8,1.4,3.6c0,1.5-0.8,3.6-2.5,6.2c-2.8,4.3-5.5,6.4-8.3,6.4c-3.9,0-7.4-2.7-10.6-8c-1.6-2.6-2.9-5.4-3.8-8.6
			c-0.9-3.1-1.7-7-2.1-11.7c-0.5-4.6-0.8-10.5-0.9-17.7c-0.2-7.7-0.3-12.1-0.4-13.1h-0.2c-2,6-3.6,11-4.9,15c-1.3,4-2.4,7.3-3.2,10
			c-0.8,2.6-1.8,5.8-2.9,9.4c-3.6,11.7-5.9,18.7-7,21.2c-0.1,0.1-0.2,0.3-0.4,0.7c-0.2,0.3-0.4,0.6-0.5,0.8
			c-0.5,0.8-1.1,1.4-1.8,1.8s-1.3,0.6-1.7,0.6c-1.3,0-2.8-1.3-4.3-3.9c-1.6-2.6-3-5.9-4.2-10c-1.2-4.3-2.2-8.8-3-13.3s-1.4-9.8-2-16
			s-1.1-13.7-1.5-22.6h-0.2c-0.9,3.2-1.6,5.7-2.1,7.3s-1.2,4.1-2.2,7.5s-1.5,5.3-1.7,5.9c-1.3,4.5-2.6,9-4,13.5
			c-1.4,4.6-2.5,8.1-3.4,10.5c-0.9,2.5-1.8,4.9-2.8,7.3c-0.5,1.1-1.3,2.7-2.5,4.8c-1.8,2.8-3.9,4.9-6,6.5c-2.2,1.6-4.3,2.3-6.2,2.3
			c-0.8,0-1.4-0.3-2-0.9s-0.8-1.4-0.8-2.3c0-0.8,0.4-1.9,1.3-3.3c0.5-0.9,1.5-3.2,3-6.8l2.7-6.7c1.7-4,4.2-11,7.6-21.3l2.2-6.7
			c5.2-15.9,8.8-26.8,10.6-32.6c1.8-5.9,2.8-9.3,2.8-10.2c0-1-0.5-2.2-1.4-3.5c-0.7-0.9-1.1-1.8-1.1-2.4c0-1.1,0.9-2.1,2.7-3.1
			s3.8-1.4,5.9-1.4c4.3,0,7.3,1.5,9.1,4.5c1.1,1.9,2.2,5.6,3.1,11.1c1,5.5,1.9,13.5,2.9,24c0.1,0.6,0.1,1.1,0.1,1.4
			c0,0.3,0.1,0.6,0.1,0.9c0,0.3,0,0.6,0,1c0.2,1.4,0.3,2.3,0.3,2.8c0.7,6.4,1.2,10.5,1.5,12.4C167.4,60.8,167.9,62.4,168.5,63.8z"/>
		<path class="st1" d="M232.7,17.4l0.7-2.6c-1,0-1.9,0.1-2.6,0.4c-0.7,0.3-1.5,0.7-2.5,1.3c-1.2,0.7-2,1-2.4,1c-0.5,0-1-0.3-1.3-1
			c-0.3-0.6-0.5-1.4-0.5-2.4c0-1.9,0.5-3.9,1.5-5.9s2.2-3.5,3.6-4.3c1.9-1.2,4.3-2.1,7.2-2.8s5.9-1.1,8.8-1.1c3.3,0,6.2,0.4,8.8,1.1
			s4.9,1.9,7,3.6c2,1.6,3.8,3.7,5.3,6.1s2.7,5.2,3.5,8.5c0.8,3.2,1.2,6.6,1.2,10.2c0,3.3-0.4,6.9-1.3,11c-0.8,4.1-2,8-3.5,11.9
			s-3.1,7.1-4.8,9.8c-2,3.1-4.6,5.8-7.8,7.9c-3.1,2.2-6,3.2-8.5,3.2c-1.1,0-2.1-0.3-2.9-0.9c-0.8-0.6-1.2-1.4-1.2-2.3
			c0-1.4,0.3-2.7,1-3.9c0.7-1.2,1.9-2.7,3.6-4.5c1.5-1.4,2.9-3,4.3-5c1.6-2.7,2.7-5.6,3.5-8.7c0.7-3.1,1.1-6.7,1.1-11
			c0-4.1-0.4-7.5-1.3-10.3c-0.9-2.8-2.2-5.4-4.2-7.6l-6.5,33l-1.2,5.8c-0.5,2.3-1.2,6.2-2,11.8c-1.6,9.6-3,16.2-4.3,19.9
			c-0.6,1.6-1.4,3.3-2.3,4.8c-1.5,2.1-3.4,3.9-5.7,5.5s-4.3,2.3-5.9,2.3c-1.1,0-2-0.5-2.6-1.5s-1-2.4-1-4.3c0-2,0.3-5,1-8.9
			c0.6-3.9,2-10.9,4-21.1l0.8-4.2l0.9-4.5L232.7,17.4z"/>
		<path class="st2" d="M302.9,22.1c-2.2,3.4-3.7,6.2-4.7,8.4s-2.1,5.3-3.2,9.4c-0.8,2.9-1.5,6.1-1.8,9.4c-0.5,2.9-0.7,6.6-0.7,11.2
			c0,6.4,0.4,11.8,1.2,16.1c0.8,4.3,1.9,7.5,3.5,9.7c1.5,2.2,3.4,3.3,5.5,3.3c1.8,0,3.5-1,5.4-3c1.8-2,3.5-4.7,5-8s2.7-6.9,3.6-11
			c0.9-4,1.4-7.9,1.4-11.7c0-6.8-1.5-13.8-4.4-21.2c-1.1-3-1.6-5-1.6-6.1c0-2,0.7-4,2.1-6.1c1.6-2.4,3.4-4.6,5.4-6.4
			c2-1.9,3.7-2.8,4.8-2.8c0.7,0,1.4,0.3,2.2,0.8c0.8,0.5,1.3,1.2,1.8,2c1,1.6,1.8,4.6,2.5,9s1,9,1,13.9c0,11.7-1.5,22.4-4.5,32.3
			s-7.1,17.7-12.3,23.4c-5.2,5.8-10.8,8.6-16.8,8.6c-3.5,0-6.9-1-10.3-3s-6.2-4.7-8.3-8.2c-3.6-5.7-5.4-13.1-5.4-22.3
			c0-5.3,0.7-11,2-17s3.1-11.8,5.4-17.5s5-10.8,8-15.5s6.1-8.4,9.3-11.1c2.9-2.5,6-4.4,9.4-5.9c3.3-1.5,6.3-2.2,8.8-2.2
			c3.6,0,5.4,0.9,5.4,2.7c0,0.7-0.4,1.8-1.1,3.3c-1.4,2.1-2.6,3.6-3.6,4.4c-1,0.9-2.7,1.8-5,2.9c-2.5,1.2-4.3,2.3-5.5,3.2
			C306.1,17.9,304.7,19.6,302.9,22.1z"/>
		<path class="st3" d="M369.4,58.5h-0.2c-2.4,7.4-4.9,14.2-7.5,20.4c-3.1,7.3-5.7,12.8-7.8,16.3c-1.2,1.7-2.6,3.3-4.3,4.6
			c-1.7,1.3-3.2,2-4.5,2c-0.3,0-0.7-0.2-1.2-0.5s-0.9-0.8-1.2-1.4c-1.6-2.7-2.9-9.7-3.9-21s-1.5-25-1.5-41.1
			c0-13.1,0.6-21.8,1.8-26.1c0.5-1.8,1.2-3.3,2.2-4.5c0.9-1.2,2.3-2.4,4.2-3.5c1.6-1,3.3-1.9,5.1-2.6c1.7-0.7,3.1-1,4.1-1
			c0.9,0,1.6,0.3,2.1,1s0.8,1.7,0.8,2.9c0,0.5-0.1,1.2-0.2,2c-0.7,4.6-1.3,11.1-1.9,19.5c-0.4,5.6-0.7,10.1-0.9,13.5
			c-0.2,3.5-0.3,8.2-0.5,14.2c-0.1,6-0.2,11.9-0.3,17.8l0.2,0.3c1.4-2.9,2.9-6.3,4.5-10.3c0.6-1.5,1.1-2.9,1.7-4.2
			c0.5-1.3,1.1-2.8,1.7-4.5c1.4-4.1,2.7-8,3.9-11.9c0.6-1.8,1.1-3.6,1.5-5.4c4.7-16.5,8-26.1,10-28.8c0.9-1.2,2.5-2.4,4.8-3.5
			s4.4-1.7,6.3-1.7c1.2,0,2.2,0.4,3,1.3s1.2,2,1.2,3.5c0,1.3-0.4,3.9-1.3,7.7c-1.6,7.5-2.9,15.7-4,24.6s-1.5,16.8-1.5,23.7
			c0,14.1,1.7,21.2,5.2,21.2c1,0,2-1.2,3-3.6s1.9-5.4,2.6-9.1s1.3-8,1.8-12.8c0.5-4.9,0.7-9.9,0.7-15.1c0-3.1-0.1-6.7-0.3-10.9
			c-0.1-1.1-0.1-2.2-0.1-3.2c0-5.5,1.9-11,5.7-16.5c1.8-2.8,3.2-4.2,4.1-4.2c2.1,0,3.2,6.4,3.2,19.3c0,9.2-0.6,17.9-1.9,26.3
			c-1.6,10.1-3.7,18.6-6.5,25.6c-1.4,3.8-3.1,7.5-5.1,11s-3.9,6.3-5.9,8.5c-2.5,2.7-5.1,4.1-7.9,4.1c-5.1,0-8.9-3.1-11.4-9.5
			c-2.5-6.3-3.7-16.1-3.7-29.3L369.4,58.5L369.4,58.5z"/>
		<path class="st4" d="M454.1,68.9L437,68.8v1.8c0,3.6,0.7,6.8,2,9.8c1.3,2.9,2.8,4.4,4.3,4.4c1.6,0,4-0.9,7-2.8
			c3.1-1.9,6.6-4.6,10.5-8.1l1.6-1.6c1.1-1,1.9-1.7,2.3-2.2c1.8-1.8,3-2.8,3.5-2.8c0.6,0,0.8,0.8,0.8,2.4c0,1.8-0.2,3.8-0.6,6.1
			c-0.4,2.3-0.9,4.5-1.5,6.6s-1.3,3.6-1.9,4.5c-1.8,2.5-4.8,5.3-9.1,8.2c-4.3,3-8.7,5.3-13.1,7c-1.5,0.5-2.9,0.7-4.1,0.7
			c-4.3,0-8.2-1.4-11.7-4.1s-6.3-6.5-8.2-11.3c-1.9-4.8-2.9-10.1-2.9-16c0-4.9,0.6-10.2,1.9-16s3.1-11.7,5.4-17.5s4.9-11.1,7.8-15.9
			c2.5-4.2,5.4-7.9,8.5-11.3s6.2-6,9.1-7.8c3-1.8,5.7-2.7,8.1-2.7c3.9,0,7.2,1.7,10,5.2s4.2,7.7,4.2,12.6c0,2.2-0.3,4.5-0.8,7.1
			s-1.2,4.8-2,6.7c-0.9,2.1-2.2,4.1-3.9,6.1c-1.7,2-3.7,3.7-5.8,5.1c-2.6,1.6-4.8,2.4-6.7,2.4c-1.9,0-2.8-0.7-2.8-2.1
			c0-0.8,0.5-2.1,1.6-3.9c1.2-1.6,2.3-3.7,3.3-6.5c1-2.9,1.9-6.3,2.7-10.3c0.8-3.9,1.2-7,1.2-9.2c0-1.8-0.3-2.7-1-2.7
			c-1.1,0-3.1,1.9-5.9,5.7s-5.1,7.6-6.7,11.3c-1.6,3.5-2.8,7-3.8,10.6c-1,3.6-1.7,7.1-2,10.6h24.9c2.7,0,4.1,1.1,4.1,3.4
			c0,2.1-1.5,5.5-4.6,10.2C459.4,66.7,456.6,68.9,454.1,68.9z"/>
		<path class="st5" d="M488.3,23.3l1.3-5c-0.9,0.2-1.9,0.4-2.9,0.7c-0.6,0.2-1.5,0.3-2.6,0.3c-1.6,0-2.3-1.2-2.3-3.6
			c0-1,0.2-2.2,0.6-3.6s0.8-2.5,1.3-3.2c1.1-1.6,3.4-2.9,6.9-4c3.5-1,7.6-1.6,12.2-1.6c3.6,0,7,0.8,10.3,2.3s6.1,3.6,8.4,6.3
			c2.4,2.7,4.2,5.8,5.5,9.3s2,7.3,2,11.4c0,4.4-0.6,8.5-1.7,12.3c-1.1,3.8-2.8,7.1-4.9,9.9c-1.4,1.9-2.7,3.3-3.9,4.3s-3,2-5.2,3.1
			c0.6,1.7,1.1,3.1,1.6,4c0.4,0.9,1.2,2.2,2.3,3.9c2.8,4,6.8,7.6,12,10.9c0.2,0.2,0.6,0.4,0.9,0.6c-0.6,4.2-1.1,7.2-1.6,9.2
			c-0.5,1.9-1.3,4-2.3,6.3c-1.9,4-4.2,6.1-6.9,6.1c-1.5,0-3.3-0.9-5.5-2.6c-2.2-1.8-4-3.8-5.4-6.2c-1.1-2-2.1-4.2-3-6.4
			c-0.9-2.3-1.8-4.9-2.8-7.7c-0.9-2.9-1.7-5.7-2.4-8.4c-0.7-2.7-1.2-5.1-1.5-7.2c-0.1-0.4-0.1-1-0.1-1.7c0-1,0.2-1.9,0.6-2.4
			c0.4-0.6,1.1-1.1,2.1-1.6c1.4-0.8,2.6-1.7,3.5-2.6c0.9-1,2.1-2.5,3.5-4.5c1.6-2.7,2.8-5.9,3.7-9.5c0.9-3.6,1.4-7.3,1.4-11
			c0-4.4-0.6-7.8-1.9-10.3c-1.3-2.4-3.3-4.2-6.1-5.2c-2.7,15.5-5.4,30-8.1,43.6l-1,5.6c-1.7,8.9-3,15.5-4.1,19.9s-2.2,7.4-3.3,9.2
			c-1.1,1.8-2.8,3.5-5.1,5.2c-2.3,1.7-4.1,2.6-5.4,2.6c-2.6,0-3.8-2.3-3.8-7c0-1.9,0.4-5.2,1.1-9.8c0.7-4.6,1.8-10.6,3.3-17.9
			c1.5-7.4,3-14.6,4.6-21.7C484.8,38,486.5,30.8,488.3,23.3z"/>
	</g>
	<g>
		<g>
			<path class="st6" d="M31.2,15c-1,0-2.1,0-3.1,0c-9.9,0-15.8,1.1-15.8,16.2c0,11.7,6.1,16.1,22.4,16.1h71.6
				c-1.1-1.4-2-2.9-2.8-4.5H28.1V39h73.8c-0.6-1.7-0.9-3.5-1.1-5.4H28.1V30h72.6c0.1-2,0.4-4,0.9-5.9H28.1v-3.6h74.8
				c0.9-1.9,2-3.8,3.2-5.4H34.3C33.3,15,32.3,15,31.2,15z"/>
			<path class="st7" d="M106.2,47.1H34.7c-16.3,0-22.4-4.3-22.4-16.1c0-15.1,6-16.2,15.8-16.2c1.1,0,2.1,0,3.1,0c1,0,2.1,0,3.1,0
				h71.9c0.3-0.3,0.5-0.7,0.8-1V11H9.3v41H107v-4.1C106.7,47.8,106.5,47.5,106.2,47.1z"/>
			<path class="st7" d="M107,47.1h-0.8c0.3,0.3,0.5,0.6,0.8,1V47.1z"/>
			<path class="st7" d="M107,15v-1c-0.3,0.3-0.6,0.7-0.8,1H107z"/>
			<path class="st6" d="M31.2,60.6c-1,0-2.1,0-3.1,0c-9.9,0-15.8,1.1-15.8,16.2c0,11.7,6.1,16.1,22.4,16.1h71.6
				c-1.4-1.7-2.5-3.6-3.4-5.7H28.1v-3.6h73.5c-0.5-1.7-0.7-3.5-0.8-5.4H28.1v-3.6h72.7c0.2-2.1,0.6-4,1.2-5.9H28.1v-3.6h75.4
				c0.8-1.5,1.6-2.9,2.7-4.2H34.3C33.3,60.6,32.3,60.6,31.2,60.6z"/>
			<path class="st7" d="M107,93.8c-0.3-0.3-0.5-0.6-0.8-1H34.7c-16.3,0-22.4-4.3-22.4-16.1c0-15.1,6-16.2,15.8-16.2
				c1.1,0,2.1,0,3.1,0c1,0,2.1,0,3.1,0h71.9c0.3-0.3,0.5-0.7,0.8-1v-2.8H9.3v41H107V93.8z"/>
			<path class="st7" d="M107,92.8h-0.8c0.3,0.3,0.5,0.6,0.8,1V92.8z"/>
			<path class="st7" d="M107,60.6v-1c-0.3,0.3-0.6,0.7-0.8,1H107z"/>
			<path class="st8" d="M28.1,42.6h75.3c-0.6-1.2-1.1-2.4-1.5-3.6H28.1V42.6z"/>
			<path class="st8" d="M28.1,33.6h72.7c-0.1-0.8-0.1-1.7-0.1-2.6c0-0.4,0-0.7,0-1.1H28.1V33.6z"/>
			<path class="st8" d="M28.1,24h73.5c0.3-1.3,0.8-2.5,1.3-3.6H28.1V24z"/>
			<path class="st8" d="M28.1,87.1h74.7c-0.5-1.2-0.9-2.4-1.3-3.6H28.1V87.1z"/>
			<path class="st8" d="M28.1,78.1h72.6c0-0.5-0.1-0.9-0.1-1.4c0-0.8,0-1.5,0.1-2.2H28.1V78.1z"/>
			<path class="st8" d="M28.1,68.5H102c0.4-1.3,0.9-2.5,1.5-3.6H28.1V68.5z"/>
		</g>
		<path class="st9" d="M32.2,2.6c-1.1,0-2.2,0-3.3,0C21,2.6,0,2.6,0,31.7C0,51,11.9,60.8,35.4,60.8h75.7v-13H35.4
			C19.1,47.8,13,43.4,13,31.7c0-15.1,6-16.2,15.8-16.2c1.1,0,2.1,0,3.1,0c1,0,2.1,0,3.1,0h76.1v-13H35C34.1,2.6,33.1,2.6,32.2,2.6"
			/>
		<path class="st9" d="M32.2,47.6c-1.1,0-2.2,0-3.3,0C21,47.6,0,47.6,0,76.7c0,19.3,11.9,29.1,35.4,29.1h75.7v-13H35.4
			C19.1,92.8,13,88.4,13,76.7c0-15.1,6-16.2,15.8-16.2c1.1,0,2.1,0,3.1,0c1,0,2.1,0,3.1,0h76.1v-13H35
			C34.1,47.6,33.1,47.6,32.2,47.6"/>
	</g>
</g>
</svg>
