<?xml version="1.0" encoding="utf-8"?>
<!-- Generator: Adobe Illustrator 25.4.1, SVG Export Plug-In . SVG Version: 6.00 Build 0)  -->
<svg version="1.1" id="Capa_1" xmlns="http://www.w3.org/2000/svg" xmlns:xlink="http://www.w3.org/1999/xlink" x="0px" y="0px"
	 viewBox="0 0 121.8 121.8" style="enable-background:new 0 0 121.8 121.8;" xml:space="preserve">
<g>
	<path d="M33.6,10.3c-2.9,1.6-5.7,3.4-8.3,5.5V6c0-3.3-2.7-6-6-6s-6,2.7-6,6l0.1,22.7v3.6c0,3.3,2.7,6,6,6h5.4h21c3.3,0,6-2.7,6-6
		s-2.7-6-6-6H36c4.8-3.4,10.1-5.8,15.6-7c13.7-3,28.6,0.7,39.3,11.3c12,12,15.3,29.4,9.9,44.4h1.9c4.8,0,9.1,2.4,11.7,6.1
		c7.8-20.4,3.5-44.4-13-60.9C83,1.8,55.3-1.4,33.6,10.3z"/>
	<path d="M102.9,83.4h-6H76.4c-3.3,0-6,2.7-6,6c0,3.3,2.7,6,6,6h9c-4.7,3.4-10,5.6-15.4,6.8c-13.7,2.9-28.5-0.9-39.1-11.5
		C19,78.8,15.6,61.6,20.8,46.7h-1.5c-5,0-9.4-2.6-12-6.5c-7.8,20.5-3.5,44.6,13.1,61c18.4,18.4,46.3,21.7,68.1,9.7
		c2.9-1.5,5.7-3.4,8.3-5.5v10.4c0,3.3,2.7,6,6,6c3.3,0,6-2.7,6-6V92.2v-2.8C108.8,86.1,106.1,83.4,102.9,83.4z"/>
</g>
</svg>
