<?xml version="1.0" encoding="utf-8"?>
<!-- Generator: Adobe Illustrator 25.4.1, SVG Export Plug-In . SVG Version: 6.00 Build 0)  -->
<svg version="1.1" id="圖層_1" xmlns="http://www.w3.org/2000/svg" xmlns:xlink="http://www.w3.org/1999/xlink" x="0px" y="0px"
	 viewBox="0 0 458.4 94.2" style="enable-background:new 0 0 458.4 94.2;" xml:space="preserve">
<style type="text/css">
	.st0{fill:#552B8C;}
	.st1{opacity:0.75;fill:#B5B5B6;}
	.st2{fill:#DCDDDD;}
	.st3{fill:#898989;}
	.st4{fill:#FFFFFF;}
	.st5{fill:url(#SVGID_1_);}
	.st6{fill:url(#SVGID_00000166671725974125963700000018430130728396922525_);}
</style>
<g>
	<g>
		<path d="M144.2,85.6h-7.7v6.6h-1.2v-6.6h-7.8v-8.8h7.8V73h1.2v3.9h7.7V85.6z M135.3,84.5V78h-6.6v6.4H135.3z M143,84.5V78h-6.6
			v6.4H143z"/>
		<path d="M189.5,91.4l-0.8,1c-3.5-1.1-6.4-2.7-8.8-4.8c-2.4,2.1-5.3,3.6-8.8,4.8l-0.8-1c3.7-1.1,6.6-2.6,8.8-4.6
			c-2.1-2.2-3.7-4.8-4.9-7.8l1.1-0.5c1.1,3,2.7,5.6,4.7,7.6c2.1-2.4,3.6-5.2,4.5-8.5h-14.1v-1.1h9.2c-0.6-1.1-1.2-2.2-1.9-3.2
			l1.1-0.4c0.9,1.3,1.6,2.5,2,3.6h8.7v1.1h-3.9c-1,3.7-2.6,6.8-4.8,9.2C183,88.8,185.9,90.3,189.5,91.4z"/>
		<path d="M224.8,78.7h-4.5c0,0.2-0.1,0.4-0.2,0.6c1.8,0.9,3.3,1.8,4.6,2.8L224,83c-1.4-1-2.8-1.9-4.4-2.7c-1.1,1.6-2.6,2.8-4.5,3.5
			l-0.8-0.9c2.5-0.8,4.1-2.2,4.8-4.1h-4.3v-1.1h4.6c0.1-0.5,0.2-1.2,0.3-2.2h-2.3c-0.5,0.6-1.1,1.2-1.7,1.6l-0.9-0.7
			c1.4-1.1,2.5-2.3,3.3-3.5l1.1,0.4c-0.4,0.6-0.7,1-0.8,1.2h6v1.1h-3.4c-0.1,0.8-0.2,1.5-0.3,2.2h4.2V78.7z M231.1,92.2h-1.1v-1.4
			h-12.1v1.4h-1.1v-8.7h14.4V92.2z M229.9,86.7v-2h-12.1v2H229.9z M229.9,89.7v-2h-12.1v2H229.9z M232.9,81.6h-7.3v-7.1h7.3V81.6z
			 M231.8,80.5v-5h-5v5H231.8z"/>
		<path d="M268.6,78.7l-0.9,0.7c-0.2-0.4-0.5-0.9-0.8-1.3c-2.7,0.4-5.4,0.6-8.2,0.8l-0.4-0.9c1.3-1,2.5-2.7,3.5-5l1.1,0.3
			c-0.9,1.8-1.8,3.3-2.9,4.5c2.3-0.2,4.3-0.4,6.1-0.6c-0.4-0.5-1-1.2-1.8-2.1l1-0.6C266.9,76.1,268,77.5,268.6,78.7z M267.2,90.9
			c0,0.4-0.1,0.7-0.4,0.9c-0.3,0.3-0.6,0.4-0.9,0.4c-0.3,0-1,0-2.1,0l-0.5-1.1c0.4,0,0.7,0,1,0c0.7,0,1.2,0,1.4-0.1
			c0.2-0.1,0.3-0.2,0.3-0.4v-3.6c-2.1,1-3.8,1.7-5.2,2.1l-0.5-0.7c-0.2,1.3-0.5,2.5-1,3.7l-1-0.6c0.7-1.7,1-3.5,1-5.3v-5.9h7.9V90.9
			z M266,86v-4.3h-5.6v1.6c1.5,0.3,3.1,0.7,4.8,1.3l-0.5,1c-1.7-0.6-3.1-1-4.2-1.2v2.1c0,0.6,0,1.2-0.1,1.8
			C261.8,87.8,263.7,87,266,86z M277.5,88.5c-0.1,1.1-0.2,1.9-0.5,2.4c-0.2,0.5-0.5,0.8-0.8,1c-0.3,0.2-0.9,0.2-1.8,0.2l-3.3,0
			c-0.5,0-0.9-0.1-1.2-0.4c-0.3-0.3-0.5-0.7-0.5-1.1v-8.3h1.1v3.2h6.3v1.1h-6.3v3.9c0,0.4,0.3,0.6,0.8,0.6c2.2,0,3.5,0,3.8-0.1
			c0.3,0,0.6-0.2,0.8-0.4c0.2-0.3,0.3-1,0.4-2.4L277.5,88.5z M277.2,81.3h-6.4c-0.4,0-0.7-0.1-1-0.4c-0.3-0.3-0.4-0.6-0.4-1v-6.8
			h1.1v2.8h6.3v1.1h-6.3v2.9c0,0.4,0.2,0.5,0.6,0.5h6.1V81.3z"/>
		<path d="M308.4,88.8h-1.2v-1.6H304v2.1h-1.1V74.5h5.5V88.8z M307.3,86V75.6H304V86H307.3z M321.5,81.4h-4v10.9h-1.1V81.4h-4.7v1.2
			c0,4.3-1.1,7.6-3.4,9.7l-0.9-0.7c2.2-2,3.2-4.8,3.2-8.5v-8.2c3.6-0.2,6.6-0.8,9-1.7l0.8,1c-2.3,0.9-5.2,1.5-8.7,1.8v4.4h9.7V81.4z
			"/>
		<path d="M353.2,88c-1.2,1.1-2.4,2.1-3.6,3l-0.6-1c0.1-0.2,0.2-0.3,0.2-0.6v-9.3h-2.8V79h4v10c0.6-0.4,1.4-1.1,2.3-2L353.2,88z
			 M351.4,76.7l-0.9,0.6c-1-1.3-2.1-2.5-3.4-3.7l0.9-0.7C349.5,74.2,350.6,75.4,351.4,76.7z M365.7,88.2c-0.2,1.7-0.4,2.8-0.8,3.2
			c-0.3,0.4-1,0.6-2,0.6c-0.7,0-1.2,0-1.6,0c-0.4,0-0.6-0.2-0.8-0.4c-0.2-0.2-0.3-0.6-0.3-1.1v-6.2h-3c0,3.9-1.8,6.7-5.5,8.3l-0.6-1
			c3.3-1.3,5-3.7,5-7.2h-3v-6.9h11.3v6.9h-3v6.1c0,0.2,0.1,0.3,0.2,0.4c0.1,0.1,0.4,0.1,1,0.1c0.9,0,1.4-0.1,1.6-0.3
			c0.2-0.2,0.3-1.1,0.4-2.7L365.7,88.2z M357.3,76l-0.9,0.7c-0.9-1.2-1.8-2.2-2.9-3.2l0.9-0.7C355.5,73.8,356.5,74.9,357.3,76z
			 M363.2,83v-4.7h-8.9V83H363.2z M363.7,73.5c-0.9,1.3-1.9,2.4-3,3.3l-0.9-0.7c1.1-0.9,2.1-2,2.9-3.2L363.7,73.5z"/>
		<path d="M397.2,87.5c-1.7,1.4-3.7,2.5-6.3,3.4l-0.7-1c2.9-1.1,4.9-2.1,6.1-3.2L397.2,87.5z M408.9,85.8l-1,0.7
			c-0.3-0.5-0.8-1.1-1.3-1.7c-2.9,0.3-4.8,0.5-5.9,0.6v5.6c0,0.3-0.1,0.6-0.3,0.8c-0.2,0.2-0.5,0.4-0.7,0.4
			c-0.3,0.1-0.8,0.1-1.5,0.1c-0.4,0-0.8,0-1.1,0l-0.5-1.2c0.4,0,0.8,0,1.3,0c0.8,0,1.2,0,1.4-0.1c0.2,0,0.3-0.2,0.3-0.5v-5.1
			c-3.2,0.2-5.7,0.3-7.3,0.4l-0.3-1c2.7-1,5.3-2.2,7.9-3.5c-2.5,0.2-4.8,0.3-6.8,0.3l-0.3-0.8c3.3-1.2,6-2.7,8-4.6l1.1,0.6
			c-1.5,1.3-3.3,2.5-5.5,3.5c0.7,0,1.4-0.1,2.1-0.1c0.7,0,1.3-0.1,1.9-0.1c1.2-0.1,1.9-0.2,2-0.3c0.9-0.6,1.9-1.2,2.7-1.9l1,0.7
			c-2.4,1.8-5.9,3.8-10.6,5.9c3.6-0.1,7-0.4,10.3-0.8c-0.3-0.4-0.9-0.9-1.7-1.6l1-0.7C406.6,83,407.9,84.4,408.9,85.8z M402.1,73.5
			c-2,1.9-5.1,3.3-9.2,4.4l-0.9-1c4.1-0.9,7.1-2.2,9.1-4L402.1,73.5z M409.4,90l-0.8,0.9c-1.6-1.3-3.4-2.5-5.5-3.4l0.8-0.9
			C406,87.6,407.8,88.7,409.4,90z"/>
		<path d="M441.7,89c-2.5,1.2-4.8,2.2-6.9,2.9l-0.5-1c2.1-0.7,4.5-1.7,7.1-3L441.7,89z M441.4,77.2c-1.6,3.5-3.3,6.5-5.2,8.9
			c1.5-0.5,3.1-1.1,4.9-1.9l0.3,1c-2.1,0.9-4.2,1.7-6.5,2.4l-0.4-1.1c1.6-2,2.9-4.1,4-6.2c-1.1,0.3-2.2,0.5-3.5,0.8l-0.4-1.1
			c1.5-2.3,2.7-4.7,3.7-7.3l1.1,0.4c-1.2,2.7-2.3,4.9-3.4,6.6c1-0.2,2.1-0.4,3.1-0.7c0.4-0.7,0.8-1.5,1.2-2.5L441.4,77.2z
			 M445.9,82.7c0,2.8-0.4,4.9-1.2,6.3s-1.9,2.4-3.5,3.3l-0.7-1c1.5-0.6,2.5-1.6,3.2-2.9c0.7-1.3,1-3.2,1-5.6H445.9z M453.3,76.3
			h-6.5c-0.9,1.6-1.9,2.9-3,4.1c2.3,0,4.5-0.2,6.5-0.5c-0.4-0.5-0.9-1.2-1.6-1.8l1-0.6c1.6,1.7,2.7,3.2,3.5,4.4l-1.1,0.6
			c-0.6-0.9-0.9-1.4-1-1.6c-3,0.4-5.9,0.6-8.7,0.6l-0.2-1.1c1.3-1.1,2.4-2.5,3.4-4.2h-3.8v-1.1h5.1c-0.4-0.6-0.9-1.2-1.5-1.8l1-0.5
			c0.6,0.7,1.1,1.5,1.7,2.4h5.2V76.3z M453.6,88.7c0,1.2-0.1,2-0.4,2.5c-0.2,0.5-0.7,0.8-1.5,0.8h-1.2c-1,0-1.6-0.5-1.6-1.5v-7.7
			h1.2v7.7c0,0.1,0.1,0.2,0.2,0.3c0.1,0.1,0.2,0.2,0.4,0.2h1.1c0.2,0,0.4-0.1,0.5-0.4c0.1-0.3,0.2-1,0.2-2.1L453.6,88.7z"/>
	</g>
	<g>
		<path class="st0" d="M127.6,54.5c-0.9-1.6-1.9-3.2-2.9-4.8c-1-1.7-2-3.3-3.1-4.8c1-0.9,2.2-1.4,3.7-1.4c1,0,2.3,0.2,4,0.7
			c1.7,0.4,3.3,1.1,5,2.1c1.7,1,3.2,2.1,4.6,3.3c1.4,1.2,2.4,1.9,2.8,2c0.4,0.2,1.2,0.4,2.3,0.7l1.8,0.2c3.3,0,5.7-1,7.1-3.1
			c1.4-2.1,2.1-3.9,2.1-5.3c0-2-1.1-3.8-3.3-5.4c-2.2-1.7-5.7-3.2-10.4-4.7l-7.3-2.2c-0.7-0.3-1.3-0.5-2-0.8
			c-0.6-0.3-1.4-0.8-2.4-1.5c-2.2-1.4-3.8-3.1-4.7-5c-0.9-1.9-1.4-4.1-1.4-6.8c0-1.6,0.3-3.1,1-4.4c0.7-1.3,1.6-2.5,2.8-3.6
			c1.2-1.1,2.6-2,4.2-2.5c1.6-0.6,3.6-1,6.1-1.2c0.8,0,1.6,0,2.4,0c0.8,0,2.1,0.2,4,0.5l3.4,0.6l1.5,0.2c0.3,0,0.8,0.1,1.7,0.1
			c0.9,0,1.4,0.1,1.5,0.1c0.8,0,1.8-0.2,2.9-0.5l5.7,9.1c-1.1,0.7-2.3,1-3.6,1c-1,0-2.2-0.3-3.5-0.8l-1.3-0.6h-0.2l-5.4-3.8
			C144.2,9.9,142,9,139.9,9c-0.6,0-1.2,0.1-1.7,0.3c-0.6,0.2-1.4,0.6-2.5,1.3c-1.1,0.7-1.7,2.1-1.7,4.1c0,1.8,0.5,3.1,1.6,3.9
			c1.1,0.8,2.2,1.5,3.5,2c1.2,0.5,2.5,0.9,3.8,1.3l5.5,1.7c4.6,1.4,7.9,2.8,9.8,4.1c1.9,1.3,3.4,3,4.4,5c1,2,1.6,3.9,1.8,5.6
			c0,2.5-0.2,4.5-0.6,6.2c-0.4,1.6-1.2,3.2-2.4,4.7c-1.2,1.5-2.4,2.7-3.6,3.5c-1.2,0.8-2.7,1.4-4.3,1.9c-1.6,0.5-3.3,0.8-4.9,0.8
			c-1.6,0-3,0.1-4.2,0.1c-0.9,0-1.8-0.1-2.8-0.2c-0.9-0.2-2.4-0.5-4.4-1l-1.6-0.3c-1.4-0.3-2.7-0.5-3.8-0.5
			C130.3,53.6,128.9,53.9,127.6,54.5z"/>
		<path class="st0" d="M167.5,26.9c-0.4-0.7-0.8-1.4-1.3-2c1.8,0,3.8-0.3,5.9-1c2.2-0.7,4.2-1.4,6.1-2v4c1.6-1.8,3.2-2.9,4.9-3.3
			c1.6-0.4,2.9-0.7,3.9-0.7c2,0,3.9,1,5.7,2.9l0.8,0.9l1.5-1.4c2.2-1.6,4.5-2.5,6.7-2.5c0.5,0,1.3,0.1,2.5,0.2
			c1.2,0.2,2.3,0.8,3.5,1.8c1.1,1,1.7,2.2,1.7,3.6v22c0,0.5,0.1,1.1,0.3,1.8c0.2,0.6,0.5,1.3,1,2.1l0.8,1.1h-13.6
			c0.9-1.4,1.4-3,1.4-4.8V31.2c0-0.8-0.3-1.6-0.9-2.3l-0.7-0.6c-0.4-0.3-0.9-0.4-1.3-0.4c-1,0-1.7,0.3-2,1c-0.3,0.6-0.5,1.2-0.6,1.5
			c-0.1,0.4-0.1,0.9-0.1,1.6v17.7c0,1.9,0.5,3.5,1.5,4.7h-12.9c0.5-0.6,0.9-1.3,1.1-2.1c0.3-0.8,0.4-1.5,0.4-2.1V30.5
			c0-0.8-0.3-1.4-0.8-1.9c-0.6-0.5-1.2-0.8-2-0.8c-0.8,0-1.4,0.3-1.9,0.9c-0.5,0.6-0.8,1.4-0.8,2.4v19.2c0,1.1,0.2,2.1,0.7,3.1
			l0.6,1h-13.2c0.5-0.6,1-1.3,1.4-2.2c0.4-0.9,0.6-1.8,0.6-2.5V28.9c0-0.1,0-0.3-0.1-0.5C168.2,28.1,167.9,27.7,167.5,26.9z"/>
		<path class="st0" d="M228.1,32.4l1.3-0.4l-0.2-1.6c-0.4-2-1.8-3-4.2-3c-1.1,0-2.3,0.2-3.5,0.6c-1.3,0.4-2.7,1.1-4.2,2.1l-1.1,0.7
			c0.2-1.3,0.6-2.5,1.3-3.5c0.7-1,1.5-1.9,2.6-2.7c1-0.7,1.9-1.2,2.6-1.5c0.7-0.3,1.7-0.6,3.1-0.9c1.3-0.3,2.6-0.5,4-0.5
			c2.9,0,5.2,0.8,6.9,2.5c1.6,1.7,2.7,4.2,3.1,7.4l2.2,18.6c0.1,0.6,0.3,1.3,0.8,2.1c0.4,0.7,1,1.3,1.7,1.9h-12l-0.2-1.7
			c-0.4,0.2-0.8,0.5-1.1,0.7c-0.3,0.2-1.1,0.6-2.5,1.1c-1.4,0.6-3,0.8-5,0.8c-2.3,0-4.2-0.6-5.9-1.9c-1.6-1.3-2.6-2.7-3-4.3
			c-0.4-1.6-0.6-2.8-0.6-3.6c0-1.6,0.4-3.1,1.1-4.3c0.7-1.2,1.5-2.3,2.4-3.2c0.9-0.9,2-1.7,3.1-2.4c1.2-0.7,2.3-1.3,3.3-1.7
			C224.9,33.3,226.3,32.9,228.1,32.4z M229.7,34.2c-1.1,0.6-1.9,1.4-2.6,2.2c-0.7,0.8-1.3,1.9-1.9,3.3c-0.6,1.4-0.9,2.6-0.9,3.7
			c0,0.2,0,0.5,0,0.8c0,0.3,0,0.5,0,0.6c0,1.9,0.4,3.4,1.2,4.6c0.8,1.2,1.9,1.8,3.3,1.8c1.2,0,2.1-0.5,2.8-1.4L229.7,34.2z"/>
		<path class="st0" d="M245.3,26.8l-1.1-1.2l3-0.9l3-1l3.1-1l3.1-1v5.7l0.9-1.3c1.2-1.5,2.1-2.5,3-3c0.8-0.5,1.6-0.9,2.2-1
			c0.7-0.1,1.2-0.2,1.6-0.2c1.6,0,3,0.5,3.9,1.6c1,1.1,1.5,2.5,1.5,4.3c0,1.6-0.4,2.8-1.2,3.7c-0.8,0.9-1.9,1.3-3.2,1.3
			c-0.9,0-1.9-0.2-2.9-0.7c-1-0.5-1.9-1.1-2.6-1.8c-0.5-0.1-1.1,0.1-1.6,0.4c-0.6,0.4-1.1,0.8-1.6,1.2v18.6c0,1.1,0.3,1.9,0.9,2.5
			c0.6,0.6,1.1,1,1.4,1.2h-14.5l0.9-0.9c0.9-1.2,1.3-2.2,1.3-3.2V29.7C246.3,28.7,246,27.7,245.3,26.8z"/>
		<path class="st0" d="M271.6,27.4h-3.2c3.6-2.7,6.9-5.5,9.9-8.4l3.3-3.3v7.8h5.3v3.9h-5.3V48c0,1.7,1,2.5,3,2.5
			c0.4,0,0.9-0.1,1.4-0.2l1.6-0.5l0.8-0.4c-0.3,1.2-0.8,2.2-1.6,3.1c-0.8,0.9-1.7,1.6-2.7,2.1c-1,0.5-1.7,0.8-2.1,0.9
			c-0.4,0.1-0.7,0.2-1.1,0.2c-0.3,0-0.6,0-0.9,0c-0.3,0-0.6,0-0.8,0c-4.3,0-6.8-2-7.4-6v-1.3V27.4z"/>
		<path class="st0" d="M426.8,55.4h-14.3l1-1c0.8-1.2,1.2-2.3,1.2-3.6V29.7c0-1.7-0.7-3-2.1-3.8c1.7,0,3.7-0.3,5.9-1
			c2.2-0.7,4.3-1.3,6.2-2v28c0,0.7,0.2,1.5,0.7,2.4c0.5,0.9,0.8,1.5,0.9,1.6C426.4,55,426.6,55.2,426.8,55.4z M419.5,20.4
			c-1.7,0-3.1-0.5-4.2-1.4c-1.1-0.9-1.7-2.1-1.7-3.6c0-1.6,0.5-2.9,1.5-4c1-1,2.4-1.6,4.2-1.6c1.9,0,3.3,0.5,4.3,1.4
			c1,0.9,1.5,2.3,1.5,4c0,1.4-0.5,2.7-1.5,3.6C422.4,19.9,421.1,20.4,419.5,20.4z"/>
		<path class="st0" d="M441.9,55.9h-13.4l1-0.8c0.8-0.9,1.2-1.9,1.2-3V29.9c0-0.4-0.1-0.8-0.3-1.3c-0.2-0.5-0.6-1-1-1.4l-0.7-0.7
			c1.8,0,3.7-0.3,5.9-1c2.2-0.7,4.2-1.4,6.1-2.1v3.3l1.1-0.7c2.3-1.6,4.4-2.3,6.1-2.3c2.7,0,4.8,0.6,6.1,1.7
			c1.3,1.1,2.1,2.9,2.3,5.3v1.3v17.2c0,0.8,0.1,1.7,0.4,2.6c0.2,0.9,0.7,2,1.3,3.3l0.5,1h-13.5l0.7-1.2c0.4-0.9,0.7-1.7,0.7-2.2
			V31.1c0-1.3-0.8-2-2.5-2c-0.5,0-1,0.1-1.5,0.2c-0.5,0.1-0.9,0.5-1.2,1.1c-0.3,0.6-0.4,1.6-0.4,3v19.2v1.7
			C440.6,55,441,55.5,441.9,55.9z"/>
		<path class="st0" d="M344.7,55.4h-14.3l1-1c0.8-1.2,1.2-2.3,1.2-3.6V29.7c0-1.7-0.7-3-2.1-3.8c1.7,0,3.7-0.3,5.9-1
			c2.2-0.7,4.3-1.3,6.2-2v28c0,0.7,0.2,1.5,0.7,2.4c0.5,0.9,0.8,1.5,0.9,1.6C344.3,55,344.4,55.2,344.7,55.4z M337.3,20.4
			c-1.7,0-3.1-0.5-4.2-1.4c-1.1-0.9-1.7-2.1-1.7-3.6c0-1.6,0.5-2.9,1.5-4c1-1,2.4-1.6,4.2-1.6c1.9,0,3.3,0.5,4.3,1.4
			c1,0.9,1.5,2.3,1.5,4c0,1.4-0.5,2.7-1.5,3.6C340.3,19.9,339,20.4,337.3,20.4z"/>
		<path class="st0" d="M359.8,55.4h-13.4l1-0.8c0.8-0.9,1.2-1.9,1.2-3V29.4c0-0.4-0.1-0.8-0.3-1.3c-0.2-0.5-0.6-1-1-1.4l-0.7-0.7
			c1.8,0,3.7-0.3,5.9-1c2.2-0.7,4.2-1.4,6.1-2.1v3.3l1.1-0.7c2.3-1.6,4.4-2.3,6.1-2.3c2.7,0,4.8,0.6,6.1,1.7
			c1.3,1.1,2.1,2.9,2.3,5.3v1.3v17.2c0,0.8,0.1,1.7,0.4,2.6c0.2,0.9,0.7,2,1.3,3.3l0.5,1h-13.5l0.7-1.2c0.4-0.9,0.7-1.7,0.7-2.2
			V30.5c0-1.3-0.8-2-2.5-2c-0.5,0-1,0.1-1.5,0.2c-0.5,0.1-0.9,0.5-1.2,1.1c-0.3,0.6-0.5,1.6-0.5,3V52v1.7
			C358.5,54.4,358.9,55,359.8,55.4z"/>
		<path class="st0" d="M328.7,16.4c-0.3-1.7-0.9-3.2-1.8-4.5c-0.8-1.3-2-2.4-3.4-3.2c-1.4-0.8-3.2-1.2-5.3-1.2c-1.1,0-2.1,0.1-3,0.4
			c-0.9,0.3-1.9,0.6-2.8,1c-0.9,0.4-1.8,0.8-2.7,1.2c-0.6,0.3-1.3,0.6-2,0.8l0.1-4.9l-0.7,0.2c-2,0.6-4,1.3-6,1.9
			c-1.9,0.6-3.9,1-6,1.2l-1,0.1l0.6,0.8c0.7,0.9,1.4,1.8,1.9,2.5c0.5,0.7,0.7,1.6,0.7,2.7v35.7c0,0.8-0.3,1.5-0.9,2.1
			c-0.6,0.7-1.3,1.2-2,1.7l-1.4,1h17.1l0.2-1c-0.6-0.3-1.1-0.6-1.5-0.8c-0.3-0.2-0.6-0.5-0.7-0.7c-0.2-0.3-0.3-0.6-0.3-1
			c-0.1-0.4-0.1-1-0.1-1.8v-4c0-0.6,0.2-1.3,0.7-1.9c0.5-0.7,1.1-1.4,1.8-2c0.7-0.6,1.4-1.2,2.2-1.7c0.8-0.5,1.5-0.9,2-1.2
			c1.9-1.1,3.9-2.3,5.8-3.4c2-1.2,6.3-3.6,7.9-8c0.4-1.1,0.6-2.2,0.8-3.3c0.2-1.1,0.3-2.2,0.3-3.3C329.2,19.8,329.1,18,328.7,16.4z
			 M308.3,36.1V15.7c0.2-0.2,8.5-2.2,9.7,2.1c0.3,1,0.5,2,0.6,3.1C319.1,31.8,311.2,34.4,308.3,36.1z"/>
		<path class="st0" d="M395.7,22.8l0.9,1.6c0.7,1.3,1.4,2.6,2.1,4c0.6,1.2,1,2.5,1,3.9c0,0.8-0.1,1.8-0.2,2.9
			c-0.1,1-0.4,2.1-0.7,3.2c-0.3,1-0.7,2-1.2,2.8c-0.2,0.4-0.4,0.7-0.7,1l-10.1-21.7l-1.7,1.3l-0.1,0.1c-1.2,0.6-2.5,1.1-3.8,1.5
			c-1.4,0.4-2.8,0.7-4.1,1.1l-1.8,0.4l1.3,1.4c0.7,0.7,1.5,1.8,2.4,3.2c0.9,1.4,1.9,3.1,2.9,4.8c1,1.8,2,3.7,3.1,5.8c1,2,2,4,3,6
			c0.9,1.9,1.8,3.7,2.6,5.4c0.7,1.6,1.4,2.9,1.9,4c0,0.4-0.1,0.8-0.4,1c-0.4,0.3-1,0.4-1.6,0.5c-0.8,0-1.7,0-2.6-0.1
			c-1.1-0.1-2.1-0.1-3,0c-1.1,0.1-2,0.4-2.7,1c-0.8,0.7-1.3,1.8-1.3,3.2c0,1,0.3,1.8,0.8,2.5c0.5,0.6,1.1,1.1,1.8,1.4
			c0.6,0.3,1.4,0.5,2.2,0.6c0.7,0.1,1.4,0.2,2.1,0.2c1.1,0,2.1-0.2,3-0.5c1.1-0.4,2-1.1,2.7-2.1c1-1.5,1.7-3.1,2.3-5
			c0.6-1.7,1.1-3.4,1.7-4.9c0.7-1.9,1.5-4.1,2.5-6.8c1-2.7,2.1-5.4,3.3-8.2c1.2-2.8,2.4-5.4,3.7-7.8c1.3-2.4,2.5-4.3,3.8-5.6
			l1.6-1.8H395.7z"/>
	</g>
	<g>
		<g>
			<g>
				<path class="st0" d="M104.3,12.6C103.6,5.6,97.2,0,89.3,0c-7.9,0-14.3,5.6-15,12.6h-0.1V46h0.1c0.6,7.7,7.1,13.8,15,13.8
					c7.9,0,14.3-6.1,15-13.8h0.1L104.3,12.6z"/>
				<path class="st1" d="M100.8,10.4c-0.7-5.8-5.7-10.3-11.6-10.3c-6,0-10.9,4.5-11.6,10.3h-0.1v37.3c0,6.6,5.3,11.9,11.7,11.9
					c6.5,0,11.7-5.3,11.7-11.9V10.4H100.8z"/>
				<path class="st2" d="M88.3,0.5c-4.3,0-7.7,3.5-7.7,7.8v43.1c0,4.3,3.5,7.8,7.7,7.8c4.3,0,7.7-3.5,7.7-7.8V8.3
					C96,4,92.6,0.5,88.3,0.5z"/>
				<g>
					<path class="st3" d="M91.1,17.3c0,1-0.8,1.8-1.8,1.8c-1,0-1.8-0.8-1.8-1.8c0-1,0.8-1.8,1.8-1.8C90.3,15.5,91.1,16.3,91.1,17.3z
						"/>
					<path class="st3" d="M91.2,23c0,1-0.8,1.8-1.8,1.8c-1,0-1.8-0.8-1.8-1.8c0-1,0.8-1.8,1.8-1.8C90.4,21.2,91.2,22.1,91.2,23z"/>
					<path class="st3" d="M91.2,28.7c0,1-0.8,1.8-1.8,1.8c-1,0-1.8-0.8-1.8-1.8c0-1,0.8-1.8,1.8-1.8C90.4,26.9,91.2,27.7,91.2,28.7z
						"/>
					<path class="st3" d="M91.2,34.2c0,1-0.8,1.8-1.8,1.8c-1,0-1.8-0.8-1.8-1.8c0-1,0.8-1.8,1.8-1.8C90.4,32.4,91.2,33.2,91.2,34.2z
						"/>
					<path class="st3" d="M91.2,39.6c0,1-0.8,1.8-1.8,1.8c-1,0-1.8-0.8-1.8-1.8c0-1,0.8-1.8,1.8-1.8C90.4,37.8,91.2,38.6,91.2,39.6z
						"/>
					<path class="st3" d="M91.2,45.4c0,1-0.8,1.8-1.8,1.8c-1,0-1.8-0.8-1.8-1.8c0-1,0.8-1.8,1.8-1.8C90.4,43.6,91.2,44.4,91.2,45.4z
						"/>
					<path class="st3" d="M86.5,20.2c0,1-0.8,1.8-1.8,1.8c-1,0-1.8-0.8-1.8-1.8c0-1,0.8-1.8,1.8-1.8C85.7,18.4,86.5,19.2,86.5,20.2z
						"/>
					<path class="st3" d="M86.5,25.9c0,1-0.8,1.8-1.8,1.8c-1,0-1.8-0.8-1.8-1.8c0-1,0.8-1.8,1.8-1.8C85.7,24.1,86.5,24.9,86.5,25.9z
						"/>
					<path class="st3" d="M86.5,31.6c0,1-0.8,1.8-1.8,1.8c-1,0-1.8-0.8-1.8-1.8c0-1,0.8-1.8,1.8-1.8C85.7,29.8,86.5,30.6,86.5,31.6z
						"/>
					<path class="st3" d="M86.5,37.1c0,1-0.8,1.8-1.8,1.8c-1,0-1.8-0.8-1.8-1.8c0-1,0.8-1.8,1.8-1.8C85.7,35.3,86.5,36.1,86.5,37.1z
						"/>
					<path class="st3" d="M86.5,42.5c0,1-0.8,1.8-1.8,1.8c-1,0-1.8-0.8-1.8-1.8c0-1,0.8-1.8,1.8-1.8C85.7,40.7,86.5,41.5,86.5,42.5z
						"/>
					<path class="st3" d="M95.7,20.2c0,1-0.8,1.8-1.8,1.8c-1,0-1.8-0.8-1.8-1.8c0-1,0.8-1.8,1.8-1.8C94.9,18.4,95.7,19.2,95.7,20.2z
						"/>
					<path class="st3" d="M95.8,25.9c0,1-0.8,1.8-1.8,1.8c-1,0-1.8-0.8-1.8-1.8c0-1,0.8-1.8,1.8-1.8C95,24.1,95.8,24.9,95.8,25.9z"
						/>
					<path class="st3" d="M95.8,31.6c0,1-0.8,1.8-1.8,1.8c-1,0-1.8-0.8-1.8-1.8c0-1,0.8-1.8,1.8-1.8C95,29.8,95.8,30.6,95.8,31.6z"
						/>
					<path class="st3" d="M95.8,37.1c0,1-0.8,1.8-1.8,1.8c-1,0-1.8-0.8-1.8-1.8c0-1,0.8-1.8,1.8-1.8C95,35.3,95.8,36.1,95.8,37.1z"
						/>
					<path class="st3" d="M95.8,42.5c0,1-0.8,1.8-1.8,1.8c-1,0-1.8-0.8-1.8-1.8c0-1,0.8-1.8,1.8-1.8C95,40.7,95.8,41.5,95.8,42.5z"
						/>
					<path class="st3" d="M99.6,17.3c0,1-0.6,1.8-1.3,1.8c-0.7,0-1.3-0.8-1.3-1.8c0-1,0.6-1.8,1.3-1.8C99,15.5,99.6,16.3,99.6,17.3z
						"/>
					<path class="st3" d="M99.7,23c0,1-0.6,1.8-1.3,1.8C97.6,24.8,97,24,97,23c0-1,0.6-1.8,1.3-1.8C99.1,21.2,99.7,22.1,99.7,23z"/>
					<path class="st3" d="M99.7,28.7c0,1-0.6,1.8-1.3,1.8c-0.7,0-1.3-0.8-1.3-1.8c0-1,0.6-1.8,1.3-1.8
						C99.1,26.9,99.7,27.7,99.7,28.7z"/>
					<path class="st3" d="M99.7,34.2c0,1-0.6,1.8-1.3,1.8c-0.7,0-1.3-0.8-1.3-1.8c0-1,0.6-1.8,1.3-1.8
						C99.1,32.4,99.7,33.2,99.7,34.2z"/>
					<path class="st3" d="M99.7,39.6c0,1-0.6,1.8-1.3,1.8c-0.7,0-1.3-0.8-1.3-1.8c0-1,0.6-1.8,1.3-1.8
						C99.1,37.8,99.7,38.6,99.7,39.6z"/>
					<path class="st3" d="M99.7,45.4c0,1-0.6,1.8-1.3,1.8c-0.7,0-1.3-0.8-1.3-1.8c0-1,0.6-1.8,1.3-1.8
						C99.1,43.6,99.7,44.4,99.7,45.4z"/>
					<path class="st3" d="M82,17.3c0,1-0.6,1.8-1.3,1.8c-0.7,0-1.3-0.8-1.3-1.8c0-1,0.6-1.8,1.3-1.8C81.4,15.5,82,16.3,82,17.3z"/>
					<path class="st3" d="M82,23c0,1-0.6,1.8-1.3,1.8c-0.7,0-1.3-0.8-1.3-1.8c0-1,0.6-1.8,1.3-1.8C81.4,21.2,82,22.1,82,23z"/>
					<path class="st3" d="M82,28.7c0,1-0.6,1.8-1.3,1.8c-0.7,0-1.3-0.8-1.3-1.8c0-1,0.6-1.8,1.3-1.8C81.4,26.9,82,27.7,82,28.7z"/>
					<path class="st3" d="M82,34.2c0,1-0.6,1.8-1.3,1.8c-0.7,0-1.3-0.8-1.3-1.8c0-1,0.6-1.8,1.3-1.8C81.4,32.4,82,33.2,82,34.2z"/>
					<path class="st3" d="M82,39.6c0,1-0.6,1.8-1.3,1.8c-0.7,0-1.3-0.8-1.3-1.8c0-1,0.6-1.8,1.3-1.8C81.4,37.8,82,38.6,82,39.6z"/>
					<path class="st3" d="M82,45.4c0,1-0.6,1.8-1.3,1.8c-0.7,0-1.3-0.8-1.3-1.8c0-1,0.6-1.8,1.3-1.8C81.4,43.6,82,44.4,82,45.4z"/>
					<path class="st3" d="M102.8,20.4c0,1-0.4,1.8-0.9,1.8c-0.5,0-0.9-0.8-0.9-1.8c0-1,0.4-1.8,0.9-1.8
						C102.4,18.6,102.8,19.4,102.8,20.4z"/>
					<path class="st3" d="M102.8,26.2c0,1-0.4,1.8-0.9,1.8c-0.5,0-0.9-0.8-0.9-1.8c0-1,0.4-1.8,0.9-1.8
						C102.4,24.4,102.8,25.2,102.8,26.2z"/>
					<path class="st3" d="M102.8,31.8c0,1-0.4,1.8-0.9,1.8c-0.5,0-0.9-0.8-0.9-1.8c0-1,0.4-1.8,0.9-1.8
						C102.4,30,102.8,30.8,102.8,31.8z"/>
					<path class="st3" d="M102.8,37.3c0,1-0.4,1.8-0.9,1.8c-0.5,0-0.9-0.8-0.9-1.8c0-1,0.4-1.8,0.9-1.8
						C102.4,35.5,102.8,36.3,102.8,37.3z"/>
					<path class="st3" d="M102.8,42.8c0,1-0.4,1.8-0.9,1.8c-0.5,0-0.9-0.8-0.9-1.8c0-1,0.4-1.8,0.9-1.8
						C102.4,41,102.8,41.8,102.8,42.8z"/>
					<path class="st3" d="M78.1,20.5c0,1-0.4,1.8-0.9,1.8c-0.5,0-0.9-0.8-0.9-1.8c0-1,0.4-1.8,0.9-1.8
						C77.7,18.7,78.1,19.5,78.1,20.5z"/>
					<path class="st3" d="M78.1,26.3c0,1-0.4,1.8-0.9,1.8c-0.5,0-0.9-0.8-0.9-1.8c0-1,0.4-1.8,0.9-1.8
						C77.7,24.5,78.1,25.3,78.1,26.3z"/>
					<path class="st3" d="M78.1,31.9c0,1-0.4,1.8-0.9,1.8c-0.5,0-0.9-0.8-0.9-1.8c0-1,0.4-1.8,0.9-1.8
						C77.7,30.1,78.1,30.9,78.1,31.9z"/>
					<path class="st3" d="M78.1,37.4c0,1-0.4,1.8-0.9,1.8c-0.5,0-0.9-0.8-0.9-1.8c0-1,0.4-1.8,0.9-1.8
						C77.7,35.6,78.1,36.4,78.1,37.4z"/>
					<path class="st3" d="M78.1,42.8c0,1-0.4,1.8-0.9,1.8c-0.5,0-0.9-0.8-0.9-1.8c0-1,0.4-1.8,0.9-1.8C77.7,41,78.1,41.9,78.1,42.8z
						"/>
					<path class="st3" d="M104.3,17.7c0,1-0.2,1.8-0.5,1.8c-0.3,0-0.5-0.8-0.5-1.8s0.2-1.8,0.5-1.8C104,15.9,104.3,16.7,104.3,17.7z
						"/>
					<path class="st3" d="M104.3,23.5c0,1-0.2,1.8-0.5,1.8c-0.3,0-0.5-0.8-0.5-1.8c0-1,0.2-1.8,0.5-1.8
						C104,21.7,104.3,22.5,104.3,23.5z"/>
					<path class="st3" d="M104.3,29.2c0,1-0.2,1.8-0.5,1.8c-0.3,0-0.5-0.8-0.5-1.8c0-1,0.2-1.8,0.5-1.8
						C104,27.4,104.3,28.2,104.3,29.2z"/>
					<path class="st3" d="M104.3,34.6c0,1-0.2,1.8-0.5,1.8c-0.3,0-0.5-0.8-0.5-1.8c0-1,0.2-1.8,0.5-1.8
						C104,32.8,104.3,33.6,104.3,34.6z"/>
					<path class="st3" d="M104.3,40.1c0,1-0.2,1.8-0.5,1.8c-0.3,0-0.5-0.8-0.5-1.8c0-1,0.2-1.8,0.5-1.8
						C104,38.3,104.3,39.1,104.3,40.1z"/>
					<path class="st3" d="M104.3,45.9c0,1-0.2,1.8-0.5,1.8c-0.3,0-0.5-0.8-0.5-1.8c0-1,0.2-1.8,0.5-1.8
						C104,44.1,104.3,44.9,104.3,45.9z"/>
					<path class="st3" d="M75.4,17.4c0,1-0.2,1.8-0.5,1.8c-0.3,0-0.5-0.8-0.5-1.8c0-1,0.2-1.8,0.5-1.8
						C75.1,15.6,75.4,16.4,75.4,17.4z"/>
					<path class="st3" d="M75.4,23.2c0,1-0.2,1.8-0.5,1.8c-0.3,0-0.5-0.8-0.5-1.8c0-1,0.2-1.8,0.5-1.8
						C75.2,21.4,75.4,22.2,75.4,23.2z"/>
					<path class="st3" d="M75.4,28.8c0,1-0.2,1.8-0.5,1.8c-0.3,0-0.5-0.8-0.5-1.8c0-1,0.2-1.8,0.5-1.8C75.2,27,75.4,27.8,75.4,28.8z
						"/>
					<path class="st3" d="M75.4,34.3c0,1-0.2,1.8-0.5,1.8c-0.3,0-0.5-0.8-0.5-1.8c0-1,0.2-1.8,0.5-1.8
						C75.2,32.5,75.4,33.3,75.4,34.3z"/>
					<path class="st3" d="M75.4,39.8c0,1-0.2,1.8-0.5,1.8c-0.3,0-0.5-0.8-0.5-1.8c0-1,0.2-1.8,0.5-1.8C75.2,38,75.4,38.8,75.4,39.8z
						"/>
					<path class="st3" d="M75.4,45.6c0,1-0.2,1.8-0.5,1.8c-0.3,0-0.5-0.8-0.5-1.8c0-1,0.2-1.8,0.5-1.8
						C75.2,43.8,75.4,44.6,75.4,45.6z"/>
				</g>
				<path class="st4" d="M89.5,2.6c0.8,1.6-0.2,3.8-2.3,4.8c-2.1,1.1-4.4,0.6-5.3-1c-0.8-1.6,0.2-3.8,2.3-4.8
					C86.3,0.6,88.7,1,89.5,2.6z"/>
				<g>
					<path class="st4" d="M91.2,16.7c0,1-0.8,1.8-1.8,1.8c-1,0-1.8-0.8-1.8-1.8s0.8-1.8,1.8-1.8C90.4,14.9,91.2,15.7,91.2,16.7z"/>
					<path class="st4" d="M91.2,22.5c0,1-0.8,1.8-1.8,1.8s-1.8-0.8-1.8-1.8c0-1,0.8-1.8,1.8-1.8S91.2,21.5,91.2,22.5z"/>
					<path class="st4" d="M91.2,28.1c0,1-0.8,1.8-1.8,1.8s-1.8-0.8-1.8-1.8c0-1,0.8-1.8,1.8-1.8S91.2,27.1,91.2,28.1z"/>
					<path class="st4" d="M91.2,33.6c0,1-0.8,1.8-1.8,1.8c-1,0-1.8-0.8-1.8-1.8c0-1,0.8-1.8,1.8-1.8C90.4,31.8,91.2,32.6,91.2,33.6z
						"/>
					<path class="st4" d="M91.2,39c0,1-0.8,1.8-1.8,1.8c-1,0-1.8-0.8-1.8-1.8c0-1,0.8-1.8,1.8-1.8C90.4,37.2,91.2,38.1,91.2,39z"/>
					<path class="st4" d="M91.2,44.8c0,1-0.8,1.8-1.8,1.8s-1.8-0.8-1.8-1.8c0-1,0.8-1.8,1.8-1.8S91.2,43.8,91.2,44.8z"/>
					<path class="st4" d="M86.5,19.6c0,1-0.8,1.8-1.8,1.8c-1,0-1.8-0.8-1.8-1.8c0-1,0.8-1.8,1.8-1.8C85.7,17.8,86.5,18.6,86.5,19.6z
						"/>
					<path class="st4" d="M86.6,25.4c0,1-0.8,1.8-1.8,1.8c-1,0-1.8-0.8-1.8-1.8c0-1,0.8-1.8,1.8-1.8C85.8,23.6,86.6,24.4,86.6,25.4z
						"/>
					<path class="st4" d="M86.6,31c0,1-0.8,1.8-1.8,1.8c-1,0-1.8-0.8-1.8-1.8c0-1,0.8-1.8,1.8-1.8C85.8,29.2,86.6,30,86.6,31z"/>
					<path class="st4" d="M86.6,36.5c0,1-0.8,1.8-1.8,1.8c-1,0-1.8-0.8-1.8-1.8c0-1,0.8-1.8,1.8-1.8C85.8,34.7,86.6,35.5,86.6,36.5z
						"/>
					<path class="st4" d="M86.6,41.9c0,1-0.8,1.8-1.8,1.8c-1,0-1.8-0.8-1.8-1.8c0-1,0.8-1.8,1.8-1.8C85.8,40.1,86.6,40.9,86.6,41.9z
						"/>
					<path class="st4" d="M95.7,19.6c0,1-0.8,1.8-1.8,1.8c-1,0-1.8-0.8-1.8-1.8c0-1,0.8-1.8,1.8-1.8C94.9,17.8,95.7,18.6,95.7,19.6z
						"/>
					<path class="st4" d="M95.8,25.4c0,1-0.8,1.8-1.8,1.8c-1,0-1.8-0.8-1.8-1.8c0-1,0.8-1.8,1.8-1.8C95,23.6,95.8,24.4,95.8,25.4z"
						/>
					<path class="st4" d="M95.8,31c0,1-0.8,1.8-1.8,1.8c-1,0-1.8-0.8-1.8-1.8c0-1,0.8-1.8,1.8-1.8C95,29.2,95.8,30,95.8,31z"/>
					<path class="st4" d="M95.8,36.5c0,1-0.8,1.8-1.8,1.8c-1,0-1.8-0.8-1.8-1.8c0-1,0.8-1.8,1.8-1.8C95,34.7,95.8,35.5,95.8,36.5z"
						/>
					<path class="st4" d="M95.8,41.9c0,1-0.8,1.8-1.8,1.8c-1,0-1.8-0.8-1.8-1.8c0-1,0.8-1.8,1.8-1.8C95,40.1,95.8,40.9,95.8,41.9z"
						/>
					<path class="st4" d="M99.7,16.7c0,1-0.6,1.8-1.3,1.8c-0.7,0-1.3-0.8-1.3-1.8c0-1,0.6-1.8,1.3-1.8
						C99.1,14.9,99.7,15.7,99.7,16.7z"/>
					<path class="st4" d="M99.7,22.5c0,1-0.6,1.8-1.3,1.8c-0.7,0-1.3-0.8-1.3-1.8c0-1,0.6-1.8,1.3-1.8
						C99.1,20.7,99.7,21.5,99.7,22.5z"/>
					<path class="st4" d="M99.7,28.1c0,1-0.6,1.8-1.3,1.8c-0.7,0-1.3-0.8-1.3-1.8c0-1,0.6-1.8,1.3-1.8
						C99.1,26.3,99.7,27.1,99.7,28.1z"/>
					<path class="st4" d="M99.7,33.6c0,1-0.6,1.8-1.3,1.8c-0.7,0-1.3-0.8-1.3-1.8c0-1,0.6-1.8,1.3-1.8
						C99.1,31.8,99.7,32.6,99.7,33.6z"/>
					<path class="st4" d="M99.7,39c0,1-0.6,1.8-1.3,1.8c-0.7,0-1.3-0.8-1.3-1.8c0-1,0.6-1.8,1.3-1.8C99.1,37.2,99.7,38.1,99.7,39z"
						/>
					<path class="st4" d="M99.7,44.8c0,1-0.6,1.8-1.3,1.8c-0.7,0-1.3-0.8-1.3-1.8c0-1,0.6-1.8,1.3-1.8C99.1,43,99.7,43.8,99.7,44.8z
						"/>
					<path class="st4" d="M82,16.7c0,1-0.6,1.8-1.3,1.8c-0.7,0-1.3-0.8-1.3-1.8c0-1,0.6-1.8,1.3-1.8C81.4,14.9,82,15.7,82,16.7z"/>
					<path class="st4" d="M82,22.5c0,1-0.6,1.8-1.3,1.8c-0.7,0-1.3-0.8-1.3-1.8c0-1,0.6-1.8,1.3-1.8C81.5,20.7,82,21.5,82,22.5z"/>
					<path class="st4" d="M82,28.1c0,1-0.6,1.8-1.3,1.8c-0.7,0-1.3-0.8-1.3-1.8c0-1,0.6-1.8,1.3-1.8C81.5,26.3,82,27.1,82,28.1z"/>
					<path class="st4" d="M82,33.6c0,1-0.6,1.8-1.3,1.8c-0.7,0-1.3-0.8-1.3-1.8c0-1,0.6-1.8,1.3-1.8C81.5,31.8,82,32.6,82,33.6z"/>
					<path class="st4" d="M82,39c0,1-0.6,1.8-1.3,1.8c-0.7,0-1.3-0.8-1.3-1.8c0-1,0.6-1.8,1.3-1.8C81.5,37.2,82,38.1,82,39z"/>
					<path class="st4" d="M82,44.8c0,1-0.6,1.8-1.3,1.8c-0.7,0-1.3-0.8-1.3-1.8c0-1,0.6-1.8,1.3-1.8C81.5,43,82,43.8,82,44.8z"/>
					<path class="st4" d="M102.8,19.8c0,1-0.4,1.8-0.9,1.8c-0.5,0-0.9-0.8-0.9-1.8c0-1,0.4-1.8,0.9-1.8
						C102.4,18,102.8,18.8,102.8,19.8z"/>
					<path class="st4" d="M102.9,25.6c0,1-0.4,1.8-0.9,1.8c-0.5,0-0.9-0.8-0.9-1.8c0-1,0.4-1.8,0.9-1.8
						C102.5,23.8,102.9,24.6,102.9,25.6z"/>
					<path class="st4" d="M102.9,31.2c0,1-0.4,1.8-0.9,1.8c-0.5,0-0.9-0.8-0.9-1.8c0-1,0.4-1.8,0.9-1.8
						C102.5,29.4,102.9,30.2,102.9,31.2z"/>
					<path class="st4" d="M102.9,36.7c0,1-0.4,1.8-0.9,1.8c-0.5,0-0.9-0.8-0.9-1.8c0-1,0.4-1.8,0.9-1.8
						C102.5,34.9,102.9,35.7,102.9,36.7z"/>
					<path class="st4" d="M102.9,42.2c0,1-0.4,1.8-0.9,1.8c-0.5,0-0.9-0.8-0.9-1.8c0-1,0.4-1.8,0.9-1.8
						C102.5,40.4,102.9,41.2,102.9,42.2z"/>
					<path class="st4" d="M78.1,19.9c0,1-0.4,1.8-0.9,1.8c-0.5,0-0.9-0.8-0.9-1.8c0-1,0.4-1.8,0.9-1.8
						C77.7,18.1,78.1,18.9,78.1,19.9z"/>
					<path class="st4" d="M78.2,25.7c0,1-0.4,1.8-0.9,1.8c-0.5,0-0.9-0.8-0.9-1.8c0-1,0.4-1.8,0.9-1.8
						C77.8,23.9,78.2,24.7,78.2,25.7z"/>
					<path class="st4" d="M78.2,31.3c0,1-0.4,1.8-0.9,1.8c-0.5,0-0.9-0.8-0.9-1.8c0-1,0.4-1.8,0.9-1.8
						C77.8,29.5,78.2,30.3,78.2,31.3z"/>
					<path class="st4" d="M78.2,36.8c0,1-0.4,1.8-0.9,1.8c-0.5,0-0.9-0.8-0.9-1.8c0-1,0.4-1.8,0.9-1.8C77.8,35,78.2,35.8,78.2,36.8z
						"/>
					<path class="st4" d="M78.2,42.3c0,1-0.4,1.8-0.9,1.8c-0.5,0-0.9-0.8-0.9-1.8c0-1,0.4-1.8,0.9-1.8
						C77.8,40.5,78.2,41.3,78.2,42.3z"/>
					<path class="st4" d="M104.3,17.1c0,1-0.2,1.8-0.5,1.8c-0.3,0-0.5-0.8-0.5-1.8c0-1,0.2-1.8,0.5-1.8
						C104.1,15.3,104.3,16.1,104.3,17.1z"/>
					<path class="st4" d="M104.3,22.9c0,1-0.2,1.8-0.5,1.8c-0.3,0-0.5-0.8-0.5-1.8c0-1,0.2-1.8,0.5-1.8
						C104.1,21.1,104.3,21.9,104.3,22.9z"/>
					<path class="st4" d="M104.3,28.6c0,1-0.2,1.8-0.5,1.8c-0.3,0-0.5-0.8-0.5-1.8c0-1,0.2-1.8,0.5-1.8
						C104.1,26.8,104.3,27.6,104.3,28.6z"/>
					<path class="st4" d="M104.3,34c0,1-0.2,1.8-0.5,1.8c-0.3,0-0.5-0.8-0.5-1.8c0-1,0.2-1.8,0.5-1.8C104.1,32.2,104.3,33,104.3,34z
						"/>
					<path class="st4" d="M104.3,39.5c0,1-0.2,1.8-0.5,1.8c-0.3,0-0.5-0.8-0.5-1.8c0-1,0.2-1.8,0.5-1.8
						C104.1,37.7,104.3,38.5,104.3,39.5z"/>
					<path class="st4" d="M104.3,45.3c0,1-0.2,1.8-0.5,1.8c-0.3,0-0.5-0.8-0.5-1.8c0-1,0.2-1.8,0.5-1.8
						C104.1,43.5,104.3,44.3,104.3,45.3z"/>
					<path class="st4" d="M75.4,16.8c0,1-0.2,1.8-0.5,1.8c-0.3,0-0.5-0.8-0.5-1.8c0-1,0.2-1.8,0.5-1.8C75.2,15,75.4,15.8,75.4,16.8z
						"/>
					<path class="st4" d="M75.4,22.6c0,1-0.2,1.8-0.5,1.8c-0.3,0-0.5-0.8-0.5-1.8c0-1,0.2-1.8,0.5-1.8
						C75.2,20.8,75.4,21.6,75.4,22.6z"/>
					<path class="st4" d="M75.4,28.3c0,1-0.2,1.8-0.5,1.8c-0.3,0-0.5-0.8-0.5-1.8c0-1,0.2-1.8,0.5-1.8
						C75.2,26.4,75.4,27.3,75.4,28.3z"/>
					<path class="st4" d="M75.4,33.7c0,1-0.2,1.8-0.5,1.8c-0.3,0-0.5-0.8-0.5-1.8c0-1,0.2-1.8,0.5-1.8
						C75.2,31.9,75.4,32.7,75.4,33.7z"/>
					<path class="st4" d="M75.4,39.2c0,1-0.2,1.8-0.5,1.8c-0.3,0-0.5-0.8-0.5-1.8c0-1,0.2-1.8,0.5-1.8
						C75.2,37.4,75.4,38.2,75.4,39.2z"/>
					<path class="st4" d="M75.4,45c0,1-0.2,1.8-0.5,1.8c-0.3,0-0.5-0.8-0.5-1.8c0-1,0.2-1.8,0.5-1.8C75.2,43.2,75.4,44,75.4,45z"/>
				</g>
			</g>
			<g>
				<path class="st0" d="M88,94.2c-2.8,0-4.3-2.1-3.2-4.7l2.6-6.3c1.1-2.6,2.8-2.6,3.9,0l2.6,6.3c1.1,2.6-0.4,4.7-3.2,4.7H88z"/>
			</g>
			<path class="st0" d="M70.6,80.3c-0.8,0-1.4,0.6-1.4,1.4c0,0.8,0.6,1.4,1.4,1.4H108c0.8,0,1.4-0.6,1.4-1.4c0-0.8-0.6-1.4-1.4-1.4
				H70.6z"/>
			<path class="st0" d="M107.5,34.1c0,0,0,18.7,0,18.8c0,7-5.5,8.4-6.2,8.5c-1.3,0-16.8,0.1-23.5,0c-5.7-0.1-6.5-7.5-6.6-7.8l0-17.3
				h-2.9v17.4c0.4,3.7,2.8,10.4,9.4,10.5c7,0.1,23.6,0,23.8,0l0.1,0l0.1,0c3-0.6,8.7-3.7,8.6-11.6V34.1H107.5z"/>
			
				<linearGradient id="SVGID_1_" gradientUnits="userSpaceOnUse" x1="-513.7975" y1="-16552.3105" x2="-513.7975" y2="-16542.6855" gradientTransform="matrix(0 1 1 0 16656.3555 549.1618)">
				<stop  offset="0" style="stop-color:#552B8C"/>
				<stop  offset="4.578886e-02" style="stop-color:#5A308E"/>
				<stop  offset="0.1102" style="stop-color:#683E95"/>
				<stop  offset="0.1857" style="stop-color:#7F57A1"/>
				<stop  offset="0.2697" style="stop-color:#9F7DB6"/>
				<stop  offset="0.3595" style="stop-color:#C9B0D4"/>
				<stop  offset="0.4045" style="stop-color:#E1CEE4"/>
				<stop  offset="0.6857" style="stop-color:#9874B2"/>
				<stop  offset="0.8994" style="stop-color:#683E95"/>
				<stop  offset="1" style="stop-color:#552B8C"/>
			</linearGradient>
			<path class="st5" d="M111.2,34.5v4h-4.7v-4c0-1.3,1.1-2.3,2.3-2.3C110.2,32.2,111.2,33.3,111.2,34.5z"/>
			
				<linearGradient id="SVGID_00000098928113659409888320000003326099064738208919_" gradientUnits="userSpaceOnUse" x1="-513.7975" y1="-17018.9316" x2="-513.7975" y2="-17009.3027" gradientTransform="matrix(0 1 -1 0 -16944.3945 549.1618)">
				<stop  offset="0" style="stop-color:#552B8C"/>
				<stop  offset="4.578886e-02" style="stop-color:#5A308E"/>
				<stop  offset="0.1102" style="stop-color:#683E95"/>
				<stop  offset="0.1857" style="stop-color:#7F57A1"/>
				<stop  offset="0.2697" style="stop-color:#9F7DB6"/>
				<stop  offset="0.3595" style="stop-color:#C9B0D4"/>
				<stop  offset="0.4045" style="stop-color:#E1CEE4"/>
				<stop  offset="0.6857" style="stop-color:#9874B2"/>
				<stop  offset="0.8994" style="stop-color:#683E95"/>
				<stop  offset="1" style="stop-color:#552B8C"/>
			</linearGradient>
			<path style="fill:url(#SVGID_00000098928113659409888320000003326099064738208919_);" d="M67.4,34.5v4h4.7v-4
				c0-1.3-1.1-2.3-2.3-2.3S67.4,33.3,67.4,34.5z"/>
			<g>
				<path class="st0" d="M77.9,72.4c0,5.3,5.1,9.6,11.3,9.6c6.3,0,11.3-4.3,11.3-9.6c0-5.3-5.1-9.6-11.3-9.6
					C83,62.8,77.9,67.1,77.9,72.4z M80.8,72.4c0-3.7,3.8-6.8,8.5-6.8c4.7,0,8.5,3,8.5,6.8c0,3.7-3.8,6.7-8.5,6.7
					C84.6,79.1,80.8,76.1,80.8,72.4z"/>
			</g>
		</g>
		<g>
			<g>
				<path class="st0" d="M52,1.2c-13,4-26.7,4-39.7,0c-0.8-0.2-1.6,0.2-1.8,0.9c-0.2,0.8,0.2,1.5,1,1.8c13.5,4.1,27.8,4.1,41.4,0
					c0.8-0.2,1.2-1,1-1.8C53.6,1.4,52.8,1,52,1.2z"/>
			</g>
			<g>
				<path class="st0" d="M62.5,11c-19,6.8-41.6,6.8-60.6,0c-0.7-0.3-1.6,0.1-1.8,0.9c-0.3,0.7,0.1,1.6,0.9,1.8c19.6,7,42.9,7,62.5,0
					c0.7-0.3,1.1-1.1,0.9-1.8C64.1,11.1,63.2,10.7,62.5,11z"/>
			</g>
			<g>
				<path class="st0" d="M21.2,19.4c-1.6,1.6-2.4,3.5-2.4,5.7c0,5.4,5.5,10.1,12,10.1h2.9c6.5,0,12-4.6,12-10.1c0,0,0,0,0,0v0
					c0-2.1-0.8-4.1-2.4-5.7c-2.2-2.2-5.7-3.4-9.6-3.3h-2.8C26.9,16,23.4,17.2,21.2,19.4z M21.6,25c0-1.4,0.5-2.6,1.6-3.6
					c1.7-1.6,4.4-2.6,7.5-2.5h2.9c3.1-0.1,5.9,0.9,7.5,2.5c1,1,1.6,2.2,1.6,3.6v0c0,3.9-4.2,7.2-9.1,7.2c0,0-2.9,0-2.9,0
					C25.8,32.2,21.6,28.9,21.6,25z M30.8,35.1"/>
			</g>
			<g>
				<path class="st0" d="M30.8,34.9v28.5c0,0.8,0.6,1.4,1.4,1.4c0.8,0,1.4-0.6,1.4-1.4V34.9c0-0.8-0.6-1.4-1.4-1.4
					C31.4,33.5,30.8,34.1,30.8,34.9z"/>
			</g>
			<g>
				<path class="st0" d="M55.5,30.2V38c0,3.6-3.9,6.6-8.8,6.6c-9.5,0.1-19.5,0.1-29,0c-4.9,0-8.8-2.9-8.8-6.4v-7.6
					c0-0.8-0.6-1.4-1.4-1.4c-0.8,0-1.4,0.6-1.4,1.4v7.6c0,5.1,5.2,9.2,11.6,9.2c9.5,0.1,19.6,0.1,29.1,0c6.4,0,11.6-4.3,11.6-9.5
					v-7.9c0-0.8-0.6-1.4-1.4-1.4C56.2,28.7,55.5,29.4,55.5,30.2z"/>
			</g>
			<g>
				<path class="st0" d="M13.7,77.4c-0.8,0.1-1.3,0.9-1.2,1.7c0.1,0.8,0.9,1.3,1.7,1.2c11.7-2.1,24.2-2.1,35.9,0
					c0.8,0.1,1.5-0.4,1.7-1.2c0.1-0.8-0.4-1.5-1.2-1.7C38.6,75.3,25.8,75.3,13.7,77.4z"/>
			</g>
			<g>
				<g>
					<path class="st0" d="M24.2,63.2c-6.4,0.2-11.8,5.4-11.8,11.3v10.6c0,6.1,7.5,8.4,7.8,8.5l0.4,0.1h23.1l0.4-0.1
						c0.3-0.1,7.8-2.4,7.8-8.5v0V74.5c0-5.9-5.4-11.1-11.8-11.3C34.9,63,29.5,63,24.2,63.2z M15.3,85.2V74.5c0-4.4,4.1-8.3,9.1-8.4
						c5.2-0.2,10.5-0.2,15.8,0c4.9,0.2,9.1,4,9.1,8.4v10.6c0,3.6-4.8,5.4-5.6,5.7c-0.4,0-22.2,0-22.7,0C20,90.6,15.3,88.8,15.3,85.2
						z"/>
				</g>
				<g>
					<path class="st0" d="M12.4,61.5V74c0,0.8,0.6,1.4,1.4,1.4c0.8,0,1.4-0.6,1.4-1.4V61.5c0-0.8-0.6-1.4-1.4-1.4
						C13,60.1,12.4,60.7,12.4,61.5z"/>
				</g>
				<g>
					<path class="st0" d="M49.1,61.5V74c0,0.8,0.6,1.4,1.4,1.4c0.8,0,1.4-0.6,1.4-1.4V61.5c0-0.8-0.6-1.4-1.4-1.4
						C49.8,60.1,49.1,60.7,49.1,61.5z"/>
				</g>
			</g>
		</g>
	</g>
</g>
</svg>
