<?xml version="1.0" encoding="utf-8"?>
<!-- Generator: Adobe Illustrator 25.4.1, SVG Export Plug-In . SVG Version: 6.00 Build 0)  -->
<svg version="1.1" id="圖層_1" xmlns="http://www.w3.org/2000/svg" xmlns:xlink="http://www.w3.org/1999/xlink" x="0px" y="0px"
	 viewBox="0 0 642.2 183.5" style="enable-background:new 0 0 642.2 183.5;" xml:space="preserve">
<style type="text/css">
	.st0{fill:#FFFFFF;}
	.st1{fill:#14398B;}
	.st2{fill:#006AAD;}
	.st3{fill:#0097D2;}
	.st4{fill:#DFC44A;}
	.st5{opacity:0.25;fill:#DFC44A;enable-background:new    ;}
	.st6{fill:#595757;}
</style>
<g>
	<polygon class="st0" points="0.4,37.8 13.6,35.3 79.8,10.2 94.6,10.8 95,19 109.4,21.6 109.7,28.2 124.4,32.6 13.6,55.8 	"/>
	<path class="st1" d="M124.4,170.9c0,7-5.6,12.7-12.5,12.7H12.5c-6.9,0-12.5-5.7-12.5-12.7V55.2c0-7,5.6-2.1,12.5-2.1h99.3
		c6.9,0,12.5-4.9,12.5,2.1L124.4,170.9L124.4,170.9z"/>
	<g>
		<path class="st0" d="M23,174.1l1.2-0.1c0.1,0.5,0.2,0.9,0.4,1.2c0.2,0.3,0.5,0.5,0.9,0.7s0.9,0.3,1.4,0.3c0.5,0,0.9-0.1,1.3-0.2
			c0.4-0.1,0.6-0.3,0.8-0.6c0.2-0.2,0.3-0.5,0.3-0.8c0-0.3-0.1-0.6-0.3-0.8c-0.2-0.2-0.5-0.4-0.8-0.6c-0.2-0.1-0.8-0.3-1.7-0.5
			c-0.9-0.2-1.5-0.4-1.8-0.6c-0.4-0.2-0.8-0.5-1-0.9c-0.2-0.4-0.3-0.7-0.3-1.2c0-0.5,0.1-0.9,0.4-1.3c0.3-0.4,0.7-0.7,1.2-0.9
			c0.5-0.2,1.1-0.3,1.7-0.3c0.7,0,1.3,0.1,1.8,0.3c0.5,0.2,0.9,0.6,1.2,1c0.3,0.4,0.4,0.9,0.5,1.5l-1.2,0.1c-0.1-0.6-0.3-1-0.6-1.3
			c-0.4-0.3-0.9-0.4-1.6-0.4c-0.8,0-1.3,0.1-1.6,0.4c-0.3,0.3-0.5,0.6-0.5,1c0,0.3,0.1,0.6,0.4,0.8c0.2,0.2,0.9,0.4,1.9,0.7
			c1,0.2,1.7,0.4,2.1,0.6c0.5,0.3,1,0.6,1.2,1c0.3,0.4,0.4,0.8,0.4,1.3c0,0.5-0.1,1-0.4,1.4c-0.3,0.4-0.7,0.8-1.2,1
			c-0.5,0.2-1.1,0.4-1.8,0.4c-0.8,0-1.6-0.1-2.1-0.4c-0.6-0.2-1-0.6-1.3-1.1C23.2,175.2,23,174.7,23,174.1z"/>
		<path class="st0" d="M32,177.1v-6.8h1v1c0.2-0.3,0.5-0.6,0.9-0.8c0.4-0.2,0.8-0.3,1.2-0.3c0.5,0,0.9,0.1,1.2,0.3
			c0.3,0.2,0.6,0.5,0.7,0.9c0.5-0.8,1.2-1.2,2.1-1.2c0.7,0,1.2,0.2,1.6,0.6c0.4,0.4,0.5,1,0.5,1.7v4.7h-1.2v-4.3c0-0.5,0-0.8-0.1-1
			c-0.1-0.2-0.2-0.4-0.4-0.5c-0.2-0.1-0.4-0.2-0.7-0.2c-0.5,0-0.9,0.2-1.2,0.5c-0.3,0.3-0.5,0.8-0.5,1.5v4h-1.2v-4.4
			c0-0.5-0.1-0.9-0.3-1.2c-0.2-0.3-0.5-0.4-0.9-0.4c-0.3,0-0.6,0.1-0.9,0.3c-0.3,0.2-0.5,0.4-0.6,0.8c-0.1,0.3-0.2,0.8-0.2,1.4v3.5
			L32,177.1L32,177.1z"/>
		<path class="st0" d="M47.5,176.2c-0.4,0.4-0.8,0.6-1.2,0.8c-0.4,0.1-0.8,0.2-1.3,0.2c-0.8,0-1.3-0.2-1.7-0.6
			c-0.4-0.4-0.6-0.8-0.6-1.4c0-0.3,0.1-0.6,0.2-0.9c0.2-0.3,0.4-0.5,0.6-0.7c0.3-0.2,0.5-0.3,0.8-0.4c0.2-0.1,0.6-0.1,1-0.2
			c0.9-0.1,1.6-0.2,2.1-0.4c0-0.2,0-0.3,0-0.3c0-0.5-0.1-0.8-0.3-1c-0.3-0.3-0.7-0.4-1.3-0.4c-0.5,0-1,0.1-1.2,0.3
			c-0.3,0.2-0.5,0.5-0.6,1l-1.1-0.1c0.1-0.5,0.3-0.9,0.5-1.2c0.2-0.3,0.6-0.5,1-0.7c0.4-0.2,1-0.2,1.6-0.2c0.6,0,1.1,0.1,1.4,0.2
			c0.4,0.1,0.6,0.3,0.8,0.5c0.2,0.2,0.3,0.5,0.4,0.8c0,0.2,0.1,0.6,0.1,1.1v1.5c0,1.1,0,1.8,0.1,2c0,0.3,0.1,0.6,0.3,0.8h-1.2
			C47.6,176.8,47.5,176.6,47.5,176.2z M47.4,173.7c-0.4,0.2-1.1,0.3-1.9,0.4c-0.5,0.1-0.8,0.1-1,0.2c-0.2,0.1-0.4,0.2-0.5,0.4
			c-0.1,0.2-0.2,0.3-0.2,0.6c0,0.3,0.1,0.6,0.4,0.8c0.2,0.2,0.6,0.3,1,0.3c0.4,0,0.9-0.1,1.2-0.3c0.3-0.2,0.6-0.5,0.8-0.8
			c0.1-0.3,0.2-0.6,0.2-1.2L47.4,173.7z"/>
		<path class="st0" d="M50.3,177.1v-6.8h1v1.1c0.3-0.5,0.5-0.8,0.7-1s0.5-0.2,0.7-0.2c0.4,0,0.8,0.1,1.2,0.4l-0.4,1.1
			c-0.3-0.2-0.6-0.2-0.8-0.2c-0.3,0-0.5,0.1-0.7,0.2c-0.2,0.1-0.3,0.4-0.4,0.6c-0.1,0.4-0.2,0.9-0.2,1.4v3.6L50.3,177.1L50.3,177.1z
			"/>
		<path class="st0" d="M57.2,176l0.1,1c-0.3,0.1-0.6,0.1-0.9,0.1c-0.4,0-0.7-0.1-1-0.2c-0.2-0.1-0.4-0.3-0.5-0.5
			c-0.1-0.2-0.1-0.7-0.1-1.4v-3.9h-0.9v-0.9h0.9v-1.7l1.2-0.7v2.4h1.2v0.9h-1.2v4c0,0.3,0,0.5,0.1,0.6c0,0.1,0.1,0.2,0.2,0.2
			c0.1,0.1,0.2,0.1,0.4,0.1C56.9,176.1,57,176.1,57.2,176z"/>
		<path class="st0" d="M62.2,177.1v-9.4h4.2c0.8,0,1.5,0.1,1.9,0.3c0.4,0.2,0.8,0.5,1,0.9c0.3,0.4,0.4,0.9,0.4,1.4
			c0,0.7-0.2,1.2-0.6,1.7c-0.4,0.5-1.1,0.7-2,0.9c0.3,0.2,0.6,0.3,0.8,0.5c0.4,0.3,0.7,0.8,1,1.3l1.6,2.6h-1.6l-1.2-2
			c-0.4-0.6-0.7-1-0.9-1.3c-0.2-0.3-0.4-0.5-0.6-0.6c-0.2-0.1-0.4-0.2-0.6-0.3c-0.1,0-0.4,0-0.7,0h-1.4v4.2L62.2,177.1L62.2,177.1z
			 M63.4,171.8h2.7c0.6,0,1-0.1,1.3-0.2c0.3-0.1,0.6-0.3,0.7-0.6c0.2-0.3,0.3-0.5,0.3-0.8c0-0.4-0.2-0.8-0.5-1.1
			c-0.3-0.3-0.8-0.4-1.5-0.4h-3L63.4,171.8L63.4,171.8z"/>
		<path class="st0" d="M76.2,174.9l1.2,0.1c-0.2,0.7-0.5,1.2-1,1.6s-1.2,0.6-2,0.6c-1,0-1.8-0.3-2.4-0.9c-0.6-0.6-0.9-1.5-0.9-2.6
			c0-1.1,0.3-2,0.9-2.7c0.6-0.6,1.4-1,2.3-1c0.9,0,1.7,0.3,2.2,0.9c0.6,0.6,0.9,1.5,0.9,2.6c0,0.1,0,0.2,0,0.3h-5.1
			c0,0.7,0.3,1.3,0.6,1.7c0.4,0.4,0.9,0.6,1.4,0.6c0.4,0,0.8-0.1,1.1-0.3C75.8,175.7,76,175.4,76.2,174.9z M72.4,173h3.8
			c-0.1-0.6-0.2-1-0.4-1.3c-0.4-0.4-0.8-0.7-1.4-0.7c-0.5,0-1,0.2-1.3,0.5C72.6,171.9,72.4,172.4,72.4,173z"/>
		<path class="st0" d="M83.3,176.2c-0.4,0.4-0.8,0.6-1.2,0.8c-0.4,0.1-0.8,0.2-1.3,0.2c-0.8,0-1.3-0.2-1.7-0.6
			c-0.4-0.4-0.6-0.8-0.6-1.4c0-0.3,0.1-0.6,0.2-0.9c0.2-0.3,0.4-0.5,0.6-0.7c0.2-0.2,0.5-0.3,0.8-0.4c0.2-0.1,0.6-0.1,1-0.2
			c0.9-0.1,1.6-0.2,2.1-0.4c0-0.2,0-0.3,0-0.3c0-0.5-0.1-0.8-0.3-1c-0.3-0.3-0.7-0.4-1.3-0.4c-0.6,0-1,0.1-1.2,0.3
			c-0.3,0.2-0.5,0.5-0.6,1l-1.1-0.1c0.1-0.5,0.3-0.9,0.5-1.2c0.2-0.3,0.6-0.5,1-0.7c0.4-0.2,1-0.2,1.6-0.2c0.6,0,1.1,0.1,1.4,0.2
			c0.4,0.1,0.6,0.3,0.8,0.5c0.2,0.2,0.3,0.5,0.4,0.8c0,0.2,0.1,0.6,0.1,1.1v1.5c0,1.1,0,1.8,0.1,2s0.1,0.6,0.3,0.8h-1.2
			C83.4,176.8,83.4,176.6,83.3,176.2z M83.2,173.7c-0.4,0.2-1.1,0.3-1.9,0.4c-0.5,0.1-0.8,0.1-1,0.2c-0.2,0.1-0.4,0.2-0.5,0.4
			c-0.1,0.2-0.2,0.3-0.2,0.6c0,0.3,0.1,0.6,0.4,0.8c0.2,0.2,0.6,0.3,1,0.3c0.5,0,0.9-0.1,1.2-0.3c0.4-0.2,0.6-0.5,0.8-0.8
			c0.1-0.3,0.2-0.6,0.2-1.2L83.2,173.7z"/>
		<path class="st0" d="M90.6,177.1v-0.9c-0.4,0.7-1.1,1-1.9,1c-0.5,0-1-0.2-1.5-0.5c-0.5-0.3-0.8-0.7-1.1-1.3s-0.4-1.2-0.4-1.9
			c0-0.7,0.1-1.3,0.3-1.9c0.2-0.6,0.6-1,1-1.3c0.5-0.3,1-0.4,1.5-0.4c0.4,0,0.8,0.1,1.1,0.3c0.3,0.2,0.6,0.4,0.8,0.7v-3.4h1.2v9.4
			L90.6,177.1L90.6,177.1z M87,173.7c0,0.9,0.2,1.5,0.6,2c0.4,0.4,0.8,0.6,1.3,0.6c0.5,0,0.9-0.2,1.3-0.6c0.4-0.4,0.5-1,0.5-1.9
			c0-0.9-0.2-1.6-0.5-2.1c-0.4-0.4-0.8-0.7-1.3-0.7c-0.5,0-0.9,0.2-1.3,0.6C87.1,172.1,87,172.8,87,173.7z"/>
		<path class="st0" d="M93.5,169v-1.3h1.2v1.3H93.5z M93.5,177.1v-6.8h1.2v6.8H93.5z"/>
		<path class="st0" d="M96.4,177.1v-6.8h1v1c0.5-0.7,1.2-1.1,2.2-1.1c0.4,0,0.8,0.1,1.1,0.2c0.3,0.1,0.6,0.3,0.8,0.6
			c0.2,0.2,0.3,0.5,0.4,0.9c0,0.2,0.1,0.6,0.1,1.1v4.2h-1.2v-4.2c0-0.5,0-0.8-0.1-1.1c-0.1-0.2-0.3-0.4-0.5-0.6
			c-0.2-0.1-0.5-0.2-0.8-0.2c-0.5,0-0.9,0.2-1.3,0.5c-0.4,0.3-0.5,0.9-0.5,1.8v3.7L96.4,177.1L96.4,177.1z"/>
		<path class="st0" d="M103.6,177.6l1.1,0.1c0,0.4,0.2,0.6,0.4,0.8c0.3,0.2,0.7,0.3,1.2,0.3c0.5,0,1-0.1,1.2-0.3
			c0.3-0.2,0.5-0.5,0.6-0.9c0.1-0.2,0.1-0.7,0.1-1.5c-0.5,0.6-1.1,0.9-1.9,0.9c-0.9,0-1.7-0.3-2.2-1c-0.5-0.7-0.8-1.5-0.8-2.4
			c0-0.7,0.1-1.3,0.4-1.8c0.2-0.6,0.6-1,1-1.3c0.5-0.3,1-0.4,1.6-0.4c0.8,0,1.5,0.3,2,1v-0.8h1v5.9c0,1.1-0.1,1.8-0.3,2.3
			c-0.2,0.4-0.6,0.8-1,1.1c-0.5,0.3-1,0.4-1.7,0.4c-0.8,0-1.5-0.2-2-0.6C103.8,178.9,103.5,178.4,103.6,177.6z M104.5,173.5
			c0,0.9,0.2,1.6,0.5,2c0.4,0.4,0.8,0.6,1.3,0.6c0.5,0,1-0.2,1.3-0.6c0.4-0.4,0.5-1.1,0.5-1.9c0-0.8-0.2-1.5-0.6-1.9
			c-0.4-0.4-0.8-0.6-1.3-0.6c-0.5,0-1,0.2-1.3,0.6C104.7,172.1,104.5,172.7,104.5,173.5z"/>
	</g>
	<path class="st1" d="M0.4,37.8l9.8,10.5c0,0,54.5-14.4,114.2-15.8l0,0v30.9H0L0.4,37.8z"/>
	<path class="st1" d="M13.6,35.3l66.2-25.1L79.3,0C79.3,0,38.6,24,13.6,35.3z"/>
	<path class="st2" d="M21.5,37.5c0,0,67.7-17.8,73.4-18.5l-0.4-8.2C94.6,10.8,33.2,33.2,21.5,37.5z"/>
	<path class="st3" d="M27,40.9c0,0,71.2-13.4,82.7-12.7l-0.3-6.5C109.4,21.6,34.7,37.7,27,40.9z"/>
	<path class="st4" d="M13.6,76.7C13.1,74.5,15,72.6,15,72c0.2-1.9,1.6-3.5,3.2-4.7c2.8-2.2,5.5-4.5,8.3-6.7c1.8-1.5,3.6-3.8,5.9-4.1
		c0.5-0.1,1.3,0,1.7-0.2c0.9-0.4,1.7-1.6,2.5-2.2c1.1-0.8,1.8-0.9,3-1.1c2.1-0.4,4.4-1,6.4-1.7c2.2-0.8,4.3-1.4,6.6-2
		c2.5-0.6,4.9-0.4,7.4-0.5c3.3-0.1,6.5-0.5,9.8-0.4c1.6,0,3.1,0.1,4.7,0.4c2.7,0.5,5,2.3,7.7,2.8c1.5,0.3,3.1,0.5,4.7,0.9
		c0.9,0.2,1.9,0.2,2.7,0.8c1,0.7,1.9,1.4,2.9,2.1c2.5,1.7,4.3,4.2,6.6,6.1c1.5,1.2,3.6,2,5,3.2c1,0.8,1.7,1.6,2.9,2.2
		c1.2,0.6,2.8,0.8,3.8,1.8c1,1,1.7,2.5,2.4,3.7c0.5,0.8,1.1,1.5,1.5,2.3c0.4,0.8,0.7,1.6,1,2.5c0.7,1.5,1.2,2,0.4,3.2
		c-0.7,1-0.3,1.1,0.5,2.4c0.6,1,0.5,1.8,0.9,2.8c0.5,1.6,1.7,3.1,2.1,4.6c0.5,1.6,0.6,3.4,0.8,5c0.4,2.5,1.4,5.2,1.5,7.7
		c0,0.6,0.2,1.4,0,1.9c-0.3,0.7-1.1,1.1-1.4,1.8c-0.7,1.4-1.3,3.6-2.6,4.5c-0.7,0.5-0.9,0.1-2,0.1c-0.9,0-1.4,0.3-1.6,1.2
		c-0.3,1.5,0.1,3.4,0,5c-0.2,2.1-1.4,4.2-3,5.4c-0.8,0.6-1.9,0.6-2.7,1.3c-0.9,0.8-1.5,1.9-2.6,2.6c-1.3,0.8-2.8,1.4-4.3,2
		c-1,0.4-2,1-3.1,1.1c-0.9,0.1-1.8-0.2-2.7-0.2c-2.6,0.1-4.6,1.2-7.4,0.5c-0.9-0.2-1.9-0.7-2.6-1.2c-1.5-1.2-1.1-2.3-1.4-3.9
		c-0.5-2.1-1.7-4.5-2.9-6.2c-2-2.8,0.5-5.1,0.7-7.8c0.2-3.2-2.7-4.9-4.3-7.4c-0.6-0.9-1.3-2.5-1.4-3.5c0-0.9,0.9-1.2,0.9-2.1
		c-0.1-2-3-1.3-4.1-1.8c-0.7-0.3-1.1-1.4-1.6-1.9c-0.7-0.8-1.5-1.6-2.4-2.2c-1-0.8-2.1-1.1-3.3-1.6c-0.7-0.3-1.4-0.6-2.3-0.4
		c-1.1,0.3-2.5,1.7-3.5,2.4c-1.3,0.9-2.6,1.9-3.8,2.9c-0.8,0.7-1.6,1.5-2.1,2.4c-0.4,0.8-0.6,1.9-1.3,2.5c-2.4,1.9-1.4-1.9-1.8-2.9
		c-0.3-0.8-1.1-0.4-1.8-1c-0.7-0.6-0.8-2-1.5-2.6c-0.1-0.1-0.2-0.3-0.3-0.4c-1,0.2-1.7,2.1-2.3,2.9c-0.5,0.8-1.2,1.7-2,2.3
		c-0.7,0.5-1.6,0.7-2.4,1.2c-0.9,0.6-1.1,1.1-1.7,2c-1,1.6-2.1,0.6-3.5,1.5c-0.7,0.4-0.8,1-1.6,1.3c-0.9,0.3-1.8-0.2-2.7-0.4
		c-1.7-0.4-3.4-0.2-5.3,0.2c-2.5,0.5-4,0.5-6.3-0.1c-1.7-0.4-3.4-0.4-5.2-0.5c-2.8-0.2-3.7-3.1-3.7-5.7c0-1.5,0-3.1-0.1-4.6
		c-0.1-1.3-0.5-2.4-0.5-3.7c0,0-0.9-2.1,2-4.6c2.9-2.5,0.8-0.4-0.2-1.8C11.9,82.4,14.1,79.2,13.6,76.7z"/>
	<path class="st1" d="M64.3,47.8L60,48l-1.7,0c-1.9,0-3.9,0-5.9,0.5c-2.4,0.6-4.5,1.2-6.7,2c-1.9,0.7-4.1,1.3-6.3,1.7l-0.3,0.1
		c-1.1,0.2-1.9,0.4-3.1,1.2l-1.1,1c-0.4,0.5-0.9,0.9-1.3,1.1c0,0-0.9,0.1-0.9,0.1l-0.6,0.1c-2,0.3-3.5,1.7-4.9,3.1L25.9,60l-8.2,6.7
		c-2.1,1.6-3.3,3.4-3.5,5.3c0-0.1-0.3,0.4-0.3,0.4c-0.5,0.8-1.3,2.1-1.3,3.6c0,0.3,0,0.6,0.1,0.9l0,0c0,0.2,0.1,0.4,0.1,0.7
		c0,1-0.4,2.2-0.8,3.2c-0.3,0.8-0.5,1.5-0.5,2.1c0,0.3,0.1,0.5,0.2,0.8c0.2,0.3,0.4,0.4,0.6,0.6c-0.1,0.1-0.3,0.2-0.3,0.2
		c-2,1.7-2.4,3.3-2.4,4.4c0,0.4,0.1,0.7,0.1,0.9c0,0.2,0.3,2.1,0.3,2.1l0.3,1.6c0,0,0.1,4.5,0.1,4.5c0,3.7,1.7,6.3,4.5,6.4l1.4,0.1
		c1.3,0,2.5,0.1,3.6,0.4c2.3,0.6,4,0.6,6.7,0.1c1.9-0.4,3.4-0.5,4.9-0.2l0.6,0.2c0.7,0.2,1.6,0.5,2.6,0.2c0.7-0.2,1-0.6,1.2-0.9
		l0.5-0.4c0.4-0.3,0.8-0.3,1.2-0.3c0.7-0.1,1.7-0.1,2.5-1.4l0.3-0.6c0.3-0.6,0.5-0.9,1.1-1.2l1-0.5l1.5-0.8c0.9-0.7,1.6-1.7,2.2-2.5
		l0.5-0.8c0.2-0.4,0.6-1.1,0.9-1.5c0.2,0.2,0.3,0.5,0.4,0.9c0.2,0.5,0.5,1.2,1,1.6c0.5,0.4,1,0.5,1.3,0.6l0.3,0.1c0,0.1,0,0.4,0,0.8
		c0,0.1,0,0.5,0,0.6c0,1,0.1,2,0.9,2.4c0.8,0.4,1.6-0.1,2.1-0.6c0.7-0.5,0.9-1.3,1.2-1.9l0.3-0.8c0.4-0.8,1.1-1.6,1.9-2.2
		c0,0,3.8-2.9,3.8-2.9l1.1-0.9c0.7-0.6,1.5-1.3,2.1-1.4c0.6-0.1,1.1,0.1,1.8,0.4l1,0.5c0.8,0.3,1.5,0.6,2.1,1.1
		c0.8,0.6,1.6,1.4,2.3,2.1l0.4,0.6c0.4,0.6,0.8,1.2,1.4,1.5c0.5,0.2,1.1,0.3,1.7,0.3c1.5,0.1,1.9,0.3,1.9,0.8c0,0,0,0,0,0
		c0,0.1-0.1,0.3-0.3,0.5c-0.2,0.3-0.6,0.8-0.6,1.5c0,0,0,0,0,0c0,1.3,0.9,3.1,1.5,4l1.8,2.2c1.3,1.4,2.4,2.7,2.4,4.4
		c0,0.1,0,0.2,0,0.3c-0.1,0.8-0.4,1.6-0.7,2.5c-0.4,1-0.8,2-0.8,3.1c0,0.9,0.2,1.8,0.9,2.7c1,1.4,2.3,3.8,2.8,5.9l0.2,1.1
		c0.1,1.1,0.2,2.1,1.5,3.2c0.8,0.6,1.9,1.2,2.9,1.4c1.9,0.5,3.5,0.1,5-0.2c0.9-0.2,1.7-0.3,2.6-0.4l1.2,0.1l1.5,0.1
		c1-0.1,1.9-0.5,2.6-0.8l0.8-0.3c0,0,0.2-0.1,0.2-0.1c1.4-0.6,2.9-1.2,4.2-2c0.8-0.5,1.3-1.1,1.8-1.7l0.9-1c0.3-0.3,0.7-0.4,1.1-0.6
		l1.5-0.7c1.9-1.4,3.2-3.7,3.4-5.9l0-2.3c-0.1-1-0.1-1.9,0-2.7c0.1-0.5,0.2-0.6,0.9-0.6l0.7,0.1c0.5,0.1,1,0.2,1.8-0.3
		c1.1-0.9,1.8-2.5,2.4-3.8l0.4-1l0.5-0.7c0.3-0.3,0.7-0.7,0.9-1.2c0.1-0.3,0.1-0.6,0.1-0.9c0-0.3,0-0.6,0-0.9l0-0.4
		c-0.1-1.6-0.5-3.3-0.9-4.9l-0.6-2.8l-0.2-1.6c-0.1-1.2-0.3-2.3-0.6-3.4c-0.3-0.9-0.7-1.7-1.1-2.5l-1-2.2l-0.2-1
		c-0.1-0.6-0.3-1.3-0.7-2l-0.5-0.7c0,0-0.3-0.5-0.3-0.5c0,0,0.2-0.3,0.2-0.3c0.4-0.6,0.5-1,0.5-1.5c0-0.6-0.3-1.2-0.6-1.8l-0.3-0.7
		l-0.4-1l-0.7-1.5l-1-1.6l-0.6-0.8l-0.7-1.2c-0.5-0.9-1.1-1.9-1.8-2.6c-0.8-0.8-1.8-1.1-2.7-1.5l-1.2-0.5c-0.8-0.4-1.4-0.9-2-1.5
		l-0.8-0.6c-0.7-0.6-1.6-1.1-2.5-1.6c-0.9-0.5-1.8-1-2.5-1.6c-1-0.8-1.9-1.7-2.7-2.6c-1.2-1.2-2.4-2.5-3.9-3.5c0,0-1.4-1-1.4-1
		l-1.5-1.1c-0.8-0.5-1.6-0.6-2.4-0.8l-0.6-0.1l-2.8-0.5l-1.9-0.3c-1.3-0.2-2.5-0.8-3.8-1.4c-1.3-0.6-2.6-1.2-4-1.4
		c-1.6-0.3-3.3-0.4-4.8-0.4C68,47.5,66.1,47.7,64.3,47.8z M60,49.6l4.3-0.2c1.8-0.1,3.7-0.2,5.5-0.2c1.5,0,3,0.1,4.5,0.4
		c1.2,0.2,2.4,0.8,3.6,1.3c1.3,0.6,2.6,1.2,4.1,1.5l1.9,0.3l2.7,0.5c0,0,0.7,0.1,0.7,0.1c0.6,0.1,1.3,0.2,1.7,0.5l1.5,1.1l1.4,1
		c1.3,0.9,2.5,2.1,3.7,3.3c0.9,0.9,1.8,1.9,2.9,2.8c0.8,0.7,1.8,1.2,2.7,1.8c0.9,0.5,1.7,0.9,2.3,1.4c0,0,0.7,0.6,0.7,0.6
		c0.7,0.6,1.4,1.2,2.3,1.7c0,0,1.4,0.6,1.4,0.6c0.8,0.3,1.6,0.6,2.1,1.1c0.6,0.6,1.1,1.4,1.6,2.3l0.8,1.2l0.6,0.8l0.9,1.4l0.6,1.3
		l0.4,1.1l0.3,0.7c0.5,1,0.5,1.2,0.2,1.7c-0.8,1.2-0.5,1.8,0.1,2.6l0.4,0.7c0.3,0.5,0.4,0.9,0.5,1.5l0.3,1.2l1.1,2.4
		c0.4,0.8,0.8,1.5,1,2.2c0.3,1,0.4,2.1,0.6,3.2l0.2,1.7l0.6,2.9c0.4,1.6,0.8,3.2,0.8,4.6l0,0.5c0,0.3,0.1,0.9,0,1.1
		c-0.1,0.2-0.3,0.4-0.5,0.7l-0.9,1.1l-0.5,1.1c-0.5,1.2-1.1,2.6-1.9,3.2c0,0-0.2,0.1-0.2,0.1l-0.3-0.1l-1.1-0.1
		c-1.3,0-2.1,0.6-2.4,1.9c-0.2,1-0.2,2.1-0.1,3.1l0,2c-0.1,1.8-1.2,3.7-2.7,4.8l-1.1,0.5c-0.5,0.2-1.2,0.4-1.7,0.9
		c0,0-1.1,1.1-1.1,1.1c-0.4,0.5-0.9,1-1.4,1.4c-1.2,0.7-2.6,1.3-4,1.9l-0.2,0.1c0,0-0.8,0.4-0.8,0.4c-0.7,0.3-1.4,0.6-2.1,0.7
		l-1.2-0.1l-1.4-0.1c-1.1,0-2,0.2-2.9,0.4c-1.4,0.3-2.7,0.5-4.3,0.2c-0.8-0.2-1.7-0.6-2.3-1.1c-0.8-0.7-0.9-1.2-1-2.2l-0.2-1.3
		c-0.5-2.4-2-4.9-3.1-6.5c-1.1-1.5-0.6-2.8,0-4.4c0.3-0.9,0.7-1.9,0.8-2.9c0.2-2.5-1.3-4.2-2.8-5.8l-1.7-2c-0.6-0.9-1.2-2.3-1.2-3.1
		c0-0.2,0.1-0.3,0.3-0.6c0.3-0.4,0.6-0.9,0.6-1.6c-0.2-2-2.1-2.2-3.3-2.3c-0.5,0-1-0.1-1.2-0.2c-0.2-0.1-0.5-0.6-0.8-0.9l-0.6-0.8
		c-0.7-0.9-1.6-1.7-2.5-2.4c-0.8-0.6-1.6-0.9-2.4-1.3l-1-0.4c-0.8-0.4-1.7-0.8-2.8-0.5c-1,0.2-1.9,1.1-2.8,1.8l-1,0.8l-3.8,2.9
		c-1,0.8-1.8,1.7-2.3,2.7l-0.5,1c-0.2,0.5-0.4,1-0.7,1.2c-0.2,0.1-0.3,0.2-0.4,0.3c0-0.2-0.1-0.6-0.1-0.9c0-0.1,0-0.5,0-0.6
		c0-0.5,0-0.9-0.1-1.3c-0.3-0.8-1-1-1.4-1.1c-0.3-0.1-0.4-0.1-0.6-0.2c-0.2-0.2-0.4-0.6-0.5-1c-0.2-0.5-0.5-1.1-0.9-1.6
		c0.1,0.1,0.1,0.1,0.2,0.2l-0.2-0.4c-0.2-0.3-0.5-0.5-0.9-0.4c-1.1,0.2-1.8,1.5-2.4,2.6l-0.4,0.7c-0.5,0.7-1.1,1.6-1.8,2.1l-1.2,0.6
		l-1.1,0.6c-0.9,0.5-1.3,1.1-1.6,1.8l-0.3,0.5c-0.4,0.6-0.6,0.6-1.3,0.6c-0.5,0-1.2,0.1-2,0.6l-0.8,0.8c-0.2,0.3-0.3,0.4-0.6,0.5
		c-0.4,0.2-1,0-1.5-0.2l-0.7-0.2c-2-0.5-3.9-0.2-5.6,0.2c-2.5,0.5-3.9,0.5-6-0.1c-1.3-0.4-2.6-0.4-4-0.4l-1.4-0.1
		c-2.8-0.2-3-4.1-3-4.9l-0.1-4.6l-0.3-1.7l-0.3-1.9c0-0.1,0-0.2-0.1-0.3c0-0.1-0.6-1.6,1.8-3.7l0.9-0.8c0.7-0.6,1-0.9,0.8-1.5
		c-0.1-0.3-0.4-0.5-1-0.4c-0.4,0.1-0.6,0-0.7-0.2c0-0.1,0.3-0.9,0.5-1.5c0.5-1.4,1.1-3.2,0.8-4.8l0,0c-0.3-1.3,0.5-2.5,1-3.4
		l0.5-1.1c0.2-1.8,1.7-3.3,2.9-4.2l8.3-6.7c0,0,1.4-1.3,1.4-1.3c1.3-1.2,2.6-2.5,4-2.7l0.5,0l1.4-0.2c0.7-0.3,1.3-0.9,1.8-1.5
		l0.8-0.8c0.8-0.6,1.4-0.7,2.4-0.9l0.3-0.1c2.3-0.4,4.6-1.1,6.5-1.7c2.2-0.8,4.2-1.4,6.6-1.9c1.8-0.4,3.6-0.4,5.6-0.4L60,49.6z"/>
	<path class="st5" d="M13.6,76.7C13.1,74.5,15,72.6,15,72c0.2-1.9,1.6-3.5,3.2-4.7c2.8-2.2,5.5-4.5,8.3-6.7c1.8-1.5,3.6-3.8,5.9-4.1
		c0.5-0.1,1.3,0,1.7-0.2c0.9-0.4,1.7-1.6,2.5-2.2c1.1-0.8,1.8-0.9,3-1.1c2.1-0.4,4.4-1,6.4-1.7c2.2-0.8,4.3-1.4,6.6-2
		c2.5-0.6,4.9-0.4,7.4-0.5c3.3-0.1,6.5-0.5,9.8-0.4c1.6,0,3.1,0.1,4.7,0.4c2.7,0.5,5,2.3,7.7,2.8c1.5,0.3,3.1,0.5,4.7,0.9
		c0.9,0.2,1.9,0.2,2.7,0.8c1,0.7,1.9,1.4,2.9,2.1c2.5,1.7,4.3,4.2,6.6,6.1c1.5,1.2,3.6,2,5,3.2c1,0.8,1.7,1.6,2.9,2.2
		c1.2,0.6,2.8,0.8,3.8,1.8c1,1,1.7,2.5,2.4,3.7c0.5,0.8,1.1,1.5,1.5,2.3c0.4,0.8,0.7,1.6,1,2.5c0.7,1.5,1.2,2,0.4,3.2
		c-0.7,1-0.3,1.1,0.5,2.4c0.6,1,0.5,1.8,0.9,2.8c0.5,1.6,1.7,3.1,2.1,4.6c0.5,1.6,0.6,3.4,0.8,5c0.4,2.5,1.4,5.2,1.5,7.7
		c0,0.6,0.2,1.4,0,1.9c-0.3,0.7-1.1,1.1-1.4,1.8c-0.7,1.4-1.3,3.6-2.6,4.5c-0.7,0.5-0.9,0.1-2,0.1c-0.9,0-1.4,0.3-1.6,1.2
		c-0.3,1.5,0.1,3.4,0,5c-0.2,2.1-1.4,4.2-3,5.4c-0.8,0.6-1.9,0.6-2.7,1.3c-0.9,0.8-1.5,1.9-2.6,2.6c-1.3,0.8-2.8,1.4-4.3,2
		c-1,0.4-2,1-3.1,1.1c-0.9,0.1-1.8-0.2-2.7-0.2c-2.6,0.1-4.6,1.2-7.4,0.5c-0.9-0.2-1.9-0.7-2.6-1.2c-1.5-1.2-1.1-2.3-1.4-3.9
		c-0.5-2.1-1.7-4.5-2.9-6.2c-2-2.8,0.5-5.1,0.7-7.8c0.2-3.2-2.7-4.9-4.3-7.4c-0.6-0.9-1.3-2.5-1.4-3.5c0-0.9,0.9-1.2,0.9-2.1
		c-0.1-2-3-1.3-4.1-1.8c-0.7-0.3-1.1-1.4-1.6-1.9c-0.7-0.8-1.5-1.6-2.4-2.2c-1-0.8-2.1-1.1-3.3-1.6c-0.7-0.3-1.4-0.6-2.3-0.4
		c-1.1,0.3-2.5,1.7-3.5,2.4c-1.3,0.9-2.6,1.9-3.8,2.9c-0.8,0.7-1.6,1.5-2.1,2.4c-0.4,0.8-0.6,1.9-1.3,2.5c-2.4,1.9-1.4-1.9-1.8-2.9
		c-0.3-0.8-1.1-0.4-1.8-1c-0.7-0.6-0.8-2-1.5-2.6c-0.1-0.1-0.2-0.3-0.3-0.4c-1,0.2-1.7,2.1-2.3,2.9c-0.5,0.8-1.2,1.7-2,2.3
		c-0.7,0.5-1.6,0.7-2.4,1.2c-0.9,0.6-1.1,1.1-1.7,2c-1,1.6-2.1,0.6-3.5,1.5c-0.7,0.4-0.8,1-1.6,1.3c-0.9,0.3-1.8-0.2-2.7-0.4
		c-1.7-0.4-3.4-0.2-5.3,0.2c-2.5,0.5-4,0.5-6.3-0.1c-1.7-0.4-3.4-0.4-5.2-0.5c-2.8-0.2-3.7-3.1-3.7-5.7c0-1.5,0-3.1-0.1-4.6
		c-0.1-1.3-0.5-2.4-0.5-3.7c0,0-0.9-2.1,2-4.6c2.9-2.5,0.8-0.4-0.2-1.8C11.9,82.4,14.1,79.2,13.6,76.7z"/>
	<path class="st1" d="M64.3,47.8L60,48l-1.7,0c-1.9,0-3.9,0-5.9,0.5c-2.4,0.6-4.5,1.2-6.7,2c-1.9,0.7-4.1,1.3-6.3,1.7l-0.3,0.1
		c-1.1,0.2-1.9,0.4-3.1,1.2l-1.1,1c-0.4,0.5-0.9,0.9-1.3,1.1c0,0-0.9,0.1-0.9,0.1l-0.6,0.1c-2,0.3-3.5,1.7-4.9,3.1L25.9,60l-8.2,6.7
		c-2.1,1.6-3.3,3.4-3.5,5.3c0-0.1-0.3,0.4-0.3,0.4c-0.5,0.8-1.3,2.1-1.3,3.6c0,0.3,0,0.6,0.1,0.9l0,0c0,0.2,0.1,0.4,0.1,0.7
		c0,1-0.4,2.2-0.8,3.2c-0.3,0.8-0.5,1.5-0.5,2.1c0,0.3,0.1,0.5,0.2,0.8c0.2,0.3,0.4,0.4,0.6,0.6c-0.1,0.1-0.3,0.2-0.3,0.2
		c-2,1.7-2.4,3.3-2.4,4.4c0,0.4,0.1,0.7,0.1,0.9c0,0.2,0.3,2.1,0.3,2.1l0.3,1.6c0,0,0.1,4.5,0.1,4.5c0,3.7,1.7,6.3,4.5,6.4l1.4,0.1
		c1.3,0,2.5,0.1,3.6,0.4c2.3,0.6,4,0.6,6.7,0.1c1.9-0.4,3.4-0.5,4.9-0.2l0.6,0.2c0.7,0.2,1.6,0.5,2.6,0.2c0.7-0.2,1-0.6,1.2-0.9
		l0.5-0.4c0.4-0.3,0.8-0.3,1.2-0.3c0.7-0.1,1.7-0.1,2.5-1.4l0.3-0.6c0.3-0.6,0.5-0.9,1.1-1.2l1-0.5l1.5-0.8c0.9-0.7,1.6-1.7,2.2-2.5
		l0.5-0.8c0.2-0.4,0.6-1.1,0.9-1.5c0.2,0.2,0.3,0.5,0.4,0.9c0.2,0.5,0.5,1.2,1,1.6c0.5,0.4,1,0.5,1.3,0.6l0.3,0.1c0,0.1,0,0.4,0,0.8
		c0,0.1,0,0.5,0,0.6c0,1,0.1,2,0.9,2.4c0.8,0.4,1.6-0.1,2.1-0.6c0.7-0.5,0.9-1.3,1.2-1.9l0.3-0.8c0.4-0.8,1.1-1.6,1.9-2.2
		c0,0,3.8-2.9,3.8-2.9l1.1-0.9c0.7-0.6,1.5-1.3,2.1-1.4c0.6-0.1,1.1,0.1,1.8,0.4l1,0.5c0.8,0.3,1.5,0.6,2.1,1.1
		c0.8,0.6,1.6,1.4,2.3,2.1l0.4,0.6c0.4,0.6,0.8,1.2,1.4,1.5c0.5,0.2,1.1,0.3,1.7,0.3c1.5,0.1,1.9,0.3,1.9,0.8c0,0,0,0,0,0
		c0,0.1-0.1,0.3-0.3,0.5c-0.2,0.3-0.6,0.8-0.6,1.5c0,0,0,0,0,0c0,1.3,0.9,3.1,1.5,4l1.8,2.2c1.3,1.4,2.4,2.7,2.4,4.4
		c0,0.1,0,0.2,0,0.3c-0.1,0.8-0.4,1.6-0.7,2.5c-0.4,1-0.8,2-0.8,3.1c0,0.9,0.2,1.8,0.9,2.7c1,1.4,2.3,3.8,2.8,5.9l0.2,1.1
		c0.1,1.1,0.2,2.1,1.5,3.2c0.8,0.6,1.9,1.2,2.9,1.4c1.9,0.5,3.5,0.1,5-0.2c0.9-0.2,1.7-0.3,2.6-0.4l1.2,0.1l1.5,0.1
		c1-0.1,1.9-0.5,2.6-0.8l0.8-0.3c0,0,0.2-0.1,0.2-0.1c1.4-0.6,2.9-1.2,4.2-2c0.8-0.5,1.3-1.1,1.8-1.7l0.9-1c0.3-0.3,0.7-0.4,1.1-0.6
		l1.5-0.7c1.9-1.4,3.2-3.7,3.4-5.9l0-2.3c-0.1-1-0.1-1.9,0-2.7c0.1-0.5,0.2-0.6,0.9-0.6l0.7,0.1c0.5,0.1,1,0.2,1.8-0.3
		c1.1-0.9,1.8-2.5,2.4-3.8l0.4-1l0.5-0.7c0.3-0.3,0.7-0.7,0.9-1.2c0.1-0.3,0.1-0.6,0.1-0.9c0-0.3,0-0.6,0-0.9l0-0.4
		c-0.1-1.6-0.5-3.3-0.9-4.9l-0.6-2.8l-0.2-1.6c-0.1-1.2-0.3-2.3-0.6-3.4c-0.3-0.9-0.7-1.7-1.1-2.5l-1-2.2l-0.2-1
		c-0.1-0.6-0.3-1.3-0.7-2l-0.5-0.7c0,0-0.3-0.5-0.3-0.5c0,0,0.2-0.3,0.2-0.3c0.4-0.6,0.5-1,0.5-1.5c0-0.6-0.3-1.2-0.6-1.8l-0.3-0.7
		l-0.4-1l-0.7-1.5l-1-1.6l-0.6-0.8l-0.7-1.2c-0.5-0.9-1.1-1.9-1.8-2.6c-0.8-0.8-1.8-1.1-2.7-1.5l-1.2-0.5c-0.8-0.4-1.4-0.9-2-1.5
		l-0.8-0.6c-0.7-0.6-1.6-1.1-2.5-1.6c-0.9-0.5-1.8-1-2.5-1.6c-1-0.8-1.9-1.7-2.7-2.6c-1.2-1.2-2.4-2.5-3.9-3.5c0,0-1.4-1-1.4-1
		l-1.5-1.1c-0.8-0.5-1.6-0.6-2.4-0.8l-0.6-0.1l-2.8-0.5l-1.9-0.3c-1.3-0.2-2.5-0.8-3.8-1.4c-1.3-0.6-2.6-1.2-4-1.4
		c-1.6-0.3-3.3-0.4-4.8-0.4C68,47.5,66.1,47.7,64.3,47.8z M60,49.6l4.3-0.2c1.8-0.1,3.7-0.2,5.5-0.2c1.5,0,3,0.1,4.5,0.4
		c1.2,0.2,2.4,0.8,3.6,1.3c1.3,0.6,2.6,1.2,4.1,1.5l1.9,0.3l2.7,0.5c0,0,0.7,0.1,0.7,0.1c0.6,0.1,1.3,0.2,1.7,0.5l1.5,1.1l1.4,1
		c1.3,0.9,2.5,2.1,3.7,3.3c0.9,0.9,1.8,1.9,2.9,2.8c0.8,0.7,1.8,1.2,2.7,1.8c0.9,0.5,1.7,0.9,2.3,1.4c0,0,0.7,0.6,0.7,0.6
		c0.7,0.6,1.4,1.2,2.3,1.7c0,0,1.4,0.6,1.4,0.6c0.8,0.3,1.6,0.6,2.1,1.1c0.6,0.6,1.1,1.4,1.6,2.3l0.8,1.2l0.6,0.8l0.9,1.4l0.6,1.3
		l0.4,1.1l0.3,0.7c0.5,1,0.5,1.2,0.2,1.7c-0.8,1.2-0.5,1.8,0.1,2.6l0.4,0.7c0.3,0.5,0.4,0.9,0.5,1.5l0.3,1.2l1.1,2.4
		c0.4,0.8,0.8,1.5,1,2.2c0.3,1,0.4,2.1,0.6,3.2l0.2,1.7l0.6,2.9c0.4,1.6,0.8,3.2,0.8,4.6l0,0.5c0,0.3,0.1,0.9,0,1.1
		c-0.1,0.2-0.3,0.4-0.5,0.7l-0.9,1.1l-0.5,1.1c-0.5,1.2-1.1,2.6-1.9,3.2c0,0-0.2,0.1-0.2,0.1l-0.3-0.1l-1.1-0.1
		c-1.3,0-2.1,0.6-2.4,1.9c-0.2,1-0.2,2.1-0.1,3.1l0,2c-0.1,1.8-1.2,3.7-2.7,4.8l-1.1,0.5c-0.5,0.2-1.2,0.4-1.7,0.9
		c0,0-1.1,1.1-1.1,1.1c-0.4,0.5-0.9,1-1.4,1.4c-1.2,0.7-2.6,1.3-4,1.9l-0.2,0.1c0,0-0.8,0.4-0.8,0.4c-0.7,0.3-1.4,0.6-2.1,0.7
		l-1.2-0.1l-1.4-0.1c-1.1,0-2,0.2-2.9,0.4c-1.4,0.3-2.7,0.5-4.3,0.2c-0.8-0.2-1.7-0.6-2.3-1.1c-0.8-0.7-0.9-1.2-1-2.2l-0.2-1.3
		c-0.5-2.4-2-4.9-3.1-6.5c-1.1-1.5-0.6-2.8,0-4.4c0.3-0.9,0.7-1.9,0.8-2.9c0.2-2.5-1.3-4.2-2.8-5.8l-1.7-2c-0.6-0.9-1.2-2.3-1.2-3.1
		c0-0.2,0.1-0.3,0.3-0.6c0.3-0.4,0.6-0.9,0.6-1.6c-0.2-2-2.1-2.2-3.3-2.3c-0.5,0-1-0.1-1.2-0.2c-0.2-0.1-0.5-0.6-0.8-0.9l-0.6-0.8
		c-0.7-0.9-1.6-1.7-2.5-2.4c-0.8-0.6-1.6-0.9-2.4-1.3l-1-0.4c-0.8-0.4-1.7-0.8-2.8-0.5c-1,0.2-1.9,1.1-2.8,1.8l-1,0.8l-3.8,2.9
		c-1,0.8-1.8,1.7-2.3,2.7l-0.5,1c-0.2,0.5-0.4,1-0.7,1.2c-0.2,0.1-0.3,0.2-0.4,0.3c0-0.2-0.1-0.6-0.1-0.9c0-0.1,0-0.5,0-0.6
		c0-0.5,0-0.9-0.1-1.3c-0.3-0.8-1-1-1.4-1.1c-0.3-0.1-0.4-0.1-0.6-0.2c-0.2-0.2-0.4-0.6-0.5-1c-0.2-0.5-0.5-1.1-0.9-1.6
		c0.1,0.1,0.1,0.1,0.2,0.2l-0.2-0.4c-0.2-0.3-0.5-0.5-0.9-0.4c-1.1,0.2-1.8,1.5-2.4,2.6l-0.4,0.7c-0.5,0.7-1.1,1.6-1.8,2.1l-1.2,0.6
		l-1.1,0.6c-0.9,0.5-1.3,1.1-1.6,1.8l-0.3,0.5c-0.4,0.6-0.6,0.6-1.3,0.6c-0.5,0-1.2,0.1-2,0.6l-0.8,0.8c-0.2,0.3-0.3,0.4-0.6,0.5
		c-0.4,0.2-1,0-1.5-0.2l-0.7-0.2c-2-0.5-3.9-0.2-5.6,0.2c-2.5,0.5-3.9,0.5-6-0.1c-1.3-0.4-2.6-0.4-4-0.4l-1.4-0.1
		c-2.8-0.2-3-4.1-3-4.9l-0.1-4.6l-0.3-1.7l-0.3-1.9c0-0.1,0-0.2-0.1-0.3c0-0.1-0.6-1.6,1.8-3.7l0.9-0.8c0.7-0.6,1-0.9,0.8-1.5
		c-0.1-0.3-0.4-0.5-1-0.4c-0.4,0.1-0.6,0-0.7-0.2c0-0.1,0.3-0.9,0.5-1.5c0.5-1.4,1.1-3.2,0.8-4.8l0,0c-0.3-1.3,0.5-2.5,1-3.4
		l0.5-1.1c0.2-1.8,1.7-3.3,2.9-4.2l8.3-6.7c0,0,1.4-1.3,1.4-1.3c1.3-1.2,2.6-2.5,4-2.7l0.5,0l1.4-0.2c0.7-0.3,1.3-0.9,1.8-1.5
		l0.8-0.8c0.8-0.6,1.4-0.7,2.4-0.9l0.3-0.1c2.3-0.4,4.6-1.1,6.5-1.7c2.2-0.8,4.2-1.4,6.6-1.9c1.8-0.4,3.6-0.4,5.6-0.4L60,49.6z"/>
	<g>
		<path class="st1" d="M37,68.4c-7,1.3-12.6,8.3-11.8,14.8c0.2,1.7,0.7,3.4,1.1,5c0.7,2.5,1.4,4.9,1.2,7.7c-0.2,3.6-2.2,5-5,7
			l-1.7,1.3l0.6,0.8l1.7-1.2c2.8-2,5.2-3.7,5.5-7.8c0.2-2.9-0.5-5.5-1.2-8c-0.4-1.6-0.9-3.2-1.1-4.8c-0.8-5.9,4.4-12.5,10.9-13.6
			c2.5-0.5,6.8-0.7,8.2,0.7c0.5,0.5,0.6,1.1,0.4,1.9l1,0.2c0.2-1.2,0-2.1-0.7-2.8C43.8,67,37.3,68.3,37,68.4z"/>
		<path class="st1" d="M40.8,64c-0.8,1.5-1.1,3-0.6,4.4l1-0.3c-0.4-1.4,0-2.7,0.5-3.6c1-1.7,2.7-3,4.5-3.4l-0.2-1
			C44,60.5,41.9,62.1,40.8,64z"/>
		<path class="st1" d="M36.5,92.1l0.3,0.5c1.4,2.4,3.9,6.8,6.7,6.5l-0.1-1c-2.2,0.2-4.6-4.1-5.7-6l-0.3-0.5
			c-2.4-4.1-2.8-7.7-2.8-12.9l-1.1,0C33.6,84,34,87.8,36.5,92.1z"/>
		<path class="st1" d="M52.9,64.5c1.4,0.9,2.3,2.5,2.3,4.4c0.1,2.6-1.2,5.2-3.2,6.7c-2.8,2-7.3,0.9-10.5-0.9L41,75.6
			c3.5,1.9,8.4,3.2,11.6,0.8c2.3-1.7,3.7-4.6,3.6-7.6c-0.1-2.3-1.1-4.2-2.8-5.3L52.9,64.5z"/>
		<path class="st1" d="M52.4,77.1c0.2,0,0.4,0.1,0.5,0.3c0.3,0.6,0.2,1.6-0.1,2.2c-0.6,1.1-1.7,1.5-2.9,1.9l-1.8,0.8
			c-2.6,1.5-4.5,4.3-5.1,7.1c-0.5,2.5-0.2,4.4,0.9,5.7c0.4,0.5,0.8,0.7,1.2,0.9l0.9,0.6l0.7-0.8l-1.1-0.7c-0.3-0.2-0.5-0.3-0.8-0.6
			c-0.8-1-1.1-2.6-0.7-4.8c0.5-2.5,2.3-5.1,4.6-6.4c0,0,1.6-0.7,1.6-0.7c1.3-0.5,2.7-1,3.5-2.4c0.4-0.8,0.6-2.3,0.1-3.2
			c-0.3-0.5-0.8-0.8-1.4-0.9L52.4,77.1z"/>
		<path class="st1" d="M17.2,67.7c0.4,0.8,0.8,2,1.2,3.3c0.8,2.7,1.7,5.7,4,6.9c1.2,0.7,2.8,0.7,4.5,0.2l-0.3-1
			c-1.5,0.5-2.7,0.4-3.7-0.1c-1.9-1-2.7-3.8-3.5-6.2c-0.4-1.3-0.8-2.5-1.3-3.5L17.2,67.7z"/>
		<path class="st1" d="M21.7,90.5c0,1.2-0.5,2.1-1.6,3c-2.5,1.8-7.2,2.2-9,1.5l-0.4,1c2,0.8,7.1,0.5,10-1.6c1.4-1,2.1-2.4,2.1-3.9
			L21.7,90.5z"/>
		<path class="st1" d="M17.7,95l1-0.3c-1.3-4.1-0.5-11.8,3.5-15l-0.7-0.8C17,82.5,16.4,90.7,17.7,95z"/>
		<path class="st1" d="M58,57.4c0.1,2.7,2,4.7,3.8,6.7c1,1.1,2,2.2,2.7,3.4c0,0,0.1,0.1,0.1,0.1c1.2,2.1,2.5,4.3,3.1,6.6
			c0.6,2.1,0.6,4.2,0.5,6.3l0,1.8c0,2.5-0.6,6.8-2.8,6.9l0.1,1.1c3.7-0.2,3.8-6.7,3.8-8l0-1.8c0-2.2,0.1-4.4-0.6-6.6
			c-0.7-2.4-2-4.7-3.2-6.8l-0.1-0.1c-0.7-1.3-1.8-2.4-2.8-3.5c-1.8-1.9-3.4-3.7-3.5-6c-0.1-2.5,1.5-6.9,3.2-8.5l-0.7-0.8
			C59.4,50,57.9,54.8,58,57.4z"/>
		<path class="st1" d="M58.1,57.4l0.8,0.7c2-2.2,6.7-5,9.7-4.3c1.3,0.3,2.1,1.1,2.5,2.6c0,0,0.3,1.6,0.3,1.6c0.1,1.4,0.3,3,2.2,4
			c1.3,0.7,3.3,0.4,4.7,0.1c3.4-0.8,3.9-2.9,4.6-5.6l-1-0.3c-0.7,2.7-1.1,4.2-3.8,4.8c-1.8,0.4-3.2,0.4-4,0
			c-1.4-0.7-1.5-1.8-1.6-3.2l-0.3-1.8c-0.5-1.8-1.6-3-3.2-3.4C65.3,52,60.3,55,58.1,57.4z"/>
		<path class="st1" d="M73.4,78.5c-1.2,0.5-2.3,0.5-3.6,0.4l-0.9,0l0,1.1l0.9,0c1.4,0,2.7,0.1,4.1-0.5c2.7-1.1,5.7-4.6,5.8-7.7
			l-1.1,0C78.5,74.4,75.8,77.5,73.4,78.5z"/>
		<path class="st1" d="M79.4,72.3c3.5,0.5,6.3-0.6,8.1-3.3l-0.9-0.6c-1.6,2.3-4,3.3-7.1,2.8c-2.1-0.3-5.2-2.5-5-5l-1.1-0.1
			C73.3,69.4,76.9,72,79.4,72.3z"/>
		<path class="st1" d="M55.7,87.4c0.5,2.6,1.9,5.4,3.8,5.4l0-1.1c-1.1,0-2.3-2.1-2.8-4.6c-0.4-2.1-0.2-4.4,1-4.9l-0.4-1
			C55.4,82.1,55.3,85,55.7,87.4z"/>
		<path class="st1" d="M91.1,54.8l-0.2,7.4c0.1,3.4,1.5,5.1,3.5,7.7l0.3,0.4c2.1,2.7,3.8,7.7,3.1,11.3c-0.3,1.7-1.2,3-2.5,3.7
			c-1.3,0.7-3.1,0.4-4.9,0.2l-2-0.2c-3.4-0.2-5.6,0.5-7.6,2.7c-0.8,0.8-1.6,1.5-2.4,2.1c-2.2,1.8-4.4,3.5-2.8,7l1-0.4
			c-1.2-2.8,0.3-4,2.5-5.8c0.8-0.6,1.7-1.4,2.5-2.2c1.8-1.9,3.7-2.6,6.8-2.3l1.9,0.2c1.8,0.3,3.9,0.6,5.5-0.3c1.6-0.9,2.6-2.4,3-4.4
			c0.8-4.1-1.1-9.4-3.3-12.2c0,0-0.3-0.4-0.3-0.4c-2-2.5-3.2-4-3.3-7.1l0.2-7.4L91.1,54.8z"/>
		<path class="st1" d="M98.7,81.7c8.1,1.1,13.6,7.1,13.5,14.6l1.1,0c0.2-8.1-5.8-14.5-14.4-15.6L98.7,81.7z"/>
		<path class="st1" d="M109.4,98.5c-0.5,0.9-0.9,1.9-1.8,2.7l0.7,0.8c1.1-0.9,1.6-2.1,2.1-3c0.8-1.7,1.4-2.9,4.2-2.6
			c2,0.2,2.5,0.6,3.4,2.4l0.5,1.1c0.6,1.5,1.4,3.6,3.5,3.5l0-1.1c-1.3,0.1-1.8-1.2-2.5-2.9l-0.5-1.2c-1.1-2.2-1.9-2.7-4.3-3
			C111.1,94.9,110.3,96.7,109.4,98.5z"/>
		<path class="st1" d="M86.6,86.8c1.7,0.2,3.1,1.2,4.5,2.3l0.4,0.3c3.9,2.9,4.4,5.6,3.9,9.8c-0.3,2.4-0.9,5.1-3,7.2l-1.3,1.2
			c-1,0.8-2,1.6-2.6,3.3c-0.8,2.1-3.5,13.9-0.7,18c0.6,0.9,1.5,1.4,2.6,1.5l0-1.1c-0.7,0-1.3-0.3-1.7-1c-2.4-3.5,0-14.7,0.8-17
			c0.5-1.4,1.3-2.1,2.3-2.9l1.4-1.2c2.3-2.4,3-5.3,3.3-7.9c0.5-4.3,0-7.6-4.3-10.7l-0.4-0.3c-1.5-1.1-3-2.2-5-2.5L86.6,86.8z"/>
		<path class="st1" d="M104.8,106.6c0.3,0.5,0.4,0.8,0.4,1.2c-0.3,0.9-2,1.6-3.4,2.1c-1.1,0.4-2,0.8-2.4,1.3c-1.7,1.7-1.3,5.7-1,7.8
			c0.2,1.9,1.2,7.6,3,9.6l0.8-0.7c-1.5-1.6-2.5-6.9-2.8-9c-0.2-1.8-0.6-5.6,0.7-6.9c0.3-0.3,1.2-0.7,2.1-1c1.7-0.7,3.6-1.4,4-2.8
			c0.2-0.7,0-1.4-0.5-2.1L104.8,106.6z"/>
		<path class="st1" d="M100.6,99.1l0.3,1.5c0.4,2.2,0.8,4.2,3.6,5.7c3.5,2,7.2,2.2,9.8,0.7l-0.5-0.9c-2.3,1.3-5.6,1.1-8.8-0.7
			c-2.4-1.3-2.7-2.9-3.1-5l-0.3-1.6L100.6,99.1z"/>
		<path class="st1" d="M92.6,106.8l0.3-1c-4-1.3-5.8-6.8-5.5-10.2l-1.1-0.1C86.1,99.1,87.9,105.2,92.6,106.8z"/>
		<path class="st1" d="M101,68.4c0.2,1.6-0.3,3.7-1.5,4.7c-0.7,0.6-1.5,0.7-2.5,0.5l-0.3,1c1.3,0.3,2.5,0.1,3.4-0.7
			c1.6-1.3,2.1-3.9,1.9-5.7L101,68.4z"/>
		<path class="st1" d="M88.7,77.7c0,1.5-0.1,3,1.2,4.4c1.3,1.6,4.2,4.2,6.4,3.5l-0.3-1c-1.5,0.5-4-1.7-5.2-3.1
			c-1-1.2-0.9-2.3-0.9-3.7l0-0.7l-1.1,0L88.7,77.7z"/>
		<path class="st1" d="M90,116.9c2.8,4.1,5.4,4.7,9.5,5.3l0.1-1c-4.2-0.6-6.4-1.2-8.8-4.8L90,116.9z"/>
	</g>
	<g>
		<path class="st0" d="M42,123.6c0,3.7-0.7,6.6-2.2,8.9c-1.5,2.2-3.6,3.3-6.4,3.3v-4c2.8,0,4.2-2.7,4.2-8.2h-4.2V115H42L42,123.6
			L42,123.6z"/>
		<path class="st0" d="M73.9,123.6c0,3.7-0.7,6.6-2.2,8.9c-1.5,2.2-3.6,3.3-6.4,3.3v-4c2.8,0,4.2-2.7,4.2-8.2h-4.2V115h8.6V123.6z"
			/>
		<path class="st0" d="M53.9,157.2c-1.5-0.9-11.8-6.9-11.8-6.9l-1.6,2.7l12.7,7.4c0.5,0.3,1.2,0.3,1.7,0l16.9-11.1l-1.7-2.6
			C70,146.7,55.4,156.2,53.9,157.2z"/>
	</g>
	<g>
		<g>
			<g>
				<g>
					<path class="st1" d="M135.7,78.1l6.2-0.3c0.1,2,0.4,3.3,1,4c1,1.1,2.7,1.7,5.3,1.7c2.1,0,3.7-0.4,4.6-1.1
						c1-0.8,1.4-1.7,1.4-2.8c0-0.9-0.4-1.7-1.2-2.4c-0.6-0.5-2.1-1.2-4.5-2.3c-2.5-1.1-4.3-2-5.4-2.7c-1.1-0.7-2-1.6-2.7-2.8
						s-1-2.5-1-4c0-2.7,1-4.9,2.9-6.6c1.9-1.8,4.7-2.6,8.4-2.6c3.7,0,6.6,0.9,8.6,2.6c2,1.7,3.2,4,3.4,6.9l-6.2,0.3
						c-0.2-1.5-0.7-2.7-1.7-3.5c-0.9-0.8-2.3-1.2-4.2-1.2c-1.8,0-3.1,0.3-3.9,1s-1.2,1.4-1.2,2.4c0,0.9,0.4,1.7,1.1,2.2
						c0.7,0.6,2.3,1.4,4.7,2.5c3.7,1.6,6,2.8,7,3.8c1.5,1.4,2.2,3.3,2.2,5.5c0,2.8-1.1,5.2-3.3,7.2c-2.2,2-5.3,3-9.2,3
						c-2.7,0-5.1-0.5-7.1-1.4c-2-0.9-3.4-2.2-4.2-3.8C136.1,82.1,135.7,80.3,135.7,78.1z"/>
					<path class="st4" d="M168.8,65.4h5.8l-0.5,2.8c2.3-2.2,4.7-3.3,7.2-3.3c1.7,0,3.1,0.4,4,1.1c0.9,0.7,1.5,1.7,1.8,3
						c0.8-1.1,1.9-2.1,3.4-2.9c1.5-0.8,3-1.2,4.6-1.2c1.8,0,3.2,0.5,4.3,1.5c1,1,1.5,2.3,1.5,3.9c0,0.8-0.3,2.1-0.7,4.1l-2.9,13.9
						H191l2.9-13.9c0.4-1.7,0.6-2.7,0.6-3c0-0.6-0.2-1.1-0.6-1.5c-0.4-0.4-1-0.6-1.7-0.6c-1.6,0-2.9,0.8-4.2,2.4
						c-0.9,1.2-1.6,3.2-2.3,6.2l-2.2,10.4h-6.1l2.9-13.8c0.3-1.6,0.5-2.6,0.5-3.1c0-0.6-0.2-1.1-0.6-1.5c-0.4-0.4-1-0.6-1.7-0.6
						c-0.7,0-1.4,0.2-2.1,0.6c-0.7,0.4-1.4,1-1.9,1.7c-0.5,0.7-1,1.6-1.4,2.7c-0.2,0.5-0.5,1.7-0.9,3.5l-2.2,10.5H164L168.8,65.4z"
						/>
					<path class="st4" d="M212.1,71.9l-6-0.5c0.7-2,1.9-3.6,3.6-4.8c1.7-1.1,4-1.7,6.8-1.7c2.9,0,5.1,0.6,6.5,1.8
						c1.4,1.2,2.1,2.6,2.1,4.3c0,0.7-0.1,1.4-0.2,2.2c-0.1,0.8-0.6,2.8-1.3,6.1c-0.6,2.7-0.9,4.6-0.9,5.7c0,1,0.2,2.1,0.5,3.2h-5.9
						c-0.3-0.8-0.5-1.7-0.5-2.6c-0.9,1-1.9,1.8-3.1,2.3c-1.2,0.6-2.4,0.8-3.5,0.8c-1.9,0-3.4-0.6-4.7-1.9c-1.2-1.2-1.8-2.8-1.8-4.8
						c0-2.2,0.7-3.9,2-5.2c1.4-1.3,3.8-2.1,7.2-2.4c2.9-0.2,4.9-0.5,5.9-0.9c0.3-0.9,0.4-1.6,0.4-2.1c0-0.7-0.3-1.2-0.8-1.7
						c-0.5-0.4-1.3-0.7-2.3-0.7c-1.1,0-2,0.2-2.6,0.7C212.8,70.4,212.4,71.1,212.1,71.9z M217.9,77.6c-0.4,0.1-0.9,0.2-1.5,0.3
						c-3.1,0.4-5.1,0.9-6.1,1.7c-0.7,0.5-1,1.2-1,2.1c0,0.7,0.3,1.3,0.8,1.8c0.5,0.5,1.2,0.8,2,0.8c0.9,0,1.8-0.2,2.6-0.7
						c0.8-0.5,1.4-1,1.8-1.8c0.4-0.7,0.8-1.8,1.1-3.4L217.9,77.6z"/>
					<path class="st4" d="M232.3,65.4h5.8l-0.9,4.4c2.1-3.3,4.5-4.9,7-4.9c0.9,0,1.8,0.2,2.8,0.7l-2.4,5c-0.6-0.2-1.2-0.3-1.8-0.3
						c-1.1,0-2.2,0.4-3.3,1.2c-1.1,0.8-2,1.9-2.6,3.2c-0.6,1.3-1.2,3.5-1.8,6.4l-1.5,7.2h-6.1L232.3,65.4z"/>
					<path class="st4" d="M246.5,70l0.9-4.6h3.1l0.8-3.6l7.1-4.3l-1.6,7.9h3.6l-0.9,4.6h-3.7l-2,9.6c-0.4,1.7-0.5,2.7-0.5,3
						c0,0.5,0.1,0.8,0.4,1.1c0.3,0.3,0.8,0.4,1.6,0.4c0.3,0,0.9-0.1,2-0.2l-1,4.6c-1.1,0.2-2.1,0.3-3.2,0.3c-2.2,0-3.7-0.4-4.7-1.3
						c-1-0.8-1.5-2-1.5-3.5c0-0.7,0.3-2.3,0.8-4.9l2-9.2C249.6,70,246.5,70,246.5,70z"/>
					<path class="st1" d="M266.3,88.3h-6.5l6.6-31.5h14c2.4,0,4.3,0.2,5.6,0.7c1.3,0.5,2.4,1.4,3.3,2.7c0.8,1.3,1.2,2.9,1.2,4.8
						c0,2.7-0.8,4.9-2.4,6.6c-1.6,1.7-4,2.8-7.3,3.2c0.8,0.7,1.6,1.7,2.3,2.9c1.4,2.5,3.1,5.9,4.8,10.4h-7c-0.6-1.8-1.7-4.6-3.3-8.3
						c-0.9-2-1.8-3.4-2.8-4.1c-0.6-0.4-1.7-0.6-3.2-0.6H269L266.3,88.3z M270,70.5h3.4c3.5,0,5.8-0.2,6.9-0.6c1.1-0.4,2-1.1,2.7-1.9
						c0.6-0.9,1-1.8,1-2.8c0-1.1-0.5-2-1.4-2.6c-0.6-0.3-1.8-0.5-3.7-0.5h-7.1L270,70.5z"/>
					<path class="st4" d="M313.7,78.8h-15.5c0,0.2,0,0.4,0,0.6c0,1.5,0.4,2.8,1.3,3.7c0.9,0.9,1.9,1.4,3.2,1.4c2,0,3.6-1.1,4.8-3.2
						l5.5,0.9c-1.1,2.2-2.5,3.9-4.3,5c-1.8,1.1-3.8,1.7-6,1.7c-3.1,0-5.6-1-7.5-2.9c-1.9-1.9-2.9-4.5-2.9-7.7c0-3.1,0.9-5.9,2.6-8.4
						c2.4-3.3,5.7-5,10.1-5c2.8,0,5,0.9,6.7,2.6c1.6,1.7,2.5,4.2,2.5,7.3C314.1,76.3,314,77.6,313.7,78.8z M308.5,75.1
						c0-0.3,0-0.5,0-0.6c0-1.7-0.4-3-1.1-3.8c-0.8-0.8-1.8-1.3-3.1-1.3c-1.3,0-2.4,0.5-3.4,1.5c-1,1-1.7,2.4-2.1,4.3
						C298.8,75.1,308.5,75.1,308.5,75.1z"/>
					<path class="st4" d="M324.8,71.9l-6-0.5c0.7-2,1.9-3.6,3.6-4.8c1.7-1.1,4-1.7,6.8-1.7c2.9,0,5.1,0.6,6.5,1.8
						c1.4,1.2,2.1,2.6,2.1,4.3c0,0.7-0.1,1.4-0.2,2.2c-0.1,0.8-0.5,2.8-1.3,6.1c-0.6,2.7-0.9,4.6-0.9,5.7c0,1,0.2,2.1,0.5,3.2h-5.9
						c-0.3-0.8-0.5-1.7-0.5-2.6c-0.9,1-1.9,1.8-3.1,2.3c-1.2,0.6-2.4,0.8-3.5,0.8c-1.9,0-3.4-0.6-4.7-1.9c-1.2-1.2-1.8-2.8-1.8-4.8
						c0-2.2,0.7-3.9,2-5.2c1.4-1.3,3.8-2.1,7.3-2.4c2.9-0.2,4.9-0.5,5.9-0.9c0.3-0.9,0.4-1.6,0.4-2.1c0-0.7-0.3-1.2-0.8-1.7
						c-0.5-0.4-1.3-0.7-2.3-0.7c-1.1,0-2,0.2-2.6,0.7C325.4,70.4,325,71.1,324.8,71.9z M330.5,77.6c-0.4,0.1-0.9,0.2-1.5,0.3
						c-3.1,0.4-5.1,0.9-6.1,1.7c-0.7,0.5-1,1.2-1,2.1c0,0.7,0.3,1.3,0.8,1.8s1.2,0.8,2,0.8c0.9,0,1.8-0.2,2.6-0.7
						c0.8-0.5,1.4-1,1.8-1.8c0.4-0.7,0.8-1.8,1.1-3.4L330.5,77.6z"/>
					<path class="st4" d="M361.6,88.3h-5.9l0.5-2.4c-1.1,1.1-2.2,1.8-3.3,2.3c-1.1,0.5-2.3,0.7-3.7,0.7c-2.4,0-4.3-0.8-5.8-2.4
						c-1.5-1.6-2.2-4-2.2-7.2c0-3.7,1-7,3.1-9.9c2.1-3,4.9-4.4,8.3-4.4c3.1,0,5.5,1.2,7,3.7l2.5-11.8h6.1L361.6,88.3z M347.3,79.1
						c0,1.6,0.4,2.9,1.3,3.8c0.8,0.9,1.9,1.4,3.1,1.4c1.1,0,2.2-0.4,3.2-1.2c1-0.8,1.8-1.9,2.4-3.5c0.6-1.6,0.9-3.1,0.9-4.5
						c0-1.7-0.5-3-1.4-4c-0.9-1-1.9-1.5-3.1-1.5c-1.8,0-3.3,1-4.5,3C347.9,74.6,347.3,76.7,347.3,79.1z"/>
					<path class="st4" d="M372.2,65.4h6.1l-4.8,22.9h-6.1L372.2,65.4z M374,56.8h6.1l-1.2,5.5h-6.1L374,56.8z"/>
					<path class="st4" d="M384.5,65.4h5.9l-0.6,3c1.5-1.3,2.9-2.2,4.2-2.7c1.3-0.5,2.6-0.8,4.1-0.8c1.9,0,3.4,0.5,4.5,1.6
						c1.1,1.1,1.6,2.5,1.6,4.3c0,0.8-0.3,2.3-0.8,4.5l-2.8,12.9h-6.1l2.8-12.9c0.4-1.9,0.6-3.1,0.7-3.5c0-0.8-0.2-1.4-0.7-1.9
						c-0.5-0.5-1.1-0.7-2-0.7c-0.9,0-2,0.4-3.1,1.1c-1.1,0.8-2,1.8-2.7,3c-0.5,0.9-1,2.7-1.6,5.4l-1.9,9.4h-6.1L384.5,65.4z"/>
					<path class="st4" d="M406.3,89.6l6.5,0.9c0,0.7,0.1,1.1,0.3,1.5c0.2,0.3,0.5,0.6,1,0.9c0.5,0.2,1.1,0.4,1.9,0.4
						c1.4,0,2.5-0.3,3.3-0.8c0.6-0.4,1.1-1.1,1.5-2c0.2-0.6,0.6-1.8,0.9-3.7l0.2-1.1c-2.2,1.8-4.6,2.7-6.9,2.7c-2.2,0-4-0.8-5.5-2.4
						c-1.4-1.6-2.1-3.9-2.1-6.9c0-2.7,0.5-5.1,1.5-7.4c1-2.2,2.3-3.9,4.1-5.1c1.8-1.1,3.5-1.7,5.4-1.7c1.5,0,2.9,0.4,4.1,1.2
						c1.2,0.8,2.2,1.9,2.9,3.3l0.8-4h5.8l-3.6,19c-0.7,3.1-1.2,5.3-1.7,6.6c-0.5,1.3-1,2.4-1.6,3.1c-0.6,0.8-1.3,1.4-2.2,2
						c-0.9,0.5-1.9,0.9-3.2,1.1c-1.2,0.2-2.5,0.3-3.9,0.3c-3.2,0-5.6-0.6-7.3-1.7c-1.6-1.1-2.5-2.9-2.5-5.5
						C406.2,90.2,406.3,89.9,406.3,89.6z M413.6,78.4c0,1.7,0.4,3,1.2,3.9c0.8,0.9,1.7,1.4,2.9,1.4c1.1,0,2.1-0.4,3.2-1.2
						c1-0.8,1.8-2,2.4-3.5c0.5-1.5,0.8-2.9,0.8-4.3c0-1.6-0.4-2.9-1.3-3.9s-1.9-1.5-3.1-1.5c-1.1,0-2.1,0.4-3,1.3
						c-0.9,0.9-1.7,2.2-2.3,4C413.8,76,413.6,77.3,413.6,78.4z"/>
				</g>
			</g>
		</g>
	</g>
	<g>
		<path class="st4" d="M438.7,76h11.8l-1.2,5.9h-11.8L438.7,76z"/>
		<path class="st1" d="M469.9,90.1h-6.1l-1.1-25.9l-4.9,25.9H452l6.5-31.1h9.1l1,21.8L479.2,59h9.2l-6.5,31.1h-5.8l6.1-25.8
			L469.9,90.1z"/>
		<path class="st4" d="M496.7,74l-5.9-0.5c0.7-2,1.9-3.6,3.5-4.7c1.7-1.1,3.9-1.7,6.7-1.7c2.9,0,5,0.6,6.4,1.7
			c1.4,1.2,2.1,2.6,2.1,4.3c0,0.7-0.1,1.4-0.2,2.2s-0.5,2.8-1.3,6c-0.6,2.7-0.9,4.6-0.9,5.6c0,1,0.2,2,0.5,3.2h-5.9
			c-0.2-0.8-0.4-1.7-0.4-2.5c-0.9,1-1.9,1.7-3.1,2.3c-1.2,0.5-2.3,0.8-3.5,0.8c-1.9,0-3.4-0.6-4.6-1.8c-1.2-1.2-1.8-2.8-1.8-4.7
			c0-2.1,0.7-3.9,2-5.1s3.7-2.1,7.1-2.3c2.9-0.2,4.8-0.5,5.8-0.9c0.3-0.8,0.4-1.5,0.4-2c0-0.7-0.3-1.2-0.8-1.6
			c-0.5-0.4-1.3-0.7-2.3-0.7c-1.1,0-1.9,0.2-2.6,0.7C497.4,72.5,497,73.2,496.7,74z M502.5,79.6c-0.4,0.1-0.9,0.2-1.5,0.3
			c-3,0.4-5,0.9-6,1.6c-0.7,0.5-1,1.2-1,2.1c0,0.7,0.3,1.3,0.8,1.8c0.5,0.5,1.2,0.7,2,0.7c0.9,0,1.8-0.2,2.6-0.7s1.4-1,1.8-1.7
			c0.4-0.7,0.8-1.8,1.1-3.3L502.5,79.6z"/>
		<path class="st4" d="M517.1,67.6h5.8l-0.6,2.9c1.4-1.2,2.8-2.1,4-2.7c1.3-0.5,2.6-0.8,3.9-0.8c1.9,0,3.3,0.5,4.4,1.6
			s1.6,2.5,1.6,4.2c0,0.8-0.2,2.3-0.7,4.5l-2.6,12.7h-6.1l2.7-12.8c0.4-1.9,0.6-3,0.6-3.4c0-0.8-0.2-1.4-0.7-1.8
			c-0.5-0.4-1.1-0.7-1.9-0.7c-0.9,0-1.9,0.4-3,1.1c-1.1,0.7-1.9,1.7-2.6,3c-0.5,0.9-1,2.7-1.5,5.4l-1.9,9.2h-6.1L517.1,67.6z"/>
		<path class="st4" d="M559.6,90.1h-5.8l0.5-2.4c-1.1,1.1-2.2,1.8-3.2,2.3c-1.1,0.5-2.3,0.7-3.6,0.7c-2.3,0-4.2-0.8-5.7-2.4
			c-1.4-1.6-2.2-3.9-2.2-7c0-3.6,1-6.9,3-9.8c2-2.9,4.7-4.4,8.1-4.4c3,0,5.3,1.2,6.8,3.6L560,59h6.1L559.6,90.1z M545.5,80.9
			c0,1.6,0.4,2.9,1.2,3.8c0.8,0.9,1.8,1.4,3,1.4c1.1,0,2.1-0.4,3.1-1.1c1-0.8,1.7-1.9,2.3-3.5c0.6-1.6,0.9-3,0.9-4.5
			c0-1.6-0.4-2.9-1.3-3.9c-0.9-1-1.9-1.5-3-1.5c-1.8,0-3.2,1-4.4,3C546.1,76.5,545.5,78.6,545.5,80.9z"/>
		<path class="st4" d="M573.9,74l-5.9-0.5c0.7-2,1.9-3.6,3.5-4.7c1.7-1.1,3.9-1.7,6.7-1.7c2.9,0,5,0.6,6.4,1.7
			c1.4,1.2,2.1,2.6,2.1,4.3c0,0.7-0.1,1.4-0.2,2.2s-0.5,2.8-1.3,6c-0.6,2.7-0.9,4.6-0.9,5.6c0,1,0.2,2,0.5,3.2h-5.9
			c-0.2-0.8-0.4-1.7-0.4-2.5c-0.9,1-1.9,1.7-3.1,2.3c-1.2,0.5-2.3,0.8-3.5,0.8c-1.9,0-3.4-0.6-4.6-1.8c-1.2-1.2-1.8-2.8-1.8-4.7
			c0-2.1,0.7-3.9,2-5.1c1.3-1.3,3.7-2.1,7.2-2.3c2.9-0.2,4.8-0.5,5.8-0.9c0.3-0.8,0.4-1.5,0.4-2c0-0.7-0.3-1.2-0.8-1.6
			c-0.5-0.4-1.3-0.7-2.3-0.7c-1.1,0-1.9,0.2-2.6,0.7C574.5,72.5,574.1,73.2,573.9,74z M579.6,79.6c-0.4,0.1-0.9,0.2-1.5,0.3
			c-3.1,0.4-5,0.9-6,1.6c-0.7,0.5-1,1.2-1,2.1c0,0.7,0.3,1.3,0.8,1.8c0.5,0.5,1.2,0.7,2,0.7c0.9,0,1.8-0.2,2.6-0.7
			c0.8-0.4,1.4-1,1.8-1.7c0.4-0.7,0.8-1.8,1.1-3.3L579.6,79.6z"/>
		<path class="st4" d="M593.8,67.6h5.7l-0.9,4.4c2.1-3.3,4.4-4.9,6.9-4.9c0.9,0,1.8,0.2,2.8,0.7l-2.3,5c-0.6-0.2-1.1-0.3-1.8-0.3
			c-1,0-2.1,0.4-3.2,1.2c-1.1,0.8-1.9,1.8-2.5,3.2c-0.6,1.3-1.2,3.4-1.8,6.3l-1.5,7.1h-6.1L593.8,67.6z"/>
		<path class="st4" d="M611,67.6h6.1l-4.7,22.5h-6.1L611,67.6z M612.8,59h6.1l-1.1,5.5h-6.1L612.8,59z"/>
		<path class="st4" d="M623.1,67.6h5.8l-0.6,2.9c1.4-1.2,2.8-2.1,4-2.7c1.2-0.5,2.6-0.8,3.9-0.8c1.8,0,3.3,0.5,4.4,1.6
			c1.1,1.1,1.6,2.5,1.6,4.2c0,0.8-0.2,2.3-0.7,4.5l-2.6,12.7h-6.1l2.7-12.8c0.4-1.9,0.6-3,0.6-3.4c0-0.8-0.2-1.4-0.7-1.8
			c-0.5-0.4-1.1-0.7-1.9-0.7c-0.9,0-1.9,0.4-3,1.1c-1.1,0.7-1.9,1.7-2.6,3c-0.5,0.9-1,2.7-1.5,5.4l-1.9,9.2h-6.1L623.1,67.6z"/>
	</g>
	<g>
		<g>
			<path class="st6" d="M438.6,115c0,3.6-2.9,6.5-6.5,6.5c-3.6,0-6.5-2.9-6.5-6.5c0-3.6,2.9-6.5,6.5-6.5
				C435.7,108.5,438.6,111.4,438.6,115z M432.1,107.4c-4.2,0-7.6,3.4-7.6,7.6c0,4.2,3.4,7.6,7.6,7.6c4.2,0,7.6-3.4,7.6-7.6
				C439.7,110.8,436.3,107.4,432.1,107.4z"/>
		</g>
		<g>
			<path class="st6" d="M428.7,119.4v-8.8h3.9c0.8,0,1.4,0.1,1.8,0.2c0.4,0.2,0.7,0.4,1,0.8s0.4,0.8,0.4,1.3c0,0.6-0.2,1.2-0.6,1.6
				c-0.4,0.4-1,0.7-1.9,0.8c0.3,0.1,0.5,0.3,0.7,0.4c0.3,0.3,0.7,0.7,1,1.2l1.5,2.4h-1.5l-1.2-1.8c-0.3-0.5-0.6-0.9-0.8-1.2
				c-0.2-0.3-0.4-0.5-0.6-0.6c-0.2-0.1-0.4-0.2-0.5-0.2c-0.1,0-0.3,0-0.7,0h-1.4v3.9L428.7,119.4L428.7,119.4z M429.9,114.4h2.5
				c0.5,0,1-0.1,1.3-0.2c0.3-0.1,0.5-0.3,0.7-0.5c0.2-0.2,0.2-0.5,0.2-0.8c0-0.4-0.2-0.8-0.5-1c-0.3-0.3-0.8-0.4-1.4-0.4h-2.8V114.4
				z"/>
		</g>
	</g>
	<g>
		<path class="st1" d="M137.2,111.3h7.8c-1.1,3-2.2,5.4-3.3,7.4h3.9c-0.1,3.3-0.8,6.2-2,8.6c1.1,0.6,2.3,1.1,3.6,1.4
			c1.8,0.5,5.6,0.7,11.2,0.7c2.8,0,5.2-0.1,7.4-0.3l-0.7,2.9h-6.6c-5.7,0-9.7-0.3-11.8-0.8c-1.5-0.5-2.9-1.1-4.2-2
			c-0.9,1.3-2,2.4-3.3,3.3l-1.6-2.3c1.6-1.1,2.9-2.5,4-4.3c0.7-1.2,1.2-2.9,1.6-5.1h-4l-0.2-2c0.9-1.5,1.7-3.2,2.4-5h-4L137.2,111.3
			L137.2,111.3z M140.3,104c1.7,1,3.1,2.1,4.3,3.2l-1.9,1.8c-1.3-1.3-2.7-2.5-4.4-3.6L140.3,104z M162.7,104l1.1,2.2
			c-2,0.4-4.2,0.8-6.5,1.2v3.8h7.9v2.3h-7.9v3.9h6.4v9h-15.1v-9h6.1v-3.9h-8.2v-2.3h8.2v-3.4c-2,0.3-4.2,0.6-6.4,0.8l-0.8-2.2
			C153,105.8,158.1,105.1,162.7,104z M151.2,124.3h9.9v-4.6h-9.9V124.3z"/>
		<path class="st1" d="M171.1,109.6l2.4,0.5c-0.3,3.5-0.9,6.5-2,9.1l-2.2-1.2C170.3,115.5,170.9,112.7,171.1,109.6z M174.4,103.9
			h2.5v5.7c1.2,0.9,2.3,1.9,3.2,2.8l-1.6,2.2c-0.5-0.7-1.1-1.3-1.6-1.8v19.5h-2.5L174.4,103.9L174.4,103.9z M183,105.7l2.4,0.7
			c-0.2,1-0.5,2.1-0.9,3.1h3.8V104h2.6v5.4h6.6v2.5h-6.6v6.4h6.3v2.5h-6.3v7.8h7.5v2.5h-18.6v-2.5h8.5v-7.8H181v-2.5h7.2v-6.4h-4.6
			c-0.1,0.2-0.1,0.3-0.2,0.5c-0.7,2-1.6,3.7-2.5,5.2l-2.1-1.6c0.9-1.4,1.7-3.1,2.4-5C182,109.1,182.6,107.3,183,105.7z"/>
		<path class="st1" d="M204,109.6h2.6v22.5H204V109.6z M208.7,103.6c1.3,1.5,2.3,3.2,3.1,4.9l-2.5,1.4c-0.7-1.7-1.6-3.3-2.8-4.8
			L208.7,103.6z M219.3,108.6l2.5,1.4c-0.4,0.7-0.9,1.4-1.4,2.2c-0.2,0.3-0.4,0.6-0.6,0.8h2.6v8.2h-3.1v4.7c0,0.5,0.2,0.8,0.6,0.8
			c0.2,0,0.4,0,0.6,0c0.9,0,1.5-0.1,1.6-0.2c0.2-0.1,0.3-0.4,0.4-0.7c0.1-0.2,0.1-0.7,0.2-1.8l2.2,1.2c-0.1,1.6-0.4,2.7-0.7,3.1
			c-0.2,0.2-0.6,0.3-1.1,0.4c-0.3,0.1-1.1,0.1-2.5,0.1c-0.6,0-1.2,0-1.7-0.1c-1.3,0-2-0.8-2-2.2v-5.6h-2.2c-0.2,2.4-0.8,4.3-1.8,5.6
			c-1,1.4-2.5,2.5-4.3,3.5l-1.5-1.9c1.7-0.8,3-1.8,3.9-3c0.7-1,1.2-2.3,1.4-4.1H210v-8.2h6.8c0.3-0.4,0.7-0.9,1-1.4
			C218.4,110.6,218.9,109.6,219.3,108.6z M212.9,108.7c0.8,0.8,1.4,1.7,1.9,2.6l-2.2,1.4c-0.4-0.9-1-1.8-1.7-2.6L212.9,108.7z
			 M212.3,119h7.6v-3.8h-7.6V119z M213.7,105.3h14.9V129c0,2.2-1,3.4-2.9,3.4c-0.9,0-1.9,0-3.1-0.1l-0.6-2.8
			c1.2,0.2,2.2,0.4,3.2,0.4c0.6,0,0.8-0.6,0.8-1.7v-20.3h-12.3V105.3z"/>
		<path class="st1" d="M234.4,113.3h6.3v13.8c0.8-0.6,1.7-1.3,2.7-2.1l1.1,1.9c-1.7,1.6-3.5,2.9-5.4,4.1l-1.6-2
			c0.6-0.5,0.8-1,0.7-1.4v-11.8h-3.8V113.3z M239.2,103.9c1.3,1.6,2.3,3.3,3,5l-2.5,1.4c-0.7-1.7-1.6-3.3-2.8-4.9L239.2,103.9z
			 M244.4,123.3h7.6c0.6-1.7,0.9-4.2,0.9-7.7h2.6c0,3.2-0.2,5.8-0.7,7.7h7.8v2.5h-8.9c-0.8,1.4-2,2.6-3.4,3.6c-1.8,1.2-4,2.2-6.6,3
			l-1.2-2.1c2.4-0.7,4.4-1.6,5.9-2.7c0.8-0.6,1.5-1.2,2.1-1.8h-6.1L244.4,123.3L244.4,123.3z M244.4,106.7h7.4v-2.8h2.5v2.8h7.5v2.3
			h-7.5v3h8.3c-0.7,2.2-1.8,4.3-3.2,6.2l-1.8-1.4c0.6-0.9,1.1-1.8,1.5-2.6h-15.3V112h8.1v-3h-7.4V106.7z M245.7,118.4
			c1.4,0.7,2.8,1.5,3.9,2.5l-1.4,1.7c-1.4-1-2.8-1.9-4.2-2.6L245.7,118.4z M247.4,115c1.6,0.7,3,1.5,4.3,2.5l-1.5,1.8
			c-1.4-1.1-2.8-2.1-4.3-2.8L247.4,115z M256.1,126.4c2.5,1,4.7,2.2,6.8,3.6l-1.7,2.2c-2.2-1.5-4.4-2.9-6.8-3.9L256.1,126.4z"/>
	</g>
</g>
</svg>
