<svg xmlns="http://www.w3.org/2000/svg" viewBox="0 0 313.55 65.84"><defs><style>.cls-1{isolation:isolate;}.cls-2{fill:#fff;}.cls-3{fill:#15398b;}.cls-4{fill:#006aad;}.cls-5{fill:#0097d2;}.cls-6,.cls-7{fill:#dfc44a;}.cls-7{mix-blend-mode:screen;opacity:0.25;}.cls-8{fill:#595757;}</style></defs><g class="cls-1"><g id="圖層_2" data-name="圖層 2"><g id="圖層_1-2" data-name="圖層 1"><polygon class="cls-2" points="0.13 13.58 4.89 12.68 28.63 3.67 33.94 3.88 34.07 6.82 39.26 7.76 39.37 10.11 44.64 11.69 4.89 20.02 0.13 13.58"/><path class="cls-3" d="M44.64,61.3a4.52,4.52,0,0,1-4.5,4.54H4.5A4.52,4.52,0,0,1,0,61.3V19.81c0-2.5,2-.75,4.5-.75H40.14c2.49,0,4.5-1.75,4.5.75Z"/><path class="cls-2" d="M8.24,62.44l.42,0a1,1,0,0,0,.14.42.71.71,0,0,0,.34.26,1.21,1.21,0,0,0,.52.1,1.23,1.23,0,0,0,.44-.07.59.59,0,0,0,.29-.21.46.46,0,0,0,.1-.29.45.45,0,0,0-.09-.28.66.66,0,0,0-.31-.19,3.88,3.88,0,0,0-.6-.17,2.61,2.61,0,0,1-.64-.21.91.91,0,0,1-.37-.32A.82.82,0,0,1,8.37,61a.92.92,0,0,1,.14-.48,1,1,0,0,1,.42-.34,1.8,1.8,0,0,1,.62-.11,1.69,1.69,0,0,1,.66.12.93.93,0,0,1,.44.36,1,1,0,0,1,.17.53l-.43,0a.69.69,0,0,0-.23-.48.92.92,0,0,0-.59-.16,1,1,0,0,0-.59.15A.45.45,0,0,0,8.8,61a.35.35,0,0,0,.13.29,1.8,1.8,0,0,0,.67.25,4.32,4.32,0,0,1,.74.21,1.05,1.05,0,0,1,.44.34.92.92,0,0,1,0,1,1.06,1.06,0,0,1-.45.38,1.62,1.62,0,0,1-.64.13,1.93,1.93,0,0,1-.77-.14,1.05,1.05,0,0,1-.48-.4A1.16,1.16,0,0,1,8.24,62.44Z"/><path class="cls-2" d="M11.49,63.53V61.07h.37v.35a.86.86,0,0,1,.31-.29A.89.89,0,0,1,12.6,61a.79.79,0,0,1,.45.12.62.62,0,0,1,.24.31.89.89,0,0,1,.76-.43.79.79,0,0,1,.57.2.9.9,0,0,1,.19.63v1.68H14.4V62a1.33,1.33,0,0,0,0-.35.34.34,0,0,0-.15-.18.43.43,0,0,0-.25-.07.6.6,0,0,0-.43.17.74.74,0,0,0-.17.55v1.43h-.42V61.94a.69.69,0,0,0-.1-.42.39.39,0,0,0-.33-.14.56.56,0,0,0-.54.36,1.41,1.41,0,0,0-.07.52v1.27Z"/><path class="cls-2" d="M17,63.22a1.46,1.46,0,0,1-.44.28,1.39,1.39,0,0,1-.46.08.88.88,0,0,1-.63-.2.67.67,0,0,1-.22-.5.63.63,0,0,1,.09-.33.61.61,0,0,1,.21-.24,1,1,0,0,1,.3-.13l.38-.06A3.48,3.48,0,0,0,17,62v-.11a.47.47,0,0,0-.12-.36.69.69,0,0,0-.47-.13.73.73,0,0,0-.44.1.69.69,0,0,0-.21.36l-.41,0a1,1,0,0,1,.19-.43.81.81,0,0,1,.36-.24,1.6,1.6,0,0,1,.56-.09,1.43,1.43,0,0,1,.51.08.63.63,0,0,1,.29.18.66.66,0,0,1,.13.28,3.11,3.11,0,0,1,0,.39v.55a5.1,5.1,0,0,0,0,.73.88.88,0,0,0,.1.3h-.43A.94.94,0,0,1,17,63.22Zm0-.92a3.61,3.61,0,0,1-.68.16,1.39,1.39,0,0,0-.36.08.37.37,0,0,0-.17.13.46.46,0,0,0,0,.2.38.38,0,0,0,.12.28.59.59,0,0,0,.38.11.89.89,0,0,0,.43-.11.59.59,0,0,0,.27-.29.89.89,0,0,0,.07-.41Z"/><path class="cls-2" d="M18.05,63.53V61.07h.37v.38a1,1,0,0,1,.26-.34A.44.44,0,0,1,19,61a.92.92,0,0,1,.43.13l-.15.39a.58.58,0,0,0-.3-.09.4.4,0,0,0-.25.09.44.44,0,0,0-.15.22,1.53,1.53,0,0,0-.07.49v1.28Z"/><path class="cls-2" d="M20.54,63.15l.05.37a2,2,0,0,1-.31,0,.71.71,0,0,1-.36-.08.37.37,0,0,1-.17-.18,1.37,1.37,0,0,1-.05-.49V61.4h-.31v-.33h.31v-.6l.41-.25v.85h.43v.33h-.43v1.43a.82.82,0,0,0,0,.22.18.18,0,0,0,.08.09.26.26,0,0,0,.14,0Z"/><path class="cls-2" d="M22.31,63.53V60.15h1.5a2.05,2.05,0,0,1,.69.09.76.76,0,0,1,.37.32.89.89,0,0,1,.14.51.84.84,0,0,1-.23.61,1.18,1.18,0,0,1-.72.31,1.05,1.05,0,0,1,.27.17,2.12,2.12,0,0,1,.37.45l.59.92h-.56l-.45-.71c-.13-.2-.24-.35-.32-.46a1.23,1.23,0,0,0-.23-.23.88.88,0,0,0-.2-.09h-.77v1.5Zm.45-1.89h1a1.52,1.52,0,0,0,.48-.07.52.52,0,0,0,.35-.5.54.54,0,0,0-.17-.4.84.84,0,0,0-.55-.15H22.76Z"/><path class="cls-2" d="M27.34,62.74l.43,0a1.08,1.08,0,0,1-.38.58,1.26,1.26,0,0,1-1.55-.12,1.3,1.3,0,0,1-.32-.93,1.37,1.37,0,0,1,.32-1,1.11,1.11,0,0,1,.83-.34,1.06,1.06,0,0,1,.8.33,1.33,1.33,0,0,1,.31.94v.11H26a.9.9,0,0,0,.23.62.65.65,0,0,0,.51.22.65.65,0,0,0,.39-.12A.78.78,0,0,0,27.34,62.74ZM26,62.06h1.37a.89.89,0,0,0-.15-.46.65.65,0,0,0-.52-.23.68.68,0,0,0-.48.18A.8.8,0,0,0,26,62.06Z"/><path class="cls-2" d="M29.89,63.22a1.32,1.32,0,0,1-.43.28,1.45,1.45,0,0,1-.47.08.84.84,0,0,1-.62-.2.63.63,0,0,1-.22-.5.67.67,0,0,1,.3-.57,1,1,0,0,1,.3-.13l.37-.06a3.46,3.46,0,0,0,.75-.15v-.11a.47.47,0,0,0-.12-.36.71.71,0,0,0-.47-.13.73.73,0,0,0-.44.1.58.58,0,0,0-.21.36l-.41,0a1.14,1.14,0,0,1,.18-.43.91.91,0,0,1,.37-.24,1.6,1.6,0,0,1,.56-.09,1.43,1.43,0,0,1,.51.08.63.63,0,0,1,.29.18.8.8,0,0,1,.13.28,3.11,3.11,0,0,1,0,.39v.55c0,.39,0,.63,0,.73a1.18,1.18,0,0,0,.1.3H30A.94.94,0,0,1,29.89,63.22Zm0-.92a3.61,3.61,0,0,1-.68.16,1.39,1.39,0,0,0-.36.08.37.37,0,0,0-.17.13.36.36,0,0,0-.06.2.39.39,0,0,0,.13.28.58.58,0,0,0,.37.11.86.86,0,0,0,.43-.11.61.61,0,0,0,.28-.29.89.89,0,0,0,.07-.41Z"/><path class="cls-2" d="M32.5,63.53v-.32a.74.74,0,0,1-.68.37,1,1,0,0,1-.54-.16A1.12,1.12,0,0,1,30.9,63a1.57,1.57,0,0,1-.13-.67,1.76,1.76,0,0,1,.12-.66.94.94,0,0,1,.37-.46A.93.93,0,0,1,31.8,61a.8.8,0,0,1,.39.09.85.85,0,0,1,.28.25V60.15h.42v3.38ZM31.19,62.3a1.09,1.09,0,0,0,.2.71.61.61,0,0,0,.47.23.63.63,0,0,0,.47-.22,1.08,1.08,0,0,0,.19-.68,1.15,1.15,0,0,0-.2-.74.59.59,0,0,0-.48-.23.57.57,0,0,0-.46.22A1.08,1.08,0,0,0,31.19,62.3Z"/><path class="cls-2" d="M33.55,60.62v-.47H34v.47Zm0,2.91V61.07H34v2.46Z"/><path class="cls-2" d="M34.6,63.53V61.07H35v.35a.88.88,0,0,1,.78-.4,1.11,1.11,0,0,1,.41.08.58.58,0,0,1,.27.21.79.79,0,0,1,.13.31,1.77,1.77,0,0,1,0,.4v1.51h-.42V62a1.16,1.16,0,0,0-.05-.38.37.37,0,0,0-.17-.2.55.55,0,0,0-.29-.08.66.66,0,0,0-.45.17.83.83,0,0,0-.2.64v1.34Z"/><path class="cls-2" d="M37.15,63.73l.4.05a.44.44,0,0,0,.14.28.71.71,0,0,0,.43.12.75.75,0,0,0,.45-.12.57.57,0,0,0,.21-.32,2.85,2.85,0,0,0,0-.53.87.87,0,0,1-.68.32.93.93,0,0,1-.79-.37,1.41,1.41,0,0,1-.27-.87,1.71,1.71,0,0,1,.12-.65,1.07,1.07,0,0,1,.37-.46,1.11,1.11,0,0,1,.57-.16.88.88,0,0,1,.72.36v-.31h.37v2.12a2.25,2.25,0,0,1-.11.82.83.83,0,0,1-.37.37,1.32,1.32,0,0,1-.62.14,1.13,1.13,0,0,1-.71-.2A.65.65,0,0,1,37.15,63.73Zm.34-1.47a1,1,0,0,0,.2.7.58.58,0,0,0,.48.22.61.61,0,0,0,.48-.22,1.25,1.25,0,0,0,0-1.37.62.62,0,0,0-1,0A1,1,0,0,0,37.49,62.26Z"/><path class="cls-3" d="M.12,13.58l3.54,3.78a199.69,199.69,0,0,1,41-5.68h0v11.1H0Z"/><path class="cls-3" d="M4.89,12.68l23.74-9L28.46,0S13.84,8.6,4.89,12.68Z"/><path class="cls-4" d="M7.72,13.44S32,7.05,34.07,6.82l-.13-2.94S11.92,11.92,7.72,13.44Z"/><path class="cls-5" d="M9.69,14.67s25.54-4.82,29.68-4.56l-.11-2.35S12.44,13.52,9.69,14.67Z"/><path class="cls-6" d="M4.86,27.53c-.17-.79.5-1.49.52-1.69a2.66,2.66,0,0,1,1.14-1.7c1-.78,2-1.6,3-2.41.67-.55,1.28-1.37,2.11-1.48a4.2,4.2,0,0,0,.62-.08c.34-.14.6-.57.89-.79a2.23,2.23,0,0,1,1.09-.4,16.58,16.58,0,0,0,2.3-.61,23.32,23.32,0,0,1,2.38-.7,12.52,12.52,0,0,1,2.66-.17c1.19,0,2.35-.17,3.53-.15a9.51,9.51,0,0,1,1.68.13c1,.19,1.78.81,2.76,1,.56.1,1.12.19,1.68.31a2.5,2.5,0,0,1,1,.26c.36.24.68.51,1.05.76.88.6,1.52,1.5,2.36,2.2.54.44,1.29.73,1.8,1.15a6.46,6.46,0,0,0,1,.79,5,5,0,0,1,1.35.65,9.54,9.54,0,0,1,.86,1.31c.19.29.39.53.55.83s.23.59.37.88c.24.52.44.74.16,1.14s-.12.38.19.87a4.48,4.48,0,0,1,.32,1c.19.57.59,1.1.76,1.66a13.23,13.23,0,0,1,.3,1.78,22.94,22.94,0,0,1,.53,2.75,2.26,2.26,0,0,1,0,.69c-.09.25-.39.4-.51.65a4.53,4.53,0,0,1-.93,1.63c-.25.2-.33,0-.72,0a.51.51,0,0,0-.59.44,13.66,13.66,0,0,0,0,1.81A2.75,2.75,0,0,1,39.94,44c-.3.22-.7.23-1,.47s-.53.7-.92.93a11.35,11.35,0,0,1-1.53.72,3.64,3.64,0,0,1-1.12.39c-.31,0-.64-.07-1-.07-.95,0-1.64.44-2.67.2a2.55,2.55,0,0,1-.92-.45c-.54-.44-.39-.84-.51-1.4a6.84,6.84,0,0,0-1.06-2.21c-.72-1,.18-1.84.24-2.82.08-1.14-1-1.76-1.54-2.64a3,3,0,0,1-.49-1.27c0-.32.33-.44.31-.76-.05-.71-1.06-.46-1.47-.66-.23-.11-.39-.49-.57-.69a5.84,5.84,0,0,0-.85-.8,6.11,6.11,0,0,0-1.17-.59,1.22,1.22,0,0,0-.82-.16c-.41.1-.89.63-1.25.88s-.92.68-1.36,1a3.35,3.35,0,0,0-.77.87c-.16.28-.2.68-.47.89-.87.69-.52-.66-.65-1s-.38-.13-.64-.36-.29-.71-.53-.92l-.09-.15c-.35.07-.62.77-.81,1a3.17,3.17,0,0,1-.72.83c-.26.19-.56.26-.85.43s-.39.39-.6.74c-.35.56-.76.21-1.25.52-.24.15-.27.37-.56.47s-.66-.07-.95-.14a4.22,4.22,0,0,0-1.9.05,4.36,4.36,0,0,1-2.27,0,9.5,9.5,0,0,0-1.87-.17c-1-.06-1.34-1.11-1.34-2a14.85,14.85,0,0,0,0-1.64c0-.45-.19-.88-.2-1.33,0,0-.31-.74.73-1.65s.27-.13-.07-.66C4.27,29.57,5.06,28.42,4.86,27.53Z"/><path class="cls-3" d="M23.05,17.14l-1.52.08h-.59a9.18,9.18,0,0,0-2.14.17,23,23,0,0,0-2.4.71,16.19,16.19,0,0,1-2.26.6l-.11,0a2.38,2.38,0,0,0-1.1.43l-.37.37a1.49,1.49,0,0,1-.45.38l-.33.05-.23,0a3.35,3.35,0,0,0-1.76,1.1l-.49.45-3,2.4A2.83,2.83,0,0,0,5.1,25.81,1.58,1.58,0,0,0,5,26a2.58,2.58,0,0,0-.45,1.29,1.24,1.24,0,0,0,0,.33h0a2,2,0,0,1,0,.25A4,4,0,0,1,4.34,29a2.42,2.42,0,0,0-.2.74.51.51,0,0,0,.08.28.87.87,0,0,0,.22.21l-.1.09a2.1,2.1,0,0,0-.86,1.56,1.37,1.37,0,0,0,0,.34l.11.76.09.55,0,1.63c0,1.34.63,2.24,1.6,2.3l.52,0a6.16,6.16,0,0,1,1.3.15,4.62,4.62,0,0,0,2.4,0,4.14,4.14,0,0,1,1.77-.06l.2.06a1.35,1.35,0,0,0,.92.08,1.13,1.13,0,0,0,.45-.34l.16-.16a.88.88,0,0,1,.44-.12,1,1,0,0,0,.9-.49l.12-.2a.92.92,0,0,1,.38-.44l.35-.17.53-.28a3.31,3.31,0,0,0,.78-.9l.17-.3a4,4,0,0,1,.33-.52,1,1,0,0,1,.16.31,1.46,1.46,0,0,0,.35.58,1,1,0,0,0,.47.22l.09,0a.94.94,0,0,1,0,.27v.21c0,.36,0,.73.31.87a.74.74,0,0,0,.76-.2,1.37,1.37,0,0,0,.42-.69l.13-.28a3,3,0,0,1,.69-.8l1.35-1,.39-.31a2.49,2.49,0,0,1,.77-.52.94.94,0,0,1,.63.14l.37.16a3.54,3.54,0,0,1,.75.39,5.32,5.32,0,0,1,.81.76l.15.22a1.35,1.35,0,0,0,.51.55,1.77,1.77,0,0,0,.63.12c.53,0,.66.11.68.3h0s0,.09-.1.19a.87.87,0,0,0-.21.54h0a3.22,3.22,0,0,0,.53,1.42l.65.8a2.43,2.43,0,0,1,.85,1.57v.1a3.27,3.27,0,0,1-.24.89,3.08,3.08,0,0,0-.28,1.13,1.72,1.72,0,0,0,.33,1,6.28,6.28,0,0,1,1,2.11l.06.39a1.42,1.42,0,0,0,.55,1.16,2.89,2.89,0,0,0,1,.51,3.93,3.93,0,0,0,1.79-.06,5.73,5.73,0,0,1,1-.13l.41,0,.55,0a2.66,2.66,0,0,0,.94-.3l.27-.12.07,0a9.53,9.53,0,0,0,1.51-.72,2.63,2.63,0,0,0,.64-.6l.32-.36a1.42,1.42,0,0,1,.41-.2l.53-.25a3,3,0,0,0,1.21-2.13l0-.81a3.69,3.69,0,0,1,0-.95c0-.18.09-.23.31-.23l.26,0a.68.68,0,0,0,.64-.12,3.36,3.36,0,0,0,.85-1.38l.16-.36.19-.23a1.2,1.2,0,0,0,.33-.45.85.85,0,0,0,.05-.33,3,3,0,0,0,0-.31v-.15a9.23,9.23,0,0,0-.31-1.78l-.22-1-.08-.59a7.31,7.31,0,0,0-.22-1.24,6.46,6.46,0,0,0-.41-.89l-.36-.77-.09-.36a2.26,2.26,0,0,0-.26-.72L42,29.22,41.84,29a.83.83,0,0,0,.08-.12.88.88,0,0,0,.19-.53,1.42,1.42,0,0,0-.21-.65l-.11-.24-.15-.35-.23-.55L41.05,26l-.2-.28-.26-.42A4.86,4.86,0,0,0,40,24.4a2.52,2.52,0,0,0-1-.52l-.44-.19a3.39,3.39,0,0,1-.72-.52l-.27-.24a7.4,7.4,0,0,0-.91-.57,7.14,7.14,0,0,1-.89-.57,11,11,0,0,1-1-.95,10,10,0,0,0-1.4-1.27l-.49-.35-.56-.4a2,2,0,0,0-.84-.27l-.23,0-1-.19-.68-.12a5.77,5.77,0,0,1-1.35-.49,6.86,6.86,0,0,0-1.42-.51,9.36,9.36,0,0,0-1.73-.13C24.39,17.05,23.71,17.1,23.05,17.14Zm-1.51.65,1.55-.08c.64,0,1.31-.09,2-.08a10,10,0,0,1,1.62.13,6.17,6.17,0,0,1,1.3.47,6.42,6.42,0,0,0,1.47.53l.69.12,1,.18.26.05a1.67,1.67,0,0,1,.62.18l.53.38L33,20a8.62,8.62,0,0,1,1.31,1.2,12.16,12.16,0,0,0,1,1,6.56,6.56,0,0,0,1,.63,6.83,6.83,0,0,1,.82.51l.26.23a4.22,4.22,0,0,0,.83.6l.51.21a2.23,2.23,0,0,1,.77.39,4.34,4.34,0,0,1,.55.82l.27.45.21.3.33.5.2.48.16.39.12.25c.18.36.2.42.06.6a.68.68,0,0,0,0,.95l.16.24a1.5,1.5,0,0,1,.18.54l.11.42.4.86a6,6,0,0,1,.36.79,6.77,6.77,0,0,1,.21,1.14l.08.61.23,1a9,9,0,0,1,.29,1.66V37a1.94,1.94,0,0,1,0,.41.8.8,0,0,1-.2.23l-.31.4-.16.38a3.05,3.05,0,0,1-.68,1.15l-.06,0H42l-.39-.06a.79.79,0,0,0-.86.67,3.82,3.82,0,0,0,0,1.12l0,.73a2.52,2.52,0,0,1-1,1.71l-.39.18a1.57,1.57,0,0,0-.6.31l-.37.41a2.31,2.31,0,0,1-.5.49,10,10,0,0,1-1.44.67l-.06,0-.29.13a2.37,2.37,0,0,1-.74.24l-.45,0-.5,0a6.38,6.38,0,0,0-1,.14,3.35,3.35,0,0,1-1.55.06A2.18,2.18,0,0,1,31,46a.9.9,0,0,1-.35-.77l-.06-.47a7.47,7.47,0,0,0-1.1-2.32c-.39-.53-.22-1,0-1.58a4,4,0,0,0,.28-1.05,2.77,2.77,0,0,0-1-2.08L28.22,37a2.65,2.65,0,0,1-.44-1.11c0-.06,0-.11.1-.21a.85.85,0,0,0,.2-.57c0-.72-.77-.78-1.2-.82a1.91,1.91,0,0,1-.43-.07,1.26,1.26,0,0,1-.27-.34l-.2-.29a6,6,0,0,0-.9-.84,3.85,3.85,0,0,0-.87-.46l-.35-.15a1.4,1.4,0,0,0-1-.18,2.74,2.74,0,0,0-1,.63l-.34.28L20.13,33.9a3.36,3.36,0,0,0-.83,1l-.17.37a.92.92,0,0,1-.24.44l-.13.09a1.52,1.52,0,0,1,0-.32v-.21a1.28,1.28,0,0,0-.06-.46.62.62,0,0,0-.5-.39.37.37,0,0,1-.21-.08,1.06,1.06,0,0,1-.2-.37,1.31,1.31,0,0,0-.33-.55.22.22,0,0,1,.06.07l-.09-.14a.3.3,0,0,0-.31-.14c-.39.08-.64.54-.84.91l-.15.26a3.11,3.11,0,0,1-.65.75L15,35.3l-.4.2a1.42,1.42,0,0,0-.59.64l-.11.19c-.13.2-.23.21-.46.23a1.32,1.32,0,0,0-.7.2l-.3.27a.43.43,0,0,1-.2.17.92.92,0,0,1-.55-.07l-.24-.08a4.42,4.42,0,0,0-2,.06,4.2,4.2,0,0,1-2.15,0,6.25,6.25,0,0,0-1.42-.16l-.5,0c-1-.07-1.07-1.47-1.07-1.75l0-1.66-.1-.63-.09-.68a.36.36,0,0,1,0-.1s-.2-.59.64-1.34L5,30.46c.24-.2.37-.31.28-.52a.32.32,0,0,0-.37-.16c-.14,0-.2,0-.24-.07s.1-.32.17-.52a3.25,3.25,0,0,0,.27-1.72h0a1.74,1.74,0,0,1,.35-1.21l.18-.39a2.42,2.42,0,0,1,1-1.51l3-2.41.51-.47a3,3,0,0,1,1.45-.95l.18,0,.51-.08A2,2,0,0,0,13,19.9l.3-.29a1.78,1.78,0,0,1,.86-.33l.12,0a18.52,18.52,0,0,0,2.34-.62,21.38,21.38,0,0,1,2.35-.7,8.73,8.73,0,0,1,2-.15Z"/><path class="cls-7" d="M4.86,27.53c-.17-.79.5-1.49.52-1.69a2.66,2.66,0,0,1,1.14-1.7c1-.78,2-1.6,3-2.41.67-.55,1.28-1.37,2.11-1.48a4.2,4.2,0,0,0,.62-.08c.34-.14.6-.57.89-.79a2.23,2.23,0,0,1,1.09-.4,16.58,16.58,0,0,0,2.3-.61,23.32,23.32,0,0,1,2.38-.7,12.52,12.52,0,0,1,2.66-.17c1.19,0,2.35-.17,3.53-.15a9.51,9.51,0,0,1,1.68.13c1,.19,1.78.81,2.76,1,.56.1,1.12.19,1.68.31a2.5,2.5,0,0,1,1,.26c.36.24.68.51,1.05.76.88.6,1.52,1.5,2.36,2.2.54.44,1.29.73,1.8,1.15a6.46,6.46,0,0,0,1,.79,5,5,0,0,1,1.35.65,9.54,9.54,0,0,1,.86,1.31c.19.29.39.53.55.83s.23.59.37.88c.24.52.44.74.16,1.14s-.12.38.19.87a4.48,4.48,0,0,1,.32,1c.19.57.59,1.1.76,1.66a13.23,13.23,0,0,1,.3,1.78,22.94,22.94,0,0,1,.53,2.75,2.26,2.26,0,0,1,0,.69c-.09.25-.39.4-.51.65a4.53,4.53,0,0,1-.93,1.63c-.25.2-.33,0-.72,0a.51.51,0,0,0-.59.44,13.66,13.66,0,0,0,0,1.81A2.75,2.75,0,0,1,39.94,44c-.3.22-.7.23-1,.47s-.53.7-.92.93a11.35,11.35,0,0,1-1.53.72,3.64,3.64,0,0,1-1.12.39c-.31,0-.64-.07-1-.07-.95,0-1.64.44-2.67.2a2.55,2.55,0,0,1-.92-.45c-.54-.44-.39-.84-.51-1.4a6.84,6.84,0,0,0-1.06-2.21c-.72-1,.18-1.84.24-2.82.08-1.14-1-1.76-1.54-2.64a3,3,0,0,1-.49-1.27c0-.32.33-.44.31-.76-.05-.71-1.06-.46-1.47-.66-.23-.11-.39-.49-.57-.69a5.84,5.84,0,0,0-.85-.8,6.11,6.11,0,0,0-1.17-.59,1.22,1.22,0,0,0-.82-.16c-.41.1-.89.63-1.25.88s-.92.68-1.36,1a3.35,3.35,0,0,0-.77.87c-.16.28-.2.68-.47.89-.87.69-.52-.66-.65-1s-.38-.13-.64-.36-.29-.71-.53-.92l-.09-.15c-.35.07-.62.77-.81,1a3.17,3.17,0,0,1-.72.83c-.26.19-.56.26-.85.43s-.39.39-.6.74c-.35.56-.76.21-1.25.52-.24.15-.27.37-.56.47s-.66-.07-.95-.14a4.22,4.22,0,0,0-1.9.05,4.36,4.36,0,0,1-2.27,0,9.5,9.5,0,0,0-1.87-.17c-1-.06-1.34-1.11-1.34-2a14.85,14.85,0,0,0,0-1.64c0-.45-.19-.88-.2-1.33,0,0-.31-.74.73-1.65s.27-.13-.07-.66C4.27,29.57,5.06,28.42,4.86,27.53Z"/><path class="cls-3" d="M23.05,17.14l-1.52.08h-.59a9.18,9.18,0,0,0-2.14.17,23,23,0,0,0-2.4.71,16.19,16.19,0,0,1-2.26.6l-.11,0a2.38,2.38,0,0,0-1.1.43l-.37.37a1.49,1.49,0,0,1-.45.38l-.33.05-.23,0a3.35,3.35,0,0,0-1.76,1.1l-.49.45-3,2.4A2.83,2.83,0,0,0,5.1,25.81,1.58,1.58,0,0,0,5,26a2.58,2.58,0,0,0-.45,1.29,1.24,1.24,0,0,0,0,.33h0a2,2,0,0,1,0,.25A4,4,0,0,1,4.34,29a2.42,2.42,0,0,0-.2.74.51.51,0,0,0,.08.28.87.87,0,0,0,.22.21l-.1.09a2.1,2.1,0,0,0-.86,1.56,1.37,1.37,0,0,0,0,.34l.11.76.09.55,0,1.63c0,1.34.63,2.24,1.6,2.3l.52,0a6.16,6.16,0,0,1,1.3.15,4.62,4.62,0,0,0,2.4,0,4.14,4.14,0,0,1,1.77-.06l.2.06a1.35,1.35,0,0,0,.92.08,1.13,1.13,0,0,0,.45-.34l.16-.16a.88.88,0,0,1,.44-.12,1,1,0,0,0,.9-.49l.12-.2a.92.92,0,0,1,.38-.44l.35-.17.53-.28a3.31,3.31,0,0,0,.78-.9l.17-.3a4,4,0,0,1,.33-.52,1,1,0,0,1,.16.31,1.46,1.46,0,0,0,.35.58,1,1,0,0,0,.47.22l.09,0a.94.94,0,0,1,0,.27v.21c0,.36,0,.73.31.87a.74.74,0,0,0,.76-.2,1.37,1.37,0,0,0,.42-.69l.13-.28a3,3,0,0,1,.69-.8l1.35-1,.39-.31a2.49,2.49,0,0,1,.77-.52.94.94,0,0,1,.63.14l.37.16a3.54,3.54,0,0,1,.75.39,5.32,5.32,0,0,1,.81.76l.15.22a1.35,1.35,0,0,0,.51.55,1.77,1.77,0,0,0,.63.12c.53,0,.66.11.68.3h0s0,.09-.1.19a.87.87,0,0,0-.21.54h0a3.22,3.22,0,0,0,.53,1.42l.65.8a2.43,2.43,0,0,1,.85,1.57v.1a3.27,3.27,0,0,1-.24.89,3.08,3.08,0,0,0-.28,1.13,1.72,1.72,0,0,0,.33,1,6.28,6.28,0,0,1,1,2.11l.06.39a1.42,1.42,0,0,0,.55,1.16,2.89,2.89,0,0,0,1,.51,3.93,3.93,0,0,0,1.79-.06,5.73,5.73,0,0,1,1-.13l.41,0,.55,0a2.66,2.66,0,0,0,.94-.3l.27-.12.07,0a9.53,9.53,0,0,0,1.51-.72,2.63,2.63,0,0,0,.64-.6l.32-.36a1.42,1.42,0,0,1,.41-.2l.53-.25a3,3,0,0,0,1.21-2.13l0-.81a3.69,3.69,0,0,1,0-.95c0-.18.09-.23.31-.23l.26,0a.68.68,0,0,0,.64-.12,3.36,3.36,0,0,0,.85-1.38l.16-.36.19-.23a1.2,1.2,0,0,0,.33-.45.85.85,0,0,0,.05-.33,3,3,0,0,0,0-.31v-.15a9.23,9.23,0,0,0-.31-1.78l-.22-1-.08-.59a7.31,7.31,0,0,0-.22-1.24,6.46,6.46,0,0,0-.41-.89l-.36-.77-.09-.36a2.26,2.26,0,0,0-.26-.72L42,29.22,41.84,29a.83.83,0,0,0,.08-.12.88.88,0,0,0,.19-.53,1.42,1.42,0,0,0-.21-.65l-.11-.24-.15-.35-.23-.55L41.05,26l-.2-.28-.26-.42A4.86,4.86,0,0,0,40,24.4a2.52,2.52,0,0,0-1-.52l-.44-.19a3.39,3.39,0,0,1-.72-.52l-.27-.24a7.4,7.4,0,0,0-.91-.57,7.14,7.14,0,0,1-.89-.57,11,11,0,0,1-1-.95,10,10,0,0,0-1.4-1.27l-.49-.35-.56-.4a2,2,0,0,0-.84-.27l-.23,0-1-.19-.68-.12a5.77,5.77,0,0,1-1.35-.49,6.86,6.86,0,0,0-1.42-.51,9.36,9.36,0,0,0-1.73-.13C24.39,17.05,23.71,17.1,23.05,17.14Zm-1.51.65,1.55-.08c.64,0,1.31-.09,2-.08a10,10,0,0,1,1.62.13,6.17,6.17,0,0,1,1.3.47,6.42,6.42,0,0,0,1.47.53l.69.12,1,.18.26.05a1.67,1.67,0,0,1,.62.18l.53.38L33,20a8.62,8.62,0,0,1,1.31,1.2,12.16,12.16,0,0,0,1,1,6.56,6.56,0,0,0,1,.63,6.83,6.83,0,0,1,.82.51l.26.23a4.22,4.22,0,0,0,.83.6l.51.21a2.23,2.23,0,0,1,.77.39,4.34,4.34,0,0,1,.55.82l.27.45.21.3.33.5.2.48.16.39.12.25c.18.36.2.42.06.6a.68.68,0,0,0,0,.95l.16.24a1.5,1.5,0,0,1,.18.54l.11.42.4.86a6,6,0,0,1,.36.79,6.77,6.77,0,0,1,.21,1.14l.08.61.23,1a9,9,0,0,1,.29,1.66V37a1.94,1.94,0,0,1,0,.41.8.8,0,0,1-.2.23l-.31.4-.16.38a3.05,3.05,0,0,1-.68,1.15l-.06,0H42l-.39-.06a.79.79,0,0,0-.86.67,3.82,3.82,0,0,0,0,1.12l0,.73a2.52,2.52,0,0,1-1,1.71l-.39.18a1.57,1.57,0,0,0-.6.31l-.37.41a2.31,2.31,0,0,1-.5.49,10,10,0,0,1-1.44.67l-.06,0-.29.13a2.37,2.37,0,0,1-.74.24l-.45,0-.5,0a6.38,6.38,0,0,0-1,.14,3.35,3.35,0,0,1-1.55.06A2.18,2.18,0,0,1,31,46a.9.9,0,0,1-.35-.77l-.06-.47a7.47,7.47,0,0,0-1.1-2.32c-.39-.53-.22-1,0-1.58a4,4,0,0,0,.28-1.05,2.77,2.77,0,0,0-1-2.08L28.22,37a2.65,2.65,0,0,1-.44-1.11c0-.06,0-.11.1-.21a.85.85,0,0,0,.2-.57c0-.72-.77-.78-1.2-.82a1.91,1.91,0,0,1-.43-.07,1.26,1.26,0,0,1-.27-.34l-.2-.29a6,6,0,0,0-.9-.84,3.85,3.85,0,0,0-.87-.46l-.35-.15a1.4,1.4,0,0,0-1-.18,2.74,2.74,0,0,0-1,.63l-.34.28L20.13,33.9a3.36,3.36,0,0,0-.83,1l-.17.37a.92.92,0,0,1-.24.44l-.13.09a1.52,1.52,0,0,1,0-.32v-.21a1.28,1.28,0,0,0-.06-.46.62.62,0,0,0-.5-.39.37.37,0,0,1-.21-.08,1.06,1.06,0,0,1-.2-.37,1.31,1.31,0,0,0-.33-.55.22.22,0,0,1,.06.07l-.09-.14a.3.3,0,0,0-.31-.14c-.39.08-.64.54-.84.91l-.15.26a3.11,3.11,0,0,1-.65.75L15,35.3l-.4.2a1.42,1.42,0,0,0-.59.64l-.11.19c-.13.2-.23.21-.46.23a1.32,1.32,0,0,0-.7.2l-.3.27a.43.43,0,0,1-.2.17.92.92,0,0,1-.55-.07l-.24-.08a4.42,4.42,0,0,0-2,.06,4.2,4.2,0,0,1-2.15,0,6.25,6.25,0,0,0-1.42-.16l-.5,0c-1-.07-1.07-1.47-1.07-1.75l0-1.66-.1-.63-.09-.68a.36.36,0,0,1,0-.1s-.2-.59.64-1.34L5,30.46c.24-.2.37-.31.28-.52a.32.32,0,0,0-.37-.16c-.14,0-.2,0-.24-.07s.1-.32.17-.52a3.25,3.25,0,0,0,.27-1.72h0a1.74,1.74,0,0,1,.35-1.21l.18-.39a2.42,2.42,0,0,1,1-1.51l3-2.41.51-.47a3,3,0,0,1,1.45-.95l.18,0,.51-.08A2,2,0,0,0,13,19.9l.3-.29a1.78,1.78,0,0,1,.86-.33l.12,0a18.52,18.52,0,0,0,2.34-.62,21.38,21.38,0,0,1,2.35-.7,8.73,8.73,0,0,1,2-.15Z"/><path class="cls-3" d="M13.27,24.52c-2.52.46-4.53,3-4.23,5.32a12.49,12.49,0,0,0,.41,1.78,8.22,8.22,0,0,1,.43,2.76c-.08,1.28-.8,1.79-1.8,2.5l-.62.46.23.3.61-.45c1-.71,1.86-1.33,2-2.79a8.4,8.4,0,0,0-.44-2.88,12.1,12.1,0,0,1-.4-1.73,4.81,4.81,0,0,1,3.92-4.9c.9-.18,2.43-.26,2.95.26a.67.67,0,0,1,.16.67l.37.07a1.06,1.06,0,0,0-.26-1C15.71,24,13.37,24.5,13.27,24.52Z"/><path class="cls-3" d="M14.65,23a2,2,0,0,0-.23,1.59l.37-.11A1.61,1.61,0,0,1,15,23.14a2.65,2.65,0,0,1,1.63-1.23l-.09-.37A3.1,3.1,0,0,0,14.65,23Z"/><path class="cls-3" d="M13.1,33l.1.18c.48.85,1.39,2.45,2.41,2.33l0-.37c-.77.09-1.66-1.48-2-2.15l-.1-.18a8.3,8.3,0,0,1-1-4.62H12A8.66,8.66,0,0,0,13.1,33Z"/><path class="cls-3" d="M19,23.14a1.88,1.88,0,0,1,.84,1.59,3,3,0,0,1-1.15,2.4c-1,.72-2.61.31-3.77-.33l-.19.33c1.27.69,3,1.13,4.18.3a3.25,3.25,0,0,0,1.3-2.71,2.21,2.21,0,0,0-1-1.9Z"/><path class="cls-3" d="M18.8,27.65a.22.22,0,0,1,.19.13,1,1,0,0,1,0,.8,1.76,1.76,0,0,1-1,.69l-.65.28a3.94,3.94,0,0,0-1.81,2.57,2.4,2.4,0,0,0,.31,2,1.2,1.2,0,0,0,.42.32l.33.21.25-.3-.41-.26a.64.64,0,0,1-.29-.21,2.08,2.08,0,0,1-.24-1.72,3.55,3.55,0,0,1,1.64-2.3l.58-.26a2,2,0,0,0,1.25-.87,1.35,1.35,0,0,0,0-1.16.59.59,0,0,0-.5-.31Z"/><path class="cls-3" d="M6.16,24.28a6.5,6.5,0,0,1,.42,1.17c.29.95.61,2,1.43,2.46A2.05,2.05,0,0,0,9.64,28l-.11-.36a1.72,1.72,0,0,1-1.35,0c-.68-.36-1-1.36-1.24-2.24a6.78,6.78,0,0,0-.45-1.24Z"/><path class="cls-3" d="M7.8,32.48a1.23,1.23,0,0,1-.59,1.06A4.35,4.35,0,0,1,4,34.08l-.13.35a4.71,4.71,0,0,0,3.59-.58,1.6,1.6,0,0,0,.73-1.39Z"/><path class="cls-3" d="M6.35,34.09,6.71,34c-.45-1.48-.19-4.25,1.25-5.4l-.23-.3C6.1,29.58,5.88,32.54,6.35,34.09Z"/><path class="cls-3" d="M20.8,20.58A4.1,4.1,0,0,0,22.16,23a7.08,7.08,0,0,1,1,1.21l0,0a10.39,10.39,0,0,1,1.12,2.36,7.88,7.88,0,0,1,.19,2.28v.65c0,.89-.21,2.43-1,2.48l0,.38c1.32-.09,1.38-2.4,1.37-2.87v-.63a8.47,8.47,0,0,0-.2-2.39,11,11,0,0,0-1.16-2.45l0-.05a7.13,7.13,0,0,0-1-1.27,3.71,3.71,0,0,1-1.26-2.17,5,5,0,0,1,1.13-3l-.26-.28A5.31,5.31,0,0,0,20.8,20.58Z"/><path class="cls-3" d="M20.85,20.61l.28.25c.71-.8,2.42-1.81,3.49-1.56a1.19,1.19,0,0,1,.89.94l.09.57a1.57,1.57,0,0,0,.78,1.44,2.73,2.73,0,0,0,1.7,0c1.22-.28,1.41-1,1.66-2l-.37-.09c-.24,1-.38,1.5-1.37,1.72a2.36,2.36,0,0,1-1.44,0c-.5-.27-.53-.66-.59-1.15l-.1-.63a1.56,1.56,0,0,0-1.16-1.21C23.44,18.64,21.62,19.74,20.85,20.61Z"/><path class="cls-3" d="M26.35,28.15a2.85,2.85,0,0,1-1.3.15h-.33v.38H25a3.34,3.34,0,0,0,1.46-.18,3.53,3.53,0,0,0,2.07-2.75h-.38A3.13,3.13,0,0,1,26.35,28.15Z"/><path class="cls-3" d="M28.49,26a2.84,2.84,0,0,0,2.91-1.18l-.31-.22a2.48,2.48,0,0,1-2.55,1c-.77-.11-1.87-.9-1.81-1.78l-.38,0C26.28,24.89,27.59,25.82,28.49,26Z"/><path class="cls-3" d="M20,31.35c.18.92.67,1.93,1.35,1.95l0-.37c-.39,0-.82-.74-1-1.65-.14-.74-.09-1.57.35-1.76l-.15-.35C19.89,29.47,19.82,30.49,20,31.35Z"/><path class="cls-3" d="M32.67,19.67l-.07,2.66a4.29,4.29,0,0,0,1.26,2.77l.11.14a5.71,5.71,0,0,1,1.12,4.07,1.89,1.89,0,0,1-.9,1.33,3,3,0,0,1-1.74.06l-.71-.09a3.05,3.05,0,0,0-2.73,1,7.55,7.55,0,0,1-.86.76c-.8.65-1.56,1.26-1,2.52l.35-.15c-.44-1,.09-1.43.9-2.08a10.39,10.39,0,0,0,.9-.79A2.67,2.67,0,0,1,31.72,31l.67.08a3.17,3.17,0,0,0,2-.1,2.27,2.27,0,0,0,1.09-1.59A6,6,0,0,0,34.27,25l-.11-.15A3.91,3.91,0,0,1,33,22.32l.07-2.66Z"/><path class="cls-3" d="M35.42,29.3a5.21,5.21,0,0,1,4.84,5.22h.37a5.58,5.58,0,0,0-5.16-5.61Z"/><path class="cls-3" d="M39.25,35.33a2.94,2.94,0,0,1-.66,1l.25.29a3.29,3.29,0,0,0,.75-1.09c.3-.63.5-1,1.5-.93a1.24,1.24,0,0,1,1.24.87l.17.4c.21.55.5,1.3,1.26,1.27v-.38c-.46,0-.66-.41-.9-1l-.18-.44a1.87,1.87,0,0,0-3.42.06Z"/><path class="cls-3" d="M31.08,31.13A3.75,3.75,0,0,1,32.7,32l.15.11a3.18,3.18,0,0,1,1.4,3.5,4.3,4.3,0,0,1-1.08,2.6l-.47.42a2.66,2.66,0,0,0-.93,1.2c-.28.75-1.25,5-.25,6.45a1.07,1.07,0,0,0,.91.52v-.38a.71.71,0,0,1-.61-.35c-.86-1.27,0-5.27.29-6.11a2.34,2.34,0,0,1,.82-1l.5-.45a4.54,4.54,0,0,0,1.18-2.82,3.57,3.57,0,0,0-1.55-3.85l-.15-.11a3.88,3.88,0,0,0-1.79-.89Z"/><path class="cls-3" d="M37.59,38.23a.45.45,0,0,1,.12.41c-.09.32-.7.57-1.2.77a2.63,2.63,0,0,0-.88.46c-.6.6-.45,2-.37,2.79s.41,2.73,1.09,3.45l.28-.26a7.4,7.4,0,0,1-1-3.23c-.07-.65-.21-2,.27-2.49a2.77,2.77,0,0,1,.74-.37c.6-.24,1.29-.51,1.43-1a.85.85,0,0,0-.19-.75Z"/><path class="cls-3" d="M36.1,35.57l.11.55a2.48,2.48,0,0,0,1.29,2.06,3.65,3.65,0,0,0,3.53.26l-.19-.33a3.23,3.23,0,0,1-3.15-.26,2.13,2.13,0,0,1-1.11-1.8l-.12-.57Z"/><path class="cls-3" d="M33.22,38.31l.12-.36c-1.43-.47-2.07-2.43-2-3.67l-.38,0C30.89,35.56,31.53,37.75,33.22,38.31Z"/><path class="cls-3" d="M36.23,24.53a2.1,2.1,0,0,1-.56,1.7.93.93,0,0,1-.88.17l-.09.37a1.32,1.32,0,0,0,1.22-.25,2.52,2.52,0,0,0,.69-2Z"/><path class="cls-3" d="M31.82,27.89a2.14,2.14,0,0,0,.42,1.59c.48.58,1.5,1.5,2.28,1.24l-.11-.36c-.55.18-1.44-.59-1.88-1.12a1.78,1.78,0,0,1-.33-1.34v-.26h-.38Z"/><path class="cls-3" d="M32.28,41.94a4.11,4.11,0,0,0,3.42,1.89l0-.38c-1.53-.21-2.28-.44-3.16-1.72Z"/><path class="cls-2" d="M15.05,44.33a5.76,5.76,0,0,1-.78,3.18,2.57,2.57,0,0,1-2.3,1.2V47.28c1,0,1.52-1,1.52-3H12V41.24h3.08Z"/><path class="cls-2" d="M26.52,44.33a5.76,5.76,0,0,1-.78,3.18,2.59,2.59,0,0,1-2.31,1.2V47.28c1,0,1.52-1,1.52-3H23.43V41.24h3.09Z"/><path class="cls-2" d="M19.35,56.4l-4.23-2.47-.58,1,4.54,2.65a.57.57,0,0,0,.6,0l6.05-4-.62-1Z"/><path class="cls-3" d="M51.19,37.47l3.2-.16a3.64,3.64,0,0,0,.53,2.06,3.51,3.51,0,0,0,2.75.87,3.83,3.83,0,0,0,2.4-.59,1.76,1.76,0,0,0,.74-1.43,1.53,1.53,0,0,0-.6-1.23,11.66,11.66,0,0,0-2.35-1.2,22,22,0,0,1-2.8-1.38A4.08,4.08,0,0,1,53.67,33a4,4,0,0,1-.5-2.06,4.46,4.46,0,0,1,1.5-3.44A6.21,6.21,0,0,1,59,26.11a6.7,6.7,0,0,1,4.47,1.35,5,5,0,0,1,1.74,3.59L62,31.2a2.58,2.58,0,0,0-.86-1.8A4.18,4.18,0,0,0,57,29.26a1.52,1.52,0,0,0-.61,1.24,1.49,1.49,0,0,0,.55,1.17A11.39,11.39,0,0,0,59.36,33a13.5,13.5,0,0,1,3.61,2,3.8,3.8,0,0,1,1.15,2.87,4.82,4.82,0,0,1-1.71,3.71A7,7,0,0,1,57.63,43a8.84,8.84,0,0,1-3.67-.7,4.37,4.37,0,0,1-2.18-2A5.92,5.92,0,0,1,51.19,37.47Z"/><path class="cls-6" d="M68.29,30.89h3L71,32.32a5.29,5.29,0,0,1,3.71-1.7,3.32,3.32,0,0,1,2.06.55,2.47,2.47,0,0,1,.93,1.54,4.84,4.84,0,0,1,1.76-1.49,5.14,5.14,0,0,1,2.4-.6,3.06,3.06,0,0,1,2.21.76,2.68,2.68,0,0,1,.79,2,12.4,12.4,0,0,1-.36,2.11L83,42.74H79.81l1.52-7.23c.18-.9.29-1.41.32-1.54a1,1,0,0,0-.3-.78,1.26,1.26,0,0,0-.9-.29,2.69,2.69,0,0,0-2.16,1.26,8.6,8.6,0,0,0-1.18,3.21L76,42.74H72.82l1.49-7.16A10.89,10.89,0,0,0,74.57,34a1,1,0,0,0-.32-.77,1.25,1.25,0,0,0-.88-.3,2.32,2.32,0,0,0-1.09.31,3.24,3.24,0,0,0-1,.86,5.16,5.16,0,0,0-.72,1.41c-.09.27-.25.87-.46,1.82L69,42.74H65.82Z"/><path class="cls-6" d="M90.75,34.23,87.64,34A4.77,4.77,0,0,1,89.5,31.5a6.2,6.2,0,0,1,3.5-.88,5.09,5.09,0,0,1,3.36.92,2.83,2.83,0,0,1,1.08,2.24,7.7,7.7,0,0,1-.09,1.14c-.07.4-.29,1.46-.67,3.17a16.5,16.5,0,0,0-.47,3,6.1,6.1,0,0,0,.27,1.69H93.41a6,6,0,0,1-.27-1.34,5.1,5.1,0,0,1-1.61,1.21,4.23,4.23,0,0,1-1.84.43,3.29,3.29,0,0,1-2.42-1,3.4,3.4,0,0,1-1-2.49,3.59,3.59,0,0,1,1-2.71,6.12,6.12,0,0,1,3.76-1.23,15,15,0,0,0,3-.46,4.17,4.17,0,0,0,.2-1.08,1.09,1.09,0,0,0-.41-.86,1.82,1.82,0,0,0-1.21-.35,2.26,2.26,0,0,0-1.33.35A1.73,1.73,0,0,0,90.75,34.23Zm3,3a4.41,4.41,0,0,1-.76.15,7.2,7.2,0,0,0-3.14.86,1.32,1.32,0,0,0-.52,1.1,1.27,1.27,0,0,0,.4.95,1.43,1.43,0,0,0,1,.39,2.85,2.85,0,0,0,1.37-.35,2.48,2.48,0,0,0,1-.92,6.28,6.28,0,0,0,.56-1.75Z"/><path class="cls-6" d="M101.21,30.89h3l-.47,2.28c1.1-1.7,2.31-2.55,3.6-2.55a3.63,3.63,0,0,1,1.47.34l-1.23,2.61a2.83,2.83,0,0,0-.93-.15A2.87,2.87,0,0,0,105,34a4.28,4.28,0,0,0-1.34,1.67,16.52,16.52,0,0,0-1,3.31l-.76,3.72H98.73Z"/><path class="cls-6" d="M108.57,33.28l.48-2.39h1.59L111,29l3.67-2.22-.84,4.1h1.88l-.48,2.39h-1.9l-1.06,5a14.23,14.23,0,0,0-.28,1.54.75.75,0,0,0,.23.58,1.27,1.27,0,0,0,.82.2c.14,0,.48,0,1-.07l-.51,2.35a7.85,7.85,0,0,1-1.68.17,3.69,3.69,0,0,1-2.44-.66,2.29,2.29,0,0,1-.76-1.83,15.81,15.81,0,0,1,.43-2.51l1-4.76Z"/><path class="cls-3" d="M118.8,42.74h-3.38l3.41-16.32h7.26a8.6,8.6,0,0,1,2.91.38,3.35,3.35,0,0,1,1.69,1.41,4.64,4.64,0,0,1,.64,2.48,4.86,4.86,0,0,1-1.25,3.43,5.93,5.93,0,0,1-3.77,1.68,6.49,6.49,0,0,1,1.21,1.53A39.41,39.41,0,0,1,130,42.74h-3.62c-.29-.93-.85-2.36-1.7-4.32a5.07,5.07,0,0,0-1.46-2.12,3.12,3.12,0,0,0-1.67-.32h-1.37Zm1.93-9.22h1.78a12.91,12.91,0,0,0,3.59-.32,2.87,2.87,0,0,0,1.38-1,2.45,2.45,0,0,0,.5-1.45,1.47,1.47,0,0,0-.72-1.33,4.59,4.59,0,0,0-1.93-.26h-3.69Z"/><path class="cls-6" d="M143.35,37.82h-8c0,.13,0,.22,0,.29A2.72,2.72,0,0,0,136,40a2.15,2.15,0,0,0,1.64.72,2.74,2.74,0,0,0,2.48-1.63l2.87.47a6,6,0,0,1-2.23,2.59,5.93,5.93,0,0,1-3.14.86,5.21,5.21,0,0,1-3.87-1.51,5.49,5.49,0,0,1-1.49-4,7.28,7.28,0,0,1,1.35-4.33,6,6,0,0,1,5.23-2.57A4.51,4.51,0,0,1,142.3,32a5.26,5.26,0,0,1,1.28,3.77A8.92,8.92,0,0,1,143.35,37.82Zm-2.68-2c0-.14,0-.25,0-.32a2.89,2.89,0,0,0-.59-2,2,2,0,0,0-1.58-.66,2.53,2.53,0,0,0-1.78.75,4.06,4.06,0,0,0-1.06,2.22Z"/><path class="cls-6" d="M149.1,34.23,146,34a4.76,4.76,0,0,1,1.85-2.47,6.23,6.23,0,0,1,3.51-.88,5.11,5.11,0,0,1,3.36.92,2.83,2.83,0,0,1,1.08,2.24,6.6,6.6,0,0,1-.1,1.14c-.06.4-.28,1.46-.66,3.17a16.5,16.5,0,0,0-.47,3,6.1,6.1,0,0,0,.27,1.69h-3.07a5.06,5.06,0,0,1-.27-1.34,5.21,5.21,0,0,1-1.61,1.21A4.23,4.23,0,0,1,148,43a3.25,3.25,0,0,1-2.42-1,3.4,3.4,0,0,1-1-2.49,3.59,3.59,0,0,1,1.05-2.71,6.08,6.08,0,0,1,3.76-1.23,15.1,15.1,0,0,0,3.05-.46,4.17,4.17,0,0,0,.2-1.08,1.09,1.09,0,0,0-.41-.86,1.84,1.84,0,0,0-1.21-.35,2.29,2.29,0,0,0-1.34.35A1.76,1.76,0,0,0,149.1,34.23Zm3,3a4.55,4.55,0,0,1-.77.15,7.19,7.19,0,0,0-3.13.86,1.32,1.32,0,0,0-.53,1.1,1.31,1.31,0,0,0,.4.95,1.46,1.46,0,0,0,1.06.39,2.81,2.81,0,0,0,1.36-.35,2.44,2.44,0,0,0,1-.92,6.28,6.28,0,0,0,.56-1.75Z"/><path class="cls-6" d="M168.17,42.74h-3l.26-1.26a5.83,5.83,0,0,1-1.71,1.2,4.8,4.8,0,0,1-1.9.36,3.87,3.87,0,0,1-3-1.25,5.38,5.38,0,0,1-1.14-3.72,8.67,8.67,0,0,1,1.63-5.15,5,5,0,0,1,4.31-2.3,4,4,0,0,1,3.64,1.92l1.31-6.12h3.17ZM160.77,38a2.82,2.82,0,0,0,.65,2,2,2,0,0,0,1.59.71,2.67,2.67,0,0,0,1.65-.59,4.17,4.17,0,0,0,1.22-1.83,6.83,6.83,0,0,0,.45-2.36,3,3,0,0,0-.7-2.07A2.09,2.09,0,0,0,164,33a2.7,2.7,0,0,0-2.34,1.57A6.57,6.57,0,0,0,160.77,38Z"/><path class="cls-6" d="M173.67,30.89h3.17l-2.48,11.85h-3.17Zm.93-4.47h3.18l-.6,2.86H174Z"/><path class="cls-6" d="M180,30.89h3l-.31,1.56A8.41,8.41,0,0,1,184.92,31a5.15,5.15,0,0,1,2.1-.42,3.17,3.17,0,0,1,2.33.84,3,3,0,0,1,.86,2.25,16.83,16.83,0,0,1-.42,2.34l-1.44,6.69h-3.17l1.43-6.7c.21-1,.33-1.61.35-1.8a1.32,1.32,0,0,0-.37-1,1.43,1.43,0,0,0-1-.36,2.93,2.93,0,0,0-1.59.59,4.15,4.15,0,0,0-1.38,1.56,12,12,0,0,0-.85,2.82l-1,4.87h-3.18Z"/><path class="cls-6" d="M191.33,43.38l3.39.49a1.47,1.47,0,0,0,.16.77,1.25,1.25,0,0,0,.53.44,2.24,2.24,0,0,0,1,.18,3.11,3.11,0,0,0,1.72-.41,2.23,2.23,0,0,0,.8-1,13.08,13.08,0,0,0,.48-1.93l.11-.55a5.7,5.7,0,0,1-3.59,1.39,3.64,3.64,0,0,1-2.83-1.23,5.17,5.17,0,0,1-1.1-3.57,9.45,9.45,0,0,1,.75-3.81,5.84,5.84,0,0,1,2.11-2.63,5,5,0,0,1,2.78-.88,3.81,3.81,0,0,1,2.13.62A4.06,4.06,0,0,1,201.27,33l.43-2.08h3l-1.88,9.83a33.9,33.9,0,0,1-.86,3.42,6.09,6.09,0,0,1-.81,1.62,3.66,3.66,0,0,1-1.15,1,5.06,5.06,0,0,1-1.63.59,10.91,10.91,0,0,1-2,.18,6.86,6.86,0,0,1-3.76-.85,3.19,3.19,0,0,1-1.27-2.85A4.09,4.09,0,0,1,191.33,43.38Zm3.76-5.78a3,3,0,0,0,.61,2,1.88,1.88,0,0,0,1.5.7,2.57,2.57,0,0,0,1.65-.63,3.89,3.89,0,0,0,1.22-1.79,6.55,6.55,0,0,0,.42-2.24,2.87,2.87,0,0,0-.69-2,2.15,2.15,0,0,0-1.62-.77,2.25,2.25,0,0,0-1.56.68,5,5,0,0,0-1.17,2.08A6.23,6.23,0,0,0,195.09,37.6Z"/><path class="cls-6" d="M208.14,36.35h6.11l-.64,3H207.5Z"/><path class="cls-3" d="M224.29,43.66h-3.14l-.58-13.44L218,43.66h-3l3.35-16.08h4.72l.5,11.27,5.48-11.27h4.77l-3.36,16.08h-3l3.17-13.34Z"/><path class="cls-6" d="M238.18,35.31l-3.07-.26a4.59,4.59,0,0,1,1.83-2.43,6.13,6.13,0,0,1,3.48-.88,5.1,5.1,0,0,1,3.32.9,2.78,2.78,0,0,1,1.07,2.21,7.34,7.34,0,0,1-.09,1.12c-.06.4-.28,1.44-.65,3.12a15.69,15.69,0,0,0-.46,2.92,6.17,6.17,0,0,0,.26,1.65h-3.06a6.3,6.3,0,0,1-.23-1.31A4.92,4.92,0,0,1,239,43.53a4.37,4.37,0,0,1-1.81.41,3.23,3.23,0,0,1-2.39-.95,3.32,3.32,0,0,1-.95-2.44,3.55,3.55,0,0,1,1-2.67,6.08,6.08,0,0,1,3.7-1.21,15,15,0,0,0,3-.44,4,4,0,0,0,.2-1.06,1.06,1.06,0,0,0-.41-.84,1.82,1.82,0,0,0-1.21-.34,2.28,2.28,0,0,0-1.33.34A1.71,1.71,0,0,0,238.18,35.31Zm3,2.92a5.78,5.78,0,0,1-.75.15,7.16,7.16,0,0,0-3.1.83,1.27,1.27,0,0,0-.51,1.06,1.24,1.24,0,0,0,.39.93,1.45,1.45,0,0,0,1,.38,2.77,2.77,0,0,0,1.35-.35,2.31,2.31,0,0,0,.94-.89,6.2,6.2,0,0,0,.56-1.69Z"/><path class="cls-6" d="M248.71,32h3l-.3,1.52a7.81,7.81,0,0,1,2.09-1.38,5.23,5.23,0,0,1,2-.41,3.07,3.07,0,0,1,2.27.82,3,3,0,0,1,.83,2.18,13.22,13.22,0,0,1-.37,2.33l-1.37,6.59h-3.15l1.39-6.61a14.94,14.94,0,0,0,.3-1.77,1.25,1.25,0,0,0-.35-1,1.37,1.37,0,0,0-1-.34,2.77,2.77,0,0,0-1.54.58,4.11,4.11,0,0,0-1.33,1.53,13.22,13.22,0,0,0-.79,2.78l-1,4.78h-3.14Z"/><path class="cls-6" d="M270.72,43.66h-3L268,42.4a5.72,5.72,0,0,1-1.69,1.18,4.62,4.62,0,0,1-1.87.36,3.77,3.77,0,0,1-2.93-1.24,5.22,5.22,0,0,1-1.13-3.64A8.63,8.63,0,0,1,262,34a4.88,4.88,0,0,1,4.18-2.26,3.91,3.91,0,0,1,3.53,1.86l1.26-6h3.15Zm-7.28-4.74a2.79,2.79,0,0,0,.64,2,2,2,0,0,0,1.55.7,2.51,2.51,0,0,0,1.59-.59,4,4,0,0,0,1.19-1.79,6.64,6.64,0,0,0,.44-2.32,3,3,0,0,0-.68-2,2,2,0,0,0-1.56-.78,2.63,2.63,0,0,0-2.28,1.54A6.53,6.53,0,0,0,263.44,38.92Z"/><path class="cls-6" d="M278.12,35.31l-3.07-.26a4.6,4.6,0,0,1,1.84-2.43,6.09,6.09,0,0,1,3.47-.88,5.13,5.13,0,0,1,3.33.9,2.81,2.81,0,0,1,1.07,2.21,7.34,7.34,0,0,1-.09,1.12c-.06.4-.28,1.44-.65,3.12a15.69,15.69,0,0,0-.46,2.92,5.8,5.8,0,0,0,.26,1.65h-3.06a5.71,5.71,0,0,1-.23-1.31,4.92,4.92,0,0,1-1.59,1.18,4.41,4.41,0,0,1-1.81.41,3.22,3.22,0,0,1-2.39-.95,3.32,3.32,0,0,1-.95-2.44,3.55,3.55,0,0,1,1-2.67,6.06,6.06,0,0,1,3.7-1.21,15.13,15.13,0,0,0,3-.44,4,4,0,0,0,.19-1.06,1,1,0,0,0-.4-.84,1.82,1.82,0,0,0-1.21-.34,2.26,2.26,0,0,0-1.33.34A1.73,1.73,0,0,0,278.12,35.31Zm3,2.92a5.64,5.64,0,0,1-.76.15,7.11,7.11,0,0,0-3.09.83,1.28,1.28,0,0,0-.52,1.06,1.21,1.21,0,0,0,.4.93,1.45,1.45,0,0,0,1,.38,2.8,2.8,0,0,0,1.35-.35,2.31,2.31,0,0,0,.94-.89,5.92,5.92,0,0,0,.55-1.69Z"/><path class="cls-6" d="M288.44,32h2.94l-.47,2.26q1.63-2.54,3.56-2.53a3.59,3.59,0,0,1,1.46.34l-1.21,2.58a2.49,2.49,0,0,0-.91-.16,2.81,2.81,0,0,0-1.65.62,4.12,4.12,0,0,0-1.31,1.64,16.63,16.63,0,0,0-.93,3.25l-.77,3.65H286Z"/><path class="cls-6" d="M297.36,32h3.15l-2.44,11.65h-3.15Zm.92-4.43h3.15l-.59,2.85h-3.15Z"/><path class="cls-6" d="M303.64,32h3l-.31,1.52a8,8,0,0,1,2.09-1.38,5.28,5.28,0,0,1,2-.41,3,3,0,0,1,2.26.82,2.92,2.92,0,0,1,.83,2.18,13.91,13.91,0,0,1-.36,2.33l-1.37,6.59h-3.15l1.38-6.61a13.8,13.8,0,0,0,.31-1.77,1.26,1.26,0,0,0-.36-1,1.37,1.37,0,0,0-1-.34,2.8,2.8,0,0,0-1.54.58,4.08,4.08,0,0,0-1.32,1.53,12.62,12.62,0,0,0-.79,2.78l-1,4.78h-3.15Z"/><path class="cls-8" d="M208.64,48.3a2.7,2.7,0,1,1-2.7-2.69A2.7,2.7,0,0,1,208.64,48.3Zm-2.7-3.15a3.15,3.15,0,1,0,3.15,3.15A3.15,3.15,0,0,0,205.94,45.15Z"/><path class="cls-8" d="M204.54,50.14V46.46h1.63a2.08,2.08,0,0,1,.75.1.77.77,0,0,1,.41.35,1,1,0,0,1,.16.56.93.93,0,0,1-.26.66,1.29,1.29,0,0,1-.78.34,1.22,1.22,0,0,1,.29.18,2.5,2.5,0,0,1,.4.49l.64,1h-.61l-.48-.76c-.15-.22-.26-.39-.36-.51a1.16,1.16,0,0,0-.24-.25.73.73,0,0,0-.23-.09.91.91,0,0,0-.27,0H205v1.63Zm.49-2h1a1.78,1.78,0,0,0,.53-.07.56.56,0,0,0,.29-.23.64.64,0,0,0,.1-.33.57.57,0,0,0-.19-.43.93.93,0,0,0-.61-.17H205Z"/></g></g></g></svg>