<?xml version="1.0" encoding="utf-8"?>
<!-- Generator: Adobe Illustrator 25.4.1, SVG Export Plug-In . SVG Version: 6.00 Build 0)  -->
<svg version="1.1" id="圖層_1" xmlns="http://www.w3.org/2000/svg" xmlns:xlink="http://www.w3.org/1999/xlink" x="0px" y="0px"
	 viewBox="0 0 435.3 100.8" style="enable-background:new 0 0 435.3 100.8;" xml:space="preserve">
<style type="text/css">
	.st0{fill:#F8BC00;}
	.st1{fill:#FCD776;}
	.st2{fill:#FDE5A7;}
	.st3{fill:#FFF3D6;}
	.st4{fill:#EB5E00;}
	.st5{fill:url(#SVGID_1_);}
	.st6{fill:url(#SVGID_00000000924326252894127390000010342900043654205603_);}
	.st7{fill:url(#SVGID_00000023282401396209822780000000663107754218543747_);}
	.st8{fill:#0B5596;}
</style>
<g>
	<g>
		<g>
			<path class="st0" d="M43.7,51.2c4-1.1,8.1-1.9,12.2-2.3c0-12,0-24,0-36c-4.1-1.4-8.2-2.1-12.2-2.2C43.7,24.1,43.7,37.7,43.7,51.2
				z"/>
			<path class="st1" d="M60.4,48.6c4.2-0.1,8.3,0.1,12.5,0.7c0-9.1,0-18.1,0-27.2c-4.2-3.1-8.4-5.6-12.5-7.4
				C60.4,25.9,60.4,37.3,60.4,48.6z"/>
			<path class="st2" d="M77.4,50c4.2,0.8,8.4,2,12.5,3.6c0-5.1,0-10.2,0-15.3c-4.2-4.8-8.3-9.1-12.5-12.6
				C77.4,33.8,77.4,41.9,77.4,50z"/>
			<path class="st3" d="M94.4,43.7c0,3.9,0,7.8,0,11.7c4.1,1.8,8.2,4,12.2,6.5c0-0.1,0-0.3,0-0.4C102.6,55,98.5,49,94.4,43.7z"/>
		</g>
		<g>
			<path class="st4" d="M82.7,64.6C61.4,72.9,38,85,18.8,100.8c25.8-20,59.3-32.5,85.1-37.5c-8.1-3.2-17-7.2-26.2-7.9
				C79.4,57.7,81,62.1,82.7,64.6z"/>
		</g>
		<g>
			<radialGradient id="SVGID_1_" cx="42.879" cy="-18.3305" r="101.6139" gradientUnits="userSpaceOnUse">
				<stop  offset="0" style="stop-color:#00AFEC"/>
				<stop  offset="1" style="stop-color:#00428D"/>
			</radialGradient>
			<path class="st5" d="M31.5,37.5c0-11.5,0-23,0-34.4C23.8-0.8,15.4-1,7.7,2.5c0,12.5,0,24.9,0,37.4C15.4,36.4,23.8,35.6,31.5,37.5
				z"/>
			
				<radialGradient id="SVGID_00000166663423670308298010000014830579074697888161_" cx="42.9132" cy="-18.3283" r="101.6138" gradientUnits="userSpaceOnUse">
				<stop  offset="0" style="stop-color:#00AFEC"/>
				<stop  offset="1" style="stop-color:#00428D"/>
			</radialGradient>
			<path style="fill:url(#SVGID_00000166663423670308298010000014830579074697888161_);" d="M37.9,80C37.9,80,37.9,80,37.9,80
				C37.9,80,37.9,80,37.9,80z"/>
			
				<radialGradient id="SVGID_00000010286831186090607890000004730998314983212684_" cx="42.879" cy="-18.331" r="101.6142" gradientUnits="userSpaceOnUse">
				<stop  offset="0" style="stop-color:#00AFEC"/>
				<stop  offset="1" style="stop-color:#00428D"/>
			</radialGradient>
			<path style="fill:url(#SVGID_00000010286831186090607890000004730998314983212684_);" d="M39.3,52.8c0-14.6,0-29.3,0-43.9
				c-1.9-1.8-4-3.3-6-4.5c0,11.9,0,23.8,0,35.8c-9-2.9-19.3-2-28.2,2.8C5,30,5,17.1,5,4.2c-1.7,1-3.4,2.2-5,3.6
				c0,14.9,0,29.9,0,44.8c2.5-1.6,5.2-2.9,8-3.9c-0.4,4-3.2,26-7.3,29.8c0,0.1,4.1,0,8.7,3.9c3.8,3,7.9,8.8,9.6,15.9V79.4
				c-2.3-0.4-4-2.3-4-4.7c0-2.6,2.1-4.8,4.8-4.8c2.6,0,4.8,2.1,4.8,4.8c0,2.4-1.7,4.3-4,4.7V99c3.4-13.4,16.8-19.4,17.5-19
				c-3.6-9.4-6.1-26.5-6.6-31.1C34.1,49.8,36.7,51.2,39.3,52.8z"/>
		</g>
	</g>
	<g>
		<path class="st8" d="M114.1,93.5v-6.7c1.2,1,2.5,1.8,3.9,2.3c1.4,0.5,2.8,0.8,4.3,0.8c0.8,0,1.6-0.1,2.2-0.2
			c0.6-0.2,1.2-0.4,1.6-0.6c0.4-0.3,0.7-0.6,0.9-1c0.2-0.4,0.3-0.8,0.3-1.2c0-0.6-0.2-1.1-0.5-1.6c-0.3-0.5-0.8-0.9-1.4-1.3
			c-0.6-0.4-1.3-0.8-2-1.1c-0.8-0.4-1.6-0.7-2.6-1.1c-2.3-1-4.1-2.2-5.2-3.6c-1.1-1.4-1.7-3.1-1.7-5.1c0-1.6,0.3-2.9,0.9-4
			c0.6-1.1,1.5-2,2.5-2.8c1.1-0.7,2.3-1.3,3.7-1.6c1.4-0.3,2.9-0.5,4.5-0.5c1.6,0,2.9,0.1,4.1,0.3c1.2,0.2,2.3,0.5,3.3,0.9v6.2
			c-0.5-0.3-1-0.7-1.6-0.9c-0.6-0.3-1.2-0.5-1.8-0.7c-0.6-0.2-1.2-0.3-1.9-0.4c-0.6-0.1-1.2-0.1-1.8-0.1c-0.8,0-1.5,0.1-2.1,0.2
			c-0.6,0.1-1.2,0.4-1.6,0.6c-0.4,0.3-0.8,0.6-1,0.9c-0.2,0.4-0.4,0.8-0.4,1.2c0,0.5,0.1,0.9,0.4,1.3c0.3,0.4,0.6,0.8,1.1,1.1
			c0.5,0.4,1.1,0.7,1.8,1c0.7,0.3,1.5,0.7,2.3,1.1c1.2,0.5,2.3,1,3.2,1.6c0.9,0.6,1.8,1.2,2.4,1.9c0.7,0.7,1.2,1.5,1.6,2.4
			c0.4,0.9,0.5,2,0.5,3.2c0,1.7-0.3,3.1-0.9,4.2c-0.6,1.1-1.5,2-2.6,2.7c-1.1,0.7-2.3,1.2-3.8,1.5c-1.4,0.3-2.9,0.5-4.5,0.5
			c-1.6,0-3.2-0.1-4.7-0.4C116.4,94.4,115.2,94,114.1,93.5z"/>
		<path class="st0" d="M157.4,94.8h-3.9v-7.3c0-1.9-0.7-2.8-2-2.8c-0.7,0-1.2,0.3-1.6,0.8c-0.4,0.6-0.6,1.3-0.6,2.1v7.2h-3.9v-7.4
			c0-1.8-0.7-2.7-2-2.7c-0.7,0-1.2,0.3-1.6,0.8c-0.4,0.5-0.6,1.3-0.6,2.2v7.1h-4V82h4v2h0.1c0.4-0.7,1-1.2,1.7-1.7
			c0.7-0.4,1.5-0.6,2.4-0.6c1.8,0,3,0.8,3.7,2.4c1-1.6,2.4-2.4,4.3-2.4c2.8,0,4.2,1.7,4.2,5.1V94.8z"/>
		<path class="st0" d="M171.2,94.8h-3.7V93h0c-0.9,1.4-2.1,2.1-3.8,2.1c-1.2,0-2.2-0.4-2.9-1.1c-0.7-0.7-1.1-1.6-1.1-2.8
			c0-2.5,1.5-3.9,4.4-4.3l3.5-0.5c0-1.4-0.8-2.1-2.3-2.1c-1.5,0-3,0.5-4.3,1.4v-3c0.6-0.3,1.3-0.5,2.3-0.8c1-0.2,1.8-0.3,2.6-0.3
			c3.7,0,5.5,1.8,5.5,5.5V94.8z M167.5,89.6v-0.9l-2.3,0.3c-1.3,0.2-1.9,0.7-1.9,1.7c0,0.4,0.2,0.8,0.5,1.1c0.3,0.3,0.7,0.4,1.3,0.4
			c0.7,0,1.3-0.3,1.8-0.8C167.2,91,167.5,90.4,167.5,89.6z"/>
		<path class="st0" d="M182.6,85.6c-0.5-0.3-1-0.4-1.7-0.4c-0.9,0-1.5,0.3-2,0.9c-0.5,0.6-0.7,1.5-0.7,2.6v6.1h-4V82h4v2.4h0
			c0.6-1.7,1.8-2.6,3.4-2.6c0.4,0,0.7,0.1,1,0.2V85.6z"/>
		<path class="st0" d="M192.2,94.7c-0.6,0.3-1.5,0.5-2.6,0.5c-2.8,0-4.2-1.4-4.2-4.3v-5.9h-2.1V82h2.1v-2.8l3.9-1.1V82h2.9v2.9h-2.9
			v5.2c0,1.3,0.5,2,1.6,2c0.4,0,0.8-0.1,1.3-0.4V94.7z"/>
		<path class="st8" d="M234.7,64.8l-7.9,29.8h-7.4l-4.9-19.1c-0.3-1-0.4-2.1-0.5-3.3h-0.1c-0.1,1.4-0.3,2.5-0.5,3.3l-5.1,19.1h-7.8
			l-7.8-29.8h7.3l4.2,19.9c0.2,0.8,0.3,2,0.4,3.4h0.1c0.1-1.1,0.3-2.2,0.6-3.5l5.4-19.8h7.2l4.9,20c0.2,0.7,0.3,1.8,0.5,3.2h0.1
			c0.1-1.1,0.2-2.2,0.4-3.3l4.1-19.9H234.7z"/>
		<path class="st0" d="M240.6,85.6c-0.5-0.3-1-0.4-1.7-0.4c-0.9,0-1.5,0.3-2,0.9c-0.5,0.6-0.7,1.5-0.7,2.6v6.1h-3.9V82h3.9v2.4h0.1
			c0.6-1.7,1.8-2.6,3.4-2.6c0.4,0,0.7,0.1,1,0.2V85.6z"/>
		<path class="st0" d="M244.4,80c-0.7,0-1.2-0.2-1.6-0.6c-0.4-0.4-0.6-0.9-0.6-1.5c0-0.6,0.2-1.1,0.6-1.5c0.4-0.4,1-0.6,1.6-0.6
			c0.7,0,1.2,0.2,1.6,0.6c0.4,0.4,0.6,0.9,0.6,1.5c0,0.6-0.2,1.1-0.6,1.5C245.6,79.8,245.1,80,244.4,80z M246.4,94.8h-4V82h4V94.8z"
			/>
		<path class="st0" d="M257.4,94.7c-0.6,0.3-1.5,0.5-2.6,0.5c-2.8,0-4.2-1.4-4.2-4.3v-5.9h-2.1V82h2.1v-2.8l3.9-1.1V82h2.9v2.9h-2.9
			v5.2c0,1.3,0.5,2,1.6,2c0.4,0,0.8-0.1,1.3-0.4V94.7z"/>
		<path class="st0" d="M261.6,80c-0.7,0-1.2-0.2-1.6-0.6c-0.4-0.4-0.6-0.9-0.6-1.5c0-0.6,0.2-1.1,0.6-1.5c0.4-0.4,1-0.6,1.6-0.6
			c0.7,0,1.2,0.2,1.6,0.6c0.4,0.4,0.6,0.9,0.6,1.5c0,0.6-0.2,1.1-0.6,1.5C262.9,79.8,262.3,80,261.6,80z M263.6,94.8h-4V82h4V94.8z"
			/>
		<path class="st0" d="M279.3,94.8h-3.9v-7.1c0-2-0.7-3-2.1-3c-0.7,0-1.2,0.3-1.7,0.8c-0.4,0.5-0.7,1.2-0.7,2v7.3h-4V82h4v2h0
			c0.9-1.6,2.3-2.3,4.1-2.3c2.8,0,4.2,1.8,4.2,5.3V94.8z"/>
		<path class="st0" d="M295,93.3c0,2.4-0.7,4.2-2.1,5.5c-1.4,1.3-3.4,2-6,2c-1.7,0-3.1-0.2-4.1-0.7v-3.3c1.3,0.8,2.6,1.1,4,1.1
			c1.3,0,2.4-0.4,3.1-1.1c0.7-0.7,1.1-1.7,1.1-2.9v-1h0c-0.9,1.4-2.2,2.1-4,2.1c-1.6,0-2.9-0.6-3.9-1.7c-1-1.1-1.4-2.7-1.4-4.6
			c0-2.2,0.5-3.9,1.6-5.2c1.1-1.3,2.5-1.9,4.2-1.9c1.6,0,2.7,0.6,3.5,1.8h0V82h4V93.3z M291.1,88.7v-1c0-0.8-0.2-1.5-0.7-2.1
			c-0.5-0.6-1.1-0.9-1.9-0.9c-0.9,0-1.6,0.3-2.1,1s-0.8,1.6-0.8,2.9c0,1.1,0.2,1.9,0.7,2.5c0.5,0.6,1.1,0.9,1.9,0.9
			c0.8,0,1.5-0.3,2-0.9C290.8,90.5,291.1,89.7,291.1,88.7z"/>
		<path class="st0" d="M305.2,89.4h-6.8v-2.8h6.8V89.4z"/>
		<path class="st8" d="M343.4,94.6h-6.6V76.8c0-1.9,0.1-4.1,0.2-6.4h-0.2c-0.3,1.8-0.7,3.1-0.9,4l-7,20.3h-5.5l-7.1-20.1
			c-0.2-0.5-0.5-1.9-0.9-4.2h-0.2c0.2,2.9,0.3,5.5,0.3,7.7v16.5h-6.1V64.8h9.8l6.1,17.7c0.5,1.4,0.8,2.8,1.1,4.3h0.1
			c0.4-1.6,0.8-3.1,1.2-4.3l6.1-17.6h9.6V94.6z"/>
		<path class="st0" d="M357.2,94.8h-3.7V93h-0.1c-0.9,1.4-2.1,2.1-3.8,2.1c-1.2,0-2.2-0.4-2.9-1.1c-0.7-0.7-1.1-1.6-1.1-2.8
			c0-2.5,1.5-3.9,4.4-4.3l3.5-0.5c0-1.4-0.8-2.1-2.3-2.1c-1.5,0-3,0.5-4.4,1.4v-3c0.5-0.3,1.3-0.5,2.3-0.8c1-0.2,1.8-0.3,2.6-0.3
			c3.7,0,5.5,1.8,5.5,5.5V94.8z M353.5,89.6v-0.9l-2.3,0.3c-1.3,0.2-1.9,0.7-1.9,1.7c0,0.4,0.2,0.8,0.5,1.1c0.3,0.3,0.7,0.4,1.3,0.4
			c0.7,0,1.3-0.3,1.8-0.8C353.2,91,353.5,90.4,353.5,89.6z"/>
		<path class="st0" d="M372.7,94.8h-3.9v-7.1c0-2-0.7-3-2.1-3c-0.7,0-1.2,0.3-1.7,0.8c-0.4,0.5-0.7,1.2-0.7,2v7.3h-4V82h4v2h0
			c0.9-1.6,2.3-2.3,4.1-2.3c2.8,0,4.2,1.8,4.2,5.3V94.8z"/>
		<path class="st0" d="M388.3,94.8h-4V93h0c-0.9,1.4-2.2,2.1-4,2.1c-1.6,0-2.9-0.6-3.9-1.7c-1-1.1-1.5-2.7-1.5-4.7
			c0-2.1,0.5-3.8,1.6-5.1c1.1-1.3,2.5-1.9,4.2-1.9c1.7,0,2.8,0.6,3.5,1.8h0v-7.6h4V94.8z M384.5,88.6v-1c0-0.8-0.2-1.5-0.7-2.1
			c-0.5-0.5-1.1-0.8-1.9-0.8c-0.9,0-1.6,0.3-2,1s-0.7,1.6-0.7,2.8c0,1.1,0.2,2,0.7,2.6c0.5,0.6,1.1,0.9,2,0.9c0.8,0,1.5-0.3,2-1
			C384.2,90.5,384.5,89.6,384.5,88.6z"/>
		<path class="st0" d="M402.3,94.8h-3.7V93h0c-0.9,1.4-2.1,2.1-3.8,2.1c-1.2,0-2.2-0.4-2.9-1.1c-0.7-0.7-1.1-1.6-1.1-2.8
			c0-2.5,1.5-3.9,4.4-4.3l3.5-0.5c0-1.4-0.8-2.1-2.3-2.1c-1.5,0-3,0.5-4.3,1.4v-3c0.6-0.3,1.3-0.5,2.3-0.8c1-0.2,1.8-0.3,2.6-0.3
			c3.7,0,5.5,1.8,5.5,5.5V94.8z M398.6,89.6v-0.9l-2.3,0.3c-1.3,0.2-1.9,0.7-1.9,1.7c0,0.4,0.2,0.8,0.5,1.1c0.3,0.3,0.7,0.4,1.3,0.4
			c0.7,0,1.3-0.3,1.8-0.8C398.4,91,398.6,90.4,398.6,89.6z"/>
		<path class="st0" d="M413.8,85.6c-0.5-0.3-1-0.4-1.7-0.4c-0.9,0-1.5,0.3-2,0.9c-0.5,0.6-0.7,1.5-0.7,2.6v6.1h-4V82h4v2.4h0
			c0.6-1.7,1.8-2.6,3.4-2.6c0.4,0,0.7,0.1,1,0.2V85.6z"/>
		<path class="st0" d="M417.6,80c-0.7,0-1.2-0.2-1.6-0.6c-0.4-0.4-0.6-0.9-0.6-1.5c0-0.6,0.2-1.1,0.6-1.5c0.4-0.4,1-0.6,1.6-0.6
			c0.7,0,1.2,0.2,1.6,0.6c0.4,0.4,0.6,0.9,0.6,1.5c0,0.6-0.2,1.1-0.6,1.5C418.8,79.8,418.3,80,417.6,80z M419.6,94.8h-4V82h4V94.8z"
			/>
		<path class="st0" d="M435.3,94.8h-3.9v-7.1c0-2-0.7-3-2.1-3c-0.7,0-1.2,0.3-1.7,0.8c-0.4,0.5-0.7,1.2-0.7,2v7.3h-3.9V82h3.9v2h0.1
			c0.9-1.6,2.3-2.3,4.1-2.3c2.8,0,4.2,1.8,4.2,5.3V94.8z"/>
	</g>
</g>
</svg>
