<?xml version="1.0" encoding="utf-8"?>
<!-- Generator: Adobe Illustrator 26.3.1, SVG Export Plug-In . SVG Version: 6.00 Build 0)  -->
<svg version="1.1" id="圖層_1" xmlns="http://www.w3.org/2000/svg" xmlns:xlink="http://www.w3.org/1999/xlink" x="0px" y="0px"
	 viewBox="0 0 256 256" style="enable-background:new 0 0 256 256;" xml:space="preserve">
<path d="M152.2,71.6c-6.3,11.5-2.1,25.9,9.4,32.2s25.9,2.1,32.2-9.4c6.3-11.5,2.1-25.9-9.4-32.2C172.9,55.9,158.5,60.1,152.2,71.6z
	 M6.4,65.9L0.7,76.3c-1.6,2.9-0.5,6.5,2.3,8.1L133,155.8c40.2,22.1,90.7,7.4,112.7-32.8s7.4-90.7-32.8-112.7S122.3,2.9,100.2,43
	C89,63.4,87.3,86.4,93.5,107L14.5,63.6C11.6,62,8,63.1,6.4,65.9z M141.8,65.9c9.5-17.2,31.1-23.5,48.3-14s23.5,31.1,14,48.3
	s-31.1,23.5-48.3,14S132.3,83.1,141.8,65.9z"/>
</svg>
