<svg xmlns="http://www.w3.org/2000/svg" xmlns:xlink="http://www.w3.org/1999/xlink" viewBox="0 0 633.97 399.72"><defs><style>.cls-1{fill:none;}.cls-2,.cls-30{fill:#372978;}.cls-2{opacity:0.4;}.cls-3{fill:#fff;}.cls-4{fill:#f86b82;}.cls-5{fill:#ffdb5c;}.cls-6{fill:#78d4b6;}.cls-7{fill:#d5e6ed;}.cls-8{clip-path:url(#clip-path);}.cls-9{fill:#ffebd8;}.cls-10{fill:#5c9cf4;}.cls-11{fill:#448de8;}.cls-12{fill:#f9d0b3;}.cls-13{fill:#ff912b;}.cls-14{fill:#478be0;}.cls-15{fill:#a8ccff;}.cls-16{fill:#9cc3f8;}.cls-17{fill:#fc7600;}.cls-18{fill:#f99352;}.cls-19{fill:#1e3865;}.cls-20{fill:#ffae73;}.cls-21{fill:#fddbba;}.cls-22{fill:#eb6600;}.cls-23{fill:#25468f;}.cls-24{fill:#0b3563;}.cls-25{fill:#0d458e;}.cls-26{fill:#f1ddcb;}.cls-27{fill:#f9924f;}.cls-28{fill:#f8caa4;}.cls-29{fill:#2d3554;}</style><clipPath id="clip-path"><rect class="cls-1" x="157.92" y="95.92" width="266" height="152.87"/></clipPath></defs><g id="圖層_2" data-name="圖層 2"><g id="圖層_1-2" data-name="圖層 1"><path class="cls-2" d="M18.47,399.72l207.9-1.08h73.77l55.52,0,253.65-.07s58-74.39-3.95-145c-64.26-73.27-95.5-13.6-115.25-116.73C440.39-122.82-51.14,28.26,77.78,249.15,124.21,328.68-13.59,286.41,18.47,399.72Z"/><rect class="cls-3" x="148.83" y="63.05" width="284.18" height="196.09" rx="22.5"/><ellipse class="cls-4" cx="161.13" cy="75.55" rx="5.63" ry="5.18"/><ellipse class="cls-5" cx="175.87" cy="75.55" rx="5.63" ry="5.18"/><ellipse class="cls-6" cx="190.6" cy="75.55" rx="5.63" ry="5.18"/><path class="cls-7" d="M409.8,259.17H172.05A23.22,23.22,0,0,1,148.83,236V87.37H433V236A23.21,23.21,0,0,1,409.8,259.17Z"/><g class="cls-8"><image width="1920" height="1218" transform="translate(157.92 95.92) scale(0.14)" xlink:href="J:%5C_______%E2%96%A0NTNU%5C___%E8%A8%BA%E6%96%B7%E9%96%B1%E8%AE%80___%5C---%20eMPOWER%20---%5C20210906%20eMPOWER-2021%E2%98%85%5C%E5%8E%9F%E5%A7%8B%E6%AA%94%5C%E6%96%B0%E5%A2%9E%E8%B3%87%E6%96%99%E5%A4%BE%20(3)%5C%E5%AD%B8%E7%94%9F-%E6%88%91%E7%9A%84%E8%AA%B2%E7%A8%8B(%E5%B7%A6%E5%8F%B3)-%E8%AA%B2%E5%89%8D%E6%9A%96%E8%BA%AB.png"/><rect class="cls-3" x="357.75" y="197.8" width="52.55" height="68.81"/></g><path class="cls-9" d="M335,306.31H463a25,25,0,0,1,25,25v0a25.56,25.56,0,0,1-25.56,25.56H335a0,0,0,0,1,0,0V306.31a0,0,0,0,1,0,0Z"/><path class="cls-10" d="M602.17,327.11v7.61a23.16,23.16,0,0,1-2.81,11.14,20.48,20.48,0,0,1-17.89,11H330.9a3.11,3.11,0,0,1-3-3.21v-1.13a3.11,3.11,0,0,1,3-3.21H483.65a21,21,0,0,0,2.14-3.45,21.73,21.73,0,0,0,2.24-9.67v-9.66a21.24,21.24,0,0,0-.62-5.15,20.69,20.69,0,0,0-3.54-7.5h-153a3.12,3.12,0,0,1-3-3.22v-1.13a3.12,3.12,0,0,1,3-3.22H582.73c8.88,0,16.36,6.37,18.69,15.07A22.06,22.06,0,0,1,602.17,327.11Z"/><path class="cls-11" d="M601.42,321.38h-114a20.69,20.69,0,0,0-3.54-7.5h-153a3.12,3.12,0,0,1-3-3.22v-1.13a3.12,3.12,0,0,1,3-3.22H582.73C591.61,306.31,599.09,312.68,601.42,321.38Z"/><polygon class="cls-12" points="335 331.59 353.56 332.44 335 332.95 335 331.59"/><polygon class="cls-12" points="335 339.52 379.14 340.37 335 340.88 335 339.52"/><path class="cls-13" d="M296.69,356.76h129.2A20.28,20.28,0,0,1,446.17,377v0a19,19,0,0,1-19,19H296.69a0,0,0,0,1,0,0V356.76a0,0,0,0,1,0,0Z" transform="translate(742.86 752.84) rotate(-180)"/><path class="cls-9" d="M421.45,356.76h147.4a19.88,19.88,0,0,1,19.88,19.88v0a19.44,19.44,0,0,1-19.44,19.44H421.45a0,0,0,0,1,0,0V356.76a0,0,0,0,1,0,0Z" transform="translate(1010.19 752.84) rotate(180)"/><rect class="cls-13" x="408.88" y="390.2" width="187.61" height="5.88" rx="2.94" transform="translate(1005.38 786.28) rotate(180)"/><rect class="cls-13" x="408.88" y="356.76" width="187.61" height="5.88" rx="2.94" transform="translate(1005.38 719.4) rotate(180)"/><polygon class="cls-12" points="588.73 376.42 568.45 377.08 588.73 377.48 588.73 376.42"/><polygon class="cls-12" points="588.73 367.37 540.49 368.03 588.73 368.43 588.73 367.37"/><path class="cls-10" d="M541,367.9a9.1,9.1,0,0,1,2.75,4.47,7.52,7.52,0,0,1,.22,1.55c.11,3.69,0,12,0,12l6.1-4.18,6.09,4.18V374.64a9.94,9.94,0,0,0-1.49-5.58A2.28,2.28,0,0,0,553,367.9Z"/><path class="cls-14" d="M541,367.9a9.1,9.1,0,0,1,2.75,4.47l12.24.16s-.48-4-3-4.63Z"/><path class="cls-9" d="M301.43,248.65H422.54a28.56,28.56,0,0,1,28.56,28.56v0a29.21,29.21,0,0,1-29.21,29.21H301.43a0,0,0,0,1,0,0V248.65A0,0,0,0,1,301.43,248.65Z"/><path class="cls-15" d="M451.18,271.07V283.5a15,15,0,0,1-6.11,12.38,10.67,10.67,0,0,1-6,1.9H297.49a3.33,3.33,0,0,0-3,3.59v1.46a3.33,3.33,0,0,0,3,3.59H542c7,0,13.22-4.16,17-10.54a28,28,0,0,0,3.74-14.19v-9.81a26.83,26.83,0,0,0-1.93-10.1c-3.14-7.77-9.8-13.13-17.51-13.13H297.49a3.33,3.33,0,0,0-3,3.59v1.46a3.33,3.33,0,0,0,3,3.59h142a11,11,0,0,1,8.61,4.49A15.26,15.26,0,0,1,451.18,271.07Z"/><path class="cls-16" d="M294.49,301.37v1.46a3.33,3.33,0,0,0,3,3.59H542c7,0,13.22-4.16,17-10.54H445.07a10.67,10.67,0,0,1-6,1.9H297.49A3.33,3.33,0,0,0,294.49,301.37Z"/><polygon class="cls-12" points="301.43 277.54 319.58 278.51 301.43 279.09 301.43 277.54"/><polygon class="cls-12" points="301.43 264.24 344.6 265.21 301.43 265.8 301.43 264.24"/><path class="cls-13" d="M344.16,265a10.15,10.15,0,0,0-3.8,4.84,6.57,6.57,0,0,0-.29,1.69c-.16,4,0,13.05,0,13.05l-8.41-4.53-8.39,4.53V272.33a9.19,9.19,0,0,1,2.05-6.06,3.29,3.29,0,0,1,2.33-1.25Z"/><path class="cls-17" d="M344.16,265a10.15,10.15,0,0,0-3.8,4.84l-16.85.18s.66-4.31,4.14-5Z"/><g id="girl_2" data-name="girl 2"><path class="cls-18" d="M129.28,301.31s26.35,11.48,31.13,11.27,34.26-9,34.26-9l-.75,5.07s-22.75,13.08-30.7,13.82-34.6-7-37.18-8.67S121.77,303,129.28,301.31Z"/><path class="cls-19" d="M125.32,259.08s-9.72-1.85-14.56,1.69c-8.77,6.4-9.24,28.48-12.53,31.77S87,294.43,86.32,311.45s3.15,18.44-1.45,26,1.95,15.21,1.95,15.21-2.68-4.2-1.53-7.23c0,0,1.11,6.68,5.36,8.25s4.87,2.71,5.55,5c0,0,36.2-18.55,36.24-31.71s7.13-26.2,3.65-31.9a12.61,12.61,0,0,1,1.74,5.15,6.77,6.77,0,0,0-1.53-7.72c-3.62-3.72,4.24-11.43,3.08-20.36C138.58,266.06,134.28,259.34,125.32,259.08Z"/><path class="cls-20" d="M132.48,313.85a25.35,25.35,0,0,1-8.86,3.77c-13.65,3.15-18.88-8.39-20.85-16.31a11.78,11.78,0,0,1,4.63-1.42c1-.12,2-.19,2.88-.24,1.53-1.17,3.82-6,4.32-13.44l.65.17L126,289.33s-.49,3.42-.74,6.65c-.18,2.53-.21,4.95.27,5.54l1.34.3h0A70,70,0,0,1,132.48,313.85Z"/><path class="cls-18" d="M126,289.33s-.5,3.42-.74,6.65c-6.09-.61-8.92-6.41-10-9.6Z"/><path class="cls-20" d="M127.83,292.54s-14.47-.8-13.84-9.8-.8-15.17,8.47-15.05,10.81,3.7,11.33,6.75S131.61,292.52,127.83,292.54Z"/><path class="cls-19" d="M133.72,269.41c-2-2.87-3.77-2.4-4.77-1.65a10.13,10.13,0,0,0-13.14,1.14,17.25,17.25,0,0,1-6.36,9.76s2.52,1.82,8.7.69a10.31,10.31,0,0,0,5.17-3A34.13,34.13,0,0,1,117,283c7.49-2.83,11.13-12.71,11.5-13.76a11.44,11.44,0,0,1,2.85,4.43c.55,2.34,2.95,6,4.34,6C135.7,279.6,136.78,273.71,133.72,269.41Z"/><path class="cls-21" d="M98.65,343.27c-1.31-6.68-5.57-33.37-1.31-42,1.53-3.08,7.54-3.36,14.13-3.09,2,1.32,9.86,6.32,13.07,5.7l.18,0c1.51-.38,2.08-1.44.82-2.36a29.07,29.07,0,0,1,7.31.45c2.29.43,8.46,3.62,8.46,3.62s-3.1,5.62-7.69,7.56c.78,7-.38,10.05-7.61,26.16-6.11,13.61.82,25.87.82,25.87s-36,28.93-36.18,14.2C90.5,368.29,100.32,351.81,98.65,343.27Z"/><path class="cls-22" d="M128.62,396.64a6.71,6.71,0,0,0,4.81-2.93l.56-.84c4.09-6.2,5.69-25.19,14.9-45.42,2.24-4.93,10.3-5.81,12.49-11.38,0,0,5.41-18.05-10.34-18.58S108.85,367.7,108.43,373C108,378.18,98,400.09,128.62,396.64Z"/><path class="cls-19" d="M191.23,396.22H168.81s-.84-3.58.63-6c1.31-2.15.81-3.38-.16-5.16a8.71,8.71,0,0,0,3.78.71,7.8,7.8,0,0,0,3.33-1.17,82.07,82.07,0,0,0,6.39,6.71C184.25,392.35,190.78,392,191.23,396.22Z"/><path class="cls-17" d="M161.9,322.71c1.35,10.12,6.62,42.07,15.92,57.66,3,5-7.55,7.84-7.61,7.82-1.42-.37-3.77-2.62-4.86-3.6-7.55-6.81-22.88-26.08-22.88-41.53,0-7.53-.13-21.92,5.34-25.57C151.19,315.24,161.36,318.69,161.9,322.71Z"/><path class="cls-13" d="M115.25,396.22s.83-1.16,2.28-3.35c1.72-2.61,3.63-7.75,5.94-14.34,2.44-6.92,5.32-15.43,8.93-24.28,1.11-2.74,2.29-5.5,3.55-8.26,2.24-4.93,8.42-4.25,10.61-9.82,0,0,8.57-19.3-7.18-19.83S93.69,368,92,373C90.08,378.56,80.9,401.52,115.25,396.22Z"/><path class="cls-23" d="M174.77,396.22H152.35s-.84-3.58.63-6c1.31-2.15.81-3.38-.16-5.16a8.71,8.71,0,0,0,3.78.71,7.8,7.8,0,0,0,3.33-1.17,82.07,82.07,0,0,0,6.39,6.71C167.79,392.35,174.32,392,174.77,396.22Z"/><path class="cls-17" d="M123.47,378.53c2.44-6.92,5.32-15.43,8.93-24.28-.94-6.71-3-12.58-6.39-14.94C126,339.31,117.72,365,123.47,378.53Z"/><path class="cls-13" d="M148.81,322c1.35,10.12,3.25,42.79,12.55,58.38,3,5-7.55,7.84-7.61,7.82-1.42-.37-3.77-2.62-4.86-3.6-7.55-6.81-22.88-26.08-22.88-41.53,0-7.53,8.84-21.31,14.32-25A5.51,5.51,0,0,1,148.81,322Z"/><path class="cls-3" d="M130.54,287.36s-1.37-.54-5.22-.23c0,0,.21,1.5,3,1.65A2.26,2.26,0,0,0,130.54,287.36Z"/><polygon class="cls-24" points="197.48 293 192.83 284.61 182.78 312.67 188.71 319.04 197.48 293"/><polygon class="cls-25" points="173.21 297.91 163.86 324.62 188.71 319.04 197.48 293 173.21 297.91"/><polygon class="cls-26" points="164.36 323.27 163.92 322.51 172.77 297.24 173.21 297.91 164.36 323.27"/><polygon class="cls-9" points="172.77 297.24 196.32 292.65 197.48 293 173.21 297.91 172.77 297.24"/><polygon class="cls-26" points="197.48 293 192.46 285.02 189.25 294.03 196.32 292.65 197.48 293"/><path class="cls-20" d="M180.38,301.78c-.8-.16-2.54-.81-4.29-1.29a3.74,3.74,0,0,0,1.27-1.42c.31-1,.52-1.31-.53-1s-4.69,2-4.69,2h0c-2.08.6-4,3.54-4,3.54s-25.69,9-28.78,9.18c-4.78.24-36.61-11.48-36.61-11.48-7.51,1.66-5.83,10.89-3.24,12.52S125,323.8,138.59,324c6.87.08,31.88-16,31.88-16a10.6,10.6,0,0,1,5.22-.92c2.29.42,7.62,0,8.76-1.88S181.74,302,180.38,301.78Z"/><path class="cls-21" d="M119.17,307.09s-2.85,9-12.62,11.06c0,0-16.15-5-8.11-16C98.44,302.18,106.39,296.28,119.17,307.09Z"/><path class="cls-20" d="M197.06,302.46h0a2.52,2.52,0,0,0-.08-.73s-2.31-3.65-3.06-3.8c-2.3-.45-2.3,2.58-1.81,4.53a7.86,7.86,0,0,0,1.9,3.36h0l-.09,2.85A6.1,6.1,0,0,0,197.06,302.46Z"/></g><path class="cls-19" d="M446.55,296.29c4.22,7.47,9.58,10.38,9.58,10.38l22.37.15S443.33,290.59,446.55,296.29Z"/><path class="cls-20" d="M462,354.17c.58.67,2,1.23,1.71,2h0c-.54,1.47-2.32,3.11-4.38,4.74l-.7.57-.16.14-.12.11c-1.92,1.75-1.2,2.16-4.66,5.7-3.94,4.05-6.63,4.1-7.4,3.72s.69-2.47,2.17-4.88l.21-.35.59-1c1.73-2.91,1.3-4.29.92-8.63-.3-3.54-5.35-19.77-5.35-19.77l7.51-1.24s2.16,12.92,4.63,14.92c1.33,1.07,2.82,1.09,4.09,1.88l.26.17C462,352.8,461.39,353.5,462,354.17Z"/><path class="cls-20" d="M402.92,348.87c-.48,2.31-3.78,1.9-7.46,1s-2.81.15-8-.46-6.81-2.59-7-3.37,2.46-.92,5.24-1.22l1.05-.12c3.14-.37,5.46-2.38,8.32-4,2.71-1.55,6.78-7.94,6.78-7.94l7.19.62s-3.81,5.7-5.29,8.18a8.66,8.66,0,0,0-.74,4.9A9.22,9.22,0,0,1,402.92,348.87Z"/><path class="cls-19" d="M430.8,303.08l6.6,18.14L446,344.9a14.13,14.13,0,0,0,4.66-.39,20.42,20.42,0,0,0,4.53-2.17s-2.26-25.38-6.7-40c-1.14-3.74-2.43-6.78-3.86-8.49C437.65,285.5,430.8,303.08,430.8,303.08Z"/><path class="cls-23" d="M437.84,274.4c4.41-1.39,17,.52,29.56,3.08l2.68-4.34,27.27-1.94s8.85,20,3.84,32.69c-.74,1.86-2.54,2.63-5,2.66h0s-16.27.28-21.53.25c-13.56-.1-28.63-9.52-30.58-9.93-3.2-.66-4.53,5.74-7.78,12.44S406,338.9,406,338.9s-4.13,0-5.84-.64a5.84,5.84,0,0,1-2.5-1.61S427.88,277.53,437.84,274.4Z"/><path class="cls-20" d="M478.67,231.11s4.76,1.71,8,.3c3-1.31,5.37-6.28,5.32-6.29-1.38-.07-2.88-1.29-4-9.2l-.59.2-9.9,3.48s.7,3.18,1.14,6.2C479,228.33,479.21,230.76,478.67,231.11Z"/><path class="cls-27" d="M477.51,219.6s.43,2.23,1,5.41c5.68-1,8.07-5.83,8.89-8.89Z"/><path class="cls-20" d="M476,222.74s13.52-1.72,12.32-10.12-.26-14.28-8.94-13.54-9.9,4.18-10.18,7.08S472.47,223,476,222.74Z"/><path class="cls-21" d="M467.16,250.93c.21,27.34,0,21.63,2.93,24.24.71.63,2.74,1,5.4,1.21,8.38.62,23.13-.66,23.7-2.21,2-5.34.62-7,2.29-15.21.17-.87.39-1.82.64-2.85,1.38-5.62,2.71-7.53-2-16.62-4.27-8.23-8.72-14.92-9.13-14.69-11.46,6.7-12.34,1-12.34,1S467.05,237.59,467.16,250.93Z"/><path class="cls-23" d="M437.4,321.22,446,344.9a14.13,14.13,0,0,0,4.66-.39,20.42,20.42,0,0,0,4.53-2.17s-2.26-25.38-6.7-40Z"/><path class="cls-21" d="M478.65,225.8s-11.77,1.91-13.18,6.95-9.74,34.73-9.74,34.73,6,1.12,8.74-1.62,9.78-25.53,9.78-25.53Z"/><path class="cls-28" d="M475.49,276.38c8.38.62,23.13-.66,23.7-2.21,2-5.34.62-7,2.29-15.21l-4-11.42s.58,12.69-3.19,16-15.35,6.33-17.19,9.11A10.24,10.24,0,0,0,475.49,276.38Z"/><path class="cls-20" d="M485.14,271.12s-8.26-1.9-9.6-1.18-4.62,3.38-5,4.3,3-.68,4.08-1c.71-.18,2.58.48,3.51.8a11.73,11.73,0,0,0,6.29.67Z"/><path class="cls-21" d="M491,224.8s11.1.76,14.91,6.15c5.36,7.59,15.86,39.83,9.68,44.07-7,4.79-31.54,1.05-31.54,1.05s-.79-3.84.36-5.68,19.69-4.7,20.55-5.55-10.57-16.74-10.55-19.3S491,224.8,491,224.8Z"/><path class="cls-20" d="M475.12,272.24a16.34,16.34,0,0,1-2.32,2.49,1.68,1.68,0,0,1-.93.19l1.18-2.09Z"/><path class="cls-20" d="M475.54,269.94l-5.06,2.41a.9.9,0,0,0,.83.33,11.58,11.58,0,0,0,2.19-.58Z"/><polygon class="cls-13" points="473.88 278.33 434.03 278.05 422.25 248.16 462.04 248.44 473.88 278.33"/><polygon class="cls-17" points="433.57 276.89 486.19 277.26 486.19 278.42 434.03 278.05 433.57 276.89"/><path class="cls-3" d="M444.19,263.22a1.38,1.38,0,0,1,1.37-1.89,2.73,2.73,0,0,1,2.43,1.91,1.38,1.38,0,0,1-1.37,1.89A2.7,2.7,0,0,1,444.19,263.22Z"/><rect class="cls-29" y="396.11" width="631.45" height="2.15" rx="1.08"/><path class="cls-30" d="M240.77,223.47s-26.48,3.92-32.91,29.52l16.66,5.81-41.83,24.9-17.16-45.47,17.33,6S190.15,201.58,240.77,223.47Z"/><path class="cls-30" d="M383.09,178.29s26.76.49,36.43,25.05l-15.77,7.9,44.68,19.32,11.17-47.3-16.41,8.22S430.48,150.08,383.09,178.29Z"/></g></g></svg>