<svg xmlns="http://www.w3.org/2000/svg" xmlns:xlink="http://www.w3.org/1999/xlink" width="193.466" height="137.983" viewBox="0 0 193.466 137.983">
  <defs>
    <clipPath id="clip-path">
      <path id="Path_1059" data-name="Path 1059" d="M0,0H152.667V109.6H0Z" fill="#0c51b9"/>
    </clipPath>
    <clipPath id="clip-path-2">
      <rect id="Rectangle_130" data-name="Rectangle 130" width="193.466" height="21.383" fill="none"/>
    </clipPath>
    <clipPath id="clip-path-3">
      <rect id="Rectangle_115" data-name="Rectangle 115" width="24.424" height="12.712" fill="#f9cdcd" stroke="#f9cdcd" stroke-width="1"/>
    </clipPath>
  </defs>
  <g id="Group_250" data-name="Group 250" transform="translate(-4468 -3397.4)">
    <rect id="Rectangle_131" data-name="Rectangle 131" width="166.8" height="97.17" rx="4" transform="translate(4481 3417)" fill="#efeff4"/>
    <g id="Group_237" data-name="Group 237" transform="translate(4184.852 3228.231)">
      <path id="Path_1053" data-name="Path 1053" d="M75.883,33.239v80.588l76.219-.38V32.859Z" transform="translate(302.953 164.941)" fill="#5462de"/>
      <g id="Mask_Group_22" data-name="Mask Group 22" transform="translate(303.482 169.168)" clip-path="url(#clip-path)">
        <path id="Path_1054" data-name="Path 1054" d="M75.882,32.252s31.031-8.719,76.274-.194v81.959s-41.69-6.588-76.038.581Z" transform="translate(-0.225 -4.999)" fill="#c3b1ec"/>
        <path id="Path_1055" data-name="Path 1055" d="M76.273,115.4.236,115.013V32.86l76.037.387Z" transform="translate(0.002 -5.801)" fill="#5462de"/>
        <path id="Path_1056" data-name="Path 1056" d="M76.274,32.252S45.243,23.533,0,32.058v81.959s41.69-6.588,76.038.581Z" transform="translate(0 -4.999)" fill="#fee0df"/>
        <path id="Path_1057" data-name="Path 1057" d="M75.882,113.057s28.9-15.113,73.431-9.494V21.409s-38.847-7.944-73.431,9.3Z" transform="translate(-0.225 -3.457)" fill="#ebbdf2"/>
        <path id="Path_1058" data-name="Path 1058" d="M75.882,27.446S104.07-8.012,141.734,1.677l.473,87.772S96.727,91.193,75.882,109.6Z" transform="translate(-0.225 0)" fill="#fff1f4"/>
      </g>
    </g>
    <path id="Path_1088" data-name="Path 1088" d="M97.117,14.823H0l.251,3.648,2.633,2.824h187.7l2.633-2.824.25-3.648Z" transform="translate(4468 3514)" fill="#a0bbfe"/>
    <g id="Mask_Group_243" data-name="Mask Group 243" transform="translate(4468 3514)" clip-path="url(#clip-path-2)">
      <path id="Path_1089" data-name="Path 1089" d="M192.943,13.235,179.327,1.411a10.047,10.047,0,0,0-5-1.411H19.14a10.053,10.053,0,0,0-5,1.411L.524,13.235s-1.945,2.773,1.667,3.008c1.659.108,16.257,0,94.088,0h.908c77.832,0,92.431.108,94.089,0,3.612-.235,1.667-3.008,1.667-3.008" transform="translate(0 0)" fill="#c1d3ff"/>
      <path id="Path_1090" data-name="Path 1090" d="M191.239,19.155c-1.659.108-16.257,0-94.088,0h-.91c-77.831,0-92.429.108-94.088,0A2.487,2.487,0,0,1,.2,18.4l.011.164,2.633,2.824h187.7l2.633-2.824.011-.164a2.487,2.487,0,0,1-1.95.76" transform="translate(0.036 0)" fill="#7099ff"/>
      <path id="Path_1091" data-name="Path 1091" d="M165.574,1.484H22.66l-8.1,7.033H173.676Z" transform="translate(2.616 0)" fill="#a0bbfe"/>
      <path id="Path_1092" data-name="Path 1092" d="M95.87,9.706h-23.9l-.663,4.818H96.533Z" transform="translate(12.812 0)" fill="#a0bbfe"/>
    </g>
    <g id="Group_244" data-name="Group 244" transform="translate(3910.412 3277.478)">
      <rect id="Rectangle_111" data-name="Rectangle 111" width="43.42" height="5.428" rx="2.714" transform="translate(593 175.754)" fill="#f9cdcd"/>
      <rect id="Rectangle_112" data-name="Rectangle 112" width="43.42" height="5.428" rx="2.714" transform="translate(593 192.037)" fill="#f9cdcd"/>
      <rect id="Rectangle_113" data-name="Rectangle 113" width="43.42" height="5.428" rx="2.714" transform="translate(593 208.319)" fill="#f9cdcd"/>
      <g id="Group_212" data-name="Group 212" transform="translate(602.95 154.463)">
        <g id="Group_211" data-name="Group 211" transform="translate(0 0)" clip-path="url(#clip-path-3)">
          <path id="Path_1063" data-name="Path 1063" d="M9.172,3.063a1.963,1.963,0,0,0-.815-.184q-1.29,0-2.711.092,0-.724.04-1.184a3.81,3.81,0,0,1,.132-.776A1.812,1.812,0,0,0,5.909.616q0-.184-.25-.316A1.081,1.081,0,0,0,5.186.168a1.072,1.072,0,0,0-.592.3q-.368.276-.368.513a1.534,1.534,0,0,0,.079.408q.039.276.066.632.026.276.04,1.053-1.513.132-3.171.395a.728.728,0,0,0-.145-.079,1.31,1.31,0,0,0-.579-.158.716.716,0,0,0-.368.079Q0,3.4,0,3.511a.859.859,0,0,0,.026.21.836.836,0,0,1,.04.3A32.144,32.144,0,0,0,.264,8.1a.423.423,0,0,0,.171.264.707.707,0,0,0,.513.21.646.646,0,0,0,.408-.158,1.347,1.347,0,0,0,.2-.013,3.8,3.8,0,0,1,.474-.118Q3,8.129,4.409,8.037v.079q0,1.368-.027,2.369V11.59q0,1.105,1.027,1.105a.658.658,0,0,0,.382-.118.383.383,0,0,0,.184-.342.755.755,0,0,0-.066-.316c-.026-.1-.057-.193-.092-.289a3.136,3.136,0,0,1-.132-.645q-.119-1.329-.119-3.014,1.7-.092,2.46-.092a3.173,3.173,0,0,1,.566.052A2.917,2.917,0,0,0,9.186,8a.434.434,0,0,0,.46-.487.334.334,0,0,0-.052-.158,7.712,7.712,0,0,0,.289-1.237,10.68,10.68,0,0,0,.171-1.974.912.912,0,0,0-.236-.632,1.686,1.686,0,0,0-.645-.448M4.409,6.985q-.579.039-1.211.092-.816.052-1.737.145a3.8,3.8,0,0,1-.052-.54q-.039-.5-.053-2.027a2.573,2.573,0,0,0,.356-.079q.368-.092.513-.118,1.079-.2,2.184-.316ZM8.475,6.5c-.018.044-.04.1-.066.158q-.606.106-.816.132-.421.04-2.013.119l.052-2.869q1.224-.105,2.461-.105.71,0,.737.316A7.743,7.743,0,0,1,8.475,6.5" transform="translate(-0.001 -0.102)" fill="#f9cdcd" stroke="#f9cdcd" stroke-width="1"/>
          <path id="Path_1064" data-name="Path 1064" d="M41.766,3.487A5.549,5.549,0,0,0,42,2.8c.228-.009.434-.013.618-.013a3.183,3.183,0,0,1,.566.052,2.916,2.916,0,0,0,.592.066.434.434,0,0,0,.461-.487q0-.211-.513-.566a1.767,1.767,0,0,0-.711-.289q-.618.105-.829.132-.606.066-2.974.211l-.29.026A3.891,3.891,0,0,0,38.384.882Q37.845.053,37.463,0a.569.569,0,0,0-.5.224.856.856,0,0,0-.184.513A.337.337,0,0,0,37,1.053a3.742,3.742,0,0,1,.355.276,2.7,2.7,0,0,1,.448.553l.079.132q-.8.066-1.685.158-1.592.145-3.5.421a.146.146,0,0,0-.131.158,1.124,1.124,0,0,0,.224.579q.211.368.473.368a1.951,1.951,0,0,0,.5-.066q.264-.079.645-.171a34.1,34.1,0,0,1,4.408-.5q1.04-.066,1.856-.105a16.954,16.954,0,0,1-1.329,2.869q-.592,1.052-1.184,1.908-.317-.316-.671-.7a10.542,10.542,0,0,1-2.066-2.816l-.25-.105a1.3,1.3,0,0,0-.316-.039.74.74,0,0,0-.448.144.4.4,0,0,0-.144.329.711.711,0,0,0,.092.342,9.972,9.972,0,0,0,1.737,2.435q.6.7,1.342,1.4-.2.25-.395.487A13.638,13.638,0,0,1,35.3,10.87a11.171,11.171,0,0,1-.947.645q-.316.132-.514.2.448.987.829,1a2.437,2.437,0,0,0,1.355-.737,15.247,15.247,0,0,0,2.145-2.342,1.653,1.653,0,0,0,.158-.224,20.39,20.39,0,0,0,1.684,1.369q2.316,1.8,3.2,1.829a.825.825,0,0,0,.474-.118.394.394,0,0,0,.211-.368.639.639,0,0,0-.382-.513,1.164,1.164,0,0,0-.158-.013c-.052,0-.123,0-.21-.013a8.437,8.437,0,0,1-2.343-1.474q-.869-.7-1.816-1.619.79-1.158,1.579-2.592,1.065-2.158,1.2-2.408" transform="translate(-19.816 0)" fill="#f9cdcd" stroke="#f9cdcd" stroke-width="1"/>
        </g>
      </g>
    </g>
  </g>
</svg>
