<svg xmlns="http://www.w3.org/2000/svg" width="173.241" height="192.034" viewBox="0 0 173.241 192.034">
  <g id="Group_256" data-name="Group 256" transform="translate(-1516 -368)">
    <path id="Path_1093" data-name="Path 1093" d="M174.086,60.614c-.537,18.979-1.6,56.574-2.139,75.711a3.089,3.089,0,0,1-.476,1.6,19.557,19.557,0,0,1-9.705,15.48,3.745,3.745,0,0,1-.414.27l-65.7,35.593a7.26,7.26,0,0,1-1.476.59,19.377,19.377,0,0,1-18.54-.376,7.184,7.184,0,0,1-1.154-.583L12.089,150.371A19.567,19.567,0,0,1,.846,132.658c0-.26.029-.515.039-.774,0-.013,0-.024,0-.036.541-19.149,1.626-57.528,2.162-76.5a2.574,2.574,0,0,1,.455-1.4,19.571,19.571,0,0,1,9.636-14.678,2.9,2.9,0,0,1,1.079-.947C30.659,29.42,61.71,12.6,78.606,3.444a19.409,19.409,0,0,1,22.9.606l62.7,38.722a5.583,5.583,0,0,1,1.173.97,19.57,19.57,0,0,1,8.671,16.274c0,.052-.007.1-.009.157C174.057,60.323,174.09,60.455,174.086,60.614Z" transform="translate(1515.154 368)" fill="#bbedff" fill-rule="evenodd"/>
    <g id="Group_255" data-name="Group 255" transform="translate(1521.755 375.193)">
      <path id="Path_1094" data-name="Path 1094" d="M160.658,56.3c-.5,17.542-1.478,52.292-1.977,69.982a2.816,2.816,0,0,1-.426,1.388,18.083,18.083,0,0,1-8.976,14.4,3.106,3.106,0,0,1-.384.25l-60.678,32.9a6.587,6.587,0,0,1-1.373.547,17.892,17.892,0,0,1-17.112-.348,6.692,6.692,0,0,1-1.068-.538c-14.514-8.97-42.205-26.086-57.477-35.527A18.094,18.094,0,0,1,.654,122.9c0-.338.033-.669.052-1,.5-17.776,1.5-53.009,1.988-70.469a2.394,2.394,0,0,1,.416-1.285,18.085,18.085,0,0,1,8.913-13.586,2.682,2.682,0,0,1,.988-.863L72.43,3.481a17.9,17.9,0,0,1,21.238.557l57.873,35.77a5.161,5.161,0,0,1,1.083.9,18.1,18.1,0,0,1,8,15.044c0,.036-.006.07-.006.106C160.629,56.007,160.662,56.142,160.658,56.3Z" transform="translate(-0.654 -0.263)" fill="#97e4ff" fill-rule="evenodd"/>
      <path id="Path_1095" data-name="Path 1095" d="M160.658,56.3c-.5,17.542-1.478,52.292-1.977,69.982a2.816,2.816,0,0,1-.426,1.388,18.083,18.083,0,0,1-8.976,14.4,3.106,3.106,0,0,1-.384.25l-60.678,32.9a6.587,6.587,0,0,1-1.373.547,17.892,17.892,0,0,1-17.112-.348,6.692,6.692,0,0,1-1.068-.538c-14.514-8.97-42.205-26.086-57.477-35.527A18.094,18.094,0,0,1,.654,122.9c0-.338.033-.669.052-1,.5-17.776,1.5-53.009,1.988-70.469a2.394,2.394,0,0,1,.416-1.285,18.085,18.085,0,0,1,8.913-13.586,2.682,2.682,0,0,1,.988-.863L72.43,3.481a17.9,17.9,0,0,1,21.238.557l57.873,35.77a5.161,5.161,0,0,1,1.083.9,18.1,18.1,0,0,1,8,15.044c0,.036-.006.07-.006.106C160.629,56.007,160.662,56.142,160.658,56.3Z" transform="translate(-0.654 -0.263)" fill="#97e4ff"/>
    </g>
  </g>
</svg>
