<svg id="Group_152" data-name="Group 152" xmlns="http://www.w3.org/2000/svg" width="238" height="54.292" viewBox="0 0 238 54.292">
  <path id="Path_39" data-name="Path 39" d="M21.661,12.347,2.62,11.671s-3.055-.8-1.189,3.38,5.354,14.2,5.354,14.2a1.908,1.908,0,0,1,0,2.028c-.639,1.183-5.95,15.55-5.95,15.55s-1.7,2.613,3.57,2.705,29.154-.677,29.154-.677v-14.2Z" transform="translate(-0.575 4.753)" fill="#e44853" fill-rule="evenodd"/>
  <path id="Path_40" data-name="Path 40" d="M18.718,33.709l8.329,6.085.6-10.142Z" transform="translate(5.938 14.491)" fill="#9c1b24" fill-rule="evenodd"/>
  <path id="Path_41" data-name="Path 41" d="M128.253,12.347l19.039-.676s3.055-.8,1.19,3.38-5.356,14.2-5.356,14.2a1.908,1.908,0,0,0,0,2.028c.64,1.183,5.951,15.55,5.951,15.55s1.7,2.613-3.57,2.705-29.155-.677-29.155-.677v-14.2Z" transform="translate(88.662 4.753)" fill="#e44853" fill-rule="evenodd"/>
  <path id="Path_42" data-name="Path 42" d="M124.839,33.709l-8.331,6.085-.594-10.142Z" transform="translate(88.505 14.491)" fill="#9c1b24" fill-rule="evenodd"/>
  <path id="Path_43" data-name="Path 43" d="M24.164,7.943s-9.243.953-9.386,5.408,7.04,36.509,7.04,36.509,88.1-18.151,185.37,0l6.256-33.8s4.495-4.09-11.732-8.113C167.448-.554,71.812-2.087,24.164,7.943Z" transform="translate(4.523 -0.983)" fill="#e86774" fill-rule="evenodd"/>
  <path id="Path_44" data-name="Path 44" d="M25.631,25.221S99.778,6.28,150.112,28.753" transform="translate(33.074 8.071)" fill="none" fill-rule="evenodd"/>
</svg>
