<?xml version="1.0" encoding="utf-8"?>
<!-- Generator: Adobe Illustrator 26.3.1, SVG Export Plug-In . SVG Version: 6.00 Build 0)  -->
<svg version="1.1" id="圖層_1" focusable="false" xmlns="http://www.w3.org/2000/svg" xmlns:xlink="http://www.w3.org/1999/xlink"
	 x="0px" y="0px" viewBox="0 0 512 512" style="enable-background:new 0 0 512 512;" xml:space="preserve">
<style type="text/css">
	.st0{fill:#FFFFFF;}
</style>
<g>
	<path class="st0" d="M163.9,464.4c0,2.7,1,5.6,2.7,7.8l25,33c3,4.1,8.1,6.4,13.7,6.4h80.9c5.4,0,10.7-2.3,13.7-6.4l25-33
		c1.9-2.3,2.7-5.1,2.7-7.8v-38.6H163.7L163.9,464.4z"/>
	<path class="st0" d="M194.6,203.7l9.4-85.5c0.6-6,5.1-10.5,10.4-10.5h55.3c4.9,0,8.9,4.5,8.9,10.2c0,1.2-0.3,2.4-0.5,3.6
		l-15.2,46.3h45.8c6.7,0,12.1,6.2,12.1,13.8c0,2.8-0.8,5.5-2.1,7.7l-63.2,105.5c-1.9,3.2-5.1,5.1-8.5,5.1h-0.9
		c-5.1,0-9.4-4.8-9.4-10.7c0-0.9,0.1-1.7,0.3-2.6l15.4-70.7h-47.3C199.3,215.6,194.6,210.2,194.6,203.7z"/>
	<path class="st0" d="M447.2,215.2c-5.6-12.4-12-31.4-18.8-51.4c-11.2-33.2-23.9-70.9-37-89.5C358.9,28,305.6,0.4,249,0.4h-14.3V0.4
		c-0.4,0-0.9,0.1-1.3,0.1h-1.3v0.1C139.2,7.2,65.7,84.8,65.7,179.4c0,43.3,15.7,85.3,44.4,118.1c15.2,17.3,43.1,58,54.4,94.6h43.4
		c-0.2-3.5-0.9-7-1.9-10c-6-18.7-24.1-67.2-64-112.9c-21.7-24.9-33.7-56.9-33.7-89.9c0-36.6,14-70.9,39.5-96.5
		C170.4,60.2,200.7,46,232.4,43H249c42.8,0,83.1,20.9,107.7,55.8c9.5,13.4,21.7,49.6,31.5,78.6c7.7,22.9,14.2,41.5,20.2,55.1
		l0.1,0.2c0,0.1,0.1,0.3,0.1,0.7c0,1.3-1,2.3-2.2,2.3h-23.7c-11.7,0-21.2,9.5-21.2,21.2v47c0,14.2-11.6,25.8-25.8,25.8h-29
		c-11.7,0-21.2,9.5-21.2,21.2v42.3h42.6v-21.1h7.8c37.7,0,68.3-30.6,68.3-68.3v-25.7h2.3c11.9,0,23.2-4.7,31.6-13.1
		c8.5-8.5,13.1-19.7,13.1-31.7C451.1,227.1,449.8,221,447.2,215.2z"/>
</g>
</svg>
