<?xml version="1.0" encoding="utf-8"?>
<!-- Generator: Adobe Illustrator 25.4.1, SVG Export Plug-In . SVG Version: 6.00 Build 0)  -->
<svg version="1.1" id="圖層_1" xmlns="http://www.w3.org/2000/svg" xmlns:xlink="http://www.w3.org/1999/xlink" x="0px" y="0px"
	 viewBox="0 0 512 512" style="enable-background:new 0 0 512 512;" xml:space="preserve">
<style type="text/css">
	.st0{fill:#FFFFFF;}
</style>
<g>
	<path class="st0" d="M98.2,227.4c-3.5,2.5-6.7,3.3-9.5,2.6c-3.2-0.9-5.9-2.7-8.2-5.5c-1.6-2.6-2.3-5.4-2.1-8.2
		c0.4-2.8,2.6-5.9,6.9-9.2c20.7-18.1,35.6-42.5,44.6-73c1.1-3.9,3-6.7,5.8-8.4c2.5-1.4,5.4-1.8,8.7-1.1c3.5,0.9,6.1,2.6,7.6,5.3
		c1.8,3.5,1.1,9.8-2.1,18.7H296c4.9-0.2,9.5,0.5,13.7,2.1c4.2,2.1,6.9,5.1,8.2,9c1.8,4.9,2.6,10.3,2.6,16.1
		c-0.5,77.5-3.4,128.2-8.7,152.1c-5.3,19.7-13.4,32.7-24.5,39c-8.4,4.9-20.7,7.5-36.7,7.6c-16,0.2-31.7-2.2-47.2-7.1
		c-4.2-1.2-7.2-3.2-9-5.8c-1.2-3.3-1.5-6.7-0.8-10c2.6-8.4,10.6-10.5,24-6.3c29.4,6.2,48.8,5.7,58.3-1.3c5.3-4.2,9.3-10.9,12.1-20
		c3.9-12.1,6.3-52.2,7.4-120.2c0-17-0.8-26.4-2.4-27.9c-1.6-2.1-4-3.2-7.4-3.2H139.9C129,195.5,115.1,213.7,98.2,227.4z
		 M136.2,315.5c-5.5-0.2-9.8-1.9-13.2-5.3c-3.9-3.9-5.7-8.2-5.5-12.9v-78.8c0-5.1,1.9-9.6,5.8-13.4c3.3-3.7,7.6-5.4,12.9-5.3h99.9
		c5.4,0,9.8,1.9,13.2,5.8c3.2,3.9,4.8,8.2,5,12.9v78.8c0,4.7-1.7,9-5,12.7c-4,3.7-8.4,5.5-13.2,5.5H136.2z M148,222.7
		c-2.6,0-4.6,0.8-5.8,2.4c-1.4,1.4-2,3.3-1.8,5.5v53.5c0,2.3,0.6,4.3,1.8,6.1c1.2,1.6,3.2,2.4,5.8,2.4h74.9c2.5-0.4,4.5-1.1,6.1-2.4
		c1.4-1.4,2.2-3.4,2.4-6.1v-53.5c0-2.6-0.8-4.6-2.4-5.8c-1.8-1.4-3.8-2.1-6.1-2.1H148z"/>
</g>
<path class="st0" d="M362.6,447.4c-0.2,0-0.4,0-0.6,0H91.9c0,0-0.1,0-0.1,0c-1.9,0-3.8-0.1-5.7-0.3c-2.3-0.2-4.5-0.6-6.7-1.1
	c-1.4-0.3-2.8-0.7-4.2-1.1c-4.5-1.3-8.7-3.2-12.7-5.5c-4.4-2.6-8.5-5.7-12.1-9.3c-4-4-7.4-8.5-10.1-13.5c-0.9-1.7-1.7-3.4-2.5-5.1
	c-0.4-0.9-0.7-1.8-1-2.7c-0.4-1.1-0.8-2.3-1.1-3.5c-0.5-1.6-0.9-3.2-1.2-4.8c-0.2-0.9-0.4-1.9-0.5-2.9c-0.2-1-0.3-2.1-0.4-3.1
	c-0.2-1.9-0.3-3.8-0.3-5.8V260.3V147.6V123c0-32.2,26.2-58.4,58.4-58.4H362c32.2,0,58.4,26.2,58.4,58.4l0,155.8
	c4.5-1.3,9.3-2,14.2-2c6.8,0,13.3,1.3,19.3,3.7v-69.2V123c0-8.2-1.1-16.2-3.1-23.8l0,0c-5.4-20.1-17.5-37.6-33.7-49.7
	c-0.1-0.1-0.2-0.1-0.3-0.2c-1.1-0.8-2.2-1.6-3.3-2.3c-0.1,0-0.1-0.1-0.2-0.1c-0.6-0.4-1.2-0.8-1.8-1.2c-0.1,0-0.1-0.1-0.2-0.1
	c-1.1-0.7-2.2-1.4-3.3-2c-0.3-0.2-0.6-0.3-0.8-0.5c-0.9-0.5-1.7-1-2.6-1.4c-0.4-0.2-0.7-0.4-1.1-0.6c-0.5-0.3-1-0.5-1.6-0.8
	c-0.7-0.3-1.3-0.6-2-0.9c-0.5-0.2-1.1-0.5-1.6-0.7c-0.5-0.2-1.1-0.5-1.6-0.7c-0.6-0.2-1.2-0.5-1.7-0.7c-0.7-0.3-1.4-0.5-2-0.8
	c-0.4-0.1-0.8-0.3-1.3-0.4c-0.9-0.3-1.8-0.6-2.6-0.9c-0.4-0.1-0.7-0.2-1.1-0.3c-0.8-0.2-1.6-0.5-2.4-0.7c-0.3-0.1-0.6-0.2-0.9-0.2
	c-0.9-0.2-1.9-0.5-2.8-0.7c-0.3-0.1-0.6-0.1-0.9-0.2c-1-0.2-2-0.4-3.1-0.6c-0.3,0-0.5-0.1-0.8-0.1c-1-0.2-2.1-0.3-3.1-0.5
	c-0.1,0-0.2,0-0.3,0c-1.1-0.1-2.3-0.3-3.4-0.4c-0.2,0-0.5,0-0.7-0.1c-1.1-0.1-2.2-0.2-3.4-0.2c-0.2,0-0.4,0-0.7,0
	c-1.2,0-2.4-0.1-3.6-0.1H91.9c-1.2,0-2.4,0-3.6,0.1c-0.2,0-0.4,0-0.7,0c-1.1,0.1-2.3,0.1-3.4,0.2c-0.2,0-0.5,0-0.7,0.1
	c-1.1,0.1-2.3,0.2-3.4,0.4c-0.1,0-0.2,0-0.3,0c-1,0.1-2.1,0.3-3.1,0.5c-0.3,0-0.5,0.1-0.8,0.1c-1,0.2-2.1,0.4-3.1,0.6
	c-0.3,0.1-0.6,0.1-0.9,0.2c-1,0.2-1.9,0.4-2.8,0.7c-0.3,0.1-0.6,0.2-0.9,0.2c-0.8,0.2-1.6,0.4-2.4,0.7c-0.4,0.1-0.7,0.2-1.1,0.3
	c-0.9,0.3-1.8,0.6-2.6,0.9c-0.4,0.1-0.8,0.3-1.3,0.4c-0.7,0.2-1.4,0.5-2,0.8c-0.6,0.2-1.2,0.5-1.7,0.7c-0.5,0.2-1.1,0.4-1.6,0.7
	c-0.5,0.2-1.1,0.5-1.6,0.7c-0.7,0.3-1.3,0.6-2,0.9c-0.5,0.3-1,0.5-1.6,0.8c-0.4,0.2-0.7,0.4-1.1,0.6c-0.9,0.5-1.7,0.9-2.6,1.4
	c-0.3,0.2-0.6,0.3-0.8,0.5c-1.1,0.6-2.2,1.3-3.3,2c-0.1,0-0.1,0.1-0.2,0.1c-0.6,0.4-1.2,0.8-1.8,1.2c-0.1,0-0.1,0.1-0.2,0.1
	c-1.1,0.8-2.2,1.5-3.3,2.3c-0.1,0.1-0.2,0.1-0.3,0.2C20.6,61.6,8.5,79.1,3.1,99.2l0,0C1.1,106.8,0,114.8,0,123v88.3V389
	c0,25.3,10.3,48.3,26.9,65c1,1,2.1,2.1,3.2,3c1.1,1,2.2,2,3.3,2.9c1.7,1.4,3.5,2.8,5.3,4c1.8,1.3,3.7,2.5,5.5,3.7
	c6.3,3.8,13.1,6.9,20.3,9.2c1.4,0.4,2.9,0.9,4.4,1.2c2.2,0.6,4.4,1.1,6.7,1.5c0.8,0.1,1.5,0.3,2.3,0.4c4.6,0.7,9.2,1.1,14,1.1
	l270.1,0c10.8,0,21.1-1.9,30.7-5.3C380.7,468.8,370.4,459,362.6,447.4z"/>
<path d="M420.4,147.6"/>
<path class="st0" d="M434.6,441.6c23.3,0,42.2-18.9,42.2-42.2V329c0-23.3-18.9-42.2-42.2-42.2c-23.3,0-42.2,18.9-42.2,42.2v70.4
	C392.4,422.7,411.3,441.6,434.6,441.6z M505,371.3h-7c-3.9,0-7,3.1-7,7v21.1c0,32.9-28.4,59.3-61.9,56
	c-29.2-2.9-50.7-29.1-50.7-58.5v-18.6c0-3.9-3.1-7-7-7h-7c-3.9,0-7,3.1-7,7V396c0,39.4,28.1,74.6,66.9,79.9v15h-24.6
	c-3.9,0-7,3.1-7,7v7c0,3.9,3.1,7,7,7h70.4c3.9,0,7-3.1,7-7v-7c0-3.9-3.1-7-7-7h-24.6V476c37.7-5.2,66.9-37.5,66.9-76.6v-21.1
	C512,374.4,508.9,371.3,505,371.3z"/>
</svg>
