<?xml version="1.0" encoding="utf-8"?>
<!-- Generator: Adobe Illustrator 25.4.1, SVG Export Plug-In . SVG Version: 6.00 Build 0)  -->
<svg version="1.1" id="圖層_1" xmlns="http://www.w3.org/2000/svg" xmlns:xlink="http://www.w3.org/1999/xlink" x="0px" y="0px"
	 viewBox="0 0 512 512" style="enable-background:new 0 0 512 512;" xml:space="preserve">
<style type="text/css">
	.st0{fill:#FFFFFF;}
</style>
<g>
	<path class="st0" d="M453.9,211.3V389c0,50.7-41.2,91.9-91.9,91.9H91.9C41.2,480.9,0,439.7,0,389V123c0-50.7,41.2-91.9,91.9-91.9
		H362c42.5,0,78.3,28.9,88.8,68.1l-30.4,48.4V123c0-32.2-26.2-58.4-58.4-58.4H91.9c-32.2,0-58.4,26.2-58.4,58.4v266
		c0,32.2,26.2,58.4,58.4,58.4H362c32.2,0,58.4-26.2,58.4-58.4V260.3"/>
	<g>
		<path class="st0" d="M80.2,181.6c0-7.1,4.2-10.6,12.5-10.6h76c8.5,0,12.8,3.5,12.8,10.6s-4.3,10.6-12.8,10.6h-76
			C84.4,192.2,80.2,188.7,80.2,181.6z M90.2,144c0-7.1,4.2-10.6,12.5-10.6h56.8c8.3,0,12.5,3.5,12.5,10.6s-4.2,10.6-12.5,10.6h-56.8
			C94.4,154.6,90.2,151.1,90.2,144z M91.3,218.4c0-6.7,4-10,12-10h55.4c8.1,0,12.2,3.4,12.2,10.3c0,6.7-4.1,10-12.2,10h-55.4
			C95.3,228.7,91.3,225.2,91.3,218.4z M91.3,255.7c0-6.9,4-10.3,12-10.3h55.4c8.1,0,12.2,3.4,12.2,10.3c0,6.7-4.1,10-12.2,10h-54.9
			C95.5,265.7,91.3,262.4,91.3,255.7z M91.9,342.8V305c0-15.2,7.7-22.8,23.1-22.8h32c15.6,0,23.4,7.6,23.4,22.8v37.3
			c0,15.4-7.8,23.1-23.4,23.1h-32C99.6,365.4,91.9,357.9,91.9,342.8z M149.2,338.9v-30.6c0-4.5-2.2-6.7-6.7-6.7h-23.1
			c-4.1,0-6.3,2.2-6.7,6.7v30.6c0,2.2,0.6,3.9,1.8,5.1c1.2,1.2,2.9,1.8,4.9,1.8h23.1C146.6,345.9,148.9,343.6,149.2,338.9z
			 M262,362.3c0-8,3.9-12,11.7-12h14.8c7,0,10.8-3.8,11.1-11.4V166.3c0-3.1-0.8-5.5-2.4-7s-3.9-2.3-7.1-2.5h-98.9
			c-8.9,0-13.4-3.6-13.4-10.9c0-7.4,4.5-11.1,13.4-11.1h106.7c8.9,0,15.4,2,19.4,6s5.7,10.4,5.1,19.1v184.6
			c1.5,21-8.5,30.9-30.1,29.8h-18.7C265.9,374.3,262,370.3,262,362.3z M185.4,194.4c0-6.7,4.3-10,12.8-10h71.6
			c8.3,0,12.5,3.4,12.5,10c0,6.9-4.2,10.3-12.5,10.3h-71.6C189.7,204.7,185.4,201.3,185.4,194.4z M194.1,319.6
			c-3.7-3.6-5.4-9.4-5-17.4v-47.1c0-8.4,1.8-14.4,5.6-18.2c3.7-3.8,9.4-5.5,17.3-5.2h41.2c8.1,0,14.1,1.9,17.8,5.6
			c3.7,3.7,5.4,9.6,5,17.8v47.1c0,8.4-1.9,14.4-5.6,18.1s-9.5,5.3-17.3,4.7h-41.2C203.7,325,197.8,323.2,194.1,319.6z M254.8,296.9
			v-37c0-5.4-3.2-8.1-9.5-8.1h-27c-5.2,0-8,2.7-8.4,8.1v37c0,5,2.8,7.7,8.4,8.1h27C251.3,305,254.4,302.3,254.8,296.9z"/>
	</g>
	<g>
		<polygon class="st0" points="337.6,325.6 373.6,308.7 459.3,181.6 487,140.4 481.3,135.8 474.9,130.7 468.6,125.6 455.1,114.7 
			445.5,129 441,135.7 436.4,142.4 404.6,189.7 341.7,283 		"/>
		<polygon class="st0" points="480.1,77.6 462.4,103.9 486,123 492.4,128.1 494.3,129.6 495.6,127.6 500.1,120.9 512,103.3 		"/>
	</g>
</g>
</svg>
