<?xml version="1.0" encoding="utf-8"?>
<!-- Generator: Adobe Illustrator 25.4.1, SVG Export Plug-In . SVG Version: 6.00 Build 0)  -->
<svg version="1.1" id="圖層_1" focusable="false" xmlns="http://www.w3.org/2000/svg" xmlns:xlink="http://www.w3.org/1999/xlink"
	 x="0px" y="0px" viewBox="0 0 576 512" style="enable-background:new 0 0 576 512;" xml:space="preserve">
<style type="text/css">
	.st0{fill:#FFFFFF;}
</style>
<path class="st0" d="M528.3,46.5H388.5c-48.1,0-89.9,33.3-100.4,80.3c-10.6-47-52.3-80.3-100.4-80.3H48c-26.5,0-48,21.5-48,48v245.8
	c0,26.5,21.5,48,48,48h89.7c102.2,0,132.7,24.4,147.3,75c0.7,2.8,5.2,2.8,6,0c14.7-50.6,45.2-75,147.3-75H528c26.5,0,48-21.5,48-48
	V94.6C576,68.2,554.7,46.7,528.3,46.5z M242,311.9c0,1.9-1.5,3.5-3.5,3.5H78.2c-1.9,0-3.5-1.5-3.5-3.5V289c0-1.9,1.5-3.5,3.5-3.5
	h160.4c1.9,0,3.5,1.5,3.5,3.5L242,311.9L242,311.9z M242,251c0,1.9-1.5,3.5-3.5,3.5H78.2c-1.9,0-3.5-1.5-3.5-3.5v-22.9
	c0-1.9,1.5-3.5,3.5-3.5h160.4c1.9,0,3.5,1.5,3.5,3.5L242,251L242,251z M242,190.1c0,1.9-1.5,3.5-3.5,3.5H78.2
	c-1.9,0-3.5-1.5-3.5-3.5v-22.9c0-1.9,1.5-3.5,3.5-3.5h160.4c1.9,0,3.5,1.5,3.5,3.5L242,190.1L242,190.1z M501.3,311.8
	c0,1.9-1.5,3.5-3.5,3.5H337.5c-1.9,0-3.5-1.5-3.5-3.5v-22.9c0-1.9,1.5-3.5,3.5-3.5h160.4c1.9,0,3.5,1.5,3.5,3.5v22.9H501.3z
	 M501.3,250.9c0,1.9-1.5,3.5-3.5,3.5H337.5c-1.9,0-3.5-1.5-3.5-3.5V228c0-1.9,1.5-3.5,3.5-3.5h160.4c1.9,0,3.5,1.5,3.5,3.5v22.9
	H501.3z M501.3,190c0,1.9-1.5,3.5-3.5,3.5H337.5c-1.9,0-3.5-1.5-3.5-3.5v-22.8c0-1.9,1.5-3.5,3.5-3.5h160.4c1.9,0,3.5,1.5,3.5,3.5
	V190H501.3z"/>
</svg>
